<svg width="300" height="300" viewBox="0 0 300 300" fill="none" xmlns="http://www.w3.org/2000/svg">
<g opacity="0.08">
<mask id="mask0" style="mask-type:alpha" maskUnits="userSpaceOnUse" x="15" y="15" width="270" height="270">
<circle cx="150.376" cy="150.376" r="134.5" transform="rotate(30.7703 150.376 150.376)" fill="#C4C4C4"/>
</mask>
<g mask="url(#mask0)">
<path d="M16.7381 256.005C16.9164 255.918 17.056 255.768 17.1296 255.584C17.2032 255.4 17.2055 255.196 17.1361 255.01C17.0607 254.825 16.915 254.678 16.7311 254.601C16.5472 254.523 16.3401 254.522 16.1555 254.598C15.9708 254.673 15.8236 254.819 15.7463 255.003C15.669 255.187 15.6679 255.394 15.7432 255.578C15.8191 255.766 15.9663 255.917 16.1528 255.997C16.3392 256.077 16.5496 256.08 16.7381 256.005Z" fill="#DF0345"/>
<path d="M16.5107 278.005C16.6003 277.968 16.6817 277.913 16.7501 277.845C16.8186 277.776 16.8729 277.694 16.9098 277.604C16.9468 277.515 16.9657 277.419 16.9655 277.321C16.9653 277.224 16.946 277.128 16.9086 277.039C16.8746 276.947 16.8219 276.863 16.7537 276.792C16.6855 276.721 16.6034 276.665 16.5126 276.628C16.4218 276.591 16.3243 276.572 16.2261 276.575C16.1279 276.577 16.0312 276.599 15.9422 276.641C15.8501 276.675 15.7658 276.728 15.6943 276.796C15.6228 276.863 15.5655 276.944 15.5258 277.034C15.4861 277.124 15.4647 277.221 15.463 277.32C15.4613 277.418 15.4793 277.516 15.5158 277.607C15.597 277.79 15.7464 277.934 15.9323 278.009C16.1182 278.083 16.3257 278.082 16.5107 278.005Z" fill="#DF0345"/>
<path d="M20.9734 161.492C21.1625 161.444 21.3391 161.356 21.4911 161.234C21.6432 161.112 21.7673 160.958 21.855 160.784C21.9427 160.61 21.9921 160.419 21.9997 160.224C22.0073 160.029 21.973 159.834 21.8992 159.654C21.8253 159.473 21.7135 159.31 21.5714 159.177C21.4294 159.043 21.2602 158.941 21.0755 158.879C20.8908 158.816 20.6948 158.793 20.5007 158.813C20.3065 158.832 20.1188 158.893 19.9502 158.991C19.7836 159.059 19.6323 159.16 19.5048 159.287C19.3774 159.415 19.2763 159.566 19.2076 159.732C19.1389 159.899 19.1039 160.077 19.1045 160.257C19.1051 160.438 19.1413 160.616 19.2111 160.782C19.2793 160.945 19.3793 161.093 19.5051 161.217C19.6309 161.341 19.78 161.439 19.9439 161.505C20.1078 161.571 20.2833 161.604 20.46 161.602C20.6367 161.6 20.8112 161.562 20.9734 161.492Z" fill="#DF0345"/>
<path d="M28.5911 182.157C28.7567 182.092 28.9074 181.994 29.0346 181.869C29.1617 181.745 29.2627 181.596 29.3316 181.432C29.4004 181.267 29.4358 181.091 29.4355 180.913C29.4353 180.735 29.3994 180.559 29.3301 180.395C29.275 180.212 29.182 180.042 29.0571 179.897C28.9322 179.752 28.7782 179.635 28.6051 179.554C28.432 179.472 28.2437 179.428 28.0524 179.424C27.8611 179.42 27.6711 179.456 27.4948 179.53C27.3184 179.604 27.1595 179.715 27.0286 179.854C26.8977 179.994 26.7976 180.159 26.7348 180.34C26.672 180.521 26.6479 180.713 26.6641 180.903C26.6803 181.094 26.7363 181.279 26.8287 181.447C26.8969 181.61 26.9969 181.757 27.1227 181.882C27.2485 182.006 27.3976 182.104 27.5615 182.17C27.7255 182.236 27.9009 182.269 28.0776 182.267C28.2543 182.264 28.4289 182.227 28.5911 182.157Z" fill="#DF0345"/>
<path d="M34.5035 203.39C34.7518 203.286 34.9637 203.11 35.1124 202.886C35.2611 202.661 35.3399 202.398 35.339 202.128C35.3381 201.859 35.2576 201.596 35.1074 201.372C34.9573 201.148 34.7442 200.974 34.4952 200.872C34.2462 200.769 33.9723 200.742 33.7082 200.795C33.444 200.847 33.2013 200.977 33.0106 201.167C32.82 201.358 32.69 201.6 32.637 201.864C32.584 202.128 32.6104 202.402 32.7128 202.651C32.857 202.983 33.1244 203.245 33.4586 203.383C33.7928 203.521 34.1675 203.524 34.5035 203.39Z" fill="#DF0345"/>
<path d="M38.6241 224.936C38.9374 224.804 39.1868 224.555 39.3195 224.242C39.4521 223.929 39.4576 223.576 39.3347 223.259C39.1968 222.944 38.9424 222.694 38.6246 222.562C38.3069 222.429 37.9503 222.425 37.6292 222.549C37.3142 222.686 37.0659 222.942 36.9382 223.262C36.8106 223.581 36.8138 223.937 36.9471 224.254C37.0091 224.412 37.1024 224.555 37.2215 224.675C37.3405 224.796 37.4827 224.891 37.6395 224.954C37.7963 225.018 37.9644 225.05 38.1337 225.046C38.3029 225.043 38.4698 225.006 38.6241 224.936Z" fill="#DF0345"/>
<path d="M40.9842 246.767C41.2081 246.674 41.3995 246.517 41.5342 246.316C41.6688 246.115 41.7405 245.878 41.7404 245.636C41.7402 245.393 41.6681 245.157 41.5331 244.956C41.3982 244.755 41.2065 244.598 40.9825 244.506C40.7584 244.414 40.5121 244.391 40.2748 244.439C40.0374 244.487 39.8197 244.605 39.6494 244.777C39.479 244.949 39.3637 245.168 39.3179 245.406C39.2722 245.644 39.2981 245.89 39.3924 246.113C39.4515 246.262 39.5401 246.398 39.6529 246.513C39.7658 246.627 39.9005 246.717 40.0492 246.778C40.1978 246.839 40.3573 246.87 40.5179 246.868C40.6786 246.866 40.8372 246.831 40.9842 246.767Z" fill="#DF0345"/>
<path d="M41.5807 268.796C41.8823 268.671 42.1221 268.432 42.2474 268.131C42.3726 267.83 42.3731 267.491 42.2488 267.19C42.1244 266.888 41.8853 266.648 41.5841 266.523C41.2829 266.398 40.9443 266.397 40.6428 266.522C40.4935 266.583 40.3578 266.674 40.2434 266.788C40.129 266.902 40.0382 267.037 39.9761 267.186C39.9141 267.335 39.8821 267.495 39.8818 267.657C39.8816 267.818 39.9132 267.978 39.9747 268.128C40.0363 268.277 40.1267 268.413 40.2408 268.527C40.3548 268.641 40.4903 268.732 40.6395 268.794C40.7886 268.856 40.9485 268.888 41.11 268.889C41.2715 268.889 41.4314 268.857 41.5807 268.796Z" fill="#DF0345"/>
<path d="M43.9408 152.766C44.2076 152.661 44.45 152.502 44.6533 152.3C44.8565 152.098 45.0163 151.856 45.1228 151.59C45.2293 151.324 45.2802 151.039 45.2724 150.752C45.2647 150.466 45.1985 150.184 45.0778 149.924C44.9663 149.662 44.8042 149.425 44.6009 149.226C44.3975 149.027 44.1569 148.87 43.8927 148.765C43.6286 148.659 43.3462 148.607 43.0618 148.61C42.7774 148.614 42.4965 148.674 42.2353 148.787C41.7189 149.001 41.309 149.413 41.0958 149.93C40.8826 150.447 40.8835 151.027 41.0983 151.544C41.3132 152.06 41.7244 152.47 42.2415 152.683C42.7585 152.896 43.3391 152.896 43.8555 152.681L43.9408 152.766Z" fill="#DF0345"/>
<path d="M51.615 173.431C51.8818 173.326 52.1243 173.167 52.3275 172.965C52.5308 172.763 52.6905 172.521 52.797 172.255C52.9035 171.989 52.9545 171.704 52.9467 171.417C52.939 171.13 52.8728 170.848 52.7521 170.588C52.6464 170.322 52.488 170.079 52.2864 169.875C52.0848 169.671 51.8442 169.51 51.5788 169.401C51.3134 169.292 51.0287 169.238 50.7419 169.242C50.4551 169.245 50.172 169.307 49.9096 169.423C49.6429 169.528 49.4004 169.686 49.1971 169.889C48.9938 170.091 48.8341 170.332 48.7276 170.599C48.6212 170.865 48.5702 171.15 48.5779 171.437C48.5857 171.723 48.6519 172.005 48.7726 172.265C48.8782 172.532 49.0366 172.775 49.2382 172.979C49.4398 173.183 49.6805 173.344 49.9459 173.453C50.2113 173.562 50.4959 173.616 50.7827 173.612C51.0695 173.608 51.3526 173.546 51.615 173.431Z" fill="#DF0345"/>
<path d="M57.7836 194.579C58.0393 194.473 58.2716 194.317 58.4671 194.121C58.6626 193.925 58.8176 193.692 58.9231 193.436C59.0287 193.18 59.0828 192.905 59.0824 192.629C59.082 192.352 59.027 192.077 58.9206 191.822C58.8142 191.566 58.6586 191.334 58.4624 191.138C58.2663 190.943 58.0335 190.788 57.7775 190.682C57.5215 190.577 57.2472 190.523 56.9702 190.523C56.6933 190.523 56.4191 190.578 56.1634 190.685C55.8992 190.793 55.6595 190.953 55.4585 191.156C55.2575 191.359 55.0993 191.6 54.9932 191.865C54.8872 192.13 54.8355 192.414 54.8412 192.7C54.8469 192.985 54.9099 193.267 55.0264 193.527C55.2561 194.029 55.6739 194.421 56.1897 194.618C56.7055 194.814 57.278 194.801 57.7836 194.579Z" fill="#DF0345"/>
<path d="M62.2744 216.182C62.8059 215.963 63.2288 215.542 63.45 215.012C63.6713 214.481 63.6727 213.885 63.4541 213.353C63.2355 212.822 62.8146 212.399 62.2842 212.178C61.7538 211.956 61.1573 211.955 60.6258 212.174C60.3626 212.282 60.1234 212.441 59.9217 212.642C59.72 212.842 59.5597 213.081 59.4502 213.343C59.229 213.874 59.2275 214.47 59.4461 215.002C59.6647 215.533 60.0856 215.956 60.616 216.177C61.1464 216.399 61.7429 216.4 62.2744 216.182Z" fill="#DF0345"/>
<path d="M65.2019 238.069C65.6135 237.909 65.9679 237.629 66.2196 237.266C66.4713 236.903 66.6089 236.473 66.6147 236.032C66.6205 235.59 66.4944 235.157 66.2524 234.788C66.0104 234.418 65.6635 234.129 65.2563 233.958C64.8491 233.787 64.4001 233.742 63.9669 233.828C63.5337 233.913 63.136 234.127 62.8248 234.44C62.5135 234.753 62.303 235.153 62.2201 235.586C62.1372 236.02 62.1857 236.469 62.3595 236.875C62.5858 237.404 63.0089 237.824 63.5393 238.047C64.0697 238.269 64.6658 238.277 65.2019 238.069Z" fill="#DF0345"/>
<path d="M66.3104 259.956C66.5771 259.85 66.8196 259.692 67.0228 259.49C67.2261 259.288 67.3859 259.046 67.4924 258.78C67.5989 258.514 67.6498 258.228 67.642 257.942C67.6343 257.655 67.5681 257.373 67.4474 257.113C67.3417 256.846 67.1834 256.604 66.9818 256.4C66.7802 256.196 66.5394 256.035 66.274 255.926C66.0086 255.817 65.724 255.763 65.4372 255.767C65.1504 255.77 64.8673 255.832 64.6049 255.948C64.3381 256.053 64.0957 256.211 63.8924 256.414C63.6892 256.616 63.5293 256.857 63.4229 257.124C63.3164 257.39 63.2655 257.675 63.2732 257.961C63.281 258.248 63.3472 258.53 63.4679 258.79C63.5735 259.057 63.7318 259.299 63.9335 259.504C64.1351 259.708 64.3758 259.869 64.6412 259.978C64.9066 260.086 65.1912 260.141 65.4781 260.137C65.7649 260.133 66.048 260.071 66.3104 259.956Z" fill="#DF0345"/>
<path d="M65.9126 281.644C66.3461 281.463 66.6899 281.117 66.8685 280.683C67.0471 280.248 67.0458 279.761 66.8649 279.327C66.684 278.894 66.3382 278.55 65.9037 278.371C65.4693 278.193 64.9817 278.194 64.5483 278.375C64.1122 278.557 63.7658 278.905 63.5848 279.341C63.4037 279.778 63.4027 280.268 63.5818 280.706C63.7752 281.132 64.1252 281.467 64.5593 281.642C64.9934 281.816 65.478 281.817 65.9126 281.644Z" fill="#DF0345"/>
<path d="M24.0707 113.568C24.4629 113.401 24.7971 113.122 25.0311 112.766C25.2651 112.41 25.3886 111.992 25.3859 111.566C25.3831 111.14 25.2544 110.724 25.0158 110.371C24.7773 110.018 24.4395 109.743 24.0452 109.581C23.6508 109.419 23.2174 109.378 22.7995 109.462C22.3817 109.546 21.9981 109.752 21.6969 110.054C21.3958 110.355 21.1906 110.739 21.1072 111.157C21.0238 111.575 21.0659 112.009 21.2283 112.403C21.4541 112.931 21.8787 113.35 22.4106 113.568C22.9424 113.786 23.5388 113.786 24.0707 113.568Z" fill="#DF0345"/>
<path d="M34.7593 132.84C35.1613 132.678 35.5061 132.4 35.7499 132.041C35.9936 131.682 36.1254 131.26 36.1284 130.826C36.1314 130.392 36.0055 129.968 35.7667 129.606C35.528 129.244 35.1871 128.961 34.7873 128.793C34.3875 128.625 33.9468 128.58 33.5211 128.662C33.0955 128.745 32.7042 128.953 32.3967 129.259C32.0891 129.564 31.8793 129.954 31.7939 130.38C31.7084 130.805 31.7512 131.246 31.9168 131.646C32.0229 131.913 32.1811 132.156 32.3821 132.361C32.5831 132.566 32.823 132.729 33.0876 132.84C33.3522 132.951 33.6364 133.008 33.9234 133.008C34.2104 133.008 34.4945 132.951 34.7593 132.84Z" fill="#DF0345"/>
<path d="M66.9069 144.125C67.6231 143.827 68.1916 143.257 68.4875 142.54C68.7834 141.823 68.7823 141.018 68.4846 140.302C68.1868 139.586 67.6167 139.017 66.8997 138.721C66.1827 138.425 65.3776 138.427 64.6614 138.724C64.3001 138.861 63.9706 139.07 63.6928 139.339C63.4151 139.608 63.1949 139.93 63.046 140.286C62.897 140.643 62.8223 141.026 62.8263 141.412C62.8304 141.799 62.9131 142.18 63.0696 142.533C63.2061 142.898 63.4162 143.231 63.6868 143.511C63.9574 143.792 64.2828 144.013 64.6426 144.162C65.0024 144.312 65.3891 144.385 65.7786 144.379C66.1681 144.373 66.5522 144.286 66.9069 144.125Z" fill="#DF0345"/>
<path d="M74.6678 164.79C75.1649 164.555 75.5832 164.18 75.8719 163.712C76.1607 163.244 76.3074 162.702 76.2944 162.153C76.2814 161.603 76.1091 161.069 75.7986 160.615C75.488 160.161 75.0524 159.807 74.5447 159.596C74.0369 159.384 73.4788 159.325 72.9379 159.424C72.3971 159.524 71.8967 159.778 71.4975 160.157C71.0984 160.535 70.8175 161.021 70.689 161.556C70.5605 162.091 70.59 162.651 70.7737 163.169C70.9064 163.544 71.1163 163.887 71.3897 164.175C71.6631 164.464 71.9939 164.692 72.3609 164.844C72.7279 164.997 73.1228 165.071 73.5201 165.062C73.9175 165.052 74.3084 164.96 74.6678 164.79Z" fill="#DF0345"/>
<path d="M81.0346 186.023C81.6048 185.784 82.0914 185.381 82.4328 184.866C82.7742 184.35 82.9551 183.745 82.9527 183.127C82.9502 182.508 82.7644 181.905 82.4188 181.392C82.0733 180.879 81.5835 180.48 81.0114 180.246C80.4392 180.011 79.8104 179.952 79.2044 180.075C78.5984 180.198 78.0425 180.498 77.6069 180.936C77.1713 181.375 76.8756 181.933 76.7571 182.54C76.6387 183.147 76.7028 183.775 76.9414 184.346C77.0999 184.725 77.3316 185.069 77.6231 185.358C77.9147 185.648 78.2603 185.877 78.6405 186.032C79.0206 186.188 79.4277 186.268 79.8385 186.266C80.2493 186.264 80.6557 186.182 81.0346 186.023Z" fill="#DF0345"/>
<path d="M85.895 207.569C86.4841 207.328 86.9883 206.918 87.3439 206.39C87.6994 205.862 87.8901 205.241 87.8918 204.604C87.8935 203.968 87.7062 203.345 87.3535 202.815C87.0008 202.286 86.4987 201.873 85.9109 201.629C85.3231 201.385 84.6761 201.321 84.052 201.446C83.4279 201.57 82.8548 201.877 82.4054 202.327C81.956 202.778 81.6506 203.352 81.528 203.977C81.4053 204.601 81.471 205.248 81.7166 205.835C82.0435 206.617 82.6661 207.238 83.4487 207.562C84.2313 207.887 85.1107 207.889 85.895 207.569Z" fill="#DF0345"/>
<path d="M89.2777 229.456C89.8848 229.203 90.4034 228.776 90.7677 228.228C91.132 227.68 91.3256 227.037 91.3242 226.379C91.3229 225.721 91.1265 225.079 90.76 224.533C90.3934 223.986 89.873 223.561 89.2648 223.311C88.6566 223.06 87.9878 222.996 87.343 223.126C86.6981 223.255 86.1062 223.573 85.6421 224.039C85.1779 224.505 84.8624 225.099 84.7354 225.744C84.6084 226.389 84.6757 227.058 84.9287 227.665C85.2679 228.479 85.9167 229.125 86.7323 229.461C87.5479 229.797 88.4635 229.795 89.2777 229.456Z" fill="#DF0345"/>
<path d="M91.1819 251.599C91.8259 251.332 92.3763 250.88 92.7635 250.3C93.1506 249.72 93.3572 249.039 93.3569 248.341C93.3566 247.644 93.1496 246.963 92.762 246.383C92.3744 245.804 91.8236 245.352 91.1793 245.086C90.5351 244.819 89.8262 244.75 89.1425 244.886C88.4588 245.023 87.8309 245.359 87.3383 245.852C86.8456 246.346 86.5103 246.974 86.3748 247.658C86.2393 248.342 86.3097 249.05 86.5771 249.694C86.9414 250.552 87.6283 251.233 88.4896 251.589C89.351 251.945 90.3179 251.949 91.1819 251.599Z" fill="#DF0345"/>
<path d="M91.4103 273.372C92.0049 273.121 92.512 272.7 92.8675 272.161C93.2229 271.622 93.4109 270.99 93.4077 270.345C93.4045 269.699 93.2103 269.069 92.8495 268.534C92.4888 267.998 91.9776 267.582 91.3805 267.337C90.7834 267.092 90.127 267.029 89.4942 267.156C88.8614 267.283 88.2805 267.595 87.8246 268.052C87.3688 268.509 87.0584 269.091 86.9327 269.724C86.807 270.357 86.8715 271.013 87.1182 271.61C87.4571 272.41 88.098 273.044 88.9018 273.374C89.7055 273.704 90.6069 273.703 91.4103 273.372Z" fill="#DF0345"/>
<path d="M22.6505 69.112C23.319 68.8329 23.8898 68.3622 24.291 67.759C24.6922 67.1559 24.9059 66.4475 24.9049 65.7231C24.9039 64.9987 24.6884 64.2909 24.2856 63.6888C23.8827 63.0868 23.3105 62.6176 22.6413 62.3404C21.972 62.0632 21.2357 61.9904 20.5251 62.1313C19.8146 62.2721 19.1616 62.6203 18.6487 63.1318C18.1358 63.6433 17.7859 64.2953 17.6432 65.0055C17.5004 65.7157 17.5713 66.4522 17.8467 67.1222C18.2238 68.0198 18.9399 68.7324 19.8394 69.1049C20.7389 69.4775 21.7491 69.48 22.6505 69.112Z" fill="#DF0345"/>
<path d="M35.5258 86.3942C36.1149 86.1535 36.6192 85.7432 36.9747 85.2153C37.3302 84.6875 37.5209 84.066 37.5226 83.4296C37.5243 82.7932 37.337 82.1707 36.9843 81.6409C36.6316 81.1112 36.1295 80.6982 35.5417 80.4543C34.9539 80.2104 34.307 80.1466 33.6829 80.2709C33.0587 80.3953 32.4856 80.7023 32.0363 81.1529C31.5869 81.6035 31.2815 82.1775 31.1588 82.802C31.0362 83.4264 31.1019 84.0732 31.3474 84.6603C31.5063 85.0498 31.7407 85.404 32.0372 85.7024C32.3338 86.0007 32.6865 86.2373 33.075 86.3986C33.4636 86.5598 33.8802 86.6424 34.3008 86.6417C34.7215 86.6409 35.1379 86.5569 35.5258 86.3942Z" fill="#DF0345"/>
<path d="M47.2664 104.785C47.7636 104.55 48.1819 104.176 48.4707 103.708C48.7594 103.24 48.9062 102.698 48.8931 102.148C48.8801 101.598 48.7079 101.064 48.3973 100.61C48.0867 100.156 47.6511 99.8021 47.1433 99.5909C46.6355 99.3796 46.0774 99.3202 45.5365 99.4198C44.9957 99.5194 44.4954 99.7738 44.0962 100.152C43.697 100.53 43.4162 101.016 43.2877 101.551C43.1592 102.086 43.1885 102.646 43.3722 103.165C43.505 103.539 43.7149 103.882 43.9883 104.171C44.2617 104.459 44.5926 104.687 44.9596 104.84C45.3266 104.992 45.7214 105.066 46.1188 105.057C46.5161 105.048 46.9071 104.955 47.2664 104.785Z" fill="#DF0345"/>
<path d="M57.7834 124.086C58.2914 123.861 58.7224 123.492 59.023 123.024C59.3236 122.557 59.4807 122.012 59.4749 121.457C59.469 120.901 59.3005 120.359 58.9901 119.899C58.6798 119.438 58.2412 119.078 57.7286 118.864C57.216 118.65 56.6518 118.59 56.1059 118.693C55.5599 118.796 55.0561 119.057 54.6567 119.443C54.2573 119.829 53.9798 120.324 53.8585 120.866C53.7373 121.408 53.7776 121.974 53.9745 122.494C54.1114 122.855 54.3205 123.185 54.5891 123.462C54.8577 123.74 55.18 123.96 55.5365 124.109C55.8929 124.258 56.2761 124.333 56.6624 124.329C57.0487 124.325 57.4302 124.242 57.7834 124.086Z" fill="#DF0345"/>
<path d="M89.8744 135.455C90.5615 135.172 91.1491 134.692 91.5627 134.074C91.9763 133.457 92.1972 132.731 92.1975 131.988C92.1978 131.245 91.9774 130.518 91.5643 129.9C91.1512 129.283 90.5639 128.802 89.877 128.518C89.1901 128.234 88.4346 128.161 87.706 128.308C86.9775 128.454 86.3089 128.814 85.7849 129.341C85.2609 129.868 84.9052 130.538 84.7628 131.268C84.6205 131.997 84.6979 132.752 84.9853 133.437C85.3686 134.351 86.0978 135.076 87.0138 135.454C87.9298 135.832 88.9581 135.833 89.8744 135.455Z" fill="#DF0345"/>
<path d="M97.834 156.433C98.5915 156.118 99.2386 155.585 99.6935 154.902C100.148 154.22 100.391 153.417 100.39 152.597C100.389 151.776 100.145 150.975 99.6887 150.293C99.2324 149.611 98.5842 149.08 97.826 148.766C97.0679 148.453 96.2339 148.371 95.4293 148.531C94.6246 148.691 93.8855 149.087 93.3054 149.667C92.7253 150.247 92.3301 150.986 92.1698 151.79C92.0095 152.595 92.0913 153.429 92.4049 154.187C92.6135 154.692 92.9194 155.15 93.3053 155.536C93.6912 155.922 94.1494 156.228 94.6537 156.436C95.158 156.645 95.6985 156.752 96.2442 156.751C96.79 156.751 97.3302 156.642 97.834 156.433Z" fill="#DF0345"/>
<path d="M104.457 177.865C105.285 177.518 105.991 176.933 106.487 176.185C106.984 175.437 107.247 174.559 107.245 173.661C107.243 172.763 106.976 171.886 106.476 171.14C105.977 170.394 105.267 169.813 104.438 169.469C103.609 169.126 102.696 169.035 101.815 169.209C100.935 169.383 100.125 169.814 99.4891 170.448C98.8528 171.081 98.4181 171.888 98.2399 172.768C98.0617 173.648 98.1479 174.561 98.4876 175.392C98.7149 175.948 99.0501 176.454 99.4739 176.879C99.8977 177.305 100.402 177.643 100.957 177.873C101.512 178.103 102.107 178.22 102.707 178.219C103.308 178.218 103.903 178.097 104.457 177.865Z" fill="#DF0345"/>
<path d="M109.602 199.411C110.457 199.054 111.187 198.451 111.7 197.678C112.213 196.906 112.486 195.999 112.484 195.072C112.481 194.145 112.204 193.239 111.688 192.469C111.171 191.7 110.438 191.1 109.58 190.747C108.723 190.394 107.78 190.303 106.871 190.485C105.962 190.667 105.128 191.115 104.473 191.771C103.818 192.428 103.373 193.263 103.193 194.173C103.013 195.082 103.106 196.025 103.462 196.881C103.698 197.451 104.045 197.968 104.481 198.404C104.918 198.84 105.437 199.185 106.007 199.42C106.577 199.655 107.188 199.775 107.805 199.773C108.422 199.772 109.032 199.649 109.602 199.411Z" fill="#DF0345"/>
<path d="M113.352 221.184C114.227 220.825 114.975 220.215 115.502 219.43C116.029 218.645 116.312 217.722 116.313 216.777C116.315 215.832 116.037 214.907 115.513 214.12C114.989 213.334 114.243 212.72 113.37 212.357C112.498 211.995 111.537 211.899 110.61 212.083C109.682 212.267 108.831 212.721 108.162 213.39C107.494 214.058 107.038 214.909 106.854 215.837C106.67 216.764 106.765 217.725 107.127 218.598C107.612 219.765 108.539 220.692 109.706 221.177C110.872 221.662 112.184 221.664 113.352 221.184Z" fill="#DF0345"/>
<path d="M115.712 243.213C116.604 242.842 117.367 242.214 117.902 241.41C118.438 240.606 118.724 239.66 118.722 238.694C118.721 237.727 118.434 236.783 117.896 235.979C117.358 235.176 116.594 234.551 115.701 234.181C114.808 233.812 113.825 233.716 112.877 233.905C111.929 234.094 111.058 234.56 110.375 235.244C109.692 235.927 109.227 236.798 109.038 237.746C108.85 238.694 108.946 239.677 109.316 240.57C109.819 241.764 110.773 242.712 111.97 243.207C113.168 243.702 114.513 243.704 115.712 243.213Z" fill="#DF0345"/>
<path d="M116.623 265.214C117.515 264.843 118.278 264.215 118.814 263.411C119.349 262.606 119.635 261.661 119.634 260.694C119.632 259.728 119.345 258.783 118.807 257.98C118.269 257.177 117.505 256.551 116.612 256.182C115.719 255.813 114.736 255.717 113.788 255.906C112.84 256.095 111.97 256.561 111.286 257.244C110.603 257.928 110.138 258.799 109.949 259.747C109.761 260.695 109.858 261.678 110.227 262.571C110.473 263.165 110.834 263.704 111.288 264.158C111.743 264.613 112.283 264.973 112.877 265.219C113.471 265.464 114.108 265.59 114.75 265.589C115.393 265.589 116.03 265.461 116.623 265.214Z" fill="#DF0345"/>
<path d="M115.883 286.675C116.658 286.339 117.317 285.783 117.777 285.075C118.237 284.367 118.478 283.539 118.47 282.694C118.462 281.85 118.204 281.027 117.731 280.328C117.257 279.629 116.587 279.085 115.806 278.765C115.025 278.445 114.166 278.362 113.338 278.527C112.51 278.692 111.749 279.098 111.151 279.694C110.552 280.289 110.142 281.048 109.973 281.875C109.804 282.702 109.882 283.561 110.198 284.344C110.41 284.878 110.726 285.363 111.13 285.771C111.533 286.179 112.014 286.501 112.545 286.719C113.076 286.937 113.645 287.045 114.219 287.037C114.792 287.03 115.358 286.907 115.883 286.675Z" fill="#DF0345"/>
<path d="M17.9877 27.8394C19.0206 27.4016 19.9009 26.6679 20.5176 25.7308C21.1344 24.7937 21.4601 23.6951 21.4537 22.5732C21.4474 21.4514 21.1093 20.3565 20.482 19.4264C19.8547 18.4964 18.9661 17.7727 17.9284 17.3465C16.8906 16.9204 15.75 16.8108 14.6501 17.0316C13.5502 17.2524 12.5402 17.7937 11.7473 18.5873C10.9544 19.3809 10.414 20.3914 10.1942 21.4915C9.97438 22.5916 10.0849 23.7322 10.512 24.7696C10.7981 25.4645 11.2192 26.0958 11.7508 26.627C12.2825 27.1582 12.9142 27.5787 13.6094 27.8642C14.3046 28.1497 15.0495 28.2945 15.801 28.2902C16.5526 28.286 17.2958 28.1327 17.9877 27.8394Z" fill="#DF0345"/>
<path d="M32.7689 43.6434C33.7411 43.2398 34.5714 42.5566 35.1548 41.6804C35.7382 40.8043 36.0484 39.7747 36.0459 38.7221C36.0435 37.6695 35.7286 36.6414 35.1412 35.7679C34.5537 34.8945 33.7202 34.2151 32.7462 33.816C31.7722 33.4168 30.7017 33.3158 29.6703 33.5258C28.6388 33.7357 27.6929 34.2472 26.9524 34.9953C26.212 35.7435 25.7104 36.6946 25.5111 37.7281C25.3119 38.7617 25.424 39.8312 25.8332 40.8009C26.3793 42.0949 27.4152 43.1202 28.7148 43.6528C30.0143 44.1854 31.4718 44.182 32.7689 43.6434Z" fill="#DF0345"/>
<path d="M46.413 60.3573C47.2964 59.992 48.0516 59.373 48.5831 58.5784C49.1145 57.7839 49.3984 56.8496 49.3988 55.8937C49.3992 54.9378 49.1161 54.0032 48.5852 53.2083C48.0544 52.4133 47.2997 51.7937 46.4166 51.4277C45.5335 51.0618 44.5617 50.9659 43.6242 51.1524C42.6866 51.3388 41.8254 51.7991 41.1495 52.4751C40.4736 53.151 40.0134 54.0123 39.8271 54.9498C39.6407 55.8874 39.7367 56.8592 40.1027 57.7422C40.5932 58.9254 41.5334 59.8655 42.7166 60.3558C43.8999 60.8462 45.2294 60.8467 46.413 60.3573Z" fill="#DF0345"/>
<path d="M58.9776 77.611C59.7351 77.2959 60.3821 76.7633 60.837 76.0805C61.2919 75.3978 61.5342 74.5955 61.5334 73.7751C61.5325 72.9547 61.2886 72.1529 60.8322 71.4711C60.3759 70.7893 59.7277 70.2581 58.9696 69.9445C58.2115 69.6309 57.3774 69.5491 56.5727 69.7093C55.7681 69.8696 55.0291 70.2647 54.449 70.8449C53.8688 71.425 53.4736 72.164 53.3134 72.9687C53.1531 73.7733 53.2349 74.6073 53.5484 75.3655C53.757 75.8698 54.063 76.328 54.4489 76.7139C54.8347 77.0998 55.2929 77.4058 55.7972 77.6144C56.3015 77.8229 56.842 77.93 57.3877 77.9294C57.9334 77.9289 58.4737 77.8207 58.9776 77.611Z" fill="#DF0345"/>
<path d="M70.4599 96.0869C71.1653 95.794 71.7681 95.2986 72.1922 94.6633C72.6163 94.028 72.8427 93.2813 72.8428 92.5175C72.8429 91.7537 72.6168 91.0069 72.1929 90.3715C71.769 89.7361 71.1663 89.2405 70.461 88.9473C69.7557 88.6541 68.9794 88.5764 68.2299 88.724C67.4805 88.8716 66.7917 89.238 66.2503 89.7768C65.7088 90.3155 65.3391 91.0027 65.1879 91.7514C65.0366 92.5001 65.1105 93.2768 65.4003 93.9835C65.5935 94.4546 65.8778 94.8829 66.237 95.2438C66.5961 95.6046 67.023 95.891 67.4931 96.0865C67.9633 96.2819 68.4673 96.3826 68.9765 96.3827C69.4856 96.3827 69.9897 96.2822 70.4599 96.0869Z" fill="#DF0345"/>
<path d="M80.75 115.33C81.4184 115.051 81.9893 114.581 82.3906 113.978C82.7918 113.374 83.0053 112.666 83.0044 111.942C83.0034 111.217 82.7879 110.509 82.3851 109.907C81.9822 109.305 81.4101 108.836 80.7408 108.559C80.0716 108.282 79.3353 108.209 78.6247 108.35C77.9142 108.491 77.2612 108.839 76.7483 109.35C76.2354 109.862 75.8855 110.514 75.7428 111.224C75.6 111.934 75.6709 112.671 75.9463 113.341C76.3234 114.238 77.0395 114.951 77.939 115.323C78.8385 115.696 79.8486 115.699 80.75 115.33Z" fill="#DF0345"/>
<path d="M113.098 127.354C114.043 126.965 114.852 126.305 115.422 125.457C115.992 124.609 116.298 123.611 116.302 122.589C116.305 121.567 116.006 120.567 115.442 119.715C114.878 118.863 114.074 118.197 113.132 117.801C112.19 117.406 111.152 117.298 110.149 117.491C109.145 117.685 108.222 118.171 107.494 118.889C106.767 119.607 106.269 120.524 106.062 121.524C105.855 122.525 105.95 123.565 106.333 124.512C106.589 125.144 106.967 125.719 107.446 126.205C107.925 126.69 108.496 127.076 109.124 127.34C109.753 127.604 110.428 127.742 111.11 127.744C111.792 127.746 112.468 127.614 113.098 127.354Z" fill="#DF0345"/>
<path d="M121.199 148.474C122.27 148.03 123.184 147.279 123.827 146.315C124.471 145.352 124.814 144.219 124.813 143.06C124.812 141.901 124.467 140.769 123.822 139.806C123.178 138.844 122.262 138.094 121.191 137.652C120.12 137.21 118.942 137.096 117.805 137.324C116.669 137.551 115.626 138.111 114.809 138.932C113.991 139.753 113.435 140.798 113.212 141.935C112.988 143.072 113.107 144.249 113.553 145.319C113.845 146.03 114.276 146.676 114.819 147.22C115.363 147.764 116.008 148.195 116.719 148.488C117.43 148.782 118.192 148.931 118.961 148.929C119.729 148.926 120.49 148.772 121.199 148.474Z" fill="#DF0345"/>
<path d="M127.964 170.02C129.123 169.54 130.114 168.727 130.811 167.683C131.508 166.64 131.879 165.413 131.879 164.159C131.878 162.904 131.505 161.678 130.807 160.635C130.108 159.593 129.116 158.781 127.956 158.303C126.796 157.824 125.521 157.701 124.291 157.948C123.06 158.196 121.931 158.802 121.046 159.692C120.162 160.581 119.56 161.713 119.319 162.945C119.078 164.176 119.208 165.451 119.692 166.609C120.01 167.377 120.476 168.075 121.064 168.663C121.652 169.251 122.35 169.717 123.119 170.034C123.888 170.351 124.711 170.512 125.543 170.51C126.374 170.508 127.197 170.341 127.964 170.02Z" fill="#DF0345"/>
<path d="M133.365 191.566C134.561 191.072 135.584 190.234 136.304 189.159C137.024 188.083 137.408 186.818 137.408 185.524C137.409 184.23 137.025 182.965 136.306 181.889C135.586 180.813 134.564 179.975 133.368 179.481C132.172 178.986 130.856 178.858 129.587 179.112C128.318 179.366 127.153 179.991 126.24 180.908C125.326 181.825 124.705 182.992 124.456 184.262C124.206 185.531 124.339 186.847 124.838 188.041C125.161 188.836 125.64 189.559 126.245 190.168C126.851 190.776 127.571 191.259 128.364 191.586C129.158 191.914 130.008 192.081 130.867 192.078C131.725 192.074 132.574 191.9 133.365 191.566Z" fill="#DF0345"/>
<path d="M137.372 213.367C138.596 212.866 139.644 212.012 140.382 210.914C141.12 209.817 141.516 208.524 141.519 207.201C141.522 205.879 141.132 204.585 140.398 203.483C139.665 202.382 138.621 201.524 137.399 201.017C136.178 200.51 134.833 200.377 133.535 200.635C132.238 200.893 131.046 201.531 130.112 202.467C129.177 203.403 128.541 204.596 128.285 205.894C128.029 207.192 128.165 208.536 128.674 209.757C129.353 211.386 130.649 212.68 132.278 213.356C133.908 214.032 135.739 214.036 137.372 213.367Z" fill="#DF0345"/>
<path d="M140.214 234.97C141.383 234.487 142.382 233.667 143.085 232.616C143.788 231.565 144.164 230.329 144.164 229.064C144.165 227.799 143.79 226.563 143.088 225.511C142.386 224.459 141.388 223.638 140.22 223.154C139.052 222.669 137.766 222.541 136.526 222.787C135.285 223.033 134.145 223.641 133.25 224.535C132.355 225.428 131.745 226.567 131.497 227.807C131.249 229.048 131.375 230.334 131.857 231.502C132.178 232.279 132.649 232.985 133.243 233.579C133.836 234.174 134.541 234.646 135.317 234.968C136.093 235.29 136.925 235.456 137.766 235.456C138.606 235.457 139.438 235.292 140.214 234.97Z" fill="#DF0345"/>
<path d="M141.352 256.488C142.428 256.034 143.345 255.271 143.989 254.297C144.632 253.322 144.972 252.179 144.966 251.011C144.96 249.843 144.609 248.703 143.956 247.735C143.303 246.767 142.378 246.014 141.298 245.57C140.218 245.127 139.03 245.014 137.885 245.245C136.741 245.475 135.69 246.04 134.866 246.867C134.042 247.694 133.481 248.747 133.254 249.893C133.027 251.038 133.145 252.225 133.592 253.304C133.891 254.024 134.329 254.678 134.881 255.228C135.433 255.779 136.089 256.214 136.81 256.51C137.531 256.806 138.304 256.956 139.083 256.953C139.863 256.949 140.634 256.791 141.352 256.488Z" fill="#DF0345"/>
<path d="M141.409 278.404C142.432 277.958 143.301 277.221 143.908 276.284C144.514 275.348 144.832 274.254 144.822 273.138C144.811 272.023 144.472 270.935 143.848 270.01C143.223 269.086 142.341 268.365 141.31 267.939C140.278 267.512 139.145 267.399 138.05 267.612C136.954 267.826 135.946 268.357 135.151 269.139C134.355 269.921 133.808 270.92 133.576 272.012C133.344 273.103 133.439 274.239 133.848 275.277C134.128 275.987 134.548 276.634 135.084 277.178C135.619 277.723 136.259 278.154 136.965 278.446C137.67 278.738 138.427 278.884 139.191 278.877C139.955 278.87 140.709 278.709 141.409 278.404Z" fill="#DF0345"/>
<path d="M41.9222 17.237C42.9266 16.8061 43.7803 16.0863 44.3749 15.1692C44.9695 14.252 45.278 13.1789 45.2615 12.086C45.245 10.9932 44.9041 9.92984 44.2821 9.03111C43.66 8.13238 42.7849 7.43878 41.7678 7.03838C40.7508 6.63797 39.6378 6.54883 38.57 6.78227C37.5022 7.01572 36.5279 7.56122 35.7707 8.3495C35.0136 9.13778 34.5078 10.1333 34.3176 11.2096C34.1273 12.2859 34.2612 13.3945 34.7023 14.3946C35.2886 15.7239 36.3758 16.7682 37.7277 17.3005C39.0796 17.8327 40.587 17.8099 41.9222 17.237Z" fill="#DF0345"/>
<path d="M56.3903 33.496C57.344 33.0985 58.1587 32.4276 58.7315 31.5677C59.3043 30.7078 59.6095 29.6975 59.6087 28.6642C59.608 27.631 59.3012 26.6212 58.7272 25.7622C58.1531 24.9031 57.3374 24.2333 56.3831 23.8373C55.4288 23.4414 54.3785 23.3369 53.3649 23.5372C52.3513 23.7374 51.4197 24.2334 50.6877 24.9625C49.9556 25.6917 49.4559 26.6213 49.2517 27.6341C49.0474 28.647 49.1477 29.6976 49.5399 30.6535C49.8015 31.2911 50.1866 31.8708 50.673 32.3591C51.1594 32.8474 51.7376 33.2348 52.3742 33.4989C53.0108 33.7631 53.6933 33.8988 54.3825 33.8983C55.0717 33.8978 55.7541 33.761 56.3903 33.496Z" fill="#DF0345"/>
<path d="M69.7217 50.3517C70.5772 49.9943 71.3075 49.3914 71.8205 48.6191C72.3334 47.8468 72.606 46.9397 72.6038 46.0126C72.6015 45.0855 72.3245 44.1798 71.8077 43.41C71.291 42.6402 70.5577 42.0409 69.7005 41.6877C68.8433 41.3345 67.9006 41.2432 66.9915 41.4255C66.0825 41.6078 65.2479 42.0555 64.5931 42.7119C63.9384 43.3683 63.4928 44.2041 63.3128 45.1136C63.1329 46.0231 63.2265 46.9655 63.5819 47.8219C63.8184 48.3916 64.1648 48.9091 64.6015 49.3447C65.0382 49.7803 65.5566 50.1255 66.1269 50.3605C66.6973 50.5954 67.3083 50.7156 67.9252 50.7141C68.542 50.7126 69.1525 50.5895 69.7217 50.3517Z" fill="#DF0345"/>
<path d="M82.1429 68.2879C82.9649 67.9486 83.6677 67.373 84.1622 66.6339C84.6568 65.8948 84.9208 65.0255 84.9207 64.1363C84.9207 63.247 84.6567 62.3777 84.1622 61.6387C83.6676 60.8996 82.9648 60.324 82.1427 59.9848C81.3207 59.6456 80.4163 59.5581 79.5445 59.7333C78.6727 59.9086 77.8725 60.3387 77.2454 60.9692C76.6183 61.5998 76.1924 62.4023 76.0218 63.275C75.8513 64.1478 75.9437 65.0516 76.2874 65.8718C76.5114 66.4163 76.841 66.9111 77.2572 67.3276C77.6733 67.7442 78.1678 68.0742 78.7121 68.2988C79.2564 68.5234 79.8398 68.6381 80.4286 68.6362C81.0174 68.6343 81.6 68.5159 82.1429 68.2879Z" fill="#DF0345"/>
<path d="M93.6268 87.3892C94.4913 87.0257 95.2289 86.4142 95.7463 85.632C96.2636 84.8498 96.5377 83.9319 96.5339 82.9941C96.5301 82.0562 96.2486 81.1406 95.7249 80.3626C95.2012 79.5846 94.4588 78.9791 93.5913 78.6227C92.7239 78.2662 91.7703 78.1746 90.8509 78.3596C89.9314 78.5445 89.0874 78.9976 88.4253 79.6618C87.7631 80.3259 87.3126 81.1713 87.1304 82.0913C86.9483 83.0113 87.0428 83.9646 87.4019 84.8309C87.6413 85.4087 87.9925 85.9334 88.4354 86.375C88.8783 86.8165 89.4042 87.1662 89.9826 87.4039C90.5611 87.6416 91.1808 87.7627 91.8062 87.7602C92.4316 87.7577 93.0503 87.6316 93.6268 87.3892Z" fill="#DF0345"/>
<path d="M103.945 107.031C104.834 106.655 105.592 106.025 106.123 105.219C106.655 104.414 106.936 103.469 106.931 102.504C106.927 101.539 106.637 100.597 106.098 99.7966C105.559 98.9961 104.795 98.373 103.903 98.0058C103.011 97.6386 102.029 97.5436 101.083 97.733C100.137 97.9223 99.2678 98.3874 98.5854 99.0698C97.903 99.7521 97.4378 100.621 97.2484 101.567C97.059 102.514 97.1539 103.495 97.5211 104.387C98.0295 105.584 98.9886 106.532 100.191 107.027C101.393 107.521 102.742 107.523 103.945 107.031Z" fill="#DF0345"/>
<path d="M136.462 119.623C137.738 119.091 138.827 118.193 139.593 117.042C140.358 115.891 140.766 114.539 140.763 113.157C140.761 111.775 140.349 110.425 139.58 109.276C138.81 108.128 137.718 107.234 136.44 106.706C135.163 106.178 133.758 106.041 132.402 106.312C131.047 106.582 129.802 107.248 128.825 108.226C127.848 109.204 127.182 110.449 126.913 111.804C126.643 113.16 126.781 114.565 127.309 115.842C127.661 116.692 128.177 117.465 128.828 118.115C129.479 118.765 130.251 119.281 131.101 119.632C131.952 119.983 132.863 120.163 133.783 120.161C134.703 120.16 135.613 119.977 136.462 119.623Z" fill="#DF0345"/>
<path d="M144.678 141.027C146.123 140.428 147.357 139.415 148.226 138.115C149.094 136.815 149.557 135.286 149.557 133.723C149.556 132.159 149.092 130.631 148.223 129.331C147.353 128.032 146.118 127.02 144.673 126.422C143.228 125.825 141.638 125.67 140.105 125.977C138.572 126.284 137.164 127.038 136.06 128.145C134.956 129.252 134.205 130.662 133.902 132.196C133.6 133.73 133.759 135.319 134.36 136.763C135.164 138.695 136.703 140.229 138.637 141.029C140.572 141.828 142.744 141.827 144.678 141.027Z" fill="#DF0345"/>
<path d="M151.385 162.004C152.83 161.406 154.064 160.393 154.933 159.092C155.801 157.792 156.265 156.264 156.264 154.7C156.264 153.137 155.799 151.609 154.93 150.309C154.06 149.009 152.825 147.997 151.38 147.4C149.935 146.803 148.345 146.648 146.812 146.955C145.279 147.261 143.871 148.016 142.767 149.123C141.663 150.23 140.912 151.64 140.609 153.174C140.307 154.708 140.466 156.297 141.067 157.74C141.871 159.673 143.41 161.207 145.344 162.006C147.279 162.806 149.451 162.805 151.385 162.004Z" fill="#DF0345"/>
<path d="M156.815 183.067C158.204 182.487 159.39 181.508 160.223 180.254C161.056 179 161.499 177.528 161.496 176.023C161.494 174.517 161.045 173.047 160.206 171.796C159.368 170.546 158.178 169.572 156.787 168.997C155.396 168.422 153.865 168.272 152.389 168.567C150.913 168.861 149.557 169.586 148.492 170.651C147.428 171.715 146.702 173.071 146.408 174.547C146.113 176.023 146.263 177.554 146.838 178.945C147.617 180.813 149.104 182.295 150.975 183.067C152.845 183.84 154.945 183.84 156.815 183.067Z" fill="#DF0345"/>
<path d="M161.277 204.982C162.728 204.374 163.965 203.349 164.833 202.038C165.702 200.727 166.162 199.188 166.157 197.615C166.152 196.043 165.68 194.507 164.803 193.202C163.925 191.897 162.681 190.881 161.226 190.283C159.772 189.684 158.173 189.53 156.631 189.84C155.089 190.149 153.674 190.909 152.563 192.022C151.453 193.136 150.697 194.553 150.391 196.096C150.085 197.639 150.243 199.237 150.846 200.69C151.662 202.641 153.219 204.188 155.174 204.992C157.13 205.797 159.325 205.793 161.277 204.982Z" fill="#DF0345"/>
<path d="M164.347 226.727C165.792 226.129 167.026 225.116 167.895 223.816C168.763 222.515 169.227 220.987 169.226 219.423C169.225 217.86 168.761 216.332 167.892 215.032C167.022 213.733 165.787 212.72 164.342 212.123C162.897 211.526 161.307 211.371 159.774 211.678C158.241 211.984 156.833 212.739 155.729 213.846C154.625 214.953 153.874 216.363 153.571 217.897C153.269 219.431 153.428 221.02 154.029 222.463C154.833 224.396 156.372 225.93 158.306 226.729C160.241 227.529 162.413 227.528 164.347 226.727Z" fill="#DF0345"/>
<path d="M165.797 247.733C167.055 247.213 168.13 246.332 168.887 245.201C169.644 244.07 170.048 242.74 170.049 241.379C170.049 240.019 169.646 238.688 168.891 237.557C168.135 236.425 167.061 235.543 165.804 235.021C164.547 234.5 163.164 234.364 161.829 234.629C160.494 234.894 159.268 235.549 158.306 236.512C157.344 237.474 156.689 238.7 156.423 240.034C156.158 241.369 156.294 242.752 156.815 244.009C157.525 245.684 158.864 247.012 160.544 247.709C162.225 248.405 164.111 248.414 165.797 247.733Z" fill="#DF0345"/>
<path d="M166.308 269.364C167.476 268.862 168.469 268.026 169.163 266.962C169.857 265.898 170.221 264.652 170.21 263.382C170.199 262.111 169.813 260.872 169.101 259.82C168.389 258.768 167.381 257.949 166.206 257.467C165.03 256.985 163.738 256.861 162.492 257.11C161.246 257.359 160.102 257.971 159.202 258.868C158.302 259.765 157.687 260.908 157.435 262.154C157.182 263.399 157.302 264.691 157.781 265.868C158.107 266.661 158.588 267.381 159.195 267.986C159.801 268.592 160.522 269.071 161.315 269.396C162.108 269.721 162.958 269.886 163.815 269.88C164.672 269.875 165.52 269.7 166.308 269.364Z" fill="#DF0345"/>
<path d="M165.627 291.109C166.758 290.637 167.724 289.84 168.403 288.819C169.081 287.798 169.442 286.599 169.438 285.373C169.435 284.147 169.068 282.95 168.384 281.932C167.699 280.915 166.729 280.123 165.595 279.658C164.461 279.192 163.214 279.074 162.012 279.317C160.811 279.56 159.708 280.154 158.845 281.024C157.981 281.894 157.394 283 157.16 284.204C156.925 285.407 157.052 286.653 157.526 287.784C157.837 288.536 158.294 289.219 158.87 289.794C159.446 290.369 160.131 290.824 160.884 291.133C161.637 291.443 162.444 291.6 163.258 291.595C164.072 291.591 164.877 291.426 165.627 291.109Z" fill="#DF0345"/>
<path d="M79.7277 23.1208C80.601 22.749 81.3446 22.1268 81.8646 21.3327C82.3846 20.5387 82.6576 19.6084 82.6494 18.6592C82.6411 17.7101 82.3519 16.7847 81.8182 15.9998C81.2844 15.2149 80.5302 14.6057 79.6506 14.2491C78.7709 13.8925 77.8054 13.8045 76.8758 13.9962C75.9462 14.1878 75.0942 14.6506 74.4273 15.326C73.7605 16.0014 73.3087 16.8593 73.1289 17.7913C72.9492 18.7232 73.0495 19.6876 73.4174 20.5626C73.9186 21.7355 74.8633 22.6627 76.0454 23.142C77.2275 23.6212 78.5511 23.6136 79.7277 23.1208Z" fill="#DF0345"/>
<path d="M92.8879 40.4599C93.719 40.1146 94.4289 39.5304 94.9278 38.7814C95.4268 38.0324 95.6922 37.1522 95.6907 36.2522C95.6891 35.3523 95.4206 34.473 94.9191 33.7257C94.4176 32.9785 93.7056 32.3968 92.8734 32.0543C92.0411 31.7118 91.1259 31.624 90.2437 31.8019C89.3615 31.9798 88.5519 32.4154 87.9174 33.0537C87.2829 33.6919 86.852 34.504 86.6793 35.3873C86.5065 36.2705 86.5998 37.1851 86.9471 38.0154C87.4119 39.1264 88.2984 40.0077 89.4121 40.4659C90.5258 40.9242 91.7758 40.922 92.8879 40.4599Z" fill="#DF0345"/>
<path d="M105.281 59.0781C106.174 58.7068 106.936 58.0792 107.472 57.2748C108.008 56.4703 108.293 55.5251 108.292 54.5585C108.291 53.5919 108.003 52.6473 107.465 51.8442C106.928 51.041 106.164 50.4153 105.27 50.046C104.377 49.6768 103.394 49.5807 102.446 49.7697C101.498 49.9588 100.628 50.4246 99.9447 51.1083C99.2614 51.792 98.796 52.6629 98.6075 53.6109C98.419 54.559 98.5158 55.5416 98.8856 56.4347C99.1315 57.0285 99.4921 57.5681 99.9467 58.0225C100.401 58.4768 100.941 58.8371 101.535 59.0826C102.129 59.3282 102.766 59.4542 103.409 59.4534C104.051 59.4526 104.688 59.3251 105.281 59.0781Z" fill="#DF0345"/>
<path d="M116.878 78.9187C117.944 78.4709 118.855 77.717 119.493 76.7523C120.132 75.7875 120.471 74.6551 120.467 73.498C120.462 72.3409 120.115 71.2111 119.47 70.251C118.824 69.291 117.908 68.5438 116.838 68.1039C115.768 67.6639 114.591 67.5509 113.457 67.779C112.322 68.0072 111.281 68.5663 110.464 69.3858C109.647 70.2053 109.092 71.2485 108.867 72.3836C108.643 73.5187 108.759 74.6948 109.203 75.7636C109.498 76.4757 109.932 77.1224 110.478 77.6667C111.024 78.211 111.672 78.6421 112.385 78.9352C113.098 79.2284 113.862 79.3779 114.633 79.375C115.404 79.3722 116.167 79.2171 116.878 78.9187Z" fill="#DF0345"/>
<path d="M127.254 99.1001C128.45 98.6064 129.473 97.7687 130.193 96.6932C130.912 95.6177 131.297 94.3528 131.297 93.0586C131.297 91.7645 130.914 90.4993 130.194 89.4235C129.475 88.3476 128.453 87.5094 127.257 87.0151C126.061 86.5207 124.745 86.3924 123.476 86.6465C122.207 86.9006 121.042 87.5255 120.128 88.4422C119.215 89.359 118.594 90.5262 118.344 91.796C118.095 93.0658 118.228 94.3812 118.726 95.5755C119.053 96.3681 119.533 97.0884 120.139 97.6949C120.745 98.3014 121.465 98.7823 122.258 99.1098C123.05 99.4373 123.899 99.605 124.757 99.6034C125.614 99.6017 126.463 99.4307 127.254 99.1001Z" fill="#DF0345"/>
<path d="M159.828 111.92C161.441 111.247 162.819 110.112 163.787 108.657C164.754 107.202 165.269 105.492 165.266 103.745C165.263 101.997 164.742 100.29 163.769 98.8381C162.796 97.3866 161.414 96.256 159.799 95.5892C158.184 94.9224 156.407 94.7494 154.693 95.0919C152.98 95.4345 151.406 96.2773 150.171 97.5138C148.936 98.7503 148.095 100.325 147.755 102.039C147.415 103.753 147.59 105.53 148.259 107.144C148.704 108.218 149.357 109.194 150.179 110.016C151.002 110.837 151.979 111.488 153.053 111.932C154.128 112.375 155.279 112.603 156.442 112.601C157.604 112.599 158.755 112.367 159.828 111.92Z" fill="#DF0345"/>
<path d="M168.214 133.608C170.06 132.847 171.64 131.556 172.752 129.897C173.864 128.238 174.459 126.287 174.462 124.29C174.464 122.292 173.874 120.339 172.766 118.678C171.657 117.016 170.081 115.721 168.236 114.956C166.392 114.191 164.361 113.991 162.402 114.38C160.444 114.77 158.645 115.732 157.233 117.145C155.821 118.558 154.861 120.358 154.473 122.317C154.085 124.276 154.287 126.306 155.053 128.15C156.078 130.616 158.039 132.575 160.506 133.598C162.973 134.621 165.744 134.625 168.214 133.608Z" fill="#DF0345"/>
<path d="M174.95 154.358C176.75 153.607 178.287 152.339 179.367 150.715C180.446 149.091 181.02 147.183 181.016 145.232C181.011 143.282 180.429 141.377 179.342 139.758C178.255 138.138 176.712 136.877 174.909 136.135C173.106 135.392 171.123 135.2 169.21 135.584C167.298 135.968 165.543 136.911 164.166 138.292C162.789 139.674 161.853 141.432 161.476 143.346C161.098 145.259 161.296 147.241 162.045 149.042C162.543 150.239 163.272 151.326 164.19 152.241C165.108 153.156 166.197 153.881 167.396 154.375C168.594 154.868 169.879 155.121 171.175 155.118C172.471 155.115 173.754 154.857 174.95 154.358Z" fill="#DF0345"/>
<path d="M180.151 174.426C181.702 173.773 183.026 172.676 183.955 171.273C184.884 169.87 185.377 168.223 185.372 166.54C185.367 164.857 184.864 163.213 183.927 161.816C182.99 160.418 181.66 159.329 180.105 158.686C178.55 158.042 176.839 157.873 175.188 158.2C173.537 158.527 172.02 159.335 170.828 160.523C169.635 161.711 168.821 163.224 168.487 164.874C168.153 166.523 168.315 168.235 168.952 169.792C169.378 170.836 170.007 171.784 170.803 172.583C171.598 173.381 172.544 174.014 173.585 174.445C174.626 174.876 175.743 175.096 176.87 175.093C177.997 175.089 179.112 174.863 180.151 174.426Z" fill="#DF0345"/>
<path d="M184.672 195.858C186.243 195.224 187.59 194.136 188.54 192.733C189.49 191.331 190.001 189.677 190.008 187.982C190.014 186.288 189.516 184.63 188.576 183.22C187.636 181.81 186.298 180.713 184.731 180.067C183.165 179.421 181.442 179.256 179.781 179.594C178.121 179.931 176.599 180.756 175.409 181.962C174.219 183.169 173.416 184.702 173.101 186.367C172.787 188.032 172.975 189.753 173.643 191.31C174.522 193.359 176.168 194.983 178.23 195.833C180.291 196.684 182.604 196.692 184.672 195.858Z" fill="#DF0345"/>
<path d="M188.281 218.057C189.913 217.383 191.308 216.24 192.29 214.773C193.272 213.305 193.797 211.58 193.798 209.814C193.799 208.048 193.276 206.322 192.296 204.854C191.316 203.385 189.922 202.24 188.291 201.564C186.66 200.888 184.865 200.71 183.133 201.054C181.402 201.398 179.811 202.248 178.562 203.497C177.314 204.745 176.463 206.336 176.119 208.067C175.774 209.799 175.951 211.594 176.627 213.225C177.072 214.31 177.728 215.296 178.555 216.126C179.383 216.957 180.367 217.615 181.45 218.064C182.533 218.513 183.694 218.744 184.866 218.743C186.039 218.742 187.199 218.509 188.281 218.057Z" fill="#DF0345"/>
<path d="M190.299 239.433C191.805 238.807 193.091 237.748 193.995 236.39C194.898 235.033 195.379 233.438 195.376 231.807C195.373 230.176 194.886 228.583 193.977 227.229C193.069 225.874 191.779 224.82 190.27 224.2C188.762 223.579 187.104 223.419 185.505 223.741C183.907 224.063 182.439 224.852 181.289 226.008C180.139 227.165 179.357 228.636 179.044 230.236C178.73 231.836 178.898 233.494 179.526 234.999C179.937 236.002 180.543 236.913 181.308 237.68C182.074 238.447 182.984 239.054 183.986 239.467C184.988 239.879 186.062 240.089 187.146 240.083C188.23 240.077 189.302 239.856 190.299 239.433Z" fill="#DF0345"/>
<path d="M190.982 260.325C192.285 259.785 193.399 258.871 194.183 257.698C194.967 256.525 195.386 255.146 195.386 253.735C195.387 252.324 194.969 250.945 194.185 249.771C193.402 248.598 192.288 247.683 190.984 247.143C189.681 246.603 188.247 246.461 186.863 246.735C185.479 247.01 184.208 247.689 183.209 248.686C182.211 249.683 181.531 250.954 181.255 252.337C180.979 253.721 181.119 255.156 181.658 256.459C182.388 258.204 183.777 259.589 185.524 260.313C187.27 261.037 189.232 261.042 190.982 260.325Z" fill="#DF0345"/>
<path d="M190.924 282.297C192.215 281.759 193.318 280.851 194.093 279.687C194.868 278.523 195.281 277.155 195.279 275.756C195.278 274.358 194.862 272.991 194.084 271.828C193.307 270.666 192.202 269.76 190.91 269.225C189.617 268.69 188.196 268.549 186.824 268.822C185.452 269.094 184.192 269.767 183.202 270.755C182.212 271.743 181.537 273.002 181.262 274.373C180.987 275.745 181.125 277.167 181.658 278.46C182.013 279.322 182.534 280.105 183.192 280.764C183.851 281.424 184.633 281.947 185.494 282.303C186.355 282.66 187.278 282.843 188.21 282.842C189.141 282.841 190.064 282.656 190.924 282.297Z" fill="#DF0345"/>
<path d="M116.281 31.2503C117.217 30.8695 118.019 30.2201 118.586 29.3839C119.154 28.5478 119.461 27.5623 119.469 26.5518C119.477 25.5413 119.186 24.5511 118.632 23.706C118.078 22.8609 117.286 22.1987 116.356 21.8031C115.426 21.4074 114.4 21.2959 113.407 21.4827C112.414 21.6695 111.498 22.1462 110.776 22.8526C110.053 23.559 109.556 24.4636 109.347 25.4523C109.138 26.4409 109.226 27.4693 109.601 28.4078C109.848 29.0369 110.218 29.6104 110.689 30.095C111.16 30.5795 111.723 30.9654 112.345 31.23C112.967 31.4946 113.635 31.6327 114.311 31.6362C114.986 31.6397 115.656 31.5085 116.281 31.2503Z" fill="#DF0345"/>
<path d="M128.561 50.2665C129.594 49.8308 130.475 49.0994 131.094 48.1643C131.712 47.2291 132.04 46.1319 132.037 45.0107C132.033 43.8895 131.698 42.7944 131.074 41.863C130.45 40.9317 129.564 40.2057 128.529 39.7765C127.493 39.3472 126.353 39.2338 125.253 39.4505C124.153 39.6672 123.142 40.2043 122.346 40.9944C121.551 41.7844 121.006 42.7921 120.782 43.8906C120.558 44.9891 120.663 46.1294 121.085 47.1682C121.368 47.8656 121.788 48.4999 122.318 49.034C122.849 49.5682 123.48 49.9917 124.175 50.28C124.871 50.5682 125.617 50.7155 126.369 50.7131C127.122 50.7108 127.867 50.559 128.561 50.2665Z" fill="#DF0345"/>
<path d="M143.84 66.6724C145.319 63.0882 143.613 58.9833 140.029 57.5038C136.445 56.0243 132.34 57.7305 130.86 61.3147C129.381 64.8989 131.087 69.0038 134.671 70.4833C138.256 71.9628 142.36 70.2566 143.84 66.6724Z" fill="#DF0345"/>
<path d="M150.505 90.9993C151.973 90.4142 153.233 89.4055 154.125 88.1018C155.018 86.7981 155.502 85.2583 155.516 83.6785C155.53 82.0987 155.074 80.5504 154.206 79.2307C153.337 77.9111 152.095 76.8798 150.639 76.2681C149.182 75.6565 147.576 75.4922 146.026 75.7962C144.476 76.1002 143.051 76.8587 141.933 77.9752C140.815 79.0916 140.055 80.5155 139.749 82.0654C139.443 83.6154 139.606 85.2214 140.216 86.6788C141.027 88.5996 142.558 90.1269 144.481 90.9342C146.403 91.7415 148.566 91.7649 150.505 90.9993Z" fill="#DF0345"/>
<path d="M182.851 102.994C184.571 102.273 186.039 101.059 187.07 99.5045C188.1 97.95 188.647 96.1251 188.641 94.2601C188.635 92.3951 188.076 90.5738 187.036 89.026C185.995 87.4782 184.519 86.2734 182.795 85.5637C181.07 84.854 179.174 84.6713 177.345 85.0385C175.517 85.4058 173.838 86.3066 172.521 87.6271C171.204 88.9477 170.308 90.6289 169.946 92.4583C169.584 94.2878 169.772 96.1836 170.487 97.9062C170.963 99.0537 171.66 100.096 172.54 100.973C173.42 101.85 174.464 102.545 175.613 103.018C176.761 103.491 177.992 103.732 179.234 103.728C180.477 103.724 181.706 103.474 182.851 102.994Z" fill="#DF0345"/>
<path d="M191.038 124.483C192.937 123.697 194.56 122.366 195.703 120.658C196.846 118.95 197.457 116.942 197.46 114.887C197.463 112.832 196.857 110.822 195.719 109.11C194.581 107.399 192.962 106.064 191.065 105.272C189.169 104.48 187.08 104.268 185.063 104.661C183.046 105.055 181.191 106.037 179.732 107.484C178.273 108.931 177.274 110.778 176.863 112.792C176.452 114.805 176.647 116.895 177.423 118.798C177.94 120.068 178.704 121.223 179.669 122.197C180.635 123.171 181.783 123.944 183.048 124.472C184.314 125 185.671 125.273 187.042 125.275C188.413 125.277 189.771 125.008 191.038 124.483Z" fill="#DF0345"/>
<path d="M198.002 145.631C199.928 144.83 201.573 143.476 202.729 141.74C203.885 140.004 204.501 137.964 204.497 135.878C204.494 133.793 203.873 131.755 202.711 130.022C201.55 128.29 199.9 126.94 197.972 126.145C196.044 125.35 193.923 125.145 191.878 125.555C189.833 125.965 187.955 126.972 186.483 128.45C185.01 129.927 184.009 131.808 183.605 133.854C183.202 135.901 183.414 138.021 184.216 139.946C185.29 142.528 187.346 144.578 189.932 145.644C192.517 146.71 195.42 146.705 198.002 145.631Z" fill="#DF0345"/>
<path d="M203.289 165.529C204.958 164.838 206.384 163.668 207.387 162.167C208.39 160.665 208.925 158.9 208.925 157.094C208.924 155.288 208.387 153.524 207.383 152.023C206.378 150.522 204.951 149.353 203.282 148.664C201.613 147.975 199.777 147.797 198.007 148.152C196.236 148.507 194.611 149.379 193.336 150.658C192.062 151.937 191.196 153.566 190.847 155.338C190.499 157.109 190.684 158.945 191.379 160.611C192.309 162.84 194.085 164.61 196.318 165.532C198.55 166.454 201.058 166.452 203.289 165.529Z" fill="#DF0345"/>
<path d="M207.838 186.307C209.409 185.673 210.756 184.585 211.706 183.183C212.657 181.78 213.168 180.126 213.174 178.432C213.18 176.737 212.682 175.08 211.742 173.67C210.802 172.26 209.464 171.162 207.897 170.516C206.331 169.87 204.608 169.705 202.947 170.043C201.287 170.381 199.765 171.205 198.575 172.412C197.385 173.618 196.582 175.151 196.267 176.816C195.953 178.481 196.141 180.202 196.809 181.759C197.688 183.809 199.334 185.433 201.396 186.283C203.457 187.133 205.77 187.142 207.838 186.307Z" fill="#DF0345"/>
<path d="M211.759 208.507C213.4 207.824 214.801 206.67 215.786 205.191C216.77 203.712 217.294 201.974 217.291 200.197C217.287 198.42 216.757 196.684 215.767 195.208C214.776 193.733 213.371 192.584 211.727 191.908C210.084 191.231 208.277 191.058 206.535 191.408C204.793 191.759 203.194 192.619 201.941 193.879C200.688 195.138 199.836 196.741 199.494 198.485C199.152 200.229 199.335 202.035 200.02 203.675C200.937 205.871 202.688 207.614 204.889 208.52C207.091 209.426 209.561 209.421 211.759 208.507Z" fill="#DF0345"/>
<path d="M214.12 229.996C215.671 229.341 216.993 228.242 217.921 226.837C218.848 225.432 219.339 223.784 219.331 222.1C219.323 220.416 218.817 218.773 217.877 217.376C216.936 215.98 215.604 214.893 214.047 214.253C212.489 213.613 210.778 213.448 209.127 213.779C207.476 214.11 205.96 214.922 204.771 216.113C203.581 217.304 202.77 218.821 202.441 220.472C202.112 222.123 202.279 223.835 202.921 225.391C203.35 226.432 203.981 227.377 204.777 228.173C205.574 228.968 206.52 229.598 207.561 230.026C208.602 230.455 209.718 230.672 210.843 230.667C211.969 230.662 213.083 230.434 214.12 229.996Z" fill="#DF0345"/>
<path d="M215.314 250.803C216.669 250.241 217.828 249.289 218.643 248.069C219.457 246.848 219.892 245.414 219.891 243.946C219.891 242.479 219.455 241.044 218.639 239.825C217.823 238.605 216.663 237.655 215.307 237.094C213.951 236.533 212.459 236.387 211.02 236.674C209.581 236.962 208.259 237.669 207.223 238.708C206.186 239.746 205.48 241.069 205.195 242.508C204.91 243.948 205.058 245.44 205.621 246.795C206.375 248.611 207.82 250.054 209.638 250.806C211.455 251.557 213.497 251.556 215.314 250.803Z" fill="#DF0345"/>
<path d="M215.711 272.804C217.039 272.249 218.173 271.314 218.969 270.116C219.765 268.918 220.188 267.51 220.185 266.071C220.182 264.633 219.752 263.227 218.95 262.033C218.148 260.838 217.01 259.908 215.68 259.36C214.35 258.812 212.887 258.671 211.476 258.954C210.066 259.237 208.771 259.932 207.755 260.951C206.739 261.97 206.048 263.267 205.77 264.678C205.491 266.09 205.637 267.552 206.189 268.881C206.936 270.66 208.357 272.071 210.141 272.806C211.925 273.541 213.928 273.54 215.711 272.804Z" fill="#DF0345"/>
<path d="M214.886 294.435C216.144 293.913 217.218 293.029 217.973 291.896C218.728 290.763 219.13 289.432 219.128 288.071C219.125 286.709 218.719 285.379 217.961 284.249C217.202 283.118 216.125 282.238 214.866 281.72C213.607 281.202 212.222 281.07 210.888 281.339C209.553 281.608 208.329 282.267 207.369 283.233C206.41 284.199 205.758 285.428 205.498 286.764C205.237 288.1 205.378 289.484 205.904 290.739C206.25 291.573 206.756 292.331 207.395 292.968C208.034 293.606 208.793 294.111 209.627 294.454C210.462 294.797 211.356 294.972 212.259 294.969C213.161 294.966 214.054 294.784 214.886 294.435Z" fill="#DF0345"/>
<path d="M139.646 22.2114C140.669 21.7655 141.538 21.0285 142.145 20.0922C142.752 19.1559 143.07 18.0618 143.059 16.9461C143.048 15.8304 142.71 14.7425 142.085 13.8179C141.461 12.8934 140.578 12.173 139.547 11.7467C138.516 11.3203 137.382 11.2067 136.287 11.4202C135.192 11.6336 134.184 12.1645 133.388 12.9469C132.593 13.7292 132.045 14.7283 131.813 15.8197C131.582 16.9111 131.676 18.0466 132.085 19.0846C132.365 19.7951 132.786 20.4418 133.321 20.9863C133.857 21.5308 134.496 21.9618 135.202 22.2536C135.908 22.5454 136.665 22.6921 137.428 22.6848C138.192 22.6776 138.946 22.5165 139.646 22.2114Z" fill="#DF0345"/>
<path d="M151.983 41.9666C153.277 41.4328 154.384 40.5271 155.164 39.364C155.944 38.2009 156.361 36.8327 156.363 35.4324C156.364 34.0322 155.951 32.6629 155.174 31.4978C154.398 30.3327 153.293 29.4241 152 28.8869C150.707 28.3498 149.283 28.2083 147.91 28.4803C146.536 28.7523 145.274 29.4256 144.284 30.415C143.293 31.4044 142.618 32.6655 142.344 34.0387C142.07 35.4118 142.209 36.8354 142.745 38.1292C143.474 39.8525 144.851 41.2203 146.579 41.9381C148.307 42.6559 150.247 42.6661 151.983 41.9666Z" fill="#DF0345"/>
<path d="M163.381 62.2333C164.896 61.603 166.19 60.5378 167.1 59.1723C168.01 57.8068 168.494 56.2023 168.493 54.5614C168.491 52.9206 168.003 51.317 167.09 49.9534C166.178 48.5898 164.881 47.5273 163.365 46.9002C161.849 46.273 160.181 46.1094 158.571 46.4299C156.962 46.7504 155.484 47.5407 154.324 48.701C153.163 49.8612 152.373 51.3393 152.053 52.9485C151.732 54.5578 151.896 56.2259 152.523 57.7422C152.94 58.7508 153.552 59.6672 154.324 60.439C155.095 61.2107 156.012 61.8227 157.02 62.2399C158.029 62.6571 159.11 62.8712 160.201 62.8701C161.293 62.8689 162.373 62.6525 163.381 62.2333Z" fill="#DF0345"/>
<path d="M173.5 82.3011C175.117 81.6493 176.504 80.5307 177.484 79.0879C178.463 77.6451 178.991 75.9435 179 74.1997C179.009 72.4559 178.499 70.7488 177.534 69.2961C176.569 67.8433 175.194 66.7106 173.583 66.0422C171.973 65.3738 170.2 65.1999 168.49 65.5428C166.78 65.8857 165.211 66.7297 163.983 67.9675C162.754 69.2052 161.922 70.7806 161.592 72.4929C161.262 74.2053 161.45 75.9771 162.13 77.5826C163.023 79.7073 164.717 81.3943 166.846 82.2776C168.974 83.161 171.365 83.1694 173.5 82.3011Z" fill="#DF0345"/>
<path d="M205.308 93.4435C206.991 92.7366 208.427 91.5469 209.434 90.0246C210.442 88.5022 210.975 86.7155 210.968 84.89C210.961 83.0645 210.413 81.282 209.394 79.7676C208.374 78.2532 206.929 77.0748 205.241 76.3812C203.552 75.6875 201.696 75.5097 199.906 75.8701C198.117 76.2306 196.474 77.1132 195.185 78.4065C193.897 79.6998 193.021 81.3458 192.667 83.1368C192.314 84.9277 192.499 86.7833 193.199 88.4692C193.665 89.5925 194.349 90.6126 195.21 91.471C196.072 92.3294 197.095 93.0092 198.22 93.4714C199.345 93.9335 200.55 94.169 201.767 94.1642C202.983 94.1594 204.186 93.9145 205.308 93.4435Z" fill="#DF0345"/>
<path d="M213.323 114.108C215.034 113.394 216.495 112.188 217.521 110.643C218.547 109.099 219.092 107.285 219.087 105.43C219.083 103.576 218.529 101.765 217.495 100.225C216.462 98.6855 214.995 97.4868 213.281 96.7804C211.566 96.0739 209.681 95.8915 207.863 96.2561C206.045 96.6207 204.376 97.516 203.066 98.8289C201.757 100.142 200.866 101.813 200.506 103.632C200.146 105.451 200.333 107.336 201.044 109.049C201.517 110.188 202.21 111.223 203.083 112.094C203.956 112.966 204.993 113.656 206.134 114.126C207.274 114.596 208.497 114.836 209.73 114.833C210.964 114.83 212.185 114.584 213.323 114.108Z" fill="#DF0345"/>
<path d="M220.345 135.057C222.065 134.337 223.532 133.122 224.563 131.568C225.593 130.013 226.14 128.188 226.134 126.323C226.128 124.458 225.569 122.637 224.529 121.089C223.488 119.541 222.013 118.337 220.288 117.627C218.563 116.917 216.667 116.735 214.839 117.102C213.01 117.469 211.331 118.37 210.015 119.69C208.698 121.011 207.802 122.692 207.439 124.522C207.077 126.351 207.265 128.247 207.98 129.969C208.947 132.282 210.792 134.116 213.11 135.07C215.428 136.024 218.03 136.019 220.345 135.057Z" fill="#DF0345"/>
<path d="M226.143 155.751C227.774 155.074 229.169 153.929 230.149 152.459C231.129 150.99 231.651 149.263 231.649 147.497C231.647 145.73 231.122 144.004 230.138 142.537C229.155 141.07 227.758 139.927 226.125 139.254C224.492 138.581 222.696 138.408 220.965 138.756C219.233 139.104 217.644 139.958 216.398 141.21C215.152 142.462 214.305 144.055 213.966 145.789C213.626 147.522 213.808 149.317 214.489 150.947C215.4 153.127 217.138 154.857 219.323 155.758C221.507 156.658 223.96 156.656 226.143 155.751Z" fill="#DF0345"/>
<path d="M231.003 176.899C232.551 176.242 233.87 175.142 234.795 173.738C235.72 172.334 236.209 170.688 236.2 169.006C236.192 167.325 235.687 165.684 234.748 164.289C233.81 162.894 232.48 161.807 230.926 161.166C229.372 160.524 227.662 160.357 226.013 160.684C224.364 161.011 222.848 161.819 221.657 163.005C220.465 164.191 219.651 165.703 219.316 167.351C218.981 168.998 219.141 170.708 219.776 172.265C220.202 173.312 220.832 174.264 221.629 175.064C222.427 175.865 223.375 176.5 224.42 176.931C225.465 177.362 226.585 177.581 227.715 177.576C228.845 177.57 229.963 177.34 231.003 176.899Z" fill="#DF0345"/>
<path d="M234.84 198.245C236.344 197.608 237.625 196.537 238.52 195.17C239.415 193.802 239.883 192.2 239.865 190.566C239.847 188.932 239.344 187.34 238.419 185.993C237.495 184.646 236.191 183.603 234.673 182.999C233.155 182.394 231.492 182.254 229.894 182.596C228.296 182.939 226.836 183.749 225.7 184.922C224.563 186.096 223.801 187.582 223.51 189.19C223.22 190.798 223.413 192.456 224.067 193.953C224.941 195.938 226.56 197.501 228.575 198.303C230.59 199.106 232.84 199.085 234.84 198.245Z" fill="#DF0345"/>
<path d="M237.655 219.763C239.099 219.165 240.334 218.152 241.202 216.851C242.071 215.551 242.534 214.023 242.534 212.459C242.533 210.896 242.069 209.368 241.199 208.068C240.33 206.769 239.094 205.756 237.649 205.159C236.204 204.562 234.615 204.407 233.082 204.714C231.548 205.02 230.141 205.775 229.037 206.882C227.932 207.989 227.182 209.399 226.879 210.933C226.576 212.467 226.736 214.056 227.336 215.499C228.147 217.427 229.686 218.956 231.618 219.754C233.551 220.553 235.72 220.556 237.655 219.763Z" fill="#DF0345"/>
<path d="M239.36 241.252C240.715 240.69 241.874 239.739 242.689 238.518C243.503 237.298 243.938 235.863 243.937 234.396C243.937 232.928 243.501 231.494 242.685 230.274C241.869 229.054 240.709 228.104 239.353 227.543C237.997 226.982 236.505 226.836 235.066 227.124C233.627 227.411 232.305 228.119 231.269 229.157C230.232 230.196 229.526 231.518 229.241 232.958C228.956 234.397 229.104 235.889 229.667 237.244C230.034 238.149 230.578 238.971 231.266 239.663C231.954 240.355 232.773 240.904 233.675 241.277C234.576 241.65 235.544 241.84 236.52 241.836C237.496 241.831 238.461 241.633 239.36 241.252Z" fill="#DF0345"/>
<path d="M240.611 264.134C242.134 263.496 243.435 262.42 244.347 261.042C245.26 259.665 245.743 258.048 245.737 256.396C245.731 254.744 245.235 253.13 244.313 251.76C243.39 250.389 242.082 249.323 240.553 248.696C239.025 248.069 237.345 247.908 235.725 248.236C234.106 248.563 232.619 249.363 231.454 250.534C230.29 251.706 229.498 253.196 229.18 254.818C228.862 256.439 229.031 258.118 229.667 259.643C230.09 260.657 230.709 261.578 231.488 262.353C232.267 263.127 233.191 263.741 234.208 264.158C235.224 264.575 236.313 264.788 237.411 264.784C238.51 264.78 239.597 264.559 240.611 264.134Z" fill="#DF0345"/>
<path d="M240.355 285.993C241.845 285.374 243.119 284.328 244.015 282.986C244.91 281.644 245.388 280.066 245.387 278.452C245.386 276.838 244.906 275.261 244.009 273.92C243.112 272.579 241.837 271.534 240.345 270.918C238.854 270.302 237.214 270.141 235.631 270.457C234.049 270.773 232.596 271.552 231.456 272.694C230.316 273.836 229.54 275.29 229.227 276.873C228.913 278.456 229.076 280.097 229.695 281.587C230.525 283.584 232.114 285.17 234.113 285.996C236.112 286.823 238.357 286.821 240.355 285.993Z" fill="#DF0345"/>
<path d="M175.319 33.4959C176.825 32.8673 178.11 31.806 179.012 30.4465C179.914 29.087 180.392 27.4904 180.386 25.859C180.38 24.2276 179.89 22.6346 178.978 21.2818C178.066 19.929 176.773 18.8772 175.263 18.2597C173.753 17.6421 172.094 17.4865 170.495 17.8126C168.896 18.1387 167.431 18.9318 166.283 20.0915C165.136 21.2511 164.358 22.7253 164.049 24.3272C163.74 25.929 163.913 27.5867 164.546 29.0901C164.963 30.0881 165.572 30.994 166.339 31.7559C167.107 32.5178 168.017 33.1207 169.018 33.5301C170.019 33.9394 171.091 34.1471 172.172 34.1412C173.253 34.1354 174.323 33.9161 175.319 33.4959Z" fill="#DF0345"/>
<path d="M186.49 53.5638C188.164 52.863 189.593 51.6818 190.596 50.1693C191.599 48.6569 192.132 46.8811 192.126 45.0663C192.12 43.2514 191.577 41.479 190.565 39.9728C189.552 38.4666 188.116 37.2943 186.438 36.6039C184.759 35.9135 182.914 35.736 181.135 36.0938C179.355 36.4516 177.722 37.3288 176.441 38.6144C175.16 39.8999 174.289 41.5363 173.937 43.3168C173.586 45.0973 173.77 46.942 174.467 48.6179C174.93 49.7332 175.609 50.746 176.464 51.5985C177.32 52.4509 178.335 53.1262 179.452 53.5857C180.569 54.0451 181.766 54.2797 182.973 54.2759C184.181 54.2722 185.376 54.0302 186.49 53.5638Z" fill="#DF0345"/>
<path d="M196.439 73.4326C198.15 72.7179 199.611 71.512 200.637 69.9674C201.663 68.4228 202.208 66.6088 202.204 64.7545C202.199 62.9002 201.645 61.0889 200.612 59.5493C199.578 58.0097 198.112 56.811 196.397 56.1046C194.683 55.3982 192.797 55.2157 190.979 55.5803C189.161 55.9449 187.492 56.8402 186.182 58.1531C184.873 59.4659 183.982 61.1375 183.622 62.9565C183.262 64.7755 183.449 66.6604 184.16 68.373C184.633 69.5125 185.326 70.5474 186.199 71.4186C187.073 72.2898 188.109 72.9802 189.25 73.4502C190.391 73.9202 191.613 74.1605 192.846 74.1575C194.08 74.1545 195.301 73.9082 196.439 73.4326Z" fill="#DF0345"/>
<path d="M227.991 84.0919C229.693 83.3832 231.147 82.1859 232.168 80.6512C233.19 79.1165 233.734 77.3134 233.731 75.4698C233.728 73.6262 233.178 71.8249 232.152 70.2935C231.125 68.7622 229.667 67.5695 227.963 66.8664C226.259 66.1632 224.385 65.9811 222.577 66.3431C220.769 66.7051 219.109 67.5948 217.807 68.9C216.505 70.2051 215.619 71.867 215.261 73.6755C214.903 75.4841 215.09 77.3581 215.797 79.0607C216.264 80.1945 216.95 81.2248 217.817 82.0921C218.684 82.9595 219.713 83.6468 220.847 84.1144C221.98 84.5821 223.195 84.8209 224.421 84.817C225.647 84.8131 226.861 84.5667 227.991 84.0919Z" fill="#DF0345"/>
<path d="M235.949 104.558C237.636 103.857 239.077 102.672 240.091 101.153C241.104 99.6337 241.645 97.848 241.644 96.0215C241.643 94.1951 241.101 92.4099 240.086 90.8915C239.07 89.3732 237.628 88.1898 235.94 87.491C234.253 86.7922 232.396 86.6093 230.605 86.9654C228.813 87.3215 227.168 88.2006 225.876 89.4917C224.584 90.7827 223.704 92.4278 223.346 94.219C222.989 96.0101 223.171 97.867 223.868 99.555C224.332 100.677 225.013 101.697 225.872 102.556C226.73 103.415 227.749 104.097 228.871 104.561C229.993 105.026 231.196 105.265 232.411 105.264C233.625 105.264 234.827 105.024 235.949 104.558Z" fill="#DF0345"/>
<path d="M243.027 125.421C244.71 124.717 246.147 123.529 247.156 122.009C248.166 120.488 248.702 118.703 248.698 116.878C248.694 115.053 248.149 113.271 247.133 111.755C246.116 110.239 244.674 109.059 242.987 108.362C241.301 107.665 239.445 107.483 237.656 107.84C235.866 108.196 234.222 109.075 232.931 110.364C231.64 111.654 230.76 113.297 230.401 115.087C230.043 116.876 230.223 118.731 230.918 120.419C231.861 122.687 233.666 124.489 235.937 125.427C238.207 126.365 240.758 126.363 243.027 125.421Z" fill="#DF0345"/>
<path d="M249.224 146.768C250.953 146.052 252.432 144.838 253.472 143.281C254.512 141.725 255.067 139.894 255.067 138.022C255.066 136.149 254.511 134.319 253.47 132.763C252.429 131.206 250.95 129.993 249.22 129.277C247.49 128.561 245.587 128.375 243.75 128.741C241.914 129.107 240.228 130.009 238.905 131.334C237.581 132.659 236.681 134.346 236.316 136.183C235.952 138.019 236.141 139.923 236.859 141.652C237.821 143.97 239.663 145.81 241.982 146.77C244.301 147.729 246.905 147.729 249.224 146.768Z" fill="#DF0345"/>
<path d="M254.539 168.371C256.33 167.626 257.86 166.367 258.935 164.753C260.01 163.139 260.583 161.242 260.58 159.302C260.577 157.362 259.999 155.467 258.919 153.856C257.839 152.245 256.305 150.99 254.512 150.251C252.719 149.511 250.747 149.32 248.845 149.701C246.943 150.083 245.197 151.02 243.828 152.393C242.459 153.767 241.527 155.516 241.152 157.419C240.777 159.322 240.974 161.293 241.719 163.084C242.719 165.485 244.63 167.391 247.034 168.382C249.439 169.374 252.138 169.37 254.539 168.371Z" fill="#DF0345"/>
<path d="M258.66 190.002C260.427 189.272 261.937 188.034 263 186.445C264.063 184.856 264.631 182.987 264.631 181.075C264.632 179.163 264.066 177.294 263.004 175.704C261.943 174.115 260.433 172.875 258.667 172.143C256.901 171.411 254.957 171.22 253.082 171.593C251.207 171.965 249.485 172.886 248.133 174.238C246.781 175.59 245.861 177.312 245.488 179.188C245.115 181.063 245.307 183.006 246.039 184.772C247.02 187.139 248.901 189.019 251.267 190C253.634 190.98 256.293 190.981 258.66 190.002Z" fill="#DF0345"/>
<path d="M261.73 211.406C263.417 210.706 264.858 209.521 265.872 208.002C266.886 206.482 267.426 204.697 267.425 202.87C267.424 201.044 266.882 199.259 265.867 197.74C264.852 196.222 263.409 195.038 261.722 194.34C260.034 193.641 258.178 193.458 256.386 193.814C254.595 194.17 252.949 195.049 251.657 196.34C250.365 197.631 249.485 199.276 249.128 201.068C248.77 202.859 248.952 204.716 249.65 206.404C250.114 207.526 250.794 208.546 251.653 209.405C252.511 210.264 253.531 210.945 254.653 211.41C255.775 211.875 256.977 212.113 258.192 212.113C259.406 212.112 260.609 211.872 261.73 211.406Z" fill="#DF0345"/>
<path d="M263.72 232.696C265.272 232.044 266.595 230.947 267.524 229.544C268.453 228.14 268.947 226.494 268.942 224.811C268.937 223.128 268.434 221.484 267.497 220.086C266.559 218.689 265.229 217.599 263.674 216.956C262.119 216.313 260.408 216.144 258.757 216.471C257.107 216.798 255.589 217.606 254.397 218.793C253.204 219.981 252.39 221.495 252.056 223.144C251.722 224.794 251.884 226.505 252.521 228.063C252.948 229.106 253.577 230.054 254.372 230.853C255.167 231.652 256.113 232.285 257.154 232.715C258.196 233.146 259.312 233.366 260.439 233.363C261.566 233.36 262.682 233.133 263.72 232.696Z" fill="#DF0345"/>
<path d="M264.914 254.498C266.448 253.864 267.759 252.789 268.681 251.409C269.603 250.029 270.095 248.407 270.095 246.747C270.094 245.088 269.601 243.466 268.679 242.086C267.756 240.707 266.444 239.633 264.91 238.999C263.376 238.366 261.689 238.202 260.062 238.528C258.435 238.854 256.941 239.655 255.769 240.831C254.598 242.007 253.802 243.504 253.482 245.132C253.162 246.76 253.332 248.447 253.971 249.979C254.855 252.002 256.489 253.604 258.53 254.447C260.572 255.29 262.86 255.308 264.914 254.498Z" fill="#DF0345"/>
<path d="M265.113 276.385C266.609 275.765 267.888 274.714 268.788 273.367C269.687 272.019 270.166 270.435 270.165 268.815C270.163 267.195 269.681 265.611 268.779 264.265C267.877 262.92 266.596 261.872 265.098 261.254C263.6 260.637 261.953 260.478 260.365 260.797C258.776 261.116 257.319 261.9 256.176 263.048C255.033 264.196 254.256 265.658 253.945 267.248C253.633 268.838 253.8 270.484 254.425 271.979C255.261 273.979 256.855 275.565 258.858 276.391C260.862 277.217 263.111 277.215 265.113 276.385Z" fill="#DF0345"/>
<path d="M264.346 298.215C265.815 297.605 267.07 296.573 267.953 295.25C268.835 293.926 269.305 292.371 269.304 290.78C269.303 289.189 268.83 287.635 267.945 286.313C267.061 284.991 265.804 283.961 264.334 283.353C262.864 282.745 261.247 282.587 259.687 282.898C258.127 283.209 256.694 283.976 255.57 285.101C254.445 286.226 253.68 287.659 253.37 289.22C253.06 290.78 253.22 292.397 253.829 293.866C254.23 294.845 254.822 295.735 255.569 296.484C256.316 297.233 257.204 297.827 258.182 298.231C259.159 298.636 260.207 298.842 261.265 298.84C262.323 298.837 263.37 298.625 264.346 298.215Z" fill="#DF0345"/>
<path d="M198.371 24.4C199.96 23.7395 201.317 22.6228 202.271 21.1911C203.224 19.7593 203.732 18.0768 203.73 16.3564C203.728 14.6361 203.215 12.955 202.257 11.5259C201.299 10.0969 199.939 8.98393 198.349 8.32789C196.758 7.67186 195.009 7.50218 193.322 7.84033C191.635 8.17848 190.087 9.00928 188.872 10.2276C187.658 11.446 186.831 12.9972 186.498 14.685C186.165 16.3729 186.34 18.1216 187.001 19.71C187.899 21.8295 189.596 23.5101 191.724 24.3879C193.852 25.2656 196.24 25.27 198.371 24.4Z" fill="#DF0345"/>
<path d="M209.373 44.4108C211.129 43.7092 212.636 42.5008 213.702 40.9394C214.769 39.378 215.347 37.5344 215.362 35.6436C215.377 33.7527 214.828 31.9002 213.787 30.3221C212.745 28.7441 211.257 27.5119 209.512 26.7826C207.768 26.0533 205.845 25.86 203.99 26.2272C202.135 26.5944 200.432 27.5056 199.097 28.8446C197.762 30.1836 196.855 31.8898 196.493 33.7458C196.132 35.6017 196.33 37.5234 197.065 39.2659C198.033 41.5648 199.866 43.3916 202.167 44.3538C204.469 45.3159 207.056 45.3363 209.373 44.4108Z" fill="#DF0345"/>
<path d="M219.235 64.3368C221.011 63.6002 222.528 62.3536 223.596 60.7546C224.663 59.1556 225.232 57.276 225.232 55.3535C225.231 53.431 224.66 51.5519 223.591 49.9538C222.523 48.3557 221.004 47.1103 219.228 46.3751C217.451 45.6399 215.497 45.448 213.612 45.8235C211.726 46.199 209.994 47.1251 208.635 48.4848C207.276 49.8444 206.35 51.5765 205.976 53.4621C205.601 55.3477 205.793 57.3021 206.529 59.0782C207.018 60.258 207.734 61.3299 208.638 62.2327C209.541 63.1355 210.613 63.8515 211.793 64.3398C212.973 64.8282 214.237 65.0792 215.514 65.0787C216.791 65.0782 218.056 64.8261 219.235 64.3368Z" fill="#DF0345"/>
<path d="M255.658 69.5812C257.623 64.8216 255.357 59.3706 250.598 57.4059C245.838 55.4412 240.387 57.7069 238.423 62.4665C236.458 67.2261 238.724 72.6772 243.483 74.6418C248.243 76.6065 253.694 74.3408 255.658 69.5812Z" fill="#DF0345"/>
<path d="M258.66 95.206C260.366 94.5015 261.824 93.3068 262.85 91.7731C263.876 90.2395 264.424 88.4359 264.424 86.5908C264.424 84.7456 263.877 82.9418 262.852 81.4077C261.826 79.8737 260.369 78.6785 258.664 77.9733C256.958 77.2681 255.082 77.0848 253.273 77.4465C251.464 77.8082 249.802 78.6986 248.499 80.0051C247.196 81.3116 246.31 82.9753 245.953 84.7857C245.597 86.596 245.785 88.4715 246.495 90.1748C247.444 92.4527 249.257 94.2615 251.538 95.2045C253.818 96.1476 256.379 96.1481 258.66 95.206Z" fill="#DF0345"/>
<path d="M265.767 115.899C267.441 115.198 268.869 114.017 269.873 112.505C270.876 110.992 271.408 109.217 271.402 107.402C271.397 105.587 270.853 103.814 269.841 102.308C268.828 100.802 267.392 99.6297 265.714 98.9393C264.036 98.2489 262.19 98.0714 260.411 98.4293C258.632 98.7871 256.998 99.6642 255.718 100.95C254.437 102.235 253.565 103.872 253.214 105.652C252.862 107.433 253.046 109.277 253.743 110.953C254.206 112.069 254.885 113.081 255.741 113.934C256.596 114.786 257.612 115.462 258.729 115.921C259.845 116.381 261.042 116.615 262.25 116.611C263.457 116.608 264.653 116.366 265.767 115.899Z" fill="#DF0345"/>
<path d="M272.134 137.417C273.892 136.69 275.394 135.458 276.451 133.877C277.507 132.296 278.071 130.437 278.071 128.535C278.07 126.633 277.505 124.774 276.447 123.194C275.389 121.614 273.886 120.383 272.128 119.657C270.37 118.932 268.437 118.744 266.572 119.119C264.707 119.493 262.996 120.412 261.654 121.76C260.312 123.108 259.401 124.823 259.035 126.69C258.669 128.556 258.865 130.489 259.599 132.243C260.579 134.589 262.448 136.45 264.798 137.419C267.147 138.389 269.785 138.388 272.134 137.417Z" fill="#DF0345"/>
<path d="M277.763 159.474C279.652 158.696 281.269 157.376 282.41 155.679C283.55 153.983 284.162 151.988 284.17 149.944C284.177 147.9 283.579 145.9 282.451 144.196C281.323 142.492 279.715 141.16 277.831 140.368C275.947 139.576 273.87 139.361 271.864 139.748C269.857 140.135 268.01 141.107 266.555 142.543C265.101 143.978 264.104 145.813 263.69 147.814C263.277 149.816 263.466 151.895 264.233 153.789C264.744 155.053 265.501 156.204 266.459 157.175C267.417 158.146 268.558 158.917 269.815 159.446C271.073 159.974 272.422 160.249 273.786 160.253C275.15 160.258 276.502 159.993 277.763 159.474Z" fill="#DF0345"/>
<path d="M282.338 181.617C284.358 180.803 286.089 179.406 287.313 177.605C288.536 175.803 289.195 173.679 289.207 171.501C289.219 169.324 288.583 167.192 287.38 165.377C286.176 163.563 284.46 162.147 282.45 161.311C280.439 160.474 278.226 160.255 276.09 160.681C273.955 161.107 271.994 162.158 270.458 163.702C268.922 165.245 267.88 167.211 267.465 169.348C267.05 171.486 267.28 173.698 268.126 175.705C269.239 178.363 271.356 180.475 274.017 181.582C276.678 182.689 279.668 182.701 282.338 181.617Z" fill="#DF0345"/>
<path d="M285.636 202.794C287.529 202.02 289.15 200.702 290.295 199.007C291.44 197.312 292.056 195.316 292.067 193.27C292.078 191.225 291.482 189.222 290.355 187.516C289.228 185.809 287.621 184.474 285.736 183.68C283.851 182.887 281.773 182.67 279.764 183.056C277.756 183.443 275.907 184.416 274.452 185.853C272.996 187.29 271.999 189.126 271.587 191.13C271.174 193.133 271.365 195.213 272.134 197.109C272.643 198.372 273.397 199.522 274.352 200.492C275.308 201.463 276.446 202.235 277.701 202.763C278.956 203.292 280.303 203.566 281.665 203.572C283.027 203.577 284.377 203.312 285.636 202.794Z" fill="#DF0345"/>
<path d="M287.853 223.856C289.573 223.135 291.041 221.921 292.072 220.367C293.102 218.812 293.648 216.987 293.642 215.122C293.636 213.257 293.078 211.436 292.037 209.888C290.997 208.34 289.521 207.136 287.797 206.426C286.072 205.716 284.176 205.533 282.347 205.901C280.519 206.268 278.84 207.169 277.523 208.489C276.206 209.81 275.31 211.491 274.948 213.32C274.586 215.15 274.774 217.046 275.489 218.768C276.456 221.081 278.301 222.915 280.619 223.869C282.937 224.823 285.539 224.818 287.853 223.856Z" fill="#DF0345"/>
<path d="M289.046 244.834C290.58 244.199 291.891 243.124 292.813 241.744C293.735 240.365 294.227 238.742 294.227 237.083C294.226 235.423 293.733 233.801 292.81 232.422C291.888 231.043 290.576 229.968 289.042 229.335C287.508 228.701 285.821 228.537 284.194 228.863C282.566 229.189 281.073 229.991 279.901 231.167C278.73 232.342 277.934 233.839 277.614 235.467C277.293 237.096 277.464 238.783 278.103 240.314C278.957 242.362 280.589 243.988 282.641 244.835C284.692 245.683 286.995 245.682 289.046 244.834Z" fill="#DF0345"/>
<path d="M288.99 265.015C290.157 264.511 291.149 263.673 291.841 262.607C292.534 261.54 292.896 260.294 292.882 259.022C292.868 257.751 292.479 256.512 291.764 255.461C291.048 254.411 290.038 253.594 288.861 253.115C287.683 252.637 286.39 252.516 285.144 252.77C283.899 253.023 282.755 253.638 281.858 254.539C280.961 255.44 280.35 256.586 280.102 257.833C279.854 259.079 279.979 260.372 280.463 261.547C280.789 262.34 281.269 263.06 281.877 263.664C282.484 264.269 283.205 264.747 283.999 265.07C284.793 265.392 285.643 265.554 286.5 265.545C287.357 265.535 288.204 265.355 288.99 265.015Z" fill="#DF0345"/>
<path d="M288.023 285.424C288.87 285.073 289.593 284.478 290.102 283.716C290.61 282.954 290.881 282.057 290.881 281.141C290.88 280.225 290.607 279.329 290.098 278.567C289.588 277.806 288.864 277.213 288.017 276.863C287.17 276.513 286.238 276.422 285.339 276.601C284.441 276.781 283.615 277.223 282.968 277.872C282.321 278.521 281.88 279.347 281.702 280.246C281.524 281.145 281.617 282.076 281.969 282.923C282.446 284.052 283.35 284.948 284.483 285.416C285.616 285.884 286.888 285.887 288.023 285.424Z" fill="#DF0345"/>
<path d="M231.998 34.7749C233.681 34.0643 235.116 32.872 236.124 31.348C237.131 29.824 237.666 28.0362 237.66 26.2094C237.654 24.3825 237.108 22.5982 236.092 21.0805C235.075 19.5628 233.632 18.3795 231.945 17.6794C230.257 16.9793 228.401 16.7936 226.608 17.1455C224.815 17.4975 223.167 18.3715 221.869 19.6577C220.572 20.9438 219.684 22.5848 219.316 24.3743C218.949 26.1638 219.119 28.022 219.804 29.7153C220.265 30.8541 220.948 31.8898 221.813 32.7623C222.678 33.6348 223.707 34.3265 224.842 34.7973C225.977 35.2682 227.194 35.5086 228.422 35.5048C229.651 35.501 230.866 35.2529 231.998 34.7749Z" fill="#DF0345"/>
<path d="M241.833 54.6724C243.563 53.9536 245.04 52.7378 246.079 51.179C247.117 49.6201 247.67 47.7882 247.666 45.9152C247.663 44.0422 247.104 42.2123 246.06 40.657C245.017 39.1018 243.535 37.8912 241.803 37.1784C240.071 36.4657 238.166 36.2828 236.33 36.653C234.494 37.0232 232.809 37.9299 231.488 39.2581C230.168 40.5864 229.271 42.2766 228.911 44.1147C228.552 45.9529 228.746 47.8565 229.468 49.5844C229.944 50.7318 230.642 51.774 231.522 52.6512C232.401 53.5284 233.446 54.2232 234.594 54.6959C235.743 55.1687 236.974 55.4099 238.216 55.4059C239.458 55.4019 240.688 55.1526 241.833 54.6724Z" fill="#DF0345"/>
<path d="M273.214 65.019C274.864 64.3325 276.273 63.1723 277.264 61.6851C278.255 60.1979 278.782 58.4504 278.78 56.6634C278.778 54.8764 278.247 53.1301 277.253 51.6451C276.258 50.1601 274.846 49.0032 273.195 48.3204C271.544 47.6376 269.727 47.4596 267.974 47.8089C266.222 48.1582 264.612 49.0192 263.349 50.283C262.085 51.5468 261.225 53.1567 260.876 54.9094C260.527 56.662 260.706 58.4787 261.389 60.13C262.313 62.3429 264.076 64.0997 266.292 65.016C268.508 65.9322 270.997 65.9333 273.214 65.019Z" fill="#DF0345"/>
<path d="M281.173 85.3426C282.786 84.67 284.163 83.5345 285.131 82.0795C286.099 80.6244 286.614 78.9151 286.611 77.1676C286.608 75.42 286.087 73.7126 285.114 72.261C284.141 70.8094 282.759 69.6788 281.144 69.012C279.528 68.3453 277.752 68.1722 276.038 68.5148C274.324 68.8573 272.751 69.7001 271.516 70.9367C270.281 72.1732 269.44 73.748 269.1 75.4621C268.76 77.1762 268.935 78.9528 269.604 80.5672C270.049 81.6412 270.701 82.6169 271.524 83.4384C272.347 84.2599 273.323 84.9111 274.398 85.3547C275.472 85.7982 276.624 86.0255 277.787 86.0234C278.949 86.0213 280.1 85.79 281.173 85.3426Z" fill="#DF0345"/>
<path d="M288.364 106.149C289.977 105.477 291.355 104.341 292.323 102.886C293.29 101.431 293.805 99.722 293.802 97.9745C293.799 96.2269 293.278 94.5195 292.305 93.0679C291.332 91.6163 289.95 90.4857 288.335 89.8189C286.72 89.1521 284.943 88.9791 283.229 89.3217C281.516 89.6642 279.942 90.507 278.707 91.7435C277.472 92.9801 276.632 94.5549 276.291 96.269C275.951 97.9831 276.126 99.7597 276.795 101.374C277.24 102.448 277.893 103.424 278.715 104.245C279.538 105.067 280.515 105.718 281.589 106.162C282.664 106.605 283.815 106.832 284.978 106.83C286.14 106.828 287.291 106.597 288.364 106.149Z" fill="#DF0345"/>
<path d="M294.816 127.497C296.481 126.802 297.903 125.629 298.902 124.127C299.901 122.624 300.431 120.859 300.427 119.055C300.423 117.251 299.884 115.488 298.879 113.99C297.873 112.493 296.446 111.326 294.778 110.639C293.11 109.952 291.275 109.775 289.507 110.13C287.738 110.485 286.114 111.357 284.84 112.635C283.567 113.913 282.701 115.539 282.351 117.309C282.002 119.079 282.185 120.913 282.878 122.579C283.338 123.686 284.013 124.692 284.862 125.538C285.711 126.385 286.719 127.056 287.828 127.512C288.937 127.969 290.125 128.203 291.324 128.2C292.523 128.197 293.71 127.958 294.816 127.497Z" fill="#DF0345"/>
<path d="M253.914 23.4051C255.241 22.851 256.375 21.9156 257.171 20.7174C257.968 19.5191 258.391 18.1117 258.387 16.673C258.384 15.2342 257.954 13.8288 257.153 12.6342C256.351 11.4396 255.213 10.5096 253.882 9.9616C252.552 9.4136 251.089 9.27225 249.679 9.55541C248.268 9.83857 246.973 10.5335 245.957 11.5525C244.941 12.5714 244.251 13.8686 243.972 15.28C243.693 16.6915 243.839 18.1539 244.391 19.4825C245.139 21.2614 246.56 22.6723 248.344 23.4072C250.128 24.1421 252.13 24.1414 253.914 23.4051Z" fill="#DF0345"/>
<path d="M265.304 43.2713C269.053 40.8306 270.115 35.8123 267.674 32.0626C265.233 28.3128 260.215 27.2516 256.465 29.6923C252.716 32.133 251.654 37.1513 254.095 40.9011C256.536 44.6508 261.554 45.712 265.304 43.2713Z" fill="#DF0345"/>
<path d="M295.954 55.781C297.637 55.0763 299.074 53.8889 300.083 52.3685C301.092 50.8481 301.629 49.0628 301.624 47.238C301.62 45.4131 301.075 43.6304 300.059 42.1147C299.043 40.599 297.6 39.4183 295.914 38.7215C294.227 38.0247 292.372 37.843 290.582 38.1994C288.793 38.5557 287.149 39.4342 285.858 40.7239C284.567 42.0136 283.686 43.6568 283.328 45.4462C282.97 47.2356 283.15 49.0909 283.845 50.7783C284.788 53.047 286.593 54.8485 288.864 55.7866C291.134 56.7248 293.685 56.7227 295.954 55.781Z" fill="#DF0345"/>
<path d="M289.901 29.6593C291.362 26.1186 289.677 22.0636 286.136 20.602C282.596 19.1405 278.54 20.826 277.079 24.3667C275.617 27.9073 277.303 31.9624 280.844 33.4239C284.384 34.8854 288.439 33.2 289.901 29.6593Z" fill="#DF0345"/>
</g>
<circle cx="150.376" cy="150.376" r="134.5" transform="rotate(30.7703 150.376 150.376)" fill="url(#paint0_radial)"/>
</g>
<defs>
<radialGradient id="paint0_radial" cx="0" cy="0" r="1" gradientUnits="userSpaceOnUse" gradientTransform="translate(150.376 147.319) rotate(90) scale(137.557)">
<stop offset="0.746258" stop-color="white" stop-opacity="0"/>
<stop offset="0.977262" stop-color="white"/>
</radialGradient>
</defs>
</svg>
