<svg width="237" height="298" viewBox="0 0 237 298" fill="none" xmlns="http://www.w3.org/2000/svg">
<g opacity="0.75" filter="url(#filter0_f)">
<path d="M98.7726 266.229C88.0095 259.167 78.3933 250.468 70.4378 240.538C62.4823 230.607 56.1252 219.479 51.6016 207.627C47.078 195.775 44.3878 183.2 43.671 170.503C42.9248 157.746 44.1518 144.866 47.2791 132.349C50.4065 119.831 55.3094 107.741 61.8855 96.5049C68.4617 85.2683 76.678 74.9769 86.1571 65.9748C105.082 48.0624 129.172 35.6969 154.104 30.7375C129.301 36.7504 106.144 50.0532 88.4732 68.2884C79.6691 77.3899 72.1607 87.6891 66.329 98.6906C60.4973 109.692 56.28 121.428 53.9043 133.408C51.4991 145.328 50.8731 157.524 52.1029 169.359C53.3326 181.195 56.3558 192.701 61.0913 203.398C65.7645 214.127 72.1207 223.987 79.7966 232.718C87.4431 241.389 96.5669 248.774 106.526 254.683C109.715 256.546 110.572 260.658 108.465 263.837C106.388 267.075 102.145 268.146 99.0184 266.251C98.8937 266.315 98.802 266.288 98.7726 266.229Z" fill="url(#paint0_linear)"/>
</g>
<path d="M98.7726 266.229C88.0095 259.167 78.3933 250.468 70.4378 240.538C62.4823 230.607 56.1252 219.479 51.6016 207.627C47.078 195.775 44.3878 183.2 43.671 170.503C42.9248 157.746 44.1518 144.866 47.2791 132.349C50.4065 119.831 55.3094 107.741 61.8855 96.5049C68.4617 85.2683 76.678 74.9769 86.1571 65.9748C105.082 48.0624 129.172 35.6969 154.104 30.7375C129.301 36.7504 106.144 50.0532 88.4732 68.2884C79.6691 77.3899 72.1607 87.6891 66.329 98.6906C60.4973 109.692 56.28 121.428 53.9043 133.408C51.4991 145.328 50.8731 157.524 52.1029 169.359C53.3326 181.195 56.3558 192.701 61.0913 203.398C65.7645 214.127 72.1207 223.987 79.7966 232.718C87.4431 241.389 96.5669 248.774 106.526 254.683C109.715 256.546 110.572 260.658 108.465 263.837C106.388 267.075 102.145 268.146 99.0184 266.251C98.8937 266.315 98.802 266.288 98.7726 266.229Z" fill="url(#paint1_linear)"/>
<defs>
<filter id="filter0_f" x="13.459" y="0.737511" width="170.645" height="296.45" filterUnits="userSpaceOnUse" color-interpolation-filters="sRGB">
<feFlood flood-opacity="0" result="BackgroundImageFix"/>
<feBlend mode="normal" in="SourceGraphic" in2="BackgroundImageFix" result="shape"/>
<feGaussianBlur stdDeviation="15" result="effect1_foregroundBlur"/>
</filter>
<linearGradient id="paint0_linear" x1="107.34" y1="259.656" x2="122.851" y2="36.3466" gradientUnits="userSpaceOnUse">
<stop stop-color="#DF0345"/>
<stop offset="1" stop-color="#DF0345" stop-opacity="0"/>
</linearGradient>
<linearGradient id="paint1_linear" x1="107.34" y1="259.656" x2="122.851" y2="36.3466" gradientUnits="userSpaceOnUse">
<stop stop-color="#DF0345"/>
<stop offset="1" stop-color="#DF0345" stop-opacity="0"/>
</linearGradient>
</defs>
</svg>
