<svg width="237" height="298" viewBox="0 0 237 298" fill="none" xmlns="http://www.w3.org/2000/svg">
<g opacity="0.75" filter="url(#filter0_f)">
<path d="M139.272 266.141C150.011 259.183 159.586 250.581 167.483 240.737C175.381 230.893 181.665 219.84 186.102 208.051C190.54 196.262 193.131 183.736 193.742 171.072C194.382 158.348 193.04 145.486 189.795 132.971C186.55 120.455 181.527 108.351 174.832 97.0853C168.138 85.8194 159.805 75.4832 150.217 66.4234C131.074 48.3954 106.796 35.8602 81.7376 30.7082C106.676 36.9103 130.026 50.3731 147.913 68.713C156.825 77.8666 164.447 88.2048 170.392 99.2301C176.338 110.255 180.67 122 183.156 133.973C185.672 145.888 186.404 158.063 185.272 169.862C184.139 181.662 181.204 193.119 176.544 203.754C171.947 214.422 165.653 224.209 158.026 232.858C150.428 241.448 141.336 248.743 131.394 254.557C128.21 256.39 127.385 260.487 129.526 263.676C131.638 266.924 135.905 268.027 139.026 266.162C139.151 266.227 139.243 266.201 139.272 266.141Z" fill="url(#paint0_linear)"/>
</g>
<path d="M139.272 266.141C150.011 259.183 159.586 250.581 167.483 240.737C175.381 230.893 181.665 219.84 186.102 208.051C190.54 196.262 193.131 183.736 193.742 171.072C194.382 158.348 193.04 145.486 189.795 132.971C186.55 120.455 181.527 108.351 174.832 97.0853C168.138 85.8194 159.805 75.4832 150.217 66.4234C131.074 48.3954 106.796 35.8602 81.7376 30.7082C106.676 36.9103 130.026 50.3731 147.913 68.713C156.825 77.8666 164.447 88.2048 170.392 99.2301C176.338 110.255 180.67 122 183.156 133.973C185.672 145.888 186.404 158.063 185.272 169.862C184.139 181.662 181.204 193.119 176.544 203.754C171.947 214.422 165.653 224.209 158.026 232.858C150.428 241.448 141.336 248.743 131.394 254.557C128.21 256.39 127.385 260.487 129.526 263.676C131.638 266.924 135.905 268.027 139.026 266.162C139.151 266.227 139.243 266.201 139.272 266.141Z" fill="url(#paint1_linear)"/>
<defs>
<filter id="filter0_f" x="51.7378" y="0.70816" width="172.16" height="296.36" filterUnits="userSpaceOnUse" color-interpolation-filters="sRGB">
<feFlood flood-opacity="0" result="BackgroundImageFix"/>
<feBlend mode="normal" in="SourceGraphic" in2="BackgroundImageFix" result="shape"/>
<feGaussianBlur stdDeviation="15" result="effect1_foregroundBlur"/>
</filter>
<linearGradient id="paint0_linear" x1="130.62" y1="259.513" x2="117.008" y2="36.3243" gradientUnits="userSpaceOnUse">
<stop stop-color="#DF0345"/>
<stop offset="1" stop-color="#DF0345" stop-opacity="0"/>
</linearGradient>
<linearGradient id="paint1_linear" x1="130.62" y1="259.513" x2="117.008" y2="36.3243" gradientUnits="userSpaceOnUse">
<stop stop-color="#DF0345"/>
<stop offset="1" stop-color="#DF0345" stop-opacity="0"/>
</linearGradient>
</defs>
</svg>
