<svg width="154" height="159" viewBox="0 0 154 159" fill="none" xmlns="http://www.w3.org/2000/svg">
<mask id="mask0" style="mask-type:alpha" maskUnits="userSpaceOnUse" x="6" y="10" width="138" height="139">
<circle cx="75" cy="79.5" r="69" fill="white"/>
<circle cx="75" cy="79.5" r="69" fill="white"/>
</mask>
<g mask="url(#mask0)">
<path d="M6.48417 135.532C6.4943 135.522 6.50234 135.51 6.50783 135.497C6.51333 135.484 6.5162 135.47 6.5162 135.455C6.5162 135.441 6.51333 135.427 6.50783 135.414C6.50234 135.401 6.4943 135.389 6.48417 135.379C6.46395 135.366 6.44008 135.358 6.41563 135.358C6.39118 135.358 6.36727 135.366 6.34705 135.379C6.32974 135.401 6.32031 135.428 6.32031 135.455C6.32031 135.483 6.32974 135.51 6.34705 135.532C6.36626 135.548 6.39055 135.557 6.41563 135.557C6.44071 135.557 6.46496 135.548 6.48417 135.532Z" fill="#DF0345"/>
<path d="M14.7548 119.643C14.844 119.603 14.9143 119.53 14.9511 119.44C14.9879 119.349 14.9884 119.248 14.9524 119.157C14.9154 119.069 14.8453 118.999 14.7572 118.962C14.669 118.925 14.5699 118.924 14.4811 118.959C14.3919 118.999 14.3216 119.072 14.2848 119.163C14.248 119.253 14.2475 119.355 14.2835 119.446C14.3205 119.534 14.3906 119.604 14.4788 119.641C14.5669 119.678 14.666 119.679 14.7548 119.643Z" fill="#DF0345"/>
<path d="M18.7837 130.773C18.8825 130.732 18.9612 130.654 19.0026 130.556C19.0439 130.458 19.0445 130.347 19.0042 130.248C18.9639 130.149 18.8859 130.071 18.7876 130.029C18.6892 129.988 18.5785 129.987 18.4797 130.028C18.3791 130.068 18.2986 130.147 18.2559 130.247C18.2131 130.346 18.2116 130.459 18.2516 130.56C18.2979 130.655 18.3781 130.73 18.4765 130.769C18.5749 130.808 18.6844 130.81 18.7837 130.773Z" fill="#DF0345"/>
<path d="M21.7792 142.084C21.8241 142.068 21.8652 142.042 21.8998 142.009C21.9344 141.976 21.9618 141.936 21.9804 141.891C21.9989 141.847 22.0082 141.8 22.0076 141.752C22.007 141.704 21.9965 141.657 21.9768 141.613C21.9398 141.525 21.8697 141.455 21.7816 141.418C21.6934 141.381 21.5943 141.38 21.5055 141.415C21.4163 141.455 21.346 141.528 21.3092 141.619C21.2724 141.71 21.2719 141.811 21.3079 141.902C21.326 141.945 21.3528 141.985 21.3866 142.018C21.4204 142.051 21.4605 142.077 21.5046 142.094C21.5486 142.111 21.5956 142.119 21.6428 142.117C21.69 142.115 21.7364 142.104 21.7792 142.084Z" fill="#DF0345"/>
<path d="M9.73776 108.971C9.82587 108.933 9.89591 108.863 9.93287 108.775C9.96982 108.687 9.97071 108.588 9.93537 108.499C9.89528 108.41 9.82235 108.34 9.73173 108.303C9.64112 108.266 9.53984 108.266 9.44889 108.302C9.40528 108.32 9.36579 108.346 9.33281 108.38C9.29982 108.414 9.27399 108.454 9.25694 108.498C9.2399 108.542 9.23198 108.589 9.23361 108.637C9.23523 108.684 9.24641 108.73 9.26646 108.773C9.28308 108.818 9.30874 108.859 9.3419 108.893C9.37505 108.928 9.415 108.956 9.45919 108.974C9.50339 108.993 9.55088 109.002 9.5988 109.001C9.64672 109.001 9.69405 108.99 9.73776 108.971Z" fill="#DF0345"/>
<path d="M26.9938 114.93C27.0949 114.904 27.1894 114.857 27.2707 114.792C27.352 114.726 27.4184 114.644 27.4653 114.551C27.5123 114.458 27.5387 114.356 27.5427 114.251C27.5468 114.147 27.5285 114.043 27.489 113.947C27.4494 113.85 27.3897 113.763 27.3137 113.692C27.2377 113.62 27.1472 113.566 27.0484 113.532C26.9496 113.498 26.8448 113.486 26.7409 113.497C26.6371 113.507 26.5367 113.54 26.4465 113.592C26.3574 113.629 26.2764 113.683 26.2083 113.751C26.1401 113.819 26.0861 113.9 26.0493 113.989C26.0126 114.078 25.9938 114.173 25.9941 114.27C25.9945 114.366 26.0138 114.461 26.0512 114.55C26.0877 114.637 26.1411 114.716 26.2084 114.783C26.2757 114.849 26.3555 114.902 26.4431 114.937C26.5308 114.972 26.6246 114.99 26.7192 114.989C26.8137 114.987 26.907 114.968 26.9938 114.93Z" fill="#DF0345"/>
<path d="M31.0685 125.983C31.1571 125.948 31.2377 125.896 31.3057 125.829C31.3737 125.763 31.4277 125.683 31.4646 125.595C31.5014 125.507 31.5203 125.413 31.5202 125.318C31.52 125.223 31.5009 125.128 31.4638 125.041C31.4343 124.943 31.3846 124.852 31.3178 124.774C31.251 124.697 31.1686 124.634 31.076 124.591C30.9834 124.547 30.8827 124.523 30.7804 124.521C30.6781 124.519 30.5764 124.538 30.4821 124.578C30.3877 124.618 30.3028 124.677 30.2327 124.751C30.1627 124.826 30.1092 124.915 30.0756 125.011C30.042 125.108 30.0291 125.211 30.0378 125.313C30.0464 125.415 30.0764 125.514 30.1258 125.603C30.1623 125.69 30.2158 125.769 30.2831 125.836C30.3504 125.902 30.4301 125.955 30.5178 125.99C30.6055 126.025 30.6993 126.043 30.7938 126.042C30.8884 126.041 30.9817 126.021 31.0685 125.983Z" fill="#DF0345"/>
<path d="M34.2314 137.341C34.3642 137.285 34.4775 137.191 34.557 137.071C34.6366 136.95 34.6787 136.809 34.6783 136.665C34.6778 136.521 34.6347 136.381 34.5544 136.261C34.4741 136.141 34.3601 136.048 34.2269 135.993C34.0937 135.938 33.9473 135.924 33.8059 135.952C33.6646 135.98 33.5348 136.05 33.4329 136.151C33.3309 136.253 33.2614 136.383 33.233 136.524C33.2047 136.665 33.2188 136.812 33.2735 136.945C33.3507 137.123 33.4937 137.263 33.6725 137.337C33.8512 137.41 34.0516 137.412 34.2314 137.341Z" fill="#DF0345"/>
<path d="M36.4352 148.865C36.6027 148.794 36.7361 148.661 36.8071 148.493C36.878 148.326 36.881 148.138 36.8153 147.968C36.7414 147.799 36.6054 147.666 36.4354 147.595C36.2655 147.524 36.0748 147.521 35.903 147.588C35.7345 147.661 35.6017 147.798 35.5334 147.969C35.4651 148.14 35.4668 148.331 35.5381 148.5C35.5713 148.584 35.6212 148.661 35.6849 148.725C35.7486 148.79 35.8246 148.84 35.9085 148.875C35.9924 148.909 36.0823 148.925 36.1728 148.924C36.2633 148.922 36.3526 148.902 36.4352 148.865Z" fill="#DF0345"/>
<path d="M9.61654 84.3099C9.79995 84.2264 9.9446 84.0761 10.0209 83.8896C10.0972 83.7031 10.0994 83.4945 10.0271 83.3064C9.96796 83.1688 9.86948 83.0517 9.74404 82.9698C9.6186 82.8879 9.47175 82.8449 9.32196 82.8462C9.17216 82.8475 9.02611 82.893 8.9021 82.9771C8.77809 83.0611 8.68168 83.1799 8.62497 83.3185C8.56825 83.4572 8.55374 83.6095 8.5833 83.7564C8.61286 83.9032 8.68513 84.0381 8.79107 84.144C8.89701 84.2499 9.03186 84.3221 9.17873 84.3516C9.32559 84.3812 9.4779 84.3666 9.61654 84.3099Z" fill="#DF0345"/>
<path d="M16.2748 94.0098C16.4521 93.9326 16.5925 93.7896 16.6663 93.6108C16.74 93.4321 16.7414 93.2317 16.6701 93.0519C16.6143 92.9191 16.5203 92.8058 16.4002 92.7262C16.28 92.6467 16.1391 92.6045 15.995 92.605C15.8509 92.6055 15.7101 92.6486 15.5905 92.7289C15.4709 92.8092 15.3777 92.9232 15.3228 93.0564C15.2678 93.1896 15.2535 93.336 15.2816 93.4773C15.3098 93.6187 15.3792 93.7485 15.481 93.8504C15.5828 93.9524 15.7125 94.0219 15.8537 94.0503C15.995 94.0786 16.1415 94.0645 16.2748 94.0098Z" fill="#DF0345"/>
<path d="M22.0374 104.257C22.1265 104.221 22.2075 104.167 22.2756 104.099C22.3438 104.031 22.3978 103.95 22.4346 103.861C22.4713 103.772 22.4901 103.676 22.4898 103.58C22.4894 103.483 22.47 103.388 22.4327 103.299C22.3556 103.122 22.2125 102.982 22.0338 102.908C21.855 102.834 21.6546 102.833 21.4749 102.904C21.386 102.941 21.3053 102.995 21.2374 103.063C21.1694 103.131 21.1155 103.212 21.0788 103.301C21.0421 103.39 21.0233 103.485 21.0234 103.582C21.0236 103.678 21.0426 103.773 21.0796 103.862C21.1165 103.951 21.1706 104.031 21.2387 104.099C21.3069 104.167 21.3877 104.221 21.4766 104.258C21.5656 104.295 21.6609 104.313 21.7571 104.313C21.8533 104.313 21.9486 104.294 22.0374 104.257Z" fill="#DF0345"/>
<path d="M39.2788 110.263C39.4215 110.206 39.5512 110.122 39.6599 110.014C39.7686 109.905 39.8541 109.776 39.911 109.634C39.968 109.491 39.9952 109.339 39.9911 109.186C39.9869 109.032 39.9515 108.881 39.8869 108.742C39.8273 108.602 39.7406 108.476 39.6318 108.369C39.5231 108.263 39.3944 108.179 39.2531 108.122C39.1118 108.066 38.9608 108.038 38.8086 108.04C38.6565 108.042 38.5063 108.074 38.3666 108.134C38.0903 108.249 37.8711 108.469 37.7571 108.746C37.643 109.022 37.6435 109.333 37.7584 109.609C37.8733 109.885 38.0933 110.104 38.3699 110.218C38.6464 110.332 38.957 110.332 39.2332 110.217L39.2788 110.263Z" fill="#DF0345"/>
<path d="M43.3837 121.316C43.5264 121.259 43.6561 121.175 43.7648 121.067C43.8735 120.958 43.9589 120.829 44.0159 120.687C44.0729 120.544 44.1001 120.392 44.096 120.239C44.0918 120.085 44.0564 119.934 43.9919 119.795C43.9354 119.653 43.8506 119.523 43.7428 119.414C43.635 119.305 43.5062 119.218 43.3643 119.16C43.2223 119.102 43.0701 119.073 42.9167 119.075C42.7633 119.077 42.6119 119.11 42.4715 119.172C42.3288 119.228 42.1991 119.313 42.0904 119.421C41.9817 119.529 41.8962 119.659 41.8393 119.801C41.7823 119.943 41.7551 120.096 41.7592 120.249C41.7633 120.402 41.7988 120.553 41.8633 120.692C41.9198 120.835 42.0045 120.965 42.1124 121.074C42.2202 121.183 42.3489 121.269 42.4909 121.327C42.6328 121.386 42.7851 121.415 42.9385 121.413C43.0919 121.411 43.2433 121.378 43.3837 121.316Z" fill="#DF0345"/>
<path d="M46.6825 132.627C46.8192 132.571 46.9434 132.487 47.048 132.382C47.1526 132.277 47.2355 132.153 47.2919 132.016C47.3484 131.879 47.3774 131.732 47.3771 131.584C47.3769 131.436 47.3475 131.289 47.2906 131.153C47.2337 131.016 47.1504 130.892 47.0455 130.787C46.9406 130.683 46.8161 130.6 46.6792 130.543C46.5422 130.487 46.3955 130.458 46.2474 130.458C46.0992 130.458 45.9526 130.488 45.8158 130.545C45.6745 130.603 45.5463 130.688 45.4388 130.797C45.3313 130.905 45.2466 131.034 45.1899 131.176C45.1332 131.318 45.1056 131.47 45.1086 131.622C45.1117 131.775 45.1453 131.925 45.2077 132.065C45.3305 132.333 45.554 132.543 45.8299 132.648C46.1058 132.753 46.412 132.746 46.6825 132.627Z" fill="#DF0345"/>
<path d="M49.0853 144.182C49.3696 144.065 49.5958 143.84 49.7141 143.557C49.8324 143.273 49.8332 142.954 49.7163 142.67C49.5993 142.385 49.3742 142.159 49.0905 142.041C48.8068 141.922 48.4878 141.922 48.2035 142.039C48.0627 142.096 47.9347 142.182 47.8269 142.289C47.719 142.396 47.6333 142.524 47.5747 142.664C47.4563 142.948 47.4556 143.267 47.5725 143.551C47.6894 143.836 47.9145 144.062 48.1982 144.18C48.4819 144.298 48.801 144.299 49.0853 144.182Z" fill="#DF0345"/>
<path d="M7.28994 61.6714C7.56711 61.5555 7.80369 61.36 7.96982 61.1096C8.13596 60.8593 8.22419 60.5653 8.22339 60.2649C8.22259 59.9644 8.13279 59.6709 7.96532 59.4215C7.79785 59.172 7.56021 58.9778 7.28243 58.8633C7.00465 58.7488 6.69918 58.7191 6.40457 58.7781C6.10996 58.8371 5.83945 58.982 5.62716 59.1946C5.41486 59.4073 5.27029 59.678 5.21175 59.9727C5.15321 60.2674 5.18332 60.5728 5.29824 60.8504C5.37479 61.0354 5.4871 61.2034 5.62873 61.3448C5.77037 61.4862 5.93853 61.5983 6.12358 61.6746C6.30862 61.7508 6.50693 61.7898 6.70708 61.7893C6.90724 61.7888 7.10531 61.7487 7.28994 61.6714Z" fill="#DF0345"/>
<path d="M15.0439 70.2158C15.2087 70.1592 15.3601 70.0694 15.4888 69.9521C15.6176 69.8348 15.721 69.6923 15.7927 69.5335C15.8644 69.3748 15.9028 69.203 15.9057 69.0288C15.9085 68.8546 15.8756 68.6817 15.8092 68.5207C15.7427 68.3596 15.6439 68.2139 15.519 68.0925C15.3941 67.971 15.2457 67.8764 15.0829 67.8144C14.9201 67.7525 14.7463 67.7245 14.5722 67.7322C14.3982 67.7399 14.2276 67.7831 14.0708 67.8592C13.7782 68.0013 13.5508 68.2498 13.4351 68.5539C13.3193 68.858 13.3241 69.1948 13.4482 69.4955C13.5724 69.7962 13.8067 70.0382 14.1032 70.1721C14.3998 70.3059 14.7362 70.3216 15.0439 70.2158Z" fill="#DF0345"/>
<path d="M22.1895 79.4445C22.3308 79.3863 22.4592 79.3006 22.5672 79.1925C22.6751 79.0843 22.7606 78.9558 22.8185 78.8144C22.8765 78.673 22.9059 78.5215 22.9049 78.3687C22.9039 78.2159 22.8726 78.0647 22.8128 77.9241C22.6939 77.6398 22.4669 77.4144 22.1818 77.2975C21.8967 77.1806 21.5768 77.1818 21.2925 77.3007C21.0082 77.4197 20.7828 77.6467 20.6659 77.9318C20.549 78.217 20.5502 78.5368 20.6692 78.8211C20.7274 78.9624 20.813 79.0908 20.9212 79.1988C21.0293 79.3067 21.1578 79.3922 21.2992 79.4502C21.4406 79.5081 21.5921 79.5375 21.7449 79.5365C21.8978 79.5355 22.0489 79.5043 22.1895 79.4445Z" fill="#DF0345"/>
<path d="M28.6504 89.2966C28.8602 89.2074 29.0389 89.0581 29.1641 88.8676C29.2893 88.677 29.3553 88.4537 29.3539 88.2257C29.3524 87.9978 29.2836 87.7753 29.1559 87.5864C29.0283 87.3975 28.8477 87.2505 28.6368 87.164C28.4258 87.0775 28.194 87.0554 27.9705 87.1003C27.747 87.1453 27.5418 87.2554 27.3808 87.4167C27.2197 87.5781 27.1099 87.7835 27.0653 88.007C27.0207 88.2306 27.0432 88.4624 27.1301 88.6732C27.2509 88.9559 27.478 89.1798 27.7625 89.2964C28.0469 89.4131 28.3659 89.4131 28.6504 89.2966Z" fill="#DF0345"/>
<path d="M34.3679 99.6048C34.5829 99.518 34.7673 99.3692 34.8977 99.1774C35.0281 98.9856 35.0986 98.7593 35.1002 98.5274C35.1018 98.2955 35.0344 98.0683 34.9067 97.8747C34.779 97.6811 34.5967 97.5298 34.3828 97.44C34.169 97.3502 33.9333 97.3259 33.7056 97.3702C33.478 97.4146 33.2686 97.5256 33.1042 97.6891C32.9397 97.8526 32.8274 98.0613 32.7817 98.2887C32.736 98.5161 32.7589 98.7519 32.8475 98.9663C32.9042 99.1089 32.9888 99.2388 33.0964 99.3484C33.2039 99.458 33.3322 99.5451 33.4737 99.6045C33.6153 99.664 33.7672 99.6946 33.9208 99.6947C34.0743 99.6947 34.2263 99.6642 34.3679 99.6048Z" fill="#DF0345"/>
<path d="M51.5636 105.641C51.9466 105.481 52.2507 105.176 52.409 104.793C52.5672 104.409 52.5667 103.979 52.4074 103.596C52.2481 103.213 51.9432 102.909 51.5597 102.75C51.1762 102.592 50.7456 102.593 50.3625 102.752C50.1693 102.825 49.993 102.937 49.8444 103.081C49.6959 103.224 49.5781 103.397 49.4984 103.587C49.4187 103.778 49.3788 103.983 49.3809 104.19C49.3831 104.396 49.4274 104.6 49.511 104.789C49.5841 104.984 49.6965 105.162 49.8412 105.312C49.9859 105.462 50.16 105.581 50.3524 105.661C50.5449 105.741 50.7517 105.78 50.9601 105.776C51.1684 105.773 51.3738 105.727 51.5636 105.641Z" fill="#DF0345"/>
<path d="M55.7142 116.694C55.9801 116.568 56.2038 116.368 56.3583 116.118C56.5127 115.867 56.5912 115.578 56.5842 115.283C56.5772 114.989 56.4851 114.704 56.319 114.461C56.1529 114.218 55.9199 114.029 55.6483 113.916C55.3767 113.803 55.0782 113.771 54.7889 113.824C54.4996 113.878 54.232 114.014 54.0185 114.216C53.805 114.418 53.6547 114.678 53.586 114.964C53.5173 115.25 53.533 115.55 53.6313 115.827C53.7023 116.028 53.8146 116.211 53.9608 116.365C54.107 116.52 54.284 116.642 54.4803 116.723C54.6766 116.805 54.8878 116.844 55.1003 116.839C55.3129 116.834 55.522 116.785 55.7142 116.694Z" fill="#DF0345"/>
<path d="M59.1197 128.051C59.4247 127.923 59.6849 127.708 59.8676 127.432C60.0502 127.156 60.1469 126.833 60.1456 126.502C60.1443 126.171 60.0449 125.848 59.8601 125.574C59.6753 125.3 59.4133 125.086 59.1073 124.961C58.8012 124.836 58.4649 124.804 58.1407 124.87C57.8166 124.935 57.5193 125.096 57.2863 125.33C57.0533 125.565 56.8951 125.864 56.8318 126.188C56.7684 126.513 56.8027 126.849 56.9303 127.154C57.0151 127.357 57.139 127.541 57.295 127.696C57.4509 127.85 57.6358 127.973 57.8391 128.056C58.0424 128.139 58.2602 128.182 58.4799 128.181C58.6996 128.18 58.917 128.136 59.1197 128.051Z" fill="#DF0345"/>
<path d="M61.7196 139.575C62.0347 139.447 62.3044 139.227 62.4946 138.945C62.6847 138.663 62.7867 138.33 62.7877 137.99C62.7886 137.649 62.6883 137.316 62.4997 137.033C62.3111 136.75 62.0425 136.529 61.7281 136.398C61.4137 136.268 61.0676 136.234 60.7338 136.3C60.4 136.367 60.0934 136.531 59.8531 136.772C59.6127 137.013 59.4494 137.32 59.3838 137.654C59.3182 137.988 59.3533 138.334 59.4846 138.648C59.6595 139.066 59.9925 139.398 60.4111 139.572C60.8297 139.746 61.3001 139.747 61.7196 139.575Z" fill="#DF0345"/>
<path d="M63.5284 151.282C63.8532 151.147 64.1306 150.919 64.3254 150.626C64.5203 150.333 64.6239 149.989 64.6231 149.637C64.6224 149.285 64.5174 148.941 64.3213 148.649C64.1252 148.357 63.8469 148.13 63.5216 147.996C63.1963 147.862 62.8385 147.827 62.4936 147.896C62.1487 147.966 61.8321 148.136 61.5838 148.385C61.3356 148.635 61.1668 148.952 61.0989 149.297C61.031 149.642 61.0669 150 61.2023 150.325C61.3837 150.76 61.7307 151.106 62.167 151.285C62.6032 151.465 63.093 151.464 63.5284 151.282Z" fill="#DF0345"/>
<path d="M12.277 48.6722C12.7543 48.4736 13.1621 48.1379 13.4487 47.7076C13.7353 47.2773 13.888 46.7717 13.8873 46.2547C13.8867 45.7377 13.7329 45.2325 13.4452 44.8029C13.1576 44.3733 12.749 44.0386 12.2712 43.8411C11.7934 43.6436 11.2678 43.5922 10.7607 43.6933C10.2537 43.7945 9.78809 44.0436 9.42262 44.4093C9.05715 44.775 8.80826 45.2408 8.70743 45.7479C8.60661 46.255 8.65836 46.7806 8.85614 47.2583C8.98601 47.5772 9.17798 47.8672 9.42086 48.1113C9.66373 48.3555 9.95265 48.549 10.2709 48.6805C10.5892 48.8121 10.9304 48.8791 11.2748 48.8776C11.6192 48.8762 11.9598 48.8064 12.277 48.6722Z" fill="#DF0345"/>
<path d="M20.3959 56.8821C20.9641 56.6433 21.4153 56.1902 21.6515 55.6209C21.8878 55.0517 21.8901 54.4122 21.6578 53.8413C21.4818 53.4164 21.1837 53.0532 20.8013 52.7977C20.4189 52.5421 19.9694 52.4057 19.5095 52.4055C19.0495 52.4054 18.5999 52.5416 18.2173 52.7969C17.8348 53.0523 17.5366 53.4153 17.3603 53.8401C17.184 54.2649 17.1376 54.7324 17.2269 55.1836C17.3163 55.6347 17.5373 56.0493 17.8622 56.3748C18.1871 56.7004 18.6012 56.9223 19.0521 57.0126C19.5031 57.1029 19.9707 57.0575 20.3959 56.8821Z" fill="#DF0345"/>
<path d="M27.8906 65.5178C28.2481 65.3686 28.5535 65.1168 28.7681 64.7942C28.9827 64.4716 29.097 64.0927 29.0964 63.7052C29.0959 63.3178 28.9806 62.9391 28.7651 62.6171C28.5497 62.2951 28.2436 62.0441 27.8857 61.8959C27.5277 61.7476 27.1338 61.7087 26.7538 61.784C26.3737 61.8594 26.0245 62.0456 25.7501 62.3192C25.4758 62.5928 25.2886 62.9415 25.2123 63.3214C25.1359 63.7012 25.1738 64.0952 25.3211 64.4536C25.5228 64.9337 25.9059 65.3148 26.387 65.5141C26.8681 65.7134 27.4085 65.7147 27.8906 65.5178Z" fill="#DF0345"/>
<path d="M34.7782 74.7617C35.0933 74.633 35.363 74.4135 35.5531 74.1312C35.7433 73.8488 35.8453 73.5164 35.8462 73.176C35.8471 72.8356 35.7469 72.5026 35.5583 72.2193C35.3696 71.9359 35.1011 71.715 34.7867 71.5846C34.4723 71.4541 34.1262 71.42 33.7924 71.4865C33.4586 71.553 33.152 71.7172 32.9117 71.9583C32.6713 72.1993 32.508 72.5063 32.4424 72.8403C32.3768 73.1743 32.4119 73.5203 32.5432 73.8343C32.6282 74.0426 32.7536 74.2321 32.9122 74.3917C33.0708 74.5512 33.2595 74.6778 33.4673 74.764C33.6751 74.8503 33.8979 74.8945 34.1229 74.8941C34.3479 74.8937 34.5707 74.8487 34.7782 74.7617Z" fill="#DF0345"/>
<path d="M41.0569 84.5987C41.3229 84.473 41.5466 84.2728 41.7011 84.0224C41.8555 83.7721 41.934 83.4823 41.927 83.1882C41.9201 82.8941 41.828 82.6084 41.6618 82.3656C41.4957 82.1229 41.2627 81.9335 40.9911 81.8205C40.7195 81.7075 40.421 81.6757 40.1317 81.729C39.8424 81.7823 39.5748 81.9184 39.3613 82.1207C39.1478 82.323 38.9975 82.583 38.9288 82.869C38.8601 83.155 38.8758 83.4548 38.974 83.7321C39.0451 83.9325 39.1573 84.1158 39.3036 84.2701C39.4498 84.4244 39.6268 84.5463 39.8231 84.628C40.0194 84.7096 40.2306 84.7492 40.4431 84.7442C40.6556 84.7391 40.8647 84.6896 41.0569 84.5987Z" fill="#DF0345"/>
<path d="M46.6829 94.922C46.9546 94.8017 47.1851 94.6044 47.3459 94.3545C47.5067 94.1046 47.5907 93.813 47.5876 93.5159C47.5844 93.2187 47.4943 92.929 47.3283 92.6825C47.1623 92.4361 46.9277 92.2436 46.6535 92.1291C46.3793 92.0145 46.0776 91.9827 45.7856 92.0378C45.4935 92.0929 45.2241 92.2323 45.0104 92.4389C44.7968 92.6454 44.6484 92.9101 44.5835 93.2001C44.5187 93.4901 44.5402 93.7927 44.6455 94.0706C44.7188 94.2639 44.8306 94.4401 44.9743 94.5887C45.1179 94.7373 45.2903 94.855 45.481 94.9346C45.6717 95.0143 45.8766 95.0543 46.0832 95.0521C46.2899 95.05 46.4939 95.0057 46.6829 94.922Z" fill="#DF0345"/>
<path d="M63.8474 101.004C64.2149 100.852 64.5292 100.595 64.7504 100.265C64.9716 99.9347 65.0898 99.5463 65.09 99.1488C65.0901 98.7513 64.9723 98.3627 64.7513 98.0323C64.5303 97.7019 64.2162 97.4446 63.8488 97.2929C63.4814 97.1413 63.0773 97.1021 62.6876 97.1805C62.2979 97.2588 61.9403 97.4511 61.66 97.7329C61.3797 98.0148 61.1895 98.3735 61.1133 98.7636C61.0372 99.1537 61.0786 99.5577 61.2323 99.9242C61.4373 100.413 61.8274 100.801 62.3173 101.003C62.8073 101.205 63.3573 101.206 63.8474 101.004Z" fill="#DF0345"/>
<path d="M68.1047 112.224C68.5098 112.055 68.8559 111.771 69.0993 111.405C69.3426 111.04 69.4722 110.611 69.4717 110.172C69.4713 109.733 69.3408 109.305 69.0967 108.94C68.8526 108.575 68.5059 108.291 68.1004 108.123C67.6949 107.956 67.2488 107.912 66.8184 107.998C66.388 108.083 65.9927 108.295 65.6824 108.605C65.3721 108.915 65.1607 109.311 65.075 109.741C64.9893 110.171 65.033 110.617 65.2007 111.023C65.3123 111.293 65.476 111.538 65.6824 111.744C65.8888 111.951 66.1338 112.114 66.4036 112.226C66.6733 112.337 66.9624 112.395 67.2543 112.394C67.5462 112.394 67.8352 112.336 68.1047 112.224Z" fill="#DF0345"/>
<path d="M71.6471 123.688C72.0899 123.502 72.4678 123.189 72.7332 122.789C72.9986 122.389 73.1397 121.919 73.1386 121.439C73.1376 120.959 72.9944 120.49 72.7272 120.091C72.46 119.692 72.0807 119.381 71.6371 119.197C71.1935 119.013 70.7054 118.965 70.2343 119.058C69.7633 119.151 69.3303 119.381 68.99 119.72C68.6497 120.059 68.4172 120.491 68.3219 120.961C68.2265 121.432 68.2726 121.92 68.4543 122.365C68.5759 122.662 68.7552 122.933 68.9819 123.16C69.2085 123.388 69.4781 123.569 69.775 123.692C70.0719 123.815 70.3901 123.878 70.7115 123.877C71.0328 123.876 71.3508 123.812 71.6471 123.688Z" fill="#DF0345"/>
<path d="M74.3995 135.212C74.8571 135.021 75.2477 134.698 75.5221 134.285C75.7965 133.872 75.9423 133.387 75.9411 132.891C75.9398 132.395 75.7917 131.911 75.5153 131.499C75.2389 131.087 74.8467 130.767 74.3882 130.578C73.9297 130.389 73.4254 130.34 72.9392 130.438C72.453 130.535 72.0065 130.775 71.6563 131.126C71.3061 131.477 71.0678 131.924 70.9715 132.41C70.8753 132.897 70.9254 133.401 71.1155 133.859C71.2419 134.164 71.4273 134.44 71.6609 134.673C71.8945 134.906 72.1717 135.091 72.4767 135.217C72.7818 135.342 73.1087 135.407 73.4386 135.406C73.7685 135.405 74.0951 135.339 74.3995 135.212Z" fill="#DF0345"/>
<path d="M76.4056 146.858C76.8732 146.666 77.2734 146.339 77.5553 145.92C77.8373 145.5 77.9883 145.006 77.9893 144.501C77.9904 143.995 77.8413 143.5 77.5611 143.08C77.2809 142.659 76.8821 142.331 76.4152 142.137C75.9483 141.943 75.4344 141.892 74.9384 141.99C74.4425 142.088 73.9869 142.331 73.6294 142.689C73.2718 143.046 73.0283 143.502 72.9298 143.998C72.8313 144.494 72.8822 145.008 73.076 145.475C73.335 146.099 73.8309 146.595 74.455 146.854C75.0791 147.113 75.7805 147.115 76.4056 146.858Z" fill="#DF0345"/>
<path d="M7.15305 26.201C7.40263 26.1013 7.61686 25.9295 7.76843 25.7076C7.92 25.4856 8.00203 25.2236 8.00409 24.9548C8.00615 24.686 7.92814 24.4228 7.77998 24.1985C7.63183 23.9743 7.42024 23.7992 7.17221 23.6957C6.92418 23.5922 6.65095 23.5649 6.38733 23.6172C6.12372 23.6696 5.88167 23.7993 5.69205 23.9898C5.50243 24.1802 5.37382 24.4229 5.32262 24.6867C5.27143 24.9505 5.29998 25.2237 5.40461 25.4712C5.47131 25.6341 5.56946 25.7822 5.69349 25.9071C5.81752 26.0319 5.96499 26.1311 6.12741 26.1989C6.28983 26.2667 6.46402 26.3018 6.64002 26.3021C6.81602 26.3025 6.99035 26.2681 7.15305 26.201Z" fill="#DF0345"/>
<path d="M16.5941 34.6846C17.0342 34.512 17.4128 34.2118 17.6811 33.8225C17.9494 33.4332 18.0952 32.9726 18.0999 32.4998C18.1045 32.0271 17.9677 31.5637 17.7071 31.1692C17.4465 30.7747 17.074 30.4671 16.6373 30.2859C16.2006 30.1047 15.7198 30.0581 15.2564 30.1521C14.7931 30.2462 14.3684 30.4766 14.0369 30.8137C13.7055 31.1509 13.4823 31.5794 13.3962 32.0443C13.31 32.5091 13.3647 32.9892 13.5533 33.4227C13.7952 33.9883 14.2487 34.4369 14.8168 34.6727C15.385 34.9085 16.0228 34.9128 16.5941 34.6846Z" fill="#DF0345"/>
<path d="M25.3975 43.4422C25.9499 43.208 26.4208 42.8155 26.7507 42.3143C27.0806 41.8131 27.2547 41.2254 27.2513 40.6254C27.248 40.0253 27.0671 39.4397 26.7316 38.9422C26.3961 38.4448 25.9208 38.0577 25.3657 37.8297C24.8106 37.6018 24.2006 37.5432 23.6122 37.6613C23.0239 37.7794 22.4837 38.0689 22.0596 38.4934C21.6355 38.9179 21.3464 39.4584 21.2289 40.0468C21.1113 40.6352 21.1704 41.2453 21.3989 41.8001C21.5519 42.1719 21.7771 42.5095 22.0615 42.7937C22.3458 43.0778 22.6838 43.3027 23.0556 43.4554C23.4275 43.6081 23.8259 43.6855 24.2279 43.6833C24.6298 43.681 25.0274 43.599 25.3975 43.4422Z" fill="#DF0345"/>
<path d="M33.3036 51.8954C33.8235 51.6795 34.2677 51.314 34.5797 50.8454C34.8918 50.3768 35.0577 49.8261 35.0564 49.2631C35.0551 48.7001 34.8866 48.1501 34.5724 47.6829C34.2582 47.2158 33.8124 46.8524 33.2914 46.6389C32.7704 46.4254 32.1979 46.3713 31.6462 46.4836C31.0945 46.5959 30.5885 46.8695 30.1924 47.2697C29.7964 47.6698 29.5281 48.1786 29.4215 48.7314C29.3149 49.2842 29.3749 49.8563 29.5938 50.375C29.8859 51.0671 30.44 51.6155 31.1351 51.9004C31.8302 52.1852 32.6098 52.1834 33.3036 51.8954Z" fill="#DF0345"/>
<path d="M40.6016 60.8352C41.0741 60.6398 41.478 60.3087 41.7623 59.8837C42.0465 59.4588 42.1984 58.959 42.1986 58.4477C42.1988 57.9364 42.0474 57.4366 41.7634 57.0114C41.4795 56.5862 41.0758 56.2547 40.6035 56.059C40.1311 55.8632 39.6113 55.812 39.1099 55.9117C38.6084 56.0114 38.1477 56.2576 37.7862 56.6192C37.4247 56.9807 37.1785 57.4414 37.0789 57.9429C36.9792 58.4444 37.0305 58.9641 37.2263 59.4365C37.4887 60.0693 37.9916 60.5721 38.6244 60.8344C39.2573 61.0967 39.9685 61.097 40.6016 60.8352Z" fill="#DF0345"/>
<path d="M47.3215 70.0639C47.7266 69.8953 48.0727 69.6104 48.316 69.2453C48.5593 68.8801 48.689 68.451 48.6885 68.0121C48.6881 67.5733 48.5576 67.1444 48.3135 66.7798C48.0694 66.4151 47.7227 66.1309 47.3172 65.9632C46.9117 65.7955 46.4655 65.7517 46.0352 65.8374C45.6048 65.9232 45.2095 66.1345 44.8992 66.4448C44.5889 66.7551 44.3775 67.1504 44.2918 67.5808C44.2061 68.0111 44.2498 68.4573 44.4175 68.8628C44.5291 69.1325 44.6928 69.3776 44.8992 69.584C45.1056 69.7904 45.3506 69.9541 45.6204 70.0657C45.8901 70.1772 46.1792 70.2345 46.4711 70.2342C46.763 70.2339 47.052 70.176 47.3215 70.0639Z" fill="#DF0345"/>
<path d="M53.4634 79.9463C53.8407 79.7895 54.1631 79.5246 54.3899 79.1848C54.6168 78.845 54.7379 78.4456 54.7379 78.037C54.738 77.6285 54.617 77.2291 54.3903 76.8892C54.1636 76.5493 53.8412 76.2842 53.464 76.1274C53.0867 75.9706 52.6715 75.929 52.2706 76.008C51.8698 76.0869 51.5013 76.2829 51.2117 76.5711C50.9221 76.8593 50.7244 77.2268 50.6435 77.6272C50.5626 78.0277 50.6021 78.4432 50.7571 78.8212C50.8604 79.0731 51.0125 79.3022 51.2046 79.4953C51.3967 79.6883 51.6251 79.8415 51.8765 79.946C52.128 80.0505 52.3976 80.1044 52.6699 80.1044C52.9422 80.1045 53.2119 80.0507 53.4634 79.9463Z" fill="#DF0345"/>
<path d="M58.9667 90.2393C59.3242 90.09 59.6296 89.8382 59.8442 89.5156C60.0588 89.193 60.173 88.8141 60.1725 88.4266C60.172 88.0392 60.0568 87.6606 59.8413 87.3386C59.6258 87.0165 59.3198 86.7656 58.9618 86.6173C58.6038 86.469 58.21 86.4301 57.8299 86.5055C57.4499 86.5808 57.1006 86.767 56.8263 87.0406C56.552 87.3142 56.3648 87.663 56.2885 88.0428C56.2121 88.4227 56.25 88.8166 56.3973 89.175C56.599 89.6551 56.982 90.0362 57.4632 90.2355C57.9443 90.4348 58.4846 90.4361 58.9667 90.2393Z" fill="#DF0345"/>
<path d="M76.2699 96.6705C76.7753 96.4624 77.2078 96.1092 77.5127 95.6556C77.8177 95.202 77.9814 94.6683 77.9834 94.1217C77.9853 93.5751 77.8254 93.0402 77.5237 92.5845C77.222 92.1287 76.7921 91.7725 76.2882 91.5608C75.7843 91.349 75.229 91.2913 74.6923 91.3948C74.1556 91.4983 73.6616 91.7584 73.2726 92.1424C72.8835 92.5263 72.617 93.0169 72.5064 93.5521C72.3959 94.0874 72.4463 94.6435 72.6514 95.1501C72.7882 95.4882 72.9906 95.7959 73.2468 96.0556C73.5031 96.3152 73.8081 96.5216 74.1444 96.6629C74.4807 96.8042 74.8416 96.8776 75.2064 96.8789C75.5712 96.8802 75.9326 96.8094 76.2699 96.6705Z" fill="#DF0345"/>
<path d="M80.6027 107.967C81.1752 107.73 81.6645 107.328 82.0085 106.812C82.3526 106.297 82.536 105.691 82.5355 105.071C82.535 104.451 82.3507 103.846 82.0058 103.331C81.6609 102.816 81.1711 102.415 80.5982 102.178C80.0253 101.942 79.3951 101.881 78.7875 102.003C78.1799 102.125 77.622 102.424 77.1846 102.863C76.7472 103.302 76.4499 103.861 76.3303 104.469C76.2108 105.077 76.2743 105.707 76.5129 106.279C76.6693 106.66 76.8995 107.005 77.1902 107.296C77.4809 107.587 77.8262 107.818 78.2064 107.975C78.5866 108.132 78.9941 108.212 79.4053 108.21C79.8166 108.209 80.2235 108.126 80.6027 107.967Z" fill="#DF0345"/>
<path d="M84.2211 119.491C84.8412 119.235 85.3712 118.8 85.744 118.242C86.1168 117.684 86.3155 117.027 86.3151 116.356C86.3147 115.685 86.1151 115.029 85.7416 114.472C85.3682 113.914 84.8376 113.48 84.2172 113.224C83.5967 112.968 82.9143 112.902 82.2564 113.035C81.5984 113.167 80.9946 113.491 80.5212 113.967C80.0478 114.443 79.7263 115.048 79.5974 115.707C79.4684 116.366 79.5378 117.048 79.7968 117.667C79.9665 118.078 80.2159 118.451 80.5304 118.766C80.845 119.08 81.2186 119.329 81.6297 119.499C82.0408 119.668 82.4814 119.755 82.9261 119.754C83.3709 119.752 83.811 119.663 84.2211 119.491Z" fill="#DF0345"/>
<path d="M87.1094 131.016C87.7492 130.752 88.2963 130.304 88.6813 129.728C89.0663 129.153 89.2719 128.477 89.2721 127.784C89.2723 127.092 89.067 126.415 88.6823 125.84C88.2975 125.265 87.7507 124.816 87.111 124.552C86.4713 124.287 85.7674 124.219 85.0887 124.355C84.4099 124.491 83.7868 124.825 83.2982 125.315C82.8096 125.806 82.4775 126.43 82.344 127.109C82.2105 127.788 82.2815 128.492 82.5482 129.131C82.7214 129.556 82.9773 129.942 83.3011 130.268C83.6249 130.594 84.0102 130.852 84.4346 131.027C84.8589 131.202 85.3139 131.292 85.7731 131.29C86.2322 131.288 86.6865 131.195 87.1094 131.016Z" fill="#DF0345"/>
<path d="M89.2528 142.677C89.9075 142.409 90.4679 141.952 90.8628 141.365C91.2577 140.778 91.4694 140.087 91.4709 139.379C91.4725 138.671 91.264 137.979 90.8717 137.39C90.4795 136.801 89.9212 136.342 89.2676 136.071C88.6141 135.8 87.8947 135.729 87.2007 135.867C86.5068 136.005 85.8694 136.346 85.3695 136.847C84.8696 137.347 84.5296 137.985 84.3927 138.68C84.2558 139.374 84.3281 140.093 84.6004 140.746C84.9637 141.617 85.6568 142.309 86.5285 142.671C87.4001 143.033 88.3795 143.035 89.2528 142.677Z" fill="#DF0345"/>
<path d="M90.774 154.232C91.399 153.973 91.9334 153.535 92.3094 152.973C92.6855 152.411 92.8864 151.749 92.8867 151.073C92.887 150.396 92.6867 149.735 92.3112 149.172C91.9357 148.61 91.4018 148.171 90.7769 147.912C90.1521 147.652 89.4645 147.584 88.8009 147.716C88.1373 147.847 87.5276 148.172 87.0489 148.65C86.5701 149.128 86.2438 149.737 86.1113 150.401C85.9787 151.064 86.0458 151.752 86.304 152.377C86.4756 152.793 86.7274 153.17 87.0449 153.488C87.3625 153.806 87.7395 154.059 88.1546 154.231C88.5698 154.403 89.0148 154.492 89.4642 154.492C89.9136 154.492 90.3587 154.404 90.774 154.232Z" fill="#DF0345"/>
<path d="M10.8776 11.955C10.9312 11.9349 10.9801 11.9042 11.0216 11.8648C11.063 11.8253 11.0961 11.7779 11.1188 11.7254C11.1415 11.6729 11.1534 11.6164 11.1537 11.5592C11.1541 11.502 11.1429 11.4453 11.1209 11.3925C11.0992 11.3384 11.0669 11.2891 11.0261 11.2475C10.9852 11.206 10.9365 11.1729 10.8828 11.1503C10.8291 11.1277 10.7714 11.1159 10.7131 11.1157C10.6548 11.1155 10.597 11.1269 10.5432 11.1492C10.4366 11.1959 10.3528 11.2829 10.3101 11.3911C10.2674 11.4993 10.2692 11.62 10.3151 11.727C10.3618 11.8298 10.4462 11.9108 10.5509 11.9532C10.6555 11.9956 10.7725 11.9963 10.8776 11.955Z" fill="#DF0345"/>
<path d="M20.486 20.1345C20.655 20.0663 20.8087 19.965 20.938 19.8366C21.0674 19.7082 21.1697 19.5552 21.2391 19.3866C21.3085 19.2181 21.3436 19.0374 21.3422 18.8551C21.3408 18.6729 21.303 18.4927 21.231 18.3253C21.1258 18.0727 20.948 17.857 20.7201 17.7054C20.4923 17.5539 20.2246 17.4733 19.951 17.4739C19.6773 17.4745 19.41 17.5562 19.1828 17.7087C18.9556 17.8612 18.7787 18.0776 18.6745 18.3306C18.5703 18.5837 18.5435 18.8619 18.5975 19.1302C18.6514 19.3984 18.7837 19.6447 18.9776 19.8378C19.1715 20.0309 19.4183 20.1621 19.6868 20.2149C19.9553 20.2678 20.2334 20.2398 20.486 20.1345Z" fill="#DF0345"/>
<path d="M29.7916 29.1809C30.2823 28.9805 30.7029 28.6396 31.0007 28.201C31.2984 27.7623 31.4599 27.2456 31.465 26.7155C31.4701 26.1854 31.3186 25.6656 31.0293 25.2214C30.7401 24.7771 30.3261 24.4282 29.8393 24.2183C29.3524 24.0085 28.8145 23.9471 28.2929 24.0419C27.7714 24.1367 27.2894 24.3834 26.9075 24.7511C26.5257 25.1187 26.2609 25.591 26.1465 26.1086C26.032 26.6263 26.073 27.1661 26.2643 27.6605C26.3916 27.9954 26.5848 28.3012 26.8325 28.56C27.0802 28.8187 27.3773 29.0251 27.7063 29.1669C28.0352 29.3087 28.3893 29.383 28.7475 29.3854C29.1057 29.3878 29.4607 29.3183 29.7916 29.1809Z" fill="#DF0345"/>
<path d="M38.1985 37.7712C38.7357 37.5407 39.1924 37.1557 39.5104 36.6651C39.8284 36.1746 39.9935 35.6006 39.9846 35.016C39.9758 34.4315 39.7935 33.8627 39.4608 33.382C39.128 32.9013 38.6599 32.5303 38.116 32.3161C37.572 32.102 36.9766 32.0543 36.4055 32.1791C35.8344 32.304 35.3132 32.5958 34.9082 33.0174C34.5032 33.4391 34.2327 33.9715 34.131 34.5472C34.0292 35.1229 34.1008 35.7159 34.3367 36.2508C34.6503 36.9619 35.2319 37.5204 35.955 37.8051C36.6781 38.0898 37.4843 38.0776 38.1985 37.7712Z" fill="#DF0345"/>
<path d="M45.938 46.4677C46.4481 46.2551 46.8838 45.8962 47.1902 45.4363C47.4966 44.9763 47.6599 44.4359 47.6594 43.8833C47.659 43.3307 47.495 42.7905 47.1879 42.331C46.8808 41.8715 46.4446 41.5133 45.9341 41.3015C45.4237 41.0897 44.8619 41.0338 44.3197 41.1409C43.7776 41.248 43.2793 41.5133 42.8877 41.9033C42.4962 42.2933 42.2289 42.7906 42.1197 43.3323C42.0104 43.8741 42.0641 44.436 42.2738 44.9473C42.4138 45.2884 42.6197 45.5984 42.8799 45.8596C43.1401 46.1208 43.4493 46.328 43.7898 46.4693C44.1303 46.6106 44.4954 46.6832 44.864 46.6829C45.2327 46.6826 45.5977 46.6095 45.938 46.4677Z" fill="#DF0345"/>
<path d="M53.0684 55.4835C53.526 55.2924 53.9166 54.9699 54.191 54.5568C54.4654 54.1437 54.6112 53.6586 54.61 53.1626C54.6088 52.6667 54.4606 52.1823 54.1842 51.7706C53.9078 51.3588 53.5156 51.0383 53.0571 50.8493C52.5986 50.6604 52.0944 50.6116 51.6081 50.7091C51.1219 50.8066 50.6755 51.0461 50.3253 51.3972C49.9751 51.7483 49.7368 52.1953 49.6405 52.6818C49.5442 53.1683 49.5943 53.6724 49.7844 54.1304C49.9109 54.4351 50.0962 54.7119 50.3298 54.9449C50.5634 55.1779 50.8406 55.3625 51.1457 55.4882C51.4507 55.6139 51.7776 55.6782 52.1075 55.6774C52.4375 55.6766 52.764 55.6107 53.0684 55.4835Z" fill="#DF0345"/>
<path d="M59.7122 65.0771C60.1518 64.8956 60.5278 64.5877 60.7923 64.1924C61.0568 63.7971 61.198 63.3321 61.198 62.8565C61.198 62.3808 61.0568 61.9159 60.7922 61.5206C60.5277 61.1253 60.1518 60.8174 59.7121 60.636C59.2724 60.4545 58.7887 60.4077 58.3223 60.5015C57.856 60.5952 57.428 60.8253 57.0926 61.1625C56.7572 61.4998 56.5294 61.929 56.4381 62.3958C56.3469 62.8627 56.3964 63.3461 56.5802 63.7848C56.7 64.076 56.8763 64.3407 57.0989 64.5635C57.3215 64.7863 57.586 64.9628 57.8771 65.083C58.1682 65.2031 58.4803 65.2644 58.7952 65.2634C59.1102 65.2624 59.4218 65.1991 59.7122 65.0771Z" fill="#DF0345"/>
<path d="M65.8551 75.2939C66.3176 75.0995 66.7121 74.7724 66.9888 74.3541C67.2655 73.9357 67.4121 73.4447 67.4101 72.9431C67.4081 72.4414 67.2575 71.9517 66.9774 71.5355C66.6973 71.1194 66.3001 70.7956 65.8362 70.6049C65.3722 70.4142 64.8621 70.3652 64.3704 70.4642C63.8786 70.5631 63.4271 70.8054 63.073 71.1607C62.7188 71.5159 62.4778 71.9681 62.3804 72.4602C62.2829 72.9523 62.3335 73.4622 62.5256 73.9256C62.6536 74.2346 62.8415 74.5153 63.0784 74.7514C63.3153 74.9876 63.5965 75.1746 63.906 75.3018C64.2154 75.4289 64.5468 75.4937 64.8813 75.4924C65.2159 75.491 65.5468 75.4236 65.8551 75.2939Z" fill="#DF0345"/>
<path d="M71.3739 85.7998C71.8494 85.599 72.2548 85.2619 72.539 84.831C72.8233 84.4002 72.9737 83.8949 72.9713 83.3787C72.9689 82.8626 72.8138 82.3587 72.5255 81.9305C72.2373 81.5023 71.8287 81.1691 71.3514 80.9726C70.8741 80.7762 70.3493 80.7254 69.8432 80.8267C69.337 80.928 68.8722 81.1768 68.5072 81.5417C68.1422 81.9067 67.8934 82.3715 67.7921 82.8777C67.6908 83.3838 67.7415 83.9085 67.9379 84.3859C68.2099 85.0259 68.7229 85.533 69.3659 85.7976C70.0089 86.0623 70.7303 86.063 71.3739 85.7998Z" fill="#DF0345"/>
<path d="M88.7666 92.5349C89.4489 92.2503 90.0316 91.7699 90.4411 91.1544C90.8505 90.5389 91.0684 89.8158 91.0671 89.0765C91.0659 88.3373 90.8456 87.6149 90.434 87.0008C90.0225 86.3867 89.4382 85.9083 88.7549 85.6261C88.0716 85.3438 87.32 85.2704 86.595 85.4151C85.87 85.5598 85.2042 85.9161 84.6816 86.439C84.159 86.9619 83.8031 87.628 83.6588 88.353C83.5146 89.0781 83.5884 89.8297 83.871 90.5128C84.0591 90.9674 84.3351 91.3805 84.6832 91.7284C85.0312 92.0762 85.4444 92.3519 85.8992 92.5398C86.354 92.7276 86.8413 92.8239 87.3334 92.823C87.8254 92.8222 88.3125 92.7243 88.7666 92.5349Z" fill="#DF0345"/>
<path d="M93.161 103.984C93.9337 103.664 94.594 103.122 95.0586 102.426C95.5231 101.731 95.7709 100.913 95.7706 100.077C95.7703 99.2406 95.522 98.4232 95.0569 97.7281C94.5919 97.0331 93.9311 96.4916 93.1582 96.1722C92.3853 95.8528 91.535 95.7699 90.7149 95.9339C89.8949 96.098 89.1419 96.5016 88.5514 97.0937C87.9608 97.6859 87.5592 98.4399 87.3973 99.2604C87.2354 100.081 87.3206 100.931 87.6421 101.703C88.0724 102.737 88.8952 103.557 89.9298 103.985C90.9645 104.412 92.1266 104.412 93.161 103.984Z" fill="#DF0345"/>
<path d="M96.7489 115.204C97.5216 114.884 98.182 114.342 98.6465 113.646C99.1111 112.951 99.3589 112.133 99.3586 111.297C99.3582 110.461 99.1099 109.643 98.6448 108.948C98.1798 108.253 97.519 107.712 96.7461 107.392C95.9732 107.073 95.1229 106.99 94.3028 107.154C93.4828 107.318 92.7298 107.722 92.1393 108.314C91.5487 108.906 91.1471 109.66 90.9852 110.481C90.8233 111.301 90.9085 112.151 91.2299 112.923C91.6603 113.957 92.4831 114.777 93.5178 115.205C94.5525 115.633 95.7145 115.632 96.7489 115.204Z" fill="#DF0345"/>
<path d="M99.6529 126.47C100.396 126.16 101.03 125.636 101.476 124.966C101.922 124.295 102.159 123.507 102.157 122.702C102.156 121.897 101.915 121.11 101.467 120.441C101.019 119.773 100.382 119.252 99.6382 118.944C98.894 118.637 98.0754 118.557 97.2858 118.714C96.4961 118.872 95.7708 119.259 95.2015 119.829C94.6321 120.398 94.2441 121.123 94.0866 121.913C93.929 122.703 94.009 123.521 94.3163 124.265C94.7331 125.264 95.5289 126.057 96.5291 126.47C97.5294 126.883 98.6527 126.883 99.6529 126.47Z" fill="#DF0345"/>
<path d="M102.04 138.192C102.815 137.866 103.477 137.318 103.942 136.617C104.406 135.916 104.653 135.093 104.65 134.252C104.647 133.41 104.395 132.589 103.925 131.891C103.456 131.193 102.79 130.65 102.013 130.329C101.235 130.009 100.379 129.927 99.5547 130.093C98.73 130.258 97.9728 130.664 97.3788 131.26C96.7847 131.855 96.3805 132.614 96.217 133.439C96.0534 134.264 96.138 135.119 96.46 135.896C96.8968 136.939 97.7294 137.767 98.7754 138.197C99.8214 138.628 100.995 138.626 102.04 138.192Z" fill="#DF0345"/>
<path d="M103.682 149.823C104.454 149.503 105.115 148.961 105.579 148.266C106.044 147.57 106.291 146.753 106.291 145.916C106.291 145.08 106.042 144.263 105.577 143.567C105.112 142.872 104.452 142.331 103.679 142.012C102.906 141.692 102.055 141.609 101.235 141.773C100.415 141.937 99.6624 142.341 99.0718 142.933C98.4813 143.525 98.0797 144.279 97.9178 145.1C97.756 145.92 97.8411 146.77 98.1625 147.542C98.5928 148.576 99.4157 149.397 100.45 149.824C101.485 150.252 102.647 150.251 103.682 149.823Z" fill="#DF0345"/>
<path d="M34.1549 15.3302C34.6323 15.1315 35.04 14.7959 35.3266 14.3656C35.6132 13.9353 35.7659 13.4297 35.7652 12.9127C35.7646 12.3957 35.6108 11.8905 35.3231 11.4609C35.0355 11.0313 34.6269 10.6966 34.1491 10.4991C33.6713 10.3016 33.1457 10.2502 32.6387 10.3513C32.1317 10.4524 31.666 10.7016 31.3005 11.0673C30.935 11.433 30.6862 11.8988 30.5854 12.4059C30.4845 12.9129 30.5363 13.4385 30.7341 13.9162C30.8639 14.2352 31.0559 14.5251 31.2987 14.7693C31.5416 15.0134 31.8306 15.2069 32.1489 15.3385C32.4671 15.47 32.8084 15.537 33.1527 15.5356C33.4971 15.5342 33.8378 15.4643 34.1549 15.3302Z" fill="#DF0345"/>
<path d="M42.8055 23.6163C43.3255 23.4004 43.7696 23.035 44.0816 22.5664C44.3937 22.0977 44.5596 21.547 44.5583 20.984C44.557 20.421 44.3885 19.8711 44.0743 19.4039C43.7601 18.9367 43.3143 18.5733 42.7933 18.3598C42.2724 18.1463 41.6998 18.0923 41.1481 18.2046C40.5964 18.3169 40.0904 18.5905 39.6944 18.9906C39.2983 19.3908 39.0301 19.8995 38.9235 20.4524C38.8169 21.0052 38.8769 21.5772 39.0958 22.0959C39.2388 22.44 39.4483 22.7523 39.7124 23.0151C39.9765 23.2779 40.2899 23.4859 40.6346 23.6271C40.9793 23.7684 41.3486 23.8402 41.7211 23.8383C42.0937 23.8365 42.4622 23.761 42.8055 23.6163Z" fill="#DF0345"/>
<path d="M50.8482 31.9481C51.3285 31.7439 51.7377 31.4023 52.0243 30.9662C52.3109 30.53 52.4621 30.0189 52.4588 29.497C52.4556 28.9752 52.2981 28.4659 52.0061 28.0333C51.7142 27.6008 51.3008 27.2642 50.818 27.0661C50.3352 26.8679 49.8046 26.817 49.293 26.9196C48.7813 27.0223 48.3114 27.274 47.9424 27.6431C47.5735 28.0122 47.3219 28.4822 47.2195 28.9939C47.117 29.5056 47.1682 30.0362 47.3665 30.5189C47.4996 30.8427 47.6956 31.1369 47.9432 31.3844C48.1908 31.6319 48.485 31.8277 48.8089 31.9607C49.1327 32.0936 49.4797 32.1609 49.8298 32.1588C50.1798 32.1566 50.526 32.085 50.8482 31.9481Z" fill="#DF0345"/>
<path d="M58.4198 40.9181C58.8869 40.7192 59.2846 40.3864 59.5628 39.9617C59.8409 39.537 59.9869 39.0394 59.9825 38.5317C59.9781 38.0241 59.8234 37.5291 59.5379 37.1093C59.2525 36.6894 58.849 36.3636 58.3785 36.1729C57.908 35.9821 57.3916 35.935 56.8944 36.0375C56.3972 36.1401 55.9414 36.3876 55.5847 36.7488C55.2281 37.1101 54.9864 37.569 54.8902 38.0675C54.7941 38.566 54.8478 39.0818 55.0445 39.5498C55.3126 40.1772 55.8179 40.6731 56.4502 40.9294C57.0825 41.1858 57.7905 41.1817 58.4198 40.9181Z" fill="#DF0345"/>
<path d="M65.4598 50.1927C65.9044 50.0079 66.2841 49.6955 66.551 49.2949C66.8178 48.8942 66.9598 48.4234 66.959 47.9421C66.9581 47.4607 66.8145 46.9904 66.5463 46.5907C66.278 46.191 65.8972 45.8799 65.4521 45.6967C65.0069 45.5135 64.5174 45.4665 64.0455 45.5617C63.5737 45.6568 63.1406 45.8898 62.8012 46.2312C62.4618 46.5726 62.2313 47.007 62.139 47.4794C62.0466 47.9518 62.0965 48.4411 62.2822 48.8851C62.5309 49.4794 63.005 49.9508 63.6007 50.1959C64.1964 50.441 64.865 50.4398 65.4598 50.1927Z" fill="#DF0345"/>
<path d="M72.0886 60.151C72.5659 59.9523 72.9736 59.6167 73.2603 59.1864C73.5469 58.7561 73.6995 58.2505 73.6989 57.7335C73.6983 57.2165 73.5444 56.7113 73.2568 56.2817C72.9691 55.8521 72.5606 55.5174 72.0828 55.3199C71.605 55.1224 71.0793 55.071 70.5723 55.1721C70.0653 55.2732 69.5996 55.5224 69.2342 55.8881C68.8687 56.2538 68.6198 56.7196 68.519 57.2267C68.4181 57.7337 68.4699 58.2593 68.6677 58.737C68.7992 59.0547 68.9921 59.3433 69.2353 59.5863C69.4784 59.8293 69.7672 60.022 70.0849 60.1534C70.4027 60.2847 70.7432 60.3521 71.087 60.3517C71.4308 60.3513 71.7711 60.2831 72.0886 60.151Z" fill="#DF0345"/>
<path d="M78.2914 70.7633C78.862 70.5238 79.3489 70.1205 79.6906 69.6045C80.0323 69.0885 80.2134 68.4828 80.2111 67.8639C80.2089 67.245 80.0233 66.6406 79.6778 66.1271C79.3323 65.6136 78.8425 65.214 78.2701 64.9787C77.6977 64.7433 77.0684 64.6829 76.4616 64.8049C75.8549 64.9269 75.2979 65.226 74.861 65.6643C74.4241 66.1027 74.1268 66.6606 74.0068 67.2678C73.8867 67.8749 73.9492 68.504 74.1864 69.0757C74.3444 69.4566 74.5761 69.8025 74.8682 70.0936C75.1603 70.3847 75.5069 70.6153 75.8883 70.7721C76.2697 70.9289 76.6784 71.0089 77.0907 71.0074C77.5031 71.0058 77.9111 70.9229 78.2914 70.7633Z" fill="#DF0345"/>
<path d="M83.8408 81.5578C84.4807 81.2937 85.0277 80.8457 85.4127 80.2704C85.7977 79.6952 86.0034 79.0186 86.0035 78.3264C86.0037 77.6342 85.7984 76.9575 85.4137 76.382C85.029 75.8065 84.4822 75.3582 83.8424 75.0938C83.2027 74.8294 82.4989 74.7608 81.8202 74.8967C81.1414 75.0326 80.5183 75.3668 80.0297 75.8572C79.541 76.3475 79.2089 76.9718 79.0754 77.651C78.9419 78.3302 79.013 79.0338 79.2797 79.6726C79.4545 80.0965 79.7114 80.4818 80.0355 80.8062C80.3596 81.1306 80.7447 81.3878 81.1685 81.563C81.5923 81.7382 82.0465 81.8279 82.5051 81.827C82.9637 81.8261 83.4177 81.7347 83.8408 81.5578Z" fill="#DF0345"/>
<path d="M101.265 88.4148C102.128 88.0551 102.864 87.4477 103.382 86.6695C103.9 85.8912 104.175 84.9769 104.174 84.0422C104.172 83.1075 103.893 82.1942 103.373 81.4178C102.852 80.6414 102.113 80.0366 101.249 79.68C100.385 79.3233 99.4349 79.2308 98.5183 79.414C97.6017 79.5972 96.76 80.048 96.0995 80.7094C95.439 81.3708 94.9893 82.2132 94.8073 83.13C94.6253 84.0468 94.7191 84.9971 95.0769 85.8606C95.3149 86.4351 95.664 86.957 96.1039 87.3964C96.5439 87.8358 97.0663 88.1841 97.6411 88.4213C98.2159 88.6586 98.8318 88.7801 99.4536 88.779C100.075 88.7779 100.691 88.6542 101.265 88.4148Z" fill="#DF0345"/>
<path d="M105.75 100.015C106.737 99.6084 107.582 98.9177 108.177 98.0304C108.772 97.1432 109.09 96.0993 109.092 95.0311C109.093 93.9629 108.777 92.9183 108.184 92.0296C107.592 91.1409 106.748 90.4481 105.762 90.0389C104.775 89.6297 103.689 89.5225 102.641 89.7309C101.594 89.9393 100.631 90.4539 99.8762 91.2096C99.1211 91.9653 98.6073 92.928 98.3997 93.9759C98.1922 95.0237 98.3002 96.1097 98.7102 97.0961C99.2585 98.4151 100.307 99.463 101.627 100.01C102.946 100.557 104.429 100.559 105.75 100.015Z" fill="#DF0345"/>
<path d="M109.353 111.114C110.316 110.712 111.138 110.034 111.715 109.165C112.293 108.297 112.6 107.276 112.597 106.233C112.595 105.19 112.283 104.171 111.702 103.305C111.121 102.438 110.295 101.764 109.331 101.367C108.366 100.97 107.306 100.867 106.283 101.073C105.26 101.278 104.321 101.782 103.585 102.521C102.848 103.26 102.348 104.2 102.146 105.224C101.944 106.247 102.05 107.308 102.45 108.271C102.717 108.911 103.106 109.492 103.597 109.982C104.089 110.471 104.671 110.859 105.312 111.123C105.953 111.387 106.64 111.522 107.334 111.521C108.027 111.519 108.713 111.381 109.353 111.114Z" fill="#DF0345"/>
<path d="M112.135 121.848C112.965 121.499 113.673 120.912 114.17 120.162C114.667 119.411 114.931 118.53 114.928 117.63C114.925 116.73 114.656 115.851 114.155 115.103C113.654 114.355 112.942 113.773 112.11 113.429C111.279 113.085 110.364 112.994 109.481 113.169C108.598 113.344 107.786 113.776 107.148 114.412C106.51 115.047 106.075 115.856 105.896 116.739C105.718 117.621 105.804 118.536 106.145 119.37C106.373 119.928 106.71 120.435 107.135 120.862C107.56 121.289 108.066 121.628 108.623 121.858C109.18 122.089 109.777 122.206 110.38 122.205C110.983 122.203 111.58 122.081 112.135 121.848Z" fill="#DF0345"/>
<path d="M114.553 133.312C115.394 132.972 116.114 132.391 116.622 131.64C117.131 130.89 117.404 130.005 117.407 129.099C117.411 128.193 117.144 127.306 116.642 126.552C116.139 125.798 115.423 125.211 114.585 124.865C113.747 124.52 112.826 124.432 111.937 124.612C111.049 124.793 110.235 125.234 109.599 125.879C108.962 126.524 108.533 127.345 108.364 128.235C108.196 129.126 108.297 130.046 108.654 130.879C109.124 131.975 110.005 132.844 111.107 133.299C112.21 133.753 113.447 133.758 114.553 133.312Z" fill="#DF0345"/>
<path d="M116.483 145.186C117.356 144.825 118.102 144.214 118.627 143.429C119.152 142.644 119.433 141.721 119.434 140.776C119.434 139.832 119.155 138.909 118.63 138.123C118.106 137.338 117.361 136.725 116.488 136.364C115.616 136.002 114.656 135.907 113.729 136.091C112.803 136.275 111.952 136.73 111.284 137.397C110.617 138.065 110.162 138.916 109.977 139.842C109.793 140.768 109.888 141.729 110.249 142.601C110.488 143.181 110.838 143.708 111.281 144.153C111.723 144.597 112.25 144.949 112.829 145.189C113.408 145.429 114.029 145.553 114.656 145.552C115.283 145.552 115.904 145.427 116.483 145.186Z" fill="#DF0345"/>
<path d="M117.563 156.619C118.368 156.284 119.056 155.717 119.539 154.991C120.023 154.265 120.28 153.412 120.278 152.54C120.277 151.667 120.016 150.815 119.53 150.091C119.044 149.367 118.354 148.803 117.547 148.471C116.741 148.139 115.854 148.053 114.999 148.226C114.143 148.398 113.359 148.82 112.743 149.438C112.128 150.057 111.71 150.844 111.542 151.7C111.375 152.556 111.464 153.442 111.8 154.247C112.02 154.784 112.344 155.271 112.754 155.681C113.163 156.091 113.65 156.416 114.186 156.637C114.722 156.858 115.297 156.97 115.876 156.967C116.456 156.963 117.029 156.845 117.563 156.619Z" fill="#DF0345"/>
<path d="M55.6373 17.8694C56.128 17.669 56.5486 17.328 56.8464 16.8894C57.1441 16.4508 57.3056 15.9341 57.3107 15.404C57.3158 14.8739 57.1643 14.3541 56.875 13.9098C56.5858 13.4656 56.1718 13.1166 55.685 12.9068C55.1981 12.697 54.6602 12.6356 54.1386 12.7304C53.6171 12.8251 53.1351 13.0719 52.7532 13.4395C52.3714 13.8072 52.1066 14.2795 51.9922 14.7971C51.8777 15.3147 51.9187 15.8546 52.11 16.349C52.2373 16.6838 52.4305 16.9897 52.6782 17.2484C52.9259 17.5072 53.223 17.7136 53.552 17.8554C53.8809 17.9972 54.235 18.0715 54.5932 18.0739C54.9514 18.0763 55.3064 18.0067 55.6373 17.8694Z" fill="#DF0345"/>
<path d="M63.5894 26.7027C64.1047 26.4913 64.5456 26.1316 64.8562 25.6694C65.1669 25.2071 65.3333 24.663 65.3344 24.1061C65.3354 23.5491 65.1712 23.0044 64.8623 22.5409C64.5535 22.0774 64.114 21.7161 63.5996 21.5026C63.0852 21.2892 62.519 21.2332 61.9728 21.3419C61.4265 21.4506 60.9249 21.719 60.5314 22.1131C60.1378 22.5072 59.8702 23.0093 59.7623 23.5557C59.6544 24.1021 59.7111 24.6682 59.9253 25.1823C60.2112 25.8685 60.7571 26.4136 61.4437 26.6985C62.1303 26.9834 62.9017 26.9849 63.5894 26.7027Z" fill="#DF0345"/>
<path d="M71.0086 35.8553C71.5286 35.6394 71.9727 35.274 72.2848 34.8054C72.5968 34.3367 72.7627 33.786 72.7614 33.223C72.7601 32.66 72.5917 32.1101 72.2775 31.6429C71.9633 31.1757 71.5174 30.8123 70.9965 30.5988C70.4755 30.3853 69.9029 30.3313 69.3512 30.4436C68.7995 30.5559 68.2936 30.8295 67.8976 31.2296C67.5015 31.6298 67.2332 32.1385 67.1266 32.6914C67.02 33.2442 67.08 33.8162 67.2989 34.3349C67.5909 35.0271 68.145 35.5754 68.8401 35.8603C69.5352 36.1452 70.3148 36.1434 71.0086 35.8553Z" fill="#DF0345"/>
<path d="M77.972 45.2665C78.4726 45.0628 78.9018 44.7155 79.2053 44.2682C79.5088 43.821 79.673 43.2939 79.6773 42.7534C79.6816 42.2129 79.5259 41.6833 79.2295 41.2312C78.9332 40.7792 78.5097 40.425 78.0123 40.2134C77.515 40.0017 76.9661 39.9421 76.4349 40.042C75.9038 40.1419 75.414 40.3969 75.0275 40.7748C74.6411 41.1526 74.3752 41.6365 74.2633 42.1653C74.1515 42.6941 74.1988 43.2441 74.3991 43.7461C74.5312 44.0826 74.729 44.3894 74.981 44.6485C75.233 44.9077 75.5341 45.1141 75.8667 45.2556C76.1993 45.3972 76.5568 45.471 76.9183 45.4729C77.2797 45.4748 77.6379 45.4046 77.972 45.2665Z" fill="#DF0345"/>
<path d="M84.5406 55.4378C85.0932 55.2048 85.5645 54.8136 85.8953 54.3134C86.2261 53.8132 86.4017 53.2263 86.3998 52.6266C86.398 52.0269 86.2189 51.4411 85.885 50.943C85.5511 50.4448 85.0773 50.0565 84.5233 49.8269C83.9693 49.5973 83.3598 49.5366 82.7714 49.6526C82.183 49.7685 81.642 50.0558 81.2165 50.4784C80.791 50.9009 80.4999 51.4399 80.3799 52.0275C80.2599 52.6151 80.3162 53.225 80.542 53.7806C80.6936 54.1537 80.9178 54.4929 81.2015 54.7786C81.4852 55.0643 81.8229 55.2909 82.1949 55.445C82.5669 55.5992 82.9658 55.678 83.3685 55.6767C83.7711 55.6755 84.1695 55.5943 84.5406 55.4378Z" fill="#DF0345"/>
<path d="M92.7132 64.2131C93.5045 62.296 92.5919 60.1004 90.6748 59.309C88.7577 58.5177 86.5621 59.4303 85.7708 61.3474C84.9794 63.2645 85.892 65.4601 87.8091 66.2515C89.7262 67.0428 91.9218 66.1302 92.7132 64.2131Z" fill="#DF0345"/>
<path d="M96.2781 77.2248C97.063 76.9118 97.7371 76.3723 98.2144 75.675C98.6916 74.9777 98.9506 74.1541 98.9583 73.3091C98.9659 72.4641 98.7219 71.6359 98.2574 70.93C97.7928 70.2242 97.1286 69.6726 96.3495 69.3454C95.5703 69.0183 94.7115 68.9304 93.8823 69.093C93.053 69.2556 92.2909 69.6613 91.6931 70.2585C91.0952 70.8556 90.6885 71.6172 90.5249 72.4463C90.3613 73.2753 90.4481 74.1343 90.7743 74.9138C91.2085 75.9413 92.0273 76.7581 93.0557 77.19C94.0841 77.6218 95.2406 77.6343 96.2781 77.2248Z" fill="#DF0345"/>
<path d="M113.579 83.6407C114.499 83.2551 115.284 82.6056 115.835 81.7741C116.386 80.9426 116.679 79.9665 116.675 78.969C116.672 77.9715 116.373 76.9973 115.817 76.1694C115.26 75.3415 114.471 74.6971 113.549 74.3175C112.626 73.9379 111.612 73.8401 110.634 74.0366C109.656 74.233 108.758 74.7148 108.054 75.4212C107.349 76.1275 106.87 77.0267 106.676 78.0053C106.482 78.9838 106.583 79.9978 106.965 80.9192C107.22 81.533 107.593 82.0904 108.064 82.5596C108.534 83.0288 109.092 83.4005 109.707 83.6533C110.321 83.9062 110.98 84.0352 111.644 84.033C112.309 84.0309 112.966 83.8976 113.579 83.6407Z" fill="#DF0345"/>
<path d="M117.958 95.135C118.973 94.7143 119.842 94.0023 120.453 93.0888C121.064 92.1752 121.391 91.1011 121.393 90.0019C121.394 88.9026 121.07 87.8276 120.462 86.9123C119.853 85.9971 118.987 85.2826 117.972 84.8591C116.958 84.4355 115.841 84.3219 114.762 84.5326C113.683 84.7432 112.691 85.2686 111.91 86.0426C111.13 86.8165 110.596 87.8043 110.376 88.8813C110.156 89.9583 110.26 91.0763 110.675 92.0942C110.952 92.7734 111.36 93.3912 111.877 93.912C112.393 94.4328 113.007 94.8464 113.684 95.129C114.361 95.4116 115.087 95.5576 115.82 95.5586C116.554 95.5596 117.28 95.4157 117.958 95.135Z" fill="#DF0345"/>
<path d="M121.683 106.447C122.713 106.018 123.593 105.294 124.211 104.365C124.83 103.437 125.159 102.346 125.157 101.23C125.156 100.114 124.823 99.0242 124.202 98.0975C123.58 97.1708 122.698 96.4492 121.667 96.0239C120.636 95.5986 119.501 95.4886 118.407 95.7081C117.313 95.9275 116.309 96.4663 115.522 97.2565C114.734 98.0467 114.198 99.0526 113.983 100.147C113.767 101.242 113.88 102.376 114.309 103.406C114.884 104.787 115.983 105.883 117.366 106.453C118.749 107.023 120.302 107.021 121.683 106.447Z" fill="#DF0345"/>
<path d="M124.51 117.089C125.403 116.72 126.166 116.094 126.702 115.291C127.239 114.488 127.525 113.543 127.525 112.578C127.524 111.612 127.237 110.668 126.7 109.865C126.163 109.062 125.399 108.437 124.507 108.069C123.614 107.7 122.632 107.605 121.685 107.794C120.738 107.984 119.868 108.451 119.187 109.135C118.505 109.819 118.042 110.69 117.855 111.638C117.669 112.586 117.768 113.567 118.14 114.459C118.637 115.651 119.587 116.598 120.782 117.091C121.976 117.584 123.317 117.583 124.51 117.089Z" fill="#DF0345"/>
<path d="M126.944 128.203C127.784 127.864 128.505 127.282 129.013 126.532C129.521 125.782 129.795 124.897 129.798 123.991C129.801 123.084 129.535 122.198 129.032 121.444C128.53 120.69 127.814 120.102 126.976 119.757C126.138 119.411 125.216 119.323 124.328 119.504C123.44 119.684 122.626 120.125 121.989 120.771C121.353 121.416 120.923 122.236 120.755 123.127C120.587 124.017 120.688 124.938 121.045 125.771C121.515 126.867 122.395 127.735 123.498 128.19C124.601 128.645 125.838 128.65 126.944 128.203Z" fill="#DF0345"/>
<path d="M129.042 140.077C129.919 139.712 130.669 139.095 131.195 138.304C131.722 137.512 132.002 136.583 132 135.632C131.999 134.682 131.715 133.753 131.185 132.964C130.656 132.175 129.904 131.561 129.025 131.199C128.146 130.837 127.179 130.744 126.248 130.932C125.316 131.119 124.461 131.579 123.79 132.253C123.12 132.927 122.664 133.784 122.481 134.717C122.298 135.65 122.396 136.616 122.763 137.493C123.253 138.668 124.19 139.6 125.367 140.084C126.545 140.569 127.866 140.566 129.042 140.077Z" fill="#DF0345"/>
<path d="M130.304 151.571C131.133 151.221 131.841 150.633 132.337 149.882C132.833 149.13 133.095 148.248 133.091 147.348C133.087 146.447 132.816 145.568 132.313 144.821C131.81 144.075 131.097 143.493 130.264 143.151C129.432 142.808 128.516 142.72 127.633 142.897C126.75 143.074 125.939 143.509 125.303 144.146C124.666 144.783 124.233 145.594 124.057 146.477C123.881 147.36 123.97 148.276 124.313 149.108C124.543 149.665 124.88 150.171 125.306 150.596C125.732 151.022 126.238 151.359 126.795 151.588C127.352 151.817 127.949 151.933 128.551 151.93C129.153 151.928 129.749 151.806 130.304 151.571Z" fill="#DF0345"/>
<path d="M68.5149 12.5327C69.0443 12.3078 69.495 11.9308 69.8098 11.4495C70.1246 10.9682 70.2894 10.4043 70.2833 9.82917C70.2772 9.25408 70.1004 8.69375 69.7755 8.21922C69.4505 7.7447 68.992 7.37735 68.458 7.16375C67.924 6.95016 67.3386 6.89993 66.776 7.01945C66.2135 7.13897 65.6991 7.42284 65.2981 7.83507C64.897 8.24731 64.6274 8.76935 64.5234 9.335C64.4195 9.90065 64.4858 10.4844 64.714 11.0123C64.8631 11.3623 65.0798 11.6793 65.3518 11.9452C65.6237 12.2112 65.9455 12.4208 66.2987 12.562C66.6518 12.7033 67.0294 12.7734 67.4097 12.7684C67.7901 12.7634 68.1656 12.6833 68.5149 12.5327Z" fill="#DF0345"/>
<path d="M76.2838 21.4423C76.8222 21.2226 77.2836 20.8486 77.6101 20.3674C77.9365 19.8863 78.1135 19.3193 78.1187 18.7378C78.1239 18.1564 77.9571 17.5863 77.6392 17.0994C77.3214 16.6125 76.8667 16.2303 76.3324 16.001C75.798 15.7717 75.2078 15.7054 74.6359 15.8106C74.064 15.9157 73.536 16.1876 73.1181 16.5919C72.7003 16.9963 72.4112 17.5152 72.2874 18.0833C72.1636 18.6515 72.2104 19.2435 72.4221 19.7851C72.7287 20.5053 73.3013 21.0795 74.0206 21.3882C74.7399 21.6968 75.5506 21.7162 76.2838 21.4423Z" fill="#DF0345"/>
<path d="M83.5973 30.7317C84.1605 30.5086 84.6442 30.1223 84.9864 29.6224C85.3286 29.1225 85.5137 28.5318 85.5179 27.926C85.5221 27.3202 85.3453 26.727 85.0102 26.2223C84.675 25.7177 84.1967 25.3247 83.6366 25.0937C83.0766 24.8627 82.4604 24.8043 81.8669 24.9259C81.2734 25.0475 80.7298 25.3436 80.3057 25.7762C79.8817 26.2088 79.5965 26.7583 79.4868 27.3541C79.3771 27.9498 79.4478 28.5648 79.6899 29.1201C80.0051 29.843 80.5889 30.4151 81.3179 30.7158C82.0469 31.0165 82.8642 31.0222 83.5973 30.7317Z" fill="#DF0345"/>
<path d="M90.4698 40.4316C91.0169 40.1931 91.4817 39.7989 91.8063 39.2981C92.1309 38.7974 92.3009 38.2121 92.2952 37.6154C92.2896 37.0186 92.1084 36.4367 91.7744 35.9422C91.4403 35.4477 90.9681 35.0624 90.4166 34.8343C89.8651 34.6062 89.2587 34.5455 88.673 34.6597C88.0872 34.7738 87.548 35.0578 87.1225 35.4763C86.697 35.8947 86.404 36.4291 86.2801 37.0129C86.1562 37.5967 86.2069 38.204 86.4257 38.7592C86.5754 39.1392 86.8002 39.4852 87.0866 39.7764C87.373 40.0676 87.7152 40.2982 88.0926 40.4542C88.4701 40.6103 88.8751 40.6888 89.2835 40.6849C89.692 40.681 90.0954 40.5949 90.4698 40.4316Z" fill="#DF0345"/>
<path d="M97.0678 50.9983C97.7602 50.7128 98.3523 50.2283 98.7693 49.6062C99.1863 48.9841 99.4094 48.2523 99.4104 47.5033C99.4114 46.7544 99.1902 46.022 98.7748 45.3988C98.3594 44.7756 97.7685 44.2896 97.0769 44.0023C96.3852 43.715 95.6239 43.6393 94.8892 43.7848C94.1545 43.9303 93.4795 44.2904 92.9496 44.8196C92.4196 45.3488 92.0585 46.0233 91.912 46.7578C91.7655 47.4923 91.8402 48.2537 92.1265 48.9458C92.5165 49.8675 93.2529 50.5991 94.1771 50.9831C95.1014 51.367 96.1395 51.3724 97.0678 50.9983Z" fill="#DF0345"/>
<path d="M103.164 61.8387C103.975 61.5016 104.667 60.9318 105.154 60.2014C105.64 59.4711 105.899 58.6128 105.899 57.7352C105.898 56.8575 105.637 55.9998 105.148 55.2705C104.66 54.5411 103.967 53.9728 103.156 53.6374C102.345 53.3019 101.453 53.2144 100.592 53.3858C99.7311 53.5573 98.9405 53.98 98.3199 54.6005C97.6993 55.2211 97.2766 56.0117 97.1051 56.8725C96.9336 57.7332 97.0211 58.6255 97.3565 59.4365C97.5796 59.976 97.907 60.4661 98.3198 60.879C98.7326 61.2918 99.2228 61.6191 99.7622 61.8422C100.302 62.0654 100.88 62.1799 101.464 62.1793C102.047 62.1787 102.625 62.063 103.164 61.8387Z" fill="#DF0345"/>
<path d="M108.577 72.5725C109.442 72.2238 110.184 71.6255 110.708 70.8538C111.232 70.0821 111.514 69.1719 111.519 68.2392C111.524 67.3064 111.251 66.3934 110.735 65.6164C110.219 64.8393 109.483 64.2334 108.622 63.8759C107.76 63.5184 106.812 63.4254 105.897 63.6088C104.983 63.7922 104.144 64.2437 103.486 64.9057C102.829 65.5677 102.384 66.4104 102.208 67.3263C102.031 68.2422 102.132 69.1899 102.496 70.0486C102.973 71.1851 103.879 72.0874 105.018 72.5599C106.156 73.0324 107.435 73.0369 108.577 72.5725Z" fill="#DF0345"/>
<path d="M125.59 78.5323C126.49 78.1542 127.258 77.5179 127.797 76.7036C128.336 75.8893 128.622 74.9337 128.618 73.9572C128.614 72.9808 128.321 72.0274 127.776 71.2174C127.23 70.4074 126.457 69.7771 125.554 69.406C124.651 69.035 123.658 68.9399 122.701 69.1327C121.744 69.3255 120.865 69.7976 120.176 70.4893C119.487 71.1811 119.018 72.0615 118.829 73.0195C118.64 73.9774 118.739 74.9699 119.113 75.8717C119.363 76.4725 119.728 77.0181 120.189 77.4773C120.65 77.9364 121.197 78.3 121.799 78.5472C122.401 78.7944 123.045 78.9204 123.696 78.9178C124.347 78.9153 124.99 78.7843 125.59 78.5323Z" fill="#DF0345"/>
<path d="M129.878 89.5855C130.793 89.2031 131.575 88.5581 132.123 87.732C132.672 86.9058 132.964 85.9355 132.961 84.9437C132.959 83.9519 132.662 82.9831 132.11 82.1596C131.557 81.3361 130.772 80.6949 129.855 80.3171C128.938 79.9392 127.93 79.8416 126.957 80.0367C125.985 80.2317 125.092 80.7106 124.392 81.4128C123.691 82.115 123.215 83.009 123.022 83.982C122.83 84.9549 122.93 85.9631 123.31 86.8792C123.563 87.4886 123.934 88.0422 124.401 88.5082C124.868 88.9742 125.423 89.3435 126.033 89.5948C126.643 89.8462 127.296 89.9748 127.956 89.9732C128.616 89.9716 129.269 89.8398 129.878 89.5855Z" fill="#DF0345"/>
<path d="M133.634 100.791C134.554 100.405 135.339 99.7555 135.89 98.924C136.441 98.0925 136.733 97.1164 136.73 96.1189C136.727 95.1214 136.428 94.1472 135.872 93.3193C135.315 92.4914 134.526 91.847 133.603 91.4674C132.681 91.0878 131.666 90.99 130.688 91.1865C129.71 91.3829 128.813 91.8647 128.108 92.5711C127.404 93.2774 126.925 94.1766 126.731 95.1552C126.537 96.1337 126.638 97.1477 127.02 98.0691C127.537 99.306 128.524 100.287 129.764 100.797C131.004 101.308 132.395 101.305 133.634 100.791Z" fill="#DF0345"/>
<path d="M136.734 111.859C137.607 111.497 138.353 110.885 138.877 110.099C139.401 109.313 139.681 108.389 139.68 107.444C139.679 106.5 139.397 105.576 138.871 104.791C138.346 104.007 137.599 103.396 136.725 103.036C135.852 102.676 134.891 102.583 133.965 102.769C133.039 102.955 132.188 103.412 131.522 104.082C130.856 104.751 130.403 105.604 130.221 106.531C130.039 107.458 130.137 108.418 130.501 109.29C130.988 110.456 131.918 111.381 133.086 111.863C134.255 112.345 135.567 112.343 136.734 111.859Z" fill="#DF0345"/>
<path d="M139.335 123.171C140.163 122.819 140.868 122.231 141.363 121.48C141.857 120.729 142.119 119.849 142.114 118.949C142.11 118.05 141.84 117.172 141.338 116.426C140.836 115.68 140.125 115.099 139.293 114.756C138.462 114.412 137.548 114.323 136.666 114.498C135.783 114.673 134.973 115.105 134.335 115.739C133.698 116.374 133.263 117.182 133.084 118.064C132.904 118.945 132.99 119.86 133.329 120.692C133.557 121.252 133.894 121.761 134.321 122.19C134.747 122.618 135.255 122.957 135.813 123.188C136.372 123.419 136.971 123.536 137.576 123.533C138.18 123.53 138.778 123.407 139.335 123.171Z" fill="#DF0345"/>
<path d="M141.387 134.589C142.192 134.248 142.877 133.675 143.355 132.944C143.834 132.212 144.084 131.355 144.075 130.481C144.065 129.607 143.796 128.756 143.302 128.035C142.807 127.314 142.11 126.757 141.298 126.433C140.486 126.11 139.596 126.035 138.742 126.218C137.887 126.402 137.106 126.835 136.498 127.463C135.89 128.091 135.483 128.885 135.327 129.745C135.172 130.605 135.275 131.492 135.625 132.293C136.093 133.355 136.958 134.19 138.036 134.62C139.114 135.049 140.317 135.038 141.387 134.589Z" fill="#DF0345"/>
<path d="M142.892 146.098C143.665 145.778 144.326 145.236 144.79 144.54C145.255 143.845 145.502 143.027 145.502 142.191C145.502 141.355 145.253 140.537 144.788 139.842C144.323 139.147 143.663 138.606 142.89 138.286C142.117 137.967 141.266 137.884 140.446 138.048C139.626 138.212 138.873 138.616 138.283 139.208C137.692 139.8 137.291 140.554 137.129 141.375C136.967 142.195 137.052 143.045 137.374 143.817C137.807 144.848 138.63 145.666 139.664 146.093C140.697 146.52 141.858 146.522 142.892 146.098Z" fill="#DF0345"/>
<path d="M88.8576 16.1057C89.3967 15.8774 89.8557 15.4938 90.1761 15.0038C90.4965 14.5138 90.6637 13.9395 90.6567 13.354C90.6496 12.7686 90.4684 12.1985 90.1363 11.7164C89.8042 11.2343 89.336 10.8619 88.7915 10.6467C88.2471 10.4315 87.6509 10.3832 87.0789 10.5079C86.5068 10.6327 85.9849 10.9249 85.5794 11.3472C85.174 11.7696 84.9035 12.3031 84.8022 12.8798C84.701 13.4564 84.7737 14.0501 85.011 14.5853C85.3277 15.29 85.907 15.8431 86.6254 16.1271C87.3438 16.4111 88.1447 16.4034 88.8576 16.1057Z" fill="#DF0345"/>
<path d="M96.019 25.4103C96.5464 25.1832 96.9947 24.8048 97.3071 24.323C97.6196 23.8411 97.7821 23.2775 97.7743 22.7032C97.7664 22.129 97.5885 21.57 97.2629 21.0969C96.9374 20.6238 96.4789 20.2579 95.9454 20.0453C95.4119 19.8328 94.8274 19.7832 94.2657 19.9028C93.7041 20.0224 93.1905 20.3059 92.7899 20.7174C92.3894 21.1289 92.1198 21.6499 92.0153 22.2146C91.9108 22.7793 91.9761 23.3623 92.2029 23.8899C92.3535 24.2404 92.5718 24.5577 92.8451 24.8238C93.1184 25.0899 93.4415 25.2995 93.7959 25.4407C94.1503 25.5819 94.529 25.6519 94.9104 25.6467C95.2919 25.6415 95.6686 25.5611 96.019 25.4103Z" fill="#DF0345"/>
<path d="M102.937 35.597C103.561 35.3272 104.092 34.879 104.462 34.3087C104.832 33.7384 105.026 33.0714 105.019 32.3915C105.011 31.7115 104.803 31.0489 104.42 30.4868C104.038 29.9247 103.497 29.4882 102.868 29.232C102.238 28.9759 101.546 28.9115 100.88 29.047C100.213 29.1825 99.602 29.5118 99.1221 29.9936C98.6423 30.4754 98.3154 31.0882 98.1827 31.7551C98.0499 32.422 98.1171 33.1133 98.3758 33.7421C98.5502 34.166 98.8072 34.5509 99.132 34.8744C99.4568 35.1979 99.8428 35.4534 100.267 35.6261C100.692 35.7987 101.147 35.8851 101.605 35.8801C102.063 35.8751 102.516 35.7789 102.937 35.597Z" fill="#DF0345"/>
<path d="M109.551 46.4677C110.356 46.1314 111.043 45.5637 111.526 44.8366C112.008 44.1094 112.264 43.2554 112.261 42.3828C112.257 41.5102 111.995 40.6581 111.507 39.9346C111.02 39.211 110.328 38.6484 109.521 38.3181C108.713 37.9878 107.825 37.9045 106.97 38.079C106.115 38.2534 105.331 38.6776 104.717 39.2979C104.104 39.9182 103.688 40.7066 103.522 41.5635C103.357 42.4203 103.45 43.3069 103.788 44.1111C104.011 44.6449 104.337 45.1294 104.747 45.5369C105.158 45.9445 105.645 46.267 106.18 46.4859C106.715 46.7049 107.289 46.8159 107.867 46.8128C108.446 46.8097 109.018 46.6924 109.551 46.4677Z" fill="#DF0345"/>
<path d="M115.526 57.2015C116.421 56.8266 117.186 56.1948 117.722 55.3858C118.259 54.5769 118.543 53.627 118.54 52.6563C118.537 51.6856 118.247 50.7376 117.705 49.9319C117.164 49.1263 116.395 48.4993 115.498 48.13C114.6 47.7607 113.613 47.6658 112.661 47.8571C111.71 48.0485 110.836 48.5177 110.151 49.2053C109.466 49.893 109 50.7682 108.812 51.7206C108.624 52.6729 108.722 53.6596 109.095 54.556C109.343 55.1525 109.706 55.6943 110.163 56.1503C110.621 56.6062 111.164 56.9674 111.761 57.2132C112.359 57.4589 112.999 57.5844 113.645 57.5824C114.291 57.5804 114.93 57.4509 115.526 57.2015Z" fill="#DF0345"/>
<path d="M120.847 67.8289C121.762 67.4466 122.543 66.8016 123.092 65.9754C123.641 65.1492 123.932 64.179 123.93 63.1871C123.928 62.1953 123.631 61.2265 123.078 60.403C122.526 59.5795 121.741 58.9383 120.824 58.5605C119.907 58.1826 118.899 58.0851 117.926 58.2801C116.954 58.4751 116.061 58.954 115.361 59.6562C114.66 60.3584 114.183 61.2525 113.991 62.2254C113.798 63.1984 113.899 64.2066 114.279 65.1226C114.532 65.7321 114.902 66.2856 115.37 66.7516C115.837 67.2176 116.391 67.5869 117.001 67.8383C117.611 68.0897 118.265 68.2182 118.925 68.2166C119.585 68.215 120.238 68.0833 120.847 67.8289Z" fill="#DF0345"/>
<path d="M137.723 73.5302C138.633 73.1512 139.411 72.5107 139.957 71.6898C140.504 70.869 140.795 69.9045 140.793 68.9184C140.791 67.9323 140.498 66.9688 139.948 66.1498C139.399 65.3307 138.62 64.6928 137.708 64.3167C136.797 63.9406 135.794 63.8432 134.827 64.0368C133.86 64.2304 132.972 64.7063 132.276 65.4044C131.579 66.1025 131.106 66.9914 130.914 67.9587C130.723 68.9261 130.823 69.9285 131.201 70.8391C131.45 71.4456 131.818 71.9967 132.281 72.4606C132.745 72.9245 133.296 73.2921 133.902 73.5423C134.508 73.7924 135.158 73.9201 135.814 73.9181C136.47 73.916 137.118 73.7842 137.723 73.5302Z" fill="#DF0345"/>
<path d="M141.98 84.477C142.882 84.1023 143.653 83.4686 144.195 82.6559C144.737 81.8433 145.026 80.8881 145.026 79.9112C145.025 78.9343 144.735 77.9794 144.192 77.1673C143.649 76.3551 142.878 75.7222 141.975 75.3484C141.073 74.9746 140.08 74.8768 139.121 75.0672C138.163 75.2577 137.283 75.7279 136.592 76.4185C135.901 77.1091 135.43 77.989 135.239 78.947C135.048 79.9051 135.145 80.8983 135.518 81.8012C135.766 82.4015 136.13 82.947 136.59 83.4064C137.049 83.8659 137.594 84.2304 138.194 84.4789C138.794 84.7274 139.438 84.8552 140.087 84.8549C140.737 84.8546 141.38 84.7262 141.98 84.477Z" fill="#DF0345"/>
<path d="M145.766 95.6366C146.667 95.2597 147.435 94.6246 147.975 93.8114C148.515 92.9981 148.802 92.0432 148.799 91.0671C148.797 90.0911 148.506 89.1375 147.962 88.3268C147.419 87.5161 146.647 86.8846 145.745 86.5119C144.843 86.1392 143.851 86.042 142.893 86.2326C141.936 86.4232 141.057 86.8931 140.366 87.5829C139.675 88.2728 139.205 89.1517 139.013 90.1088C138.822 91.0659 138.918 92.0583 139.289 92.9608C139.794 94.1743 140.759 95.1379 141.974 95.6397C143.188 96.1414 144.553 96.1404 145.766 95.6366Z" fill="#DF0345"/>
<path d="M149.08 107.055C150.006 106.672 150.797 106.022 151.353 105.19C151.909 104.357 152.206 103.378 152.206 102.376C152.206 101.375 151.908 100.396 151.352 99.5634C150.795 98.7308 150.004 98.0821 149.079 97.6991C148.153 97.3162 147.135 97.2164 146.153 97.4122C145.171 97.608 144.269 98.0907 143.561 98.7992C142.853 99.5078 142.372 100.41 142.177 101.393C141.982 102.375 142.083 103.393 142.467 104.318C142.981 105.558 143.967 106.542 145.207 107.055C146.447 107.569 147.84 107.568 149.08 107.055Z" fill="#DF0345"/>
<path d="M101.416 10.6627C101.934 10.4445 102.376 10.0777 102.686 9.60851C102.995 9.13934 103.159 8.58888 103.156 8.02673C103.153 7.46457 102.983 6.91595 102.668 6.4502C102.354 5.98445 101.908 5.62248 101.387 5.41004C100.867 5.1976 100.295 5.14423 99.7442 5.25667C99.1934 5.36911 98.6883 5.64231 98.2927 6.04175C97.8972 6.44119 97.6289 6.94893 97.5218 7.5008C97.4147 8.05267 97.4736 8.6239 97.6911 9.14229C97.9863 9.83549 98.5433 10.3841 99.2408 10.6688C99.9384 10.9535 100.72 10.9513 101.416 10.6627Z" fill="#DF0345"/>
<path d="M108.486 20.3322C109.035 20.0935 109.501 19.6983 109.826 19.1961C110.151 18.6938 110.321 18.1067 110.314 17.5084C110.307 16.9101 110.124 16.3271 109.787 15.8325C109.45 15.3379 108.975 14.9536 108.421 14.7278C107.867 14.502 107.258 14.4447 106.672 14.563C106.085 14.6813 105.547 14.9701 105.123 15.3931C104.7 15.8161 104.411 16.3546 104.293 16.9411C104.174 17.5275 104.231 18.136 104.457 18.6902C104.61 19.0656 104.836 19.4067 105.123 19.6934C105.409 19.9801 105.75 20.2066 106.126 20.3596C106.501 20.5126 106.903 20.5889 107.308 20.5842C107.714 20.5795 108.114 20.4938 108.486 20.3322Z" fill="#DF0345"/>
<path d="M115.464 30.9598C116.194 30.6559 116.818 30.1425 117.256 29.4844C117.694 28.8262 117.927 28.053 117.926 27.2623C117.925 26.4717 117.689 25.6991 117.249 25.0423C116.809 24.3855 116.184 23.874 115.453 23.5723C114.722 23.2706 113.918 23.1924 113.143 23.3474C112.368 23.5025 111.656 23.884 111.097 24.4435C110.539 25.0031 110.159 25.7158 110.005 26.4913C109.851 27.2669 109.931 28.0706 110.234 28.8009C110.435 29.2863 110.731 29.7272 111.102 30.0984C111.474 30.4696 111.916 30.7639 112.402 30.9644C112.887 31.165 113.408 31.2677 113.933 31.267C114.459 31.2662 114.979 31.1618 115.464 30.9598Z" fill="#DF0345"/>
<path d="M121.881 41.6025C122.731 41.2492 123.456 40.6519 123.967 39.8861C124.477 39.1203 124.748 38.2203 124.747 37.3001C124.746 36.3799 124.472 35.4808 123.959 34.7164C123.447 33.952 122.72 33.3567 121.869 33.0058C121.018 32.6549 120.083 32.5642 119.18 32.7451C118.278 32.9259 117.45 33.3703 116.8 34.022C116.15 34.6736 115.708 35.5033 115.53 36.4061C115.352 37.3089 115.446 38.2443 115.799 39.0939C116.28 40.2276 117.187 41.1265 118.325 41.596C119.464 42.0655 120.741 42.0678 121.881 41.6025Z" fill="#DF0345"/>
<path d="M127.765 52.3059C128.704 51.9307 129.511 51.2843 130.081 50.4491C130.652 49.614 130.961 48.6279 130.969 47.6165C130.977 46.6051 130.683 45.6143 130.126 44.7702C129.569 43.9261 128.773 43.267 127.84 42.877C126.907 42.4869 125.879 42.3835 124.886 42.5799C123.894 42.7763 122.983 43.2637 122.269 43.9799C121.555 44.6961 121.07 45.6087 120.876 46.6014C120.683 47.5941 120.789 48.622 121.182 49.554C121.7 50.7836 122.68 51.7608 123.911 52.2754C125.142 52.79 126.526 52.801 127.765 52.3059Z" fill="#DF0345"/>
<path d="M133.04 62.9637C133.989 62.5697 134.801 61.9029 135.372 61.0477C135.943 60.1924 136.247 59.1871 136.247 58.1588C136.247 57.1305 135.941 56.1254 135.37 55.2706C134.798 54.4158 133.986 53.7496 133.036 53.3564C132.086 52.9632 131.04 52.8605 130.032 53.0613C129.023 53.2622 128.097 53.7575 127.37 54.4848C126.643 55.212 126.148 56.1385 125.947 57.1471C125.747 58.1557 125.85 59.201 126.244 60.151C126.505 60.782 126.888 61.3554 127.371 61.8383C127.854 62.3211 128.428 62.7041 129.059 62.9653C129.69 63.2265 130.366 63.3608 131.049 63.3605C131.732 63.3603 132.409 63.2254 133.04 62.9637Z" fill="#DF0345"/>
<path d="M152.522 65.7689C153.573 63.2231 152.361 60.3075 149.815 59.2566C147.27 58.2058 144.354 59.4176 143.303 61.9634C142.252 64.5092 143.464 67.4249 146.01 68.4757C148.556 69.5266 151.471 68.3147 152.522 65.7689Z" fill="#DF0345"/>
<path d="M121.013 15.4672C121.647 15.2123 122.189 14.7737 122.571 14.2079C122.953 13.6421 123.157 12.9749 123.157 12.2921C123.157 11.6094 122.952 10.9424 122.57 10.3769C122.187 9.81139 121.644 9.37331 121.011 9.11899C120.377 8.86468 119.682 8.80577 119.014 8.94984C118.347 9.09392 117.738 9.43438 117.266 9.92744C116.794 10.4205 116.48 11.0436 116.364 11.7165C116.249 12.3895 116.338 13.0815 116.619 13.7035C116.98 14.51 117.64 15.1447 118.46 15.4738C119.28 15.8029 120.195 15.8005 121.013 15.4672Z" fill="#DF0345"/>
<path d="M127.734 25.7602C128.455 25.4628 129.07 24.9585 129.504 24.311C129.937 23.6635 130.169 22.9019 130.169 22.1227C130.17 21.3435 129.939 20.5816 129.506 19.9336C129.074 19.2856 128.458 18.7805 127.739 18.4823C127.019 18.1842 126.227 18.1063 125.462 18.2585C124.698 18.4108 123.996 18.7863 123.446 19.3376C122.895 19.889 122.52 20.5913 122.369 21.3556C122.218 22.12 122.296 22.9121 122.595 23.6317C122.792 24.1097 123.081 24.5443 123.446 24.9103C123.811 25.2762 124.245 25.5665 124.722 25.7643C125.2 25.9621 125.712 26.0635 126.229 26.0628C126.746 26.0621 127.257 25.9593 127.734 25.7602Z" fill="#DF0345"/>
<path d="M134.013 36.281C134.819 35.9471 135.507 35.3819 135.992 34.6569C136.476 33.9318 136.734 33.0794 136.734 32.2075C136.734 31.3355 136.475 30.4832 135.991 29.7582C135.507 29.0333 134.818 28.4682 134.013 28.1345C133.207 27.8008 132.321 27.7134 131.465 27.8835C130.61 28.0535 129.825 28.4733 129.208 29.0897C128.591 29.7062 128.171 30.4916 128.001 31.3468C127.831 32.2019 127.918 33.0883 128.251 33.894C128.702 34.9722 129.56 35.8283 130.64 36.2756C131.72 36.7228 132.932 36.7247 134.013 36.281Z" fill="#DF0345"/>
<path d="M139.867 47.1518C140.767 46.7717 141.535 46.134 142.074 45.3188C142.612 44.5037 142.898 43.5474 142.895 42.5703C142.892 41.5932 142.6 40.6387 142.056 39.827C141.513 39.0152 140.741 38.3823 139.838 38.0078C138.936 37.6333 137.943 37.534 136.984 37.7223C136.025 37.9105 135.143 38.378 134.449 39.0659C133.755 39.7539 133.28 40.6316 133.084 41.5888C132.887 42.5459 132.978 43.5398 133.345 44.4456C133.591 45.0547 133.956 45.6087 134.419 46.0753C134.882 46.542 135.432 46.912 136.039 47.1638C136.646 47.4157 137.297 47.5443 137.954 47.5422C138.611 47.5402 139.262 47.4075 139.867 47.1518Z" fill="#DF0345"/>
<path d="M145.127 57.7945C146.052 57.41 146.842 56.7597 147.398 55.9259C147.953 55.0921 148.249 54.1122 148.247 53.1104C148.245 52.1086 147.946 51.1298 147.388 50.2979C146.83 49.4661 146.037 48.8185 145.111 48.4373C144.184 48.0561 143.165 47.9583 142.183 48.1563C141.201 48.3543 140.3 48.8392 139.594 49.5497C138.887 50.2601 138.408 51.1642 138.215 52.1474C138.023 53.1306 138.127 54.1487 138.513 55.073C138.768 55.6867 139.141 56.2442 139.612 56.7134C140.082 57.1825 140.64 57.5542 141.255 57.807C141.869 58.0599 142.528 58.1889 143.192 58.1868C143.857 58.1846 144.514 58.0513 145.127 57.7945Z" fill="#DF0345"/>
<path d="M139.289 18.8881C139.661 18.7346 139.98 18.4742 140.205 18.1397C140.429 17.8052 140.549 17.4117 140.55 17.0088C140.551 16.606 140.433 16.2119 140.21 15.8765C139.987 15.541 139.669 15.2792 139.297 15.1241C138.925 14.969 138.516 14.9276 138.121 15.0051C137.725 15.0827 137.362 15.2757 137.076 15.5597C136.791 15.8438 136.596 16.2062 136.516 16.601C136.436 16.9959 136.475 17.4055 136.628 17.7782C136.837 18.2757 137.233 18.6712 137.731 18.8789C138.229 19.0866 138.789 19.0899 139.289 18.8881Z" fill="#DF0345"/>
<path d="M145.75 30.0475C146.326 29.8047 146.816 29.3969 147.16 28.8756C147.504 28.3543 147.686 27.7428 147.683 27.1181C147.68 26.4935 147.492 25.8838 147.143 25.3659C146.794 24.8481 146.299 24.4452 145.721 24.2081C145.143 23.971 144.508 23.9104 143.896 24.0338C143.284 24.1573 142.721 24.4593 142.281 24.9017C141.84 25.3442 141.54 25.9073 141.419 26.52C141.297 27.1328 141.36 27.7677 141.599 28.3447C141.759 28.7299 141.993 29.0797 142.289 29.374C142.584 29.6683 142.935 29.9013 143.321 30.0596C143.706 30.2178 144.12 30.2982 144.536 30.2962C144.953 30.2941 145.366 30.2096 145.75 30.0475Z" fill="#DF0345"/>
</g>
</svg>
