<svg width="300" height="316" viewBox="0 0 300 316" fill="none" xmlns="http://www.w3.org/2000/svg">
<g opacity="0.07">
<mask id="mask0" style="mask-type:alpha" maskUnits="userSpaceOnUse" x="15" y="46" width="270" height="270">
<circle cx="149.747" cy="180.746" r="134.5" fill="#C4C4C4"/>
</mask>
<g mask="url(#mask0)">
<path d="M211.722 46.6863L192.942 27.412L219.029 20.7806L211.722 46.6863Z" fill="#DF0345"/>
<path d="M185.025 52.6749L167.467 34.6376L191.865 28.4506L185.025 52.6749Z" fill="#DF0345"/>
<path d="M158.347 58.6746L142.012 41.8745L164.731 36.1131L158.347 58.6746Z" fill="#DF0345"/>
<path d="M131.681 64.6563L116.539 49.1008L137.58 43.765L131.681 64.6563Z" fill="#DF0345"/>
<path d="M104.972 70.536L91.2343 56.4269L110.327 51.5852L104.972 70.536Z" fill="#DF0345"/>
<path d="M78.2863 76.506L65.7786 63.664L83.1628 59.2555L78.2863 76.506Z" fill="#DF0345"/>
<path d="M51.6066 82.5048L40.303 70.8886L56.0087 66.9058L51.6066 82.5048Z" fill="#DF0345"/>
<path d="M24.9598 88.625L14.6685 78.0441L28.9654 74.4185L24.9598 88.625Z" fill="#DF0345"/>
<path d="M285.065 57.9621L263.67 35.9856L293.403 28.4456L285.065 57.9621Z" fill="#DF0345"/>
<path d="M258.387 63.9616L238.195 43.2109L266.25 36.0966L258.387 63.9616Z" fill="#DF0345"/>
<path d="M231.689 69.8227L212.89 50.5373L238.996 43.917L231.689 69.8227Z" fill="#DF0345"/>
<path d="M204.992 75.8114L187.435 57.7741L211.833 51.5871L204.992 75.8114Z" fill="#DF0345"/>
<path d="M178.325 81.7923L161.961 64.9997L184.699 59.2494L178.325 81.7923Z" fill="#DF0345"/>
<path d="M151.646 87.792L136.505 72.2365L157.545 66.9008L151.646 87.792Z" fill="#DF0345"/>
<path d="M124.919 93.6605L111.2 79.5626L130.274 74.7097L124.919 93.6605Z" fill="#DF0345"/>
<path d="M98.2521 99.6417L85.7445 86.7997L103.129 82.3912L98.2521 99.6417Z" fill="#DF0345"/>
<path d="M71.5743 105.641L60.2708 94.0253L75.9764 90.0424L71.5743 105.641Z" fill="#DF0345"/>
<path d="M44.9267 111.761L34.6353 101.18L48.9323 97.5545L44.9267 111.761Z" fill="#DF0345"/>
<path d="M18.2597 117.742L9.16112 108.406L21.7796 105.206L18.2597 117.742Z" fill="#DF0345"/>
<path d="M304.85 80.3791L284.658 59.6284L312.713 52.5141L304.85 80.3791Z" fill="#DF0345"/>
<path d="M278.214 86.4798L259.023 66.7832L285.669 60.0261L278.214 86.4798Z" fill="#DF0345"/>
<path d="M251.516 92.4686L233.548 74.0091L258.516 67.6776L251.516 92.4686Z" fill="#DF0345"/>
<path d="M224.838 98.4681L208.093 81.2456L231.382 75.3398L224.838 98.4681Z" fill="#DF0345"/>
<path d="M198.17 104.449L182.618 88.4712L204.217 83.0098L198.17 104.449Z" fill="#DF0345"/>
<path d="M171.504 110.557L156.983 95.6258L177.184 90.5028L171.504 110.557Z" fill="#DF0345"/>
<path d="M144.826 116.557L131.527 102.863L150.021 98.1729L144.826 116.557Z" fill="#DF0345"/>
<path d="M118.158 122.538L106.042 110.107L122.868 105.824L118.158 122.538Z" fill="#DF0345"/>
<path d="M91.4807 128.538L80.5684 117.333L95.7346 113.487L91.4807 128.538Z" fill="#DF0345"/>
<path d="M64.8437 134.638L54.9325 124.487L68.6899 120.999L64.8437 134.638Z" fill="#DF0345"/>
<path d="M38.1469 140.628L29.4773 131.725L41.5375 128.651L38.1469 140.628Z" fill="#DF0345"/>
<path d="M11.4995 146.747L3.82331 138.869L14.4936 136.163L11.4995 146.747Z" fill="#DF0345"/>
<path d="M297.796 108.166L281.051 90.9436L304.31 85.0454L297.796 108.166Z" fill="#DF0345"/>
<path d="M271.159 114.267L255.397 98.0872L277.277 92.5386L271.159 114.267Z" fill="#DF0345"/>
<path d="M244.494 120.376L229.762 105.243L250.234 100.051L244.494 120.376Z" fill="#DF0345"/>
<path d="M217.815 126.375L204.306 112.479L223.099 107.714L217.815 126.375Z" fill="#DF0345"/>
<path d="M191.178 132.476L178.652 119.623L196.055 115.226L191.178 132.476Z" fill="#DF0345"/>
<path d="M164.53 138.596L153.016 126.778L169.003 122.708L164.53 138.596Z" fill="#DF0345"/>
<path d="M137.852 144.595L127.542 134.003L141.857 130.389L137.852 144.595Z" fill="#DF0345"/>
<path d="M111.197 150.685L101.907 141.158L114.825 137.882L111.197 150.685Z" fill="#DF0345"/>
<path d="M84.5484 156.805L76.2701 148.313L87.7797 145.395L84.5484 156.805Z" fill="#DF0345"/>
<path d="M57.9007 162.924L50.6458 155.449L60.7278 152.876L57.9007 162.924Z" fill="#DF0345"/>
<path d="M31.265 169.025L24.9924 162.593L33.6845 160.389L31.265 169.025Z" fill="#DF0345"/>
<path d="M290.925 136.673L276.405 121.742L296.595 116.637L290.925 136.673Z" fill="#DF0345"/>
<path d="M264.278 142.792L250.75 128.885L269.543 124.119L264.278 142.792Z" fill="#DF0345"/>
<path d="M237.641 148.893L225.115 136.04L242.499 131.632L237.641 148.893Z" fill="#DF0345"/>
<path d="M210.975 155.002L199.479 143.195L215.466 139.125L210.975 155.002Z" fill="#DF0345"/>
<path d="M184.327 161.122L173.825 150.339L188.422 146.637L184.327 161.122Z" fill="#DF0345"/>
<path d="M157.709 167.361L148.038 157.404L161.496 153.991L157.709 167.361Z" fill="#DF0345"/>
<path d="M131.072 173.462L122.384 164.548L134.463 161.485L131.072 173.462Z" fill="#DF0345"/>
<path d="M104.424 179.581L96.7481 171.702L107.418 168.997L104.424 179.581Z" fill="#DF0345"/>
<path d="M77.7874 185.682L71.1234 178.839L80.3738 176.509L77.7874 185.682Z" fill="#DF0345"/>
<path d="M51.1513 191.911L45.3076 185.912L53.4414 183.833L51.1513 191.911Z" fill="#DF0345"/>
<path d="M24.5039 198.03L19.6536 193.056L26.3974 191.345L24.5039 198.03Z" fill="#DF0345"/>
<path d="M283.902 164.58L272.599 152.964L288.305 148.981L283.902 164.58Z" fill="#DF0345"/>
<path d="M257.285 170.819L246.783 160.037L261.38 156.335L257.285 170.819Z" fill="#DF0345"/>
<path d="M230.636 176.939L221.158 167.173L234.335 163.847L230.636 176.939Z" fill="#DF0345"/>
<path d="M204.031 183.16L195.343 174.246L207.41 171.201L204.031 183.16Z" fill="#DF0345"/>
<path d="M177.414 189.399L169.538 181.3L180.478 178.526L177.414 189.399Z" fill="#DF0345"/>
<path d="M150.747 195.508L143.903 188.455L153.434 186.038L150.747 195.508Z" fill="#DF0345"/>
<path d="M124.142 201.729L118.087 195.529L126.491 193.382L124.142 201.729Z" fill="#DF0345"/>
<path d="M97.5233 207.968L92.2817 202.583L99.565 200.736L97.5233 207.968Z" fill="#DF0345"/>
<path d="M70.9051 214.207L66.4761 209.636L72.6505 208.071L70.9051 214.207Z" fill="#DF0345"/>
<path d="M44.2887 220.447L40.6613 216.71L45.7079 215.414L44.2887 220.447Z" fill="#DF0345"/>
<path d="M17.6812 226.668L14.8553 223.764L18.7817 222.768L17.6812 226.668Z" fill="#DF0345"/>
<path d="M277.051 193.098L267.952 183.762L280.589 180.573L277.051 193.098Z" fill="#DF0345"/>
<path d="M250.416 199.327L242.137 190.835L253.647 187.916L250.416 199.327Z" fill="#DF0345"/>
<path d="M223.797 205.566L216.332 197.889L226.721 195.27L223.797 205.566Z" fill="#DF0345"/>
<path d="M197.21 211.925L190.365 204.872L199.897 202.455L197.21 211.925Z" fill="#DF0345"/>
<path d="M170.604 218.146L164.549 211.945L172.953 209.798L170.604 218.146Z" fill="#DF0345"/>
<path d="M143.986 224.385L138.745 219L146.028 217.153L143.986 224.385Z" fill="#DF0345"/>
<path d="M117.368 230.624L112.939 226.053L119.083 224.495L117.368 230.624Z" fill="#DF0345"/>
<path d="M90.7516 236.865L87.1242 233.127L92.1708 231.832L90.7516 236.865Z" fill="#DF0345"/>
<path d="M64.1754 243.205L61.1388 240.099L65.335 239.035L64.1754 243.205Z" fill="#DF0345"/>
<path d="M37.5581 249.445L35.3342 247.154L38.4214 246.371L37.5581 249.445Z" fill="#DF0345"/>
<path d="M270.108 221.383L263.654 214.742L272.627 212.45L270.108 221.383Z" fill="#DF0345"/>
<path d="M243.501 227.604L237.838 221.815L245.702 219.805L243.501 227.604Z" fill="#DF0345"/>
<path d="M216.915 233.964L211.865 228.769L218.879 226.99L216.915 233.964Z" fill="#DF0345"/>
<path d="M190.297 240.203L186.049 235.841L191.953 234.344L190.297 240.203Z" fill="#DF0345"/>
<path d="M163.691 246.552L160.064 242.814L165.118 241.548L163.691 246.552Z" fill="#DF0345"/>
<path d="M137.115 252.892L134.097 249.797L138.293 248.733L137.115 252.892Z" fill="#DF0345"/>
<path d="M110.529 259.252L108.113 256.77L111.47 255.919L110.529 259.252Z" fill="#DF0345"/>
<path d="M83.9407 265.611L82.127 263.742L84.6447 263.103L83.9407 265.611Z" fill="#DF0345"/>
<path d="M57.3537 271.97L56.1421 270.715L57.8393 270.3L57.3537 271.97Z" fill="#DF0345"/>
<path d="M30.7666 278.33L30.1758 277.698L31.015 277.485L30.7666 278.33Z" fill="#DF0345"/>
<path d="M289.903 243.782L284.643 238.385L291.926 236.538L289.903 243.782Z" fill="#DF0345"/>
<path d="M263.267 250.01L258.827 245.458L265.002 243.892L263.267 250.01Z" fill="#DF0345"/>
<path d="M236.68 256.37L232.842 252.43L238.177 251.077L236.68 256.37Z" fill="#DF0345"/>
<path d="M210.093 262.729L206.876 259.414L211.353 258.262L210.093 262.729Z" fill="#DF0345"/>
<path d="M183.517 269.069L180.891 266.386L184.547 265.458L183.517 269.069Z" fill="#DF0345"/>
<path d="M156.96 275.549L154.737 273.258L157.813 272.493L156.96 275.549Z" fill="#DF0345"/>
<path d="M130.373 281.908L128.759 280.26L131.007 279.69L130.373 281.908Z" fill="#DF0345"/>
<path d="M103.817 288.387L102.605 287.131L104.283 286.705L103.817 288.387Z" fill="#DF0345"/>
<path d="M77.2297 294.747L76.6201 294.104L77.4781 293.902L77.2297 294.747Z" fill="#DF0345"/>
<path d="M50.6854 301.208L50.4741 301.006L50.7447 300.937L50.6854 301.208Z" fill="#DF0345"/>
<path d="M282.991 272.187L280.165 269.283L284.091 268.288L282.991 272.187Z" fill="#DF0345"/>
<path d="M256.446 278.648L254.011 276.155L257.387 275.315L256.446 278.648Z" fill="#DF0345"/>
<path d="M229.859 285.007L228.045 283.139L230.563 282.5L229.859 285.007Z" fill="#DF0345"/>
<path d="M203.302 291.486L201.88 290.029L203.858 289.527L203.302 291.486Z" fill="#DF0345"/>
<path d="M176.745 297.966L175.733 296.931L177.123 296.562L176.745 297.966Z" fill="#DF0345"/>
<path d="M150.189 304.445L149.579 303.802L150.418 303.589L150.189 304.445Z" fill="#DF0345"/>
<path d="M123.633 310.924L123.433 310.703L123.703 310.635L123.633 310.924Z" fill="#DF0345"/>
<path d="M276.26 301.184L274.838 299.727L276.805 299.244L276.26 301.184Z" fill="#DF0345"/>
<path d="M249.686 307.652L248.692 306.628L250.082 306.26L249.686 307.652Z" fill="#DF0345"/>
<path d="M223.128 314.132L222.537 313.5L223.376 313.288L223.128 314.132Z" fill="#DF0345"/>
<circle cx="149.747" cy="180.746" r="134.5" fill="url(#paint0_radial)"/>
</g>
</g>
<defs>
<radialGradient id="paint0_radial" cx="0" cy="0" r="1" gradientUnits="userSpaceOnUse" gradientTransform="translate(149.747 177.69) rotate(90) scale(137.557)">
<stop offset="0.746258" stop-color="white" stop-opacity="0"/>
<stop offset="0.977262" stop-color="white"/>
</radialGradient>
</defs>
</svg>
