<svg width="617" height="615" viewBox="0 0 617 615" fill="none" xmlns="http://www.w3.org/2000/svg">
<g opacity="0.1" filter="url(#filter0_f)">
<path d="M246.28 95.7536C252.139 18.3752 353.233 57.1361 356.053 151.599C357.478 199.363 330.834 255.732 303.727 312.069C274.939 225.921 243.208 136.324 246.28 95.7536Z" fill="url(#paint0_linear)"/>
<path d="M386.975 530.592C486.549 495.789 566.322 371.382 550.62 267.826C534.919 164.271 472.414 116.476 412.779 95.666C353.143 74.8561 219.528 63.6129 161.638 192.974C103.747 322.336 149.651 405.559 195.854 497.107C213.707 532.481 287.401 565.394 386.975 530.592Z" fill="url(#paint1_linear)"/>
<path d="M82.1625 240.08C106.683 139.716 188.072 53.6318 280.083 90.658C352.723 119.889 371.424 191.941 412.551 250.875C463.057 323.251 503.16 375.285 484.9 420.661C451.771 502.987 311.436 497.317 213.221 403.34C141.56 334.772 57.6418 340.444 82.1625 240.08Z" fill="url(#paint2_linear)"/>
<path d="M248.697 469.145C245.484 564.122 332.09 568.813 346.63 498.827C353.547 465.536 329.852 390.216 303.734 312.058C277.231 367.139 250.285 422.192 248.697 469.145Z" fill="url(#paint3_radial)"/>
<path d="M248.697 469.145C245.484 564.122 332.09 568.813 346.63 498.827C353.547 465.536 329.852 390.216 303.734 312.058C277.231 367.139 250.285 422.192 248.697 469.145Z" fill="url(#paint4_linear)"/>
</g>
<g filter="url(#filter1_f)">
<path d="M59.9937 393.914C53.6469 389.119 48.1384 383.32 43.7425 376.844C39.3158 370.347 35.9804 363.204 33.885 355.792C31.7895 348.38 30.9247 340.646 31.2924 333.046C31.6601 325.446 33.2818 317.95 36.0765 311.001C33.8897 318.193 32.9329 325.654 33.1497 333.071C33.3878 340.458 34.8516 347.793 37.4136 354.668C39.9755 361.544 43.6356 367.96 48.1931 373.549C52.76 379.19 58.1935 383.983 64.2358 387.839C65.9692 388.959 66.4881 391.229 65.3771 392.951C64.2661 394.673 61.9944 395.175 60.2609 394.056C60.1781 394.043 60.0859 393.979 59.9937 393.914Z" fill="url(#paint5_linear)"/>
</g>
<g filter="url(#filter2_f)">
<path d="M446.423 26.0316C458.12 30.595 469.058 36.7758 478.672 44.2134C488.342 51.6708 496.706 60.3371 503.363 69.7475C510.021 79.1579 515.01 89.38 518.11 99.7967C521.21 110.213 522.404 120.873 521.599 131.149C521.388 120.729 519.226 110.321 515.348 100.33C511.453 90.3863 505.768 80.8885 498.678 72.3488C491.587 63.8091 483.091 56.2277 473.662 50.041C464.195 43.7868 453.851 38.9472 443.056 35.5643C439.952 34.5756 438.095 31.6567 438.915 28.9826C439.734 26.3085 442.856 24.9331 445.96 25.9218C446.088 25.9133 446.256 25.9725 446.423 26.0316Z" fill="url(#paint6_linear)"/>
</g>
<defs>
<filter id="filter0_f" x="66.8105" y="43.5" width="496.791" height="514.021" filterUnits="userSpaceOnUse" color-interpolation-filters="sRGB">
<feFlood flood-opacity="0" result="BackgroundImageFix"/>
<feBlend mode="normal" in="SourceGraphic" in2="BackgroundImageFix" result="shape"/>
<feGaussianBlur stdDeviation="5.5" result="effect1_foregroundBlur"/>
</filter>
<filter id="filter1_f" x="11.21" y="291.001" width="74.7526" height="123.652" filterUnits="userSpaceOnUse" color-interpolation-filters="sRGB">
<feFlood flood-opacity="0" result="BackgroundImageFix"/>
<feBlend mode="normal" in="SourceGraphic" in2="BackgroundImageFix" result="shape"/>
<feGaussianBlur stdDeviation="10" result="effect1_foregroundBlur"/>
</filter>
<filter id="filter2_f" x="418.721" y="5.6012" width="123.122" height="145.548" filterUnits="userSpaceOnUse" color-interpolation-filters="sRGB">
<feFlood flood-opacity="0" result="BackgroundImageFix"/>
<feBlend mode="normal" in="SourceGraphic" in2="BackgroundImageFix" result="shape"/>
<feGaussianBlur stdDeviation="10" result="effect1_foregroundBlur"/>
</filter>
<linearGradient id="paint0_linear" x1="244.573" y1="91.1794" x2="373.953" y2="119.905" gradientUnits="userSpaceOnUse">
<stop stop-color="#E375A0"/>
<stop offset="1" stop-color="#E375A0" stop-opacity="0"/>
</linearGradient>
<linearGradient id="paint1_linear" x1="536.553" y1="373.978" x2="309.309" y2="383.261" gradientUnits="userSpaceOnUse">
<stop stop-color="#C65BEC"/>
<stop offset="1" stop-color="#5BAEEC" stop-opacity="0"/>
</linearGradient>
<linearGradient id="paint2_linear" x1="388.727" y1="437.556" x2="485.988" y2="354.511" gradientUnits="userSpaceOnUse">
<stop stop-color="#7BE7F6" stop-opacity="0"/>
<stop offset="0.75" stop-color="#F67BD4"/>
</linearGradient>
<radialGradient id="paint3_radial" cx="0" cy="0" r="1" gradientUnits="userSpaceOnUse" gradientTransform="translate(247.518 506.598) rotate(-46.2877) scale(126.382 162.259)">
<stop stop-color="#E375A0" stop-opacity="0"/>
<stop offset="1" stop-color="#FF91C6"/>
</radialGradient>
<linearGradient id="paint4_linear" x1="301.135" y1="339.528" x2="286.603" y2="399.803" gradientUnits="userSpaceOnUse">
<stop stop-color="white"/>
<stop offset="1" stop-color="white" stop-opacity="0"/>
</linearGradient>
<linearGradient id="paint5_linear" x1="78.7024" y1="373.872" x2="20.5363" y2="333.256" gradientUnits="userSpaceOnUse">
<stop stop-color="#DF0345"/>
<stop offset="1" stop-color="#DF0345" stop-opacity="0"/>
</linearGradient>
<linearGradient id="paint6_linear" x1="428.334" y1="58.9206" x2="533.936" y2="96.228" gradientUnits="userSpaceOnUse">
<stop stop-color="#DF0345"/>
<stop offset="1" stop-color="#DF0345" stop-opacity="0"/>
</linearGradient>
</defs>
</svg>
