<svg width="159" height="159" viewBox="0 0 159 159" fill="none" xmlns="http://www.w3.org/2000/svg">
<mask id="mask0" style="mask-type:alpha" maskUnits="userSpaceOnUse" x="10" y="10" width="139" height="139">
<circle cx="79.3711" cy="79.8708" r="69" fill="white"/>
<circle cx="79.3711" cy="79.8708" r="69" fill="white"/>
</mask>
<g mask="url(#mask0)">
<path d="M26.3829 140.457L9.77441 144.907L21.932 157.065L26.3829 140.457Z" fill="#DF0345"/>
<path d="M10.5713 125.632L-4.47852 129.667L6.53606 140.699L10.5713 125.632Z" fill="#DF0345"/>
<path d="M64.7951 147.973L47.7363 152.545L60.223 165.014L64.7951 147.973Z" fill="#DF0345"/>
<path d="M49.1216 133.01L33.1885 137.287L44.8612 148.96L49.1216 133.01Z" fill="#DF0345"/>
<path d="M33.3964 118.116L18.7969 122.047L29.4824 132.733L33.3964 118.116Z" fill="#DF0345"/>
<path d="M17.671 103.239L4.3877 106.789L14.1034 116.522L17.671 103.239Z" fill="#DF0345"/>
<path d="M87.0493 141.011L72.2246 144.994L83.0834 155.853L87.0493 141.011Z" fill="#DF0345"/>
<path d="M71.3938 126.065L57.6602 129.736L67.7222 139.781L71.3938 126.065Z" fill="#DF0345"/>
<path d="M55.7375 111.102L43.1123 114.479L52.3431 123.727L55.7375 111.102Z" fill="#DF0345"/>
<path d="M40.0121 96.208L28.7031 99.2387L36.9814 107.5L40.0121 96.208Z" fill="#DF0345"/>
<path d="M24.3395 81.262L14.1562 83.981L21.6205 91.4453L24.3395 81.262Z" fill="#DF0345"/>
<path d="M125.323 148.666L110.481 152.649L121.34 163.508L125.323 148.666Z" fill="#DF0345"/>
<path d="M109.667 133.72L95.9336 137.391L105.978 147.436L109.667 133.72Z" fill="#DF0345"/>
<path d="M93.9946 118.757L81.3867 122.134L90.6175 131.382L93.9946 118.757Z" fill="#DF0345"/>
<path d="M78.3381 103.793L66.8213 106.876L75.2554 115.31L78.3381 103.793Z" fill="#DF0345"/>
<path d="M62.752 88.7607L52.1357 91.6183L59.9118 99.3943L62.752 88.7607Z" fill="#DF0345"/>
<path d="M47.0955 73.8149L37.5703 76.3608L44.5497 83.3401L47.0955 73.8149Z" fill="#DF0345"/>
<path d="M31.4392 58.8516L23.0225 61.103L29.1878 67.2684L31.4392 58.8516Z" fill="#DF0345"/>
<path d="M15.784 43.9058L8.47559 45.8628L13.827 51.1969L15.784 43.9058Z" fill="#DF0345"/>
<path d="M147.508 141.79L135.108 145.115L144.183 154.19L147.508 141.79Z" fill="#DF0345"/>
<path d="M131.921 126.758L120.404 129.841L128.838 138.275L131.921 126.758Z" fill="#DF0345"/>
<path d="M116.266 111.795L105.857 114.6L113.478 122.203L116.266 111.795Z" fill="#DF0345"/>
<path d="M100.678 96.7793L91.1533 99.3251L98.1327 106.287L100.678 96.7793Z" fill="#DF0345"/>
<path d="M85.0921 81.7468L76.4502 84.0675L82.7715 90.3888L85.0921 81.7468Z" fill="#DF0345"/>
<path d="M69.4186 66.7839L61.9023 68.8102L67.4097 74.3175L69.4186 66.7839Z" fill="#DF0345"/>
<path d="M53.8332 51.7686L47.2002 53.535L52.0493 58.4016L53.8332 51.7686Z" fill="#DF0345"/>
<path d="M38.2459 36.7361L32.4961 38.2774L36.7045 42.4858L38.2459 36.7361Z" fill="#DF0345"/>
<path d="M22.6585 21.7034L17.792 23.0196L21.3596 26.5872L22.6585 21.7034Z" fill="#DF0345"/>
<path d="M154.401 119.605L144.426 122.272L151.734 129.563L154.401 119.605Z" fill="#DF0345"/>
<path d="M138.798 104.573L129.723 106.997L136.373 113.647L138.798 104.573Z" fill="#DF0345"/>
<path d="M123.21 89.5403L115.019 91.7397L121.028 97.732L123.21 89.5403Z" fill="#DF0345"/>
<path d="M107.693 74.4385L100.177 76.4647L105.684 81.972L107.693 74.4385Z" fill="#DF0345"/>
<path d="M92.1067 59.4233L85.4736 61.1898L90.3228 66.0563L92.1067 59.4233Z" fill="#DF0345"/>
<path d="M76.5193 44.3906L70.7695 45.932L74.9779 50.1404L76.5193 44.3906Z" fill="#DF0345"/>
<path d="M60.9319 29.3584L56.0654 30.6746L59.6157 34.2249L60.9319 29.3584Z" fill="#DF0345"/>
<path d="M45.3466 14.3259L41.3633 15.3997L44.2728 18.3265L45.3466 14.3259Z" fill="#DF0345"/>
<path d="M145.551 82.5261L139.351 84.1714L143.888 88.7262L145.551 82.5261Z" fill="#DF0345"/>
<path d="M130.035 67.4246L124.493 68.9139L128.546 72.9665L130.035 67.4246Z" fill="#DF0345"/>
<path d="M114.448 52.3921L109.789 53.639L113.201 57.0508L114.448 52.3921Z" fill="#DF0345"/>
<path d="M98.913 37.2903L94.9297 38.364L97.8566 41.2736L98.913 37.2903Z" fill="#DF0345"/>
<path d="M83.3948 22.2058L80.0869 23.089L82.5115 25.5136L83.3948 22.2058Z" fill="#DF0345"/>
<path d="M152.566 60.1853L148.357 61.311L151.44 64.3937L152.566 60.1853Z" fill="#DF0345"/>
<path d="M137.048 45.0835L133.515 46.036L136.095 48.6338L137.048 45.0835Z" fill="#DF0345"/>
<path d="M121.53 29.9993L118.655 30.7613L120.768 32.8741L121.53 29.9993Z" fill="#DF0345"/>
<path d="M106.083 14.8279L103.641 15.486L105.424 17.2525L106.083 14.8279Z" fill="#DF0345"/>
<path d="M144.079 22.76L142.521 23.1757L143.663 24.3187L144.079 22.76Z" fill="#DF0345"/>
</g>
</svg>
