<svg width="158" height="158" viewBox="0 0 158 158" fill="none" xmlns="http://www.w3.org/2000/svg">
<mask id="mask0" style="mask-type:alpha" maskUnits="userSpaceOnUse" x="10" y="10" width="138" height="138">
<circle cx="79" cy="79" r="69" fill="white"/>
<circle cx="79" cy="79" r="69" fill="white"/>
</mask>
<g mask="url(#mask0)">
<mask id="mask1" style="mask-type:alpha" maskUnits="userSpaceOnUse" x="-179" y="-66" width="505" height="288">
<path d="M72.93 -66L-179 185.93V190.17L77.17 -66H72.93ZM85.93 -66L-179 198.89V203.13L90.13 -66H85.93ZM60 -66L-179 173V177.24L64.2 -66H60ZM34 -66L-179 147V151.24L38.27 -66H34ZM47 -66L-179 160V164.24L51.24 -66H47ZM8.10001 -66L-179 121.1V125.34L12.34 -66H8.10001ZM98.85 -66L-179 211.85V216.1L103.1 -66H98.85ZM21.07 -66L-179 134.07V138.31L25.31 -66H21.07ZM176.64 -66L-111.36 222H-107.12L180.88 -66H176.64ZM163.64 -66L-124.36 222H-120.12L167.88 -66H163.64ZM189.57 -66L-98.43 222H-94.19L193.81 -66H189.57ZM124.78 -66L-163.22 222H-159L129 -66H124.78ZM150.71 -66L-137.29 222H-133L155 -66H150.71ZM111.82 -66L-176.18 222H-171.94L116.06 -66H111.82ZM137.75 -66L-150.25 222H-146L142 -66H137.75ZM-43.76 -66L-179 69.24V73.49L-39.51 -66H-43.76ZM-4.86 -66L-179 108.14V112.38L-0.619995 -66H-4.86ZM-121.54 -66L-179 -8.54V-4.3L-117.3 -66H-121.54ZM-108.54 -66L-179 4.42V8.66L-104.34 -66H-108.54ZM-173.4 -66L-179 -60.4V-56.16L-169.16 -66H-173.4ZM-95.61 -66L-179 17.39V21.63L-91.37 -66H-95.61ZM-147.47 -66L-179 -34.47V-30.23L-143.23 -66H-147.47ZM-160.47 -66L-179 -47.44V-43.2L-156.2 -66H-160.47ZM-134.51 -66L-179 -21.51V-17.27L-130.27 -66H-134.51ZM-30.79 -66L-179 82.21V86.45L-26.55 -66H-30.79ZM-17.79 -66L-179 95.17V99.42L-13.58 -66H-17.79ZM202.61 -66L-85.39 222H-81.15L206.85 -66H202.61ZM-56.72 -66L-179 56.28V60.52L-52.48 -66H-56.72ZM-82.65 -66L-179 30.35V34.59L-78.41 -66H-82.65ZM-69.65 -66L-179 43.31V47.56L-65.44 -66H-69.65ZM165.14 222L325 62.14V57.9L160.9 222H165.14ZM204.04 222L325 101V96.75L199.79 222H204.04ZM191.04 222L325 88.07V83.83L186.83 222H191.04ZM217 222L325 114V109.76L212.76 222H217ZM215.54 -66L-72.46 222H-68.22L219.78 -66H215.54ZM139.21 222L325 36.21V32L135 222H139.21ZM152.21 222L325 49.18V44.93L147.93 222H152.21ZM178.14 222L325 75.11V70.86L173.86 222H178.14ZM230 222L325 127V122.76L225.72 222H230ZM294.83 222L325 191.79V187.55L290.55 222H294.83ZM307.83 222L325 204.75V200.51L303.51 222H307.83ZM320.83 222L325.11 217.72V213.47L316.47 222H320.83ZM268.97 222L325 165.86V161.62L264.62 222H268.97ZM281.97 222L325 178.82V174.58L277.58 222H281.97ZM256.04 222L325 152.89V148.65L251.65 222H256.04ZM243.04 222L325 139.93V135.69L238.69 222H243.04ZM126.36 222L325 23.25V19L122 222H126.36ZM267.39 -66L-20.61 222H-16.36L271.64 -66H267.39ZM280.39 -66L-7.61 222H-3.37L284.6 -66H280.39ZM293.39 -66L5.39 222H9.64L297.64 -66H293.39ZM228.5 -66L-59.5 222H-55.26L232.74 -66H228.5ZM306.29 -66L18.29 222H22.53L310.53 -66H306.29ZM254.43 -66L-33.57 222H-29.33L258.67 -66H254.43ZM241.43 -66L-46.57 222H-42.33L245.67 -66H241.43ZM100.32 222L325 -2.68V-6.92L96.08 222H100.32ZM87.32 222L325 -15.65V-19.89L83.11 222H87.32ZM319.25 -66L31.25 222H35.5L323.5 -66H319.25ZM74.39 222L325 -28.61V-32.85L70.15 222H74.39ZM113.28 222L325 10.28V6L109 222H113.28ZM44.22 222H48.46L325 -54.54V-58.78L44.22 222ZM61.42 222L325 -41.58V-45.82L57.18 222H61.42Z" fill="#DF0345"/>
</mask>
<g mask="url(#mask1)">
<circle cx="76.141" cy="70.1412" r="102.231" transform="rotate(30.7703 76.141 70.1412)" fill="#DF0345"/>
</g>
</g>
</svg>
