<svg width="471" height="421" viewBox="0 0 471 421" fill="none" xmlns="http://www.w3.org/2000/svg">
<g opacity="0.75" filter="url(#filter0_f)">
<path d="M393.338 359.613C370.322 368.151 346.011 373.28 321.616 374.665C297.22 376.049 272.72 373.816 249.122 368.114C225.524 362.412 202.829 353.242 182.132 341.024C161.309 328.787 142.484 313.502 126.337 295.786C110.19 278.07 96.6836 258.173 86.3725 236.694C76.0614 215.215 69.0525 192.297 65.4664 168.86C58.4013 122.131 65.7636 73.5617 85.6681 31.4924C67.558 74.4723 62.6998 122.643 71.6637 167.853C76.1551 190.396 83.9621 212.274 94.7312 232.406C105.5 252.538 119.213 271.05 135.352 287.093C151.365 303.116 169.785 316.797 189.7 327.354C209.616 337.912 231.006 345.472 253.029 349.653C275.034 353.959 297.544 354.867 319.749 352.642C341.828 350.397 363.532 344.623 383.849 336.069C390.309 333.3 397.706 336.331 400.35 342.772C403.119 349.232 400.087 356.63 393.646 359.273C393.609 359.525 393.464 359.632 393.338 359.613Z" fill="url(#paint0_linear)"/>
</g>
<path d="M393.338 359.613C370.322 368.151 346.011 373.28 321.616 374.665C297.22 376.049 272.72 373.816 249.122 368.114C225.524 362.412 202.829 353.242 182.132 341.024C161.309 328.787 142.484 313.502 126.337 295.786C110.19 278.07 96.6836 258.173 86.3725 236.694C76.0614 215.215 69.0525 192.297 65.4664 168.86C58.4013 122.131 65.7636 73.5617 85.6681 31.4924C67.558 74.4723 62.6998 122.643 71.6637 167.853C76.1551 190.396 83.9621 212.274 94.7312 232.406C105.5 252.538 119.213 271.05 135.352 287.093C151.365 303.116 169.785 316.797 189.7 327.354C209.616 337.912 231.006 345.472 253.029 349.653C275.034 353.959 297.544 354.867 319.749 352.642C341.828 350.397 363.532 344.623 383.849 336.069C390.309 333.3 397.706 336.331 400.35 342.772C403.119 349.232 400.087 356.63 393.646 359.273C393.609 359.525 393.464 359.632 393.338 359.613Z" fill="url(#paint1_linear)"/>
<defs>
<filter id="filter0_f" x="0" y="-0.000366211" width="470.738" height="420.85" filterUnits="userSpaceOnUse" color-interpolation-filters="sRGB">
<feFlood flood-opacity="0" result="BackgroundImageFix"/>
<feBlend mode="normal" in="SourceGraphic" in2="BackgroundImageFix" result="shape"/>
<feGaussianBlur stdDeviation="15" result="effect1_foregroundBlur"/>
</filter>
<linearGradient id="paint0_linear" x1="392.546" y1="340.065" x2="75.5535" y2="65.372" gradientUnits="userSpaceOnUse">
<stop stop-color="#DF0345"/>
<stop offset="1" stop-color="#DF0345" stop-opacity="0"/>
</linearGradient>
<linearGradient id="paint1_linear" x1="392.546" y1="340.065" x2="75.5535" y2="65.372" gradientUnits="userSpaceOnUse">
<stop stop-color="#DF0345"/>
<stop offset="1" stop-color="#DF0345" stop-opacity="0"/>
</linearGradient>
</defs>
</svg>
