<svg width="300" height="300" viewBox="0 0 300 300" fill="none" xmlns="http://www.w3.org/2000/svg">
<g opacity="0.1">
<mask id="mask0" style="mask-type:alpha" maskUnits="userSpaceOnUse" x="-95" y="7" width="505" height="289">
<path d="M157.529 7.59546L-94.4014 259.525V263.765L161.769 7.59546H157.529ZM170.529 7.59546L-94.4014 272.485V276.725L174.729 7.59546H170.529ZM144.599 7.59546L-94.4014 246.595V250.835L148.799 7.59546H144.599ZM118.599 7.59546L-94.4014 220.595V224.835L122.869 7.59546H118.599ZM131.599 7.59546L-94.4014 233.595V237.835L135.839 7.59546H131.599ZM92.6986 7.59546L-94.4014 194.695V198.935L96.9386 7.59546H92.6986ZM183.449 7.59546L-94.4014 285.445V289.695L187.699 7.59546H183.449ZM105.669 7.59546L-94.4014 207.665V211.905L109.909 7.59546H105.669ZM261.239 7.59546L-26.7614 295.595H-22.5214L265.479 7.59546H261.239ZM248.239 7.59546L-39.7614 295.595H-35.5214L252.479 7.59546H248.239ZM274.169 7.59546L-13.8314 295.595H-9.59137L278.409 7.59546H274.169ZM209.379 7.59546L-78.6214 295.595H-74.4014L213.599 7.59546H209.379ZM235.309 7.59546L-52.6914 295.595H-48.4014L239.599 7.59546H235.309ZM196.419 7.59546L-91.5814 295.595H-87.3414L200.659 7.59546H196.419ZM222.349 7.59546L-65.6514 295.595H-61.4014L226.599 7.59546H222.349ZM40.8386 7.59546L-94.4014 142.835V147.085L45.0886 7.59546H40.8386ZM79.7386 7.59546L-94.4014 181.735V185.975L83.9786 7.59546H79.7386ZM-36.9414 7.59546L-94.4014 65.0555V69.2955L-32.7014 7.59546H-36.9414ZM-23.9414 7.59546L-94.4014 78.0155V82.2555L-19.7414 7.59546H-23.9414ZM-88.8014 7.59546L-94.4014 13.1955V17.4355L-84.5614 7.59546H-88.8014ZM-11.0114 7.59546L-94.4014 90.9855V95.2255L-6.77137 7.59546H-11.0114ZM-62.8714 7.59546L-94.4014 39.1255V43.3655L-58.6314 7.59546H-62.8714ZM-75.8714 7.59546L-94.4014 26.1555V30.3955L-71.6014 7.59546H-75.8714ZM-49.9114 7.59546L-94.4014 52.0855V56.3255L-45.6714 7.59546H-49.9114ZM53.8086 7.59546L-94.4014 155.805V160.045L58.0486 7.59546H53.8086ZM66.8086 7.59546L-94.4014 168.765V173.015L71.0186 7.59546H66.8086ZM287.209 7.59546L-0.791367 295.595H3.44863L291.449 7.59546H287.209ZM27.8786 7.59546L-94.4014 129.875V134.115L32.1186 7.59546H27.8786ZM1.94863 7.59546L-94.4014 103.945V108.185L6.18863 7.59546H1.94863ZM14.9486 7.59546L-94.4014 116.905V121.155L19.1586 7.59546H14.9486ZM249.739 295.595L409.599 135.735V131.495L245.499 295.595H249.739ZM288.639 295.595L409.599 174.595V170.345L284.389 295.595H288.639ZM275.639 295.595L409.599 161.665V157.425L271.429 295.595H275.639ZM301.599 295.595L409.599 187.595V183.355L297.359 295.595H301.599ZM300.139 7.59546L12.1386 295.595H16.3786L304.379 7.59546H300.139ZM223.809 295.595L409.599 109.805V105.595L219.599 295.595H223.809ZM236.809 295.595L409.599 122.775V118.525L232.529 295.595H236.809ZM262.739 295.595L409.599 148.705V144.455L258.459 295.595H262.739ZM314.599 295.595L409.599 200.595V196.355L310.319 295.595H314.599ZM379.429 295.595L409.599 265.385V261.145L375.149 295.595H379.429ZM392.429 295.595L409.599 278.345V274.105L388.109 295.595H392.429ZM405.429 295.595L409.709 291.315V287.065L401.069 295.595H405.429ZM353.569 295.595L409.599 239.455V235.215L349.219 295.595H353.569ZM366.569 295.595L409.599 252.415V248.175L362.179 295.595H366.569ZM340.639 295.595L409.599 226.485V222.245L336.249 295.595H340.639ZM327.639 295.595L409.599 213.525V209.285L323.289 295.595H327.639ZM210.959 295.595L409.599 96.8455V92.5955L206.599 295.595H210.959ZM351.989 7.59546L63.9886 295.595H68.2386L356.239 7.59546H351.989ZM364.989 7.59546L76.9886 295.595H81.2286L369.199 7.59546H364.989ZM377.989 7.59546L89.9886 295.595H94.2386L382.239 7.59546H377.989ZM313.099 7.59546L25.0986 295.595H29.3386L317.339 7.59546H313.099ZM390.889 7.59546L102.889 295.595H107.129L395.129 7.59546H390.889ZM339.029 7.59546L51.0286 295.595H55.2686L343.269 7.59546H339.029ZM326.029 7.59546L38.0286 295.595H42.2686L330.269 7.59546H326.029ZM184.919 295.595L409.599 70.9155V66.6755L180.679 295.595H184.919ZM171.919 295.595L409.599 57.9455V53.7055L167.709 295.595H171.919ZM403.849 7.59546L115.849 295.595H120.099L408.099 7.59546H403.849ZM158.989 295.595L409.599 44.9855V40.7455L154.749 295.595H158.989ZM197.879 295.595L409.599 83.8755V79.5955L193.599 295.595H197.879ZM128.819 295.595H133.059L409.599 19.0555V14.8155L128.819 295.595ZM146.019 295.595L409.599 32.0155V27.7755L141.779 295.595H146.019Z" fill="url(#paint0_radial)"/>
</mask>
<g mask="url(#mask0)">
<circle cx="149.971" cy="151.971" r="134.5" transform="rotate(30.7703 149.971 151.971)" fill="#DF0345"/>
<circle cx="149.971" cy="151.971" r="134.5" transform="rotate(30.7703 149.971 151.971)" fill="url(#paint1_radial)"/>
</g>
</g>
<defs>
<radialGradient id="paint0_radial" cx="0" cy="0" r="1" gradientUnits="userSpaceOnUse" gradientTransform="translate(155.049 43.8755) scale(427.5)">
<stop stop-color="white" stop-opacity="0"/>
<stop offset="0.07" stop-color="#FAD9E3" stop-opacity="0.15"/>
<stop offset="0.21" stop-color="#F18EAC" stop-opacity="0.45"/>
<stop offset="0.34" stop-color="#E95381" stop-opacity="0.69"/>
<stop offset="0.45" stop-color="#E42961" stop-opacity="0.86"/>
<stop offset="0.54" stop-color="#E00F4E" stop-opacity="0.96"/>
<stop offset="0.59" stop-color="#DF0547"/>
</radialGradient>
<radialGradient id="paint1_radial" cx="0" cy="0" r="1" gradientUnits="userSpaceOnUse" gradientTransform="translate(149.971 148.914) rotate(90) scale(137.557)">
<stop offset="0.746258" stop-color="white" stop-opacity="0"/>
<stop offset="0.977262" stop-color="white"/>
</radialGradient>
</defs>
</svg>
