<svg width="118" height="118" viewBox="0 0 118 118" fill="none" xmlns="http://www.w3.org/2000/svg">
<g style="mix-blend-mode:multiply">
<mask id="mask0" style="mask-type:alpha" maskUnits="userSpaceOnUse" x="0" y="0" width="118" height="118">
<circle cx="59" cy="59" r="59" fill="white"/>
</mask>
<g mask="url(#mask0)">
<path d="M-2.4873 66.7331C5.1597 66.7331 14.7697 39.3889 26.5368 39.3889C38.3039 39.3889 41.8739 64.7429 54.8598 64.7429C67.8457 64.7429 71.3726 52.8156 83.981 52.8156C96.5894 52.8156 99.7065 74.6255 112.682 74.6255C125.657 74.6255 128.418 51.766 141.803 51.766C155.188 51.766 156.741 58.4862 170.115 58.4862" stroke="#117FFE" stroke-linecap="round" stroke-linejoin="round"/>
<path opacity="0.4" d="M-11.1162 65.6972C-3.4692 65.6972 6.14079 38.353 17.9079 38.353C29.675 38.353 33.245 63.707 46.2309 63.707C59.2168 63.707 62.7437 51.7797 75.3521 51.7797C87.9605 51.7797 91.0776 73.5896 104.053 73.5896C117.028 73.5896 119.789 50.7301 133.174 50.7301C146.559 50.7301 148.112 57.4503 161.486 57.4503" stroke="#117FFE" stroke-linecap="round" stroke-linejoin="round"/>
<path opacity="0.27" d="M-2.4873 82.1909C5.1597 82.1909 14.7697 68.3417 26.5368 68.3417C38.3039 68.3417 41.8739 83.963 54.8598 83.963C67.8457 83.963 71.3726 35.9131 83.981 35.9131C96.5894 35.9131 99.7065 60.4492 112.682 60.4492C125.657 60.4492 128.418 44.528 141.803 44.528C155.188 44.528 156.741 69.0641 170.115 69.0641V118H-2.4873V82.1909Z" fill="#117FFE"/>
</g>
</g>
</svg>
