<svg width="237" height="312" viewBox="0 0 237 312" fill="none" xmlns="http://www.w3.org/2000/svg">
<g opacity="0.75" filter="url(#filter0_f)">
<path d="M91.9577 270.852C81.3493 263.593 72.0042 254.707 64.425 244.611C56.8458 234.515 50.9669 223.241 47.0023 211.269C43.0376 199.297 40.9871 186.629 40.9604 173.867C40.9069 161.046 42.8772 148.131 46.7695 135.611C50.6618 123.091 56.3453 111.028 63.6914 99.8472C71.0376 88.6669 80.0077 78.4613 90.1967 69.5703C110.536 51.8797 135.846 39.8398 161.604 35.2498C135.919 40.8996 111.51 53.8953 92.4354 71.9296C82.9307 80.9312 74.6837 91.1557 68.1116 102.112C61.5394 113.067 56.5764 124.786 53.4821 136.778C50.3611 148.71 49.0432 160.947 49.6422 172.851C50.2411 184.755 52.6913 196.356 56.9368 207.172C61.1168 218.018 67.0653 228.019 74.4254 236.905C81.7588 245.732 90.6736 253.291 100.524 259.38C103.68 261.3 104.328 265.443 101.998 268.602C99.6942 271.821 95.2978 272.83 92.2076 270.878C92.0766 270.941 91.9844 270.912 91.9577 270.852Z" fill="url(#paint0_linear)"/>
</g>
<path d="M91.9577 270.852C81.3493 263.593 72.0042 254.707 64.425 244.611C56.8458 234.515 50.9669 223.241 47.0023 211.269C43.0376 199.297 40.9871 186.629 40.9604 173.867C40.9069 161.046 42.8772 148.131 46.7695 135.611C50.6618 123.091 56.3453 111.028 63.6914 99.8472C71.0376 88.6669 80.0077 78.4613 90.1967 69.5703C110.536 51.8797 135.846 39.8398 161.604 35.2498C135.919 40.8996 111.51 53.8953 92.4354 71.9296C82.9307 80.9312 74.6837 91.1557 68.1116 102.112C61.5394 113.067 56.5764 124.786 53.4821 136.778C50.3611 148.71 49.0432 160.947 49.6422 172.851C50.2411 184.755 52.6913 196.356 56.9368 207.172C61.1168 218.018 67.0653 228.019 74.4254 236.905C81.7588 245.732 90.6736 253.291 100.524 259.38C103.68 261.3 104.328 265.443 101.998 268.602C99.6942 271.821 95.2978 272.83 92.2076 270.878C92.0766 270.941 91.9844 270.912 91.9577 270.852Z" fill="url(#paint1_linear)"/>
<defs>
<filter id="filter0_f" x="10.959" y="5.24982" width="180.645" height="296.622" filterUnits="userSpaceOnUse" color-interpolation-filters="sRGB">
<feFlood flood-opacity="0" result="BackgroundImageFix"/>
<feBlend mode="normal" in="SourceGraphic" in2="BackgroundImageFix" result="shape"/>
<feGaussianBlur stdDeviation="15" result="effect1_foregroundBlur"/>
</filter>
<linearGradient id="paint0_linear" x1="101.079" y1="264.386" x2="119.931" y2="39.6034" gradientUnits="userSpaceOnUse">
<stop stop-color="#117FFE"/>
<stop offset="1" stop-color="#117FFE" stop-opacity="0"/>
</linearGradient>
<linearGradient id="paint1_linear" x1="101.079" y1="264.386" x2="119.931" y2="39.6034" gradientUnits="userSpaceOnUse">
<stop stop-color="#117FFE"/>
<stop offset="1" stop-color="#117FFE" stop-opacity="0"/>
</linearGradient>
</defs>
</svg>
