<svg width="390" height="490" viewBox="0 0 390 490" fill="none" xmlns="http://www.w3.org/2000/svg">
<g opacity="0.75" filter="url(#filter0_f)">
<path d="M255.155 460.581C271.68 440.836 285.883 418.485 296.993 394.609C308.104 370.733 316.233 345.361 321.097 319.559C325.96 293.757 327.558 267.525 325.794 242.119C324.065 216.581 318.975 191.869 310.761 168.903C302.546 145.936 291.433 124.773 277.693 106.198C263.953 87.6233 247.665 71.7995 229.546 59.2005C193.385 34.1653 149.8 22.8575 106.529 26.5974C149.829 25.003 192.058 38.6627 226.176 65.0139C243.178 78.1747 258.273 94.3975 270.7 112.912C283.127 131.427 293 152.264 299.819 174.58C306.674 196.762 310.589 220.452 311.285 244.436C311.98 268.421 309.57 292.729 304.078 316.371C298.699 340.042 290.273 362.913 279.354 384.274C268.471 405.502 254.791 424.997 239.355 442.035C234.406 447.434 233.921 456.001 238.224 461.122C242.492 466.376 249.909 466.187 254.746 460.759C254.971 460.818 255.12 460.715 255.155 460.581Z" fill="url(#paint0_linear)"/>
</g>
<path d="M257.156 460.576C273.685 440.812 285.895 418.44 297.01 394.543C308.126 370.646 316.262 345.252 321.131 319.429C326 293.605 327.604 267.352 325.845 241.926C324.122 216.368 319.037 191.638 310.826 168.655C302.616 145.671 291.507 124.494 277.77 105.907C264.034 87.3209 247.748 71.488 229.63 58.8827C193.473 33.8352 149.888 22.5275 106.614 26.2794C149.916 24.6746 192.145 38.3364 226.259 64.7014C243.26 77.8691 258.352 94.1016 270.775 112.629C283.199 131.156 293.068 152.007 299.883 174.339C306.734 196.537 310.644 220.245 311.334 244.248C312.025 268.252 309.61 292.58 304.112 316.242C298.727 339.933 290.297 362.824 279.373 384.204C268.484 405.45 252.8 424.964 237.359 442.019C232.408 447.423 231.29 456.364 235.592 461.488C242.186 468.081 251.441 466.921 256.279 461.488C256.622 461.103 257.12 460.71 257.156 460.576Z" fill="url(#paint1_linear)"/>
<defs>
<filter id="filter0_f" x="81.5293" y="0.897705" width="269.96" height="489.051" filterUnits="userSpaceOnUse" color-interpolation-filters="sRGB">
<feFlood flood-opacity="0" result="BackgroundImageFix"/>
<feBlend mode="normal" in="SourceGraphic" in2="BackgroundImageFix" result="shape"/>
<feGaussianBlur stdDeviation="12.5" result="effect1_foregroundBlur"/>
</filter>
<linearGradient id="paint0_linear" x1="239.146" y1="452.274" x2="77.6777" y2="54.3734" gradientUnits="userSpaceOnUse">
<stop offset="0.363804" stop-color="#0F7DFF"/>
<stop offset="1" stop-color="#0085FF" stop-opacity="0"/>
</linearGradient>
<linearGradient id="paint1_linear" x1="191.402" y1="47.5655" x2="145.147" y2="438.497" gradientUnits="userSpaceOnUse">
<stop stop-color="#107EFD" stop-opacity="0"/>
<stop offset="0.707067" stop-color="#107EFD"/>
</linearGradient>
</defs>
</svg>
