<?xml version="1.0" encoding="utf-8"?>
<!-- Generator: Adobe Illustrator 24.1.2, SVG Export Plug-In . SVG Version: 6.00 Build 0)  -->
<svg version="1.1" xmlns="http://www.w3.org/2000/svg" xmlns:xlink="http://www.w3.org/1999/xlink" x="0px" y="0px"
	 viewBox="0 0 263 669" style="enable-background:new 0 0 263 669;" xml:space="preserve">
<style type="text/css">
	.st0{display:none;}
	.st1{display:inline;}
	.st2{fill:url(#SVGID_3_);}
</style>
<g id="Слой_2" class="st0">
	<g class="st1">
		<defs>
			<path id="SVGID_1_" d="M191.6,317.6c0,0,0.3,3,1.3,6.4c0.5,1.6,1.1,31.6,0.3,46.6c-0.7,14.9-2.5,34.5-1.6,37.9
				c0.9,3.4,1.2,2.9,0.4,8.9s3.8-1.4,2.2,16.9c-0.3,2.9,3.9-2.4,6.8,18.8c0,0,5.3,14.2,6.4,42.9c1.2,28.7,3.2,60.4-0.9,76.4
				l-0.4,10.1c0,0-4.4,3.1-6,4.8c0,0,2.3,15.8,6.3,28.1s-8.8,17.4-15.2,19.3c0,0-21.3,3.1-22.6-8.6c0,0,0.4-3.4,1.8-5.6
				s3.5-8.6,3.2-27.5c0,0-4.4,2.4-4.5,0.4c-0.1-2-0.6-5,4.7-6.6l0.1-0.8l-1.9,0c0,0,0.8-8.5-4.1-15.4v-15.6c0,0,4.4-14.1,1.1-30.4
				c-3.3-16.3-9-41.5-10.4-57.5c-1.5-16-5-23.3-5-23.3s-9.1-28.9-12.1-65.6l-1.4-0.2c0,0,0.8,13-1.7,13.2c0,0,5.3,14.4,2.2,27.7
				c-3,13.3,1.5,5.9,1.8,28.4c0,0,2.2,2.2,2.6,11.6s1.1,35.5,1.1,35.5s1.5,2.2,1.5,10.3c0,8.1,0.3,21.2,0.3,21.2s-2.8,17.8,3.9,30.2
				l-1.3,2.5c0,0,3,4.1,2.6,19.3c0,0-4.2,4.1-23.9,4.6c0,0-0.7-4.3-6.1-2.5s-15.1,2.2-24.9,7.7c-9.8,5.5-39.5-3.2-40.1-6.4
				c-0.6-3.2,2-5.7,6.1-6.3c4.1-0.7,26.9-1.9,31.1-8.1c4.2-6.2,12.6-9.4,12.7-11.4c0.1-2-3.1-1.5,0.4-3.2c0,0-1-6.3,5.9-12.2
				c6.8-5.9-4.9-11.6-5.5-20.5c-0.6-8.9-1.1-45.7-6.4-55.7c0,0-1.7-4.4,0.2-6.8s-2.3-5.7-1.3-10.7c1.1-5.1-5.9-20.2-7-29.5
				c-1.2-9.3-12.4-53.4-13.1-66c-0.7-12.6-1.4-28.1-1.4-28.1s-4.8-2.4-6.9-2c0,0,2-64.8,4-73.1c0,0-14-0.7-20.4-4.8
				s-14.4-13.6-13.3-20.6c1.2-7,7.8-28.2,7.3-33.3c-0.5-5.1,2.6-5.8,2.9-14c0.3-8.3,1.5-8.3,2.2-15.8s4.7-29.2,9.6-33.1
				c4.9-3.9,32.9-13.6,37.7-18.9s6-7,6-7l-0.3-6.5c0,0-12-11.5-12.6-21.7l-0.5-7.6c0,0-5.1-8.1-0.7-7.6c0,0-1-17.2-0.9-21.2
				c0.1-4,7.6-19.1,24.7-19.5c17.1-0.4,17.4,4,18.2,6.4c0,0,13.6-1,13.8,27.7c0,0,5.8-4.3,5.7,5.1s-5.5,16-7.8,15.3
				c0,0-1.2,8.7-2.8,11.5V85c0,0,2.3-1.5,4.3,3.6c0,0,1.6,0.2,11.2,10.6l35,8.1c0,0,12.9-0.5,14.1,28.8c0,0,6.8,38.6,3.8,56.8
				c-3,18.1,0.7,20.4-4.7,27.2c-5.4,6.8-8.1,10.1-12.7,9.5c-4.6-0.7-12-0.2-12-0.2s-0.1,14.7,1.1,19.2s10.4,35,12,51.8
				c1.2,12.3,1.3,16.7,1.3,16.7l-8.2,0.3"/>
		</defs>
		<clipPath id="SVGID_2_">
			<use xlink:href="#SVGID_1_"  style="overflow:visible;"/>
		</clipPath>
		
			<image style="overflow:visible;clip-path:url(#SVGID_2_);" width="263" height="669" xlink:href="../Downloads/DSC_2988 2 (1).png" >
		</image>
	</g>
</g>
<g id="Слой_3">
	<linearGradient id="SVGID_3_" gradientUnits="userSpaceOnUse" x1="129.2807" y1="16.2439" x2="129.2807" y2="635.1203">
		<stop  offset="0" style="stop-color:#107EFD;stop-opacity:0"/>
		<stop  offset="1" style="stop-color:#107EFD"/>
	</linearGradient>
	<path class="st2" d="M191.6,317.6c0,0,0.3,3,1.3,6.4c0.5,1.6,1.1,31.6,0.3,46.6c-0.7,14.9-2.5,34.5-1.6,37.9
		c0.9,3.4,1.2,2.9,0.4,8.9s3.8-1.4,2.2,16.9c-0.3,2.9,3.9-2.4,6.8,18.8c0,0,5.3,14.2,6.4,42.9c1.2,28.7,3.2,60.4-0.9,76.4l-0.4,10.1
		c0,0-4.4,3.1-6,4.8c0,0,2.3,15.8,6.3,28.1s-8.8,17.4-15.2,19.3c0,0-21.3,3.1-22.6-8.6c0,0,0.4-3.4,1.8-5.6s3.5-8.6,3.2-27.5
		c0,0-4.4,2.4-4.5,0.4c-0.1-2-0.6-5,4.7-6.6l0.1-0.8l-1.9,0c0,0,0.8-8.5-4.1-15.4v-15.6c0,0,4.4-14.1,1.1-30.4
		c-3.3-16.3-9-41.5-10.4-57.5c-1.5-16-5-23.3-5-23.3s-9.1-28.9-12.1-65.6l-1.4-0.2c0,0,0.8,13-1.7,13.2c0,0,5.3,14.4,2.2,27.7
		c-3,13.3,1.5,5.9,1.8,28.4c0,0,2.2,2.2,2.6,11.6s1.1,35.5,1.1,35.5s1.5,2.2,1.5,10.3c0,8.1,0.3,21.2,0.3,21.2s-2.8,17.8,3.9,30.2
		l-1.3,2.5c0,0,3,4.1,2.6,19.3c0,0-4.2,4.1-23.9,4.6c0,0-0.7-4.3-6.1-2.5s-15.1,2.2-24.9,7.7c-9.8,5.5-39.5-3.2-40.1-6.4
		c-0.6-3.2,2-5.7,6.1-6.3c4.1-0.7,26.9-1.9,31.1-8.1c4.2-6.2,12.6-9.4,12.7-11.4c0.1-2-3.1-1.5,0.4-3.2c0,0-1-6.3,5.9-12.2
		c6.8-5.9-4.9-11.6-5.5-20.5c-0.6-8.9-1.1-45.7-6.4-55.7c0,0-1.7-4.4,0.2-6.8s-2.3-5.7-1.3-10.7c1.1-5.1-5.9-20.2-7-29.5
		c-1.2-9.3-12.4-53.4-13.1-66c-0.7-12.6-1.4-28.1-1.4-28.1s-4.8-2.4-6.9-2c0,0,2-64.8,4-73.1c0,0-14-0.7-20.4-4.8
		s-14.4-13.6-13.3-20.6c1.2-7,7.8-28.2,7.3-33.3c-0.5-5.1,2.6-5.8,2.9-14c0.3-8.3,1.5-8.3,2.2-15.8s4.7-29.2,9.6-33.1
		c4.9-3.9,32.9-13.6,37.7-18.9s6-7,6-7l-0.3-6.5c0,0-12-11.5-12.6-21.7l-0.5-7.6c0,0-5.1-8.1-0.7-7.6c0,0-1-17.2-0.9-21.2
		c0.1-4,7.6-19.1,24.7-19.5c17.1-0.4,17.4,4,18.2,6.4c0,0,13.6-1,13.8,27.7c0,0,5.8-4.3,5.7,5.1s-5.5,16-7.8,15.3
		c0,0-1.2,8.7-2.8,11.5V85c0,0,2.3-1.5,4.3,3.6c0,0,1.6,0.2,11.2,10.6l35,8.1c0,0,12.9-0.5,14.1,28.8c0,0,6.8,38.6,3.8,56.8
		c-3,18.1,0.7,20.4-4.7,27.2c-5.4,6.8-8.1,10.1-12.7,9.5c-4.6-0.7-12-0.2-12-0.2s-0.1,14.7,1.1,19.2s10.4,35,12,51.8
		c1.2,12.3,1.3,16.7,1.3,16.7l-8.2,0.3"/>
</g>
</svg>
