<svg width="286" height="286" viewBox="0 0 286 286" fill="none" xmlns="http://www.w3.org/2000/svg">
<g opacity="0.2">
<path d="M160.057 102.402C137.721 92.8979 111.91 103.3 102.406 125.635C92.9026 147.971 103.305 173.782 125.64 183.286C147.976 192.79 173.786 182.387 183.29 160.052C192.794 137.716 182.392 111.906 160.057 102.402Z" stroke="#FAFAFA" stroke-miterlimit="10"/>
<path d="M111.777 173.926C103.535 165.684 98.9044 154.505 98.9044 142.848C98.9044 131.192 103.535 120.013 111.777 111.77" stroke="#117FFE" stroke-opacity="0.34" stroke-miterlimit="10" stroke-linecap="round"/>
<path d="M112.269 92.849C84.6651 109.745 75.9844 145.819 92.8804 173.423C109.776 201.028 145.851 209.708 173.455 192.812C201.059 175.916 209.74 139.842 192.844 112.238C175.948 84.6337 139.873 75.953 112.269 92.849Z" stroke="#FAFAFA" stroke-miterlimit="10"/>
<path d="M101.418 184.285C90.4281 173.296 84.2541 158.39 84.2541 142.848C84.2541 127.306 90.4281 112.401 101.418 101.411C112.408 90.4211 127.313 84.2471 142.855 84.2471C158.397 84.2471 173.303 90.4211 184.292 101.411" stroke="#117FFE" stroke-opacity="0.65" stroke-miterlimit="10" stroke-linecap="round"/>
<path d="M104.329 80.5373C69.9162 101.808 59.2622 146.948 80.5325 181.36C101.803 215.773 146.943 226.427 181.355 205.157C215.768 183.886 226.422 138.746 205.152 104.334C183.881 69.921 138.742 59.267 104.329 80.5373Z" stroke="#FAFAFA" stroke-miterlimit="10"/>
<path d="M91.0593 194.645C82.1586 185.742 75.7027 174.695 72.3144 162.571C68.9262 150.446 68.7199 137.653 71.7154 125.425C74.711 113.198 80.8073 101.949 89.4162 92.7633C98.0252 83.5779 108.856 76.7662 120.864 72.9855C132.872 69.2047 145.652 68.5825 157.97 71.1789C170.289 73.7753 181.73 79.5026 191.191 87.8083C200.651 96.114 207.811 106.718 211.981 118.596C216.15 130.475 217.187 143.228 214.993 155.624" stroke="#117FFE" stroke-opacity="0.79" stroke-miterlimit="10" stroke-linecap="round"/>
<path d="M91.6245 71.4282C52.1758 99.7228 43.1336 154.64 71.4283 194.088C99.7229 233.537 154.64 242.579 194.088 214.285C233.537 185.99 242.579 131.073 214.285 91.6245C185.99 52.1758 131.073 43.1336 91.6245 71.4282Z" stroke="#FAFAFA" stroke-miterlimit="10"/>
<path d="M80.6993 205.003C68.4137 192.705 60.0502 177.04 56.6665 159.989C53.2827 142.938 55.0305 125.267 61.689 109.209C68.3474 93.1517 79.6175 79.4289 94.0743 69.7757C108.531 60.1226 125.526 54.9727 142.909 54.9771C160.292 54.9815 177.284 60.14 191.736 69.8005C206.188 79.4609 217.451 93.1895 224.101 109.251C230.752 125.312 232.491 142.984 229.098 160.033C225.706 177.082 217.334 192.743 205.043 205.035" stroke="#117FFE" stroke-miterlimit="10" stroke-linecap="round"/>
</g>
</svg>
