<svg width="265" height="240" viewBox="0 0 265 240" fill="none" xmlns="http://www.w3.org/2000/svg">
<g opacity="0.75" filter="url(#filter0_f)">
<path d="M191.444 50.517C199.862 44.6645 194.179 28.9567 183.069 29.5528C178.146 29.817 173.269 34.7691 169.527 37.6353C159.057 45.6558 149.154 54.4456 140.062 64.0912C106.74 99.4455 75.6489 159.351 79.4048 214.679C79.4791 215.774 80.0703 213.226 80.0888 212.997C80.3614 209.608 80.8117 206.263 81.3834 202.959C82.7628 194.985 84.8778 187.256 87.4158 179.762C95.0717 157.155 106.657 136.525 120.312 117.963C140.174 90.9613 164.371 69.3396 191.444 50.517Z" fill="url(#paint0_linear)"/>
</g>
<path d="M191.444 50.517C199.862 44.6645 194.179 28.9567 183.069 29.5528C178.146 29.817 173.269 34.7691 169.527 37.6353C159.057 45.6558 149.154 54.4456 140.062 64.0912C106.74 99.4455 75.6489 159.351 79.4048 214.679C79.4791 215.774 80.0703 213.226 80.0888 212.997C80.3614 209.608 80.8117 206.263 81.3834 202.959C82.7628 194.985 84.8778 187.256 87.4158 179.762C95.0717 157.155 106.657 136.525 120.312 117.963C140.174 90.9613 164.371 69.3396 191.444 50.517Z" fill="url(#paint1_linear)"/>
<defs>
<filter id="filter0_f" x="0.754883" y="0.193115" width="264.245" height="239.771" filterUnits="userSpaceOnUse" color-interpolation-filters="sRGB">
<feFlood flood-opacity="0" result="BackgroundImageFix"/>
<feBlend mode="normal" in="SourceGraphic" in2="BackgroundImageFix" result="shape"/>
<feGaussianBlur stdDeviation="12.5" result="effect1_foregroundBlur"/>
</filter>
<linearGradient id="paint0_linear" x1="212.717" y1="116.957" x2="120.712" y2="38.4856" gradientUnits="userSpaceOnUse">
<stop stop-color="#45CAF4" stop-opacity="0"/>
<stop offset="1" stop-color="#0066FF"/>
</linearGradient>
<linearGradient id="paint1_linear" x1="196.923" y1="142.006" x2="138.864" y2="32.907" gradientUnits="userSpaceOnUse">
<stop stop-color="#45CAF4" stop-opacity="0"/>
<stop offset="1" stop-color="#0066FF"/>
</linearGradient>
</defs>
</svg>
