<svg width="122" height="237" viewBox="0 0 122 237" fill="none" xmlns="http://www.w3.org/2000/svg">
<path d="M70.0384 235.852C80.6468 228.593 89.9919 219.707 97.5711 209.611C105.15 199.515 111.029 188.241 114.994 176.269C118.958 164.297 121.009 151.628 121.036 138.867C121.089 126.045 119.119 113.131 115.227 100.611C111.334 88.0909 105.651 76.0275 98.3047 64.8472C90.9585 53.6669 81.9884 43.4612 71.7994 34.5702C51.4601 16.8796 26.1504 4.83966 0.392286 0.249709C26.077 5.89946 50.4859 18.8952 69.5607 36.9296C79.0654 45.9311 87.3123 56.1556 93.8845 67.1115C100.457 78.0674 105.42 89.786 108.514 101.778C111.635 113.71 112.953 125.947 112.354 137.851C111.755 149.755 109.305 161.356 105.059 172.171C100.879 183.018 94.9308 193.019 87.5707 201.905C80.2373 210.732 71.3225 218.291 61.4719 224.38C58.3162 226.3 57.6683 230.443 59.9985 233.602C62.3019 236.821 66.6983 237.83 69.7885 235.878C69.9195 235.941 70.0117 235.912 70.0384 235.852Z" fill="url(#paint0_linear)"/>
<defs>
<linearGradient id="paint0_linear" x1="60.9167" y1="229.386" x2="42.0648" y2="4.60327" gradientUnits="userSpaceOnUse">
<stop stop-color="#117FFE"/>
<stop offset="1" stop-color="#117FFE" stop-opacity="0"/>
</linearGradient>
</defs>
</svg>
