<svg width="95" height="95" viewBox="0 0 95 95" fill="none" xmlns="http://www.w3.org/2000/svg">
<path d="M55.5096 66.8307C65.988 62.6078 71.0591 50.69 66.8362 40.2116C62.6133 29.7331 50.6955 24.662 40.217 28.885C29.7386 33.1079 24.6675 45.0257 28.8904 55.5041C33.1134 65.9826 45.0312 71.0537 55.5096 66.8307Z" stroke="#FAFAFA" stroke-width="3" stroke-miterlimit="10"/>
<path d="M47.8604 27.4031C53.2855 27.4031 58.4885 29.5582 62.3247 33.3944C66.1609 37.2306 68.3161 42.4336 68.3161 47.8588" stroke="#117FFE" stroke-opacity="0.34" stroke-width="3" stroke-miterlimit="10" stroke-linecap="round"/>
<path d="M74.3805 54.2475C77.9046 39.6023 68.8892 24.8733 54.2441 21.3492C39.5989 17.8251 24.8699 26.8405 21.3458 41.4856C17.8217 56.1307 26.8371 70.8598 41.4822 74.3839C56.1273 77.908 70.8564 68.8926 74.3805 54.2475Z" stroke="#FAFAFA" stroke-width="3" stroke-miterlimit="10"/>
<path d="M47.8604 20.5845C55.0939 20.5845 62.0313 23.458 67.1462 28.5729C72.2611 33.6878 75.1346 40.6252 75.1346 47.8587C75.1346 55.0923 72.2611 62.0297 67.1462 67.1446C62.0313 72.2595 55.0939 75.133 47.8604 75.133" stroke="#117FFE" stroke-opacity="0.65" stroke-width="3" stroke-miterlimit="10" stroke-linecap="round"/>
<path d="M81.0454 55.6861C85.3706 37.3607 74.0211 18.9987 55.6957 14.6735C37.3702 10.3483 19.0082 21.6977 14.683 40.0232C10.3578 58.3486 21.7073 76.7106 40.0327 81.0358C58.3582 85.361 76.7202 74.0116 81.0454 55.6861Z" stroke="#FAFAFA" stroke-width="3" stroke-miterlimit="10"/>
<path d="M47.8601 13.7661C53.7194 13.7669 59.4795 15.2778 64.5849 18.1529C69.6902 21.028 73.9684 25.1704 77.0066 30.1804C80.0449 35.1904 81.7407 40.8988 81.9304 46.755C82.1202 52.6112 80.7974 58.4174 78.0898 63.6135C75.3822 68.8097 71.3811 73.2203 66.4726 76.4199C61.5641 79.6194 55.9138 81.5 50.0669 81.88C44.2199 82.2601 38.3737 81.1268 33.0923 78.5896C27.8109 76.0524 23.2725 72.1968 19.915 67.3949" stroke="#117FFE" stroke-opacity="0.79" stroke-width="3" stroke-miterlimit="10" stroke-linecap="round"/>
<path d="M88.2252 54.5031C91.8961 32.2085 76.7986 11.1594 54.504 7.48855C32.2094 3.8177 11.1603 18.9152 7.48944 41.2098C3.81859 63.5043 18.9161 84.5535 41.2106 88.2243C63.5052 91.8952 84.5543 76.7977 88.2252 54.5031Z" stroke="#FAFAFA" stroke-width="3" stroke-miterlimit="10"/>
<path d="M47.8609 6.94751C55.9515 6.95161 63.8593 9.35451 70.5844 13.8524C77.3095 18.3503 82.55 24.7412 85.6433 32.2172C88.7366 39.6931 89.5438 47.9184 87.9629 55.8531C86.382 63.7877 82.4839 71.0755 76.7615 76.795C71.0391 82.5145 63.7494 86.4088 55.8139 87.9857C47.8784 89.5626 39.6536 88.7512 32.1792 85.6542C24.7048 82.5571 18.3166 77.3133 13.8221 70.5859C9.3276 63.8585 6.92871 55.9496 6.92871 47.8589" stroke="#117FFE" stroke-width="3" stroke-miterlimit="10" stroke-linecap="round"/>
</svg>
