<svg width="264" height="264" viewBox="0 0 264 264" fill="none" xmlns="http://www.w3.org/2000/svg">
<g style="mix-blend-mode:multiply" opacity="0.1">
<mask id="mask0" style="mask-type:alpha" maskUnits="userSpaceOnUse" x="0" y="0" width="264" height="264">
<circle cx="132" cy="132" r="132" transform="rotate(-180 132 132)" fill="white"/>
<circle cx="132" cy="132" r="132" transform="rotate(-180 132 132)" fill="white"/>
</mask>
<g mask="url(#mask0)">
<path d="M72.1755 0.286649L77.6454 0.286649L77.6454 162.551L72.1755 172.071L72.1755 0.286649ZM41.5316 0.286646L47.0015 0.286647L47.0015 208.834C45.2403 210.704 43.4171 212.361 41.5316 213.976L41.5316 0.286646ZM61.9609 0.286648L67.4308 0.286648L67.4308 180.274C65.6489 183.306 63.8256 186.281 61.9608 189.199L61.9609 0.286648ZM82.3901 0.28665L87.86 0.28665L87.86 145.934C85.9953 148.696 84.1927 151.586 82.3901 154.434L82.3901 0.28665ZM51.7462 0.286647L57.2162 0.286648L57.2162 196.254C55.455 198.761 53.6317 201.184 51.7462 203.479L51.7462 0.286647ZM31.317 0.286645L36.7869 0.286646L36.7869 217.589C35.0257 218.779 33.2232 219.884 31.317 220.861L31.317 0.286645ZM123.249 0.286653L128.719 0.286654L128.719 116.652C126.833 116.652 125.01 116.907 123.249 117.246L123.249 0.286653ZM102.819 0.286652L108.206 0.286652L108.206 123.537C106.321 124.854 104.498 126.299 102.736 127.786L102.819 0.286652ZM113.034 0.286652L118.566 0.286653L118.566 118.436C116.681 119.031 114.857 119.796 113.096 120.689L113.034 0.286652ZM92.6048 0.286651L98.0746 0.286651L98.0746 132.631C96.1892 134.671 94.3659 136.881 92.6047 139.261L92.6048 0.286651ZM21.1024 0.286644L26.5929 0.286645L26.5929 222.859C24.8111 223.496 22.9878 224.006 21.1023 224.431L21.1024 0.286644ZM133.463 0.286654L138.933 0.286655L138.933 118.224C137.124 117.562 135.297 117.108 133.463 116.864L133.463 0.286654ZM-40.1647 0.286639L-34.757 0.28664L-34.757 201.524C-36.6217 199.526 -38.445 197.274 -40.2269 195.319L-40.1647 0.286639ZM-29.9501 0.28664L-24.3973 0.28664L-24.3973 211.001C-26.262 209.514 -28.0853 207.941 -29.8672 206.241L-29.9501 0.28664ZM-70.8086 144.786L-70.8086 0.286636L-65.3387 0.286637L-65.3387 155.964C-67.2656 152.139 -69.1096 148.399 -70.8086 144.701L-70.8086 144.786ZM-60.594 0.286637L-55.1241 0.286638L-55.1241 174.239C-57.0303 171.136 -58.8328 167.991 -60.594 164.846L-60.594 0.286637ZM-50.3793 0.286638L-44.9094 0.286639L-44.9094 189.284C-46.7949 186.776 -48.6182 184.226 -50.3793 181.591L-50.3793 0.286638ZM0.693814 0.286643L6.16372 0.286643L6.1637 225.069C4.29896 224.856 2.49638 224.474 0.693794 224.049L0.693814 0.286643ZM10.9084 225.536L10.9084 0.286643L16.3783 0.286644L16.3783 225.154C14.928 225.154 13.4776 225.409 11.9858 225.409L10.9084 225.536ZM-19.7354 0.286641L-14.2655 0.286641L-14.2656 218.184C-16.1303 217.107 -17.9536 215.96 -19.7355 214.741L-19.7354 0.286641ZM-9.52083 0.286642L-4.0509 0.286642L-4.05092 222.434C-5.91566 221.811 -7.73899 221.088 -9.52085 220.266L-9.52083 0.286642ZM164.086 0.286657L169.556 0.286657L169.556 153.711C167.774 150.396 165.972 147.081 164.086 143.851L164.086 0.286657ZM296.856 0.286668L302.326 0.286669L302.326 69.6891C300.613 69.0941 298.79 68.6266 296.856 68.2866L296.856 0.286668ZM307.071 0.286669L312.54 0.28667L312.54 75.7241C310.759 74.1986 308.932 72.9068 307.071 71.8566L307.071 0.286669ZM276.427 0.286667L281.917 0.286667L281.917 70.1566C280.047 71.0699 278.212 72.2632 276.427 73.7266L276.427 0.286667ZM266.233 0.286666L271.703 0.286666L271.703 78.4865C269.795 80.7412 267.967 83.2691 266.233 86.0516L266.233 0.286666ZM317.285 0.28667L322.755 0.286671L322.755 87.5815C320.999 84.9916 319.173 82.6078 317.285 80.4415L317.285 0.28667ZM286.641 68.2866L286.641 0.286668L292.111 0.286668L292.111 67.8616L291.324 67.8616C289.759 67.8697 288.196 68.0542 286.641 68.4141L286.641 68.2866ZM327.5 0.286671L332.97 0.286672L332.97 104.242L327.5 94.934L327.5 0.286671ZM347.929 0.286673L353.399 0.286673L353.399 125.279C351.542 124.571 349.713 123.576 347.929 122.304L347.929 0.286673ZM362.329 126.937C360.858 126.937 359.47 126.937 358.185 126.554L358.185 0.286674L363.655 0.286674L363.655 126.852L362.329 126.937ZM337.714 0.286672L343.184 0.286673L343.184 118.224C341.288 116.262 339.46 114.033 337.714 111.552L337.714 0.286672ZM235.589 0.286663L241.059 0.286664L241.059 146.189C239.256 150.991 237.454 155.624 235.589 160.001L235.589 0.286663ZM204.945 191.536L204.945 0.28666L210.415 0.286661L210.415 191.324C209.417 191.545 208.414 191.659 207.411 191.664C206.561 191.664 205.753 191.579 204.945 191.494L204.945 191.536ZM256.018 0.286665L261.529 0.286665L261.529 94.509C259.623 98.249 257.8 102.244 256.059 106.409L256.018 0.286665ZM184.516 0.286659L189.986 0.286659L189.986 184.184C188.097 182.465 186.269 180.476 184.516 178.234L184.516 0.286659ZM174.301 0.286658L179.771 0.286658L179.771 171.731C177.906 168.799 176.083 165.654 174.301 162.466L174.301 0.286658ZM153.872 0.286656L159.342 0.286656L159.342 136.286C157.563 133.613 155.709 131.158 153.789 128.934L153.872 0.286656ZM194.73 0.28666L200.2 0.28666L200.2 190.516C198.352 189.911 196.525 189.059 194.73 187.966L194.73 0.28666ZM245.803 0.286664L251.273 0.286665L251.273 118.309C249.409 123.239 247.606 128.254 245.803 133.227L245.803 0.286664ZM215.16 0.286661L220.63 0.286662L220.629 185.289C218.876 187.057 217.044 188.48 215.16 189.539L215.16 0.286661ZM143.657 0.286655L149.148 0.286656L149.148 124.344C147.362 122.779 145.528 121.458 143.657 120.391L143.657 0.286655ZM225.374 0.286662L230.844 0.286663L230.844 170.286C229.134 173.659 227.306 176.77 225.374 179.594L225.374 0.286662Z" fill="url(#paint0_linear)"/>
</g>
<circle cx="132" cy="132" r="132" transform="rotate(-180 132 132)" fill="url(#paint1_radial)"/>
</g>
<defs>
<linearGradient id="paint0_linear" x1="146.413" y1="0.28664" x2="146.413" y2="225.409" gradientUnits="userSpaceOnUse">
<stop stop-color="#117FFE"/>
<stop offset="0.24" stop-color="#117FFE" stop-opacity="0.81"/>
<stop offset="0.707019" stop-color="#117FFE" stop-opacity="0.24"/>
<stop offset="1" stop-color="#117FFE" stop-opacity="0"/>
</linearGradient>
<radialGradient id="paint1_radial" cx="0" cy="0" r="1" gradientUnits="userSpaceOnUse" gradientTransform="translate(132 129) rotate(90) scale(135)">
<stop offset="0.746258" stop-color="white" stop-opacity="0"/>
<stop offset="0.977262" stop-color="white"/>
</radialGradient>
</defs>
</svg>
