<svg width="436" height="419" viewBox="0 0 436 419" fill="none" xmlns="http://www.w3.org/2000/svg">
<g opacity="0.1" filter="url(#filter0_f)">
<path d="M96.1085 63.572C76.3818 1.34733 167.446 -0.151108 199.31 72.6808C215.422 109.507 212.331 161.863 208.869 214.341C159.351 156.153 106.451 96.1972 96.1085 63.572Z" fill="url(#paint0_linear)"/>
<g style="mix-blend-mode:hard-light">
<path d="M78.8774 235.07C78.8746 151.219 104.79 73.0029 117.829 35.9729C123.194 20.7364 143.273 16.3984 156.659 25.4397C179.452 39.184 225.373 72.5738 271.726 104.584C319.894 137.847 389.353 174.622 357.475 283.671C333.322 366.295 215.47 362.556 215.47 362.556C215.47 362.556 78.8817 360.283 78.8774 235.07Z" fill="url(#paint1_linear)"/>
</g>
<path d="M342.456 358.733C409.233 300.305 432.418 178.168 387.645 102.286C342.872 26.4044 279.085 8.73421 226.012 11.222C172.939 13.7099 65.1373 46.8952 60.5842 166.026C56.031 285.157 117.989 335.687 182.794 392.621C207.834 414.62 275.68 417.161 342.456 358.733Z" fill="url(#paint2_linear)"/>
<path d="M110.458 322.554C114.277 324.812 117.687 327.009 120.235 329.291C153.475 359.057 204.432 355.899 258.393 341.787C315.309 326.902 407.628 300.079 422.617 229.045C431.109 188.804 400.295 134.748 358.964 90.8882C321.315 50.9356 275.383 19.4437 233.774 14.5616C223.349 13.3384 210.627 13.2228 196.976 14.9994C117.936 31.3061 75.2693 75.4976 68.7525 165.43C62.2356 255.363 69.5911 272.723 110.458 322.554Z" fill="url(#paint3_linear)" fill-opacity="0.78"/>
<g style="mix-blend-mode:color-dodge">
<path d="M13.3571 227.743C0.975141 141.721 37.456 48.9839 120.887 48.9839C186.754 48.9839 223.974 99.3388 274.576 132.415C336.718 173.035 384.354 201.048 384.354 242.193C384.354 316.842 273.059 356.487 166.902 313.992C89.4463 282.986 25.7391 313.766 13.3571 227.743Z" fill="url(#paint4_radial)" fill-opacity="0.8"/>
</g>
</g>
<defs>
<filter id="filter0_f" x="0" y="0" width="435.032" height="418.024" filterUnits="userSpaceOnUse" color-interpolation-filters="sRGB">
<feFlood flood-opacity="0" result="BackgroundImageFix"/>
<feBlend mode="normal" in="SourceGraphic" in2="BackgroundImageFix" result="shape"/>
<feGaussianBlur stdDeviation="5.5" result="effect1_foregroundBlur"/>
</filter>
<linearGradient id="paint0_linear" x1="93.34" y1="60.5384" x2="203.327" y2="42.3262" gradientUnits="userSpaceOnUse">
<stop stop-color="#E375A0"/>
<stop offset="1" stop-color="#E375A0" stop-opacity="0"/>
</linearGradient>
<linearGradient id="paint1_linear" x1="107.714" y1="274.53" x2="250.377" y2="219.893" gradientUnits="userSpaceOnUse">
<stop stop-color="#7EA1E4"/>
<stop offset="1" stop-color="#70CBFF" stop-opacity="0"/>
</linearGradient>
<linearGradient id="paint2_linear" x1="410.002" y1="189.543" x2="235.58" y2="268.149" gradientUnits="userSpaceOnUse">
<stop stop-color="#5BAEEC"/>
<stop offset="1" stop-color="#5BAEEC" stop-opacity="0"/>
</linearGradient>
<linearGradient id="paint3_linear" x1="122.191" y1="171.045" x2="353.539" y2="214.057" gradientUnits="userSpaceOnUse">
<stop stop-color="#85FAFE" stop-opacity="0"/>
<stop offset="1" stop-color="#85FAFE"/>
</linearGradient>
<radialGradient id="paint4_radial" cx="0" cy="0" r="1" gradientUnits="userSpaceOnUse" gradientTransform="translate(110.164 93.1608) rotate(84.3771) scale(169.285 189.071)">
<stop stop-color="#65ECE8"/>
<stop offset="1" stop-color="#8BECE9" stop-opacity="0"/>
</radialGradient>
</defs>
</svg>
