<?xml version="1.0" encoding="utf-8"?>
<!-- Generator: Adobe Illustrator 24.3.0, SVG Export Plug-In . SVG Version: 6.00 Build 0)  -->
<svg version="1.1" id="Шар_2" xmlns="http://www.w3.org/2000/svg" xmlns:xlink="http://www.w3.org/1999/xlink" x="0px" y="0px"
	 viewBox="0 0 362 550" style="enable-background:new 0 0 362 550;" xml:space="preserve">
<style type="text/css">
	.st0{fill:url(#SVGID_1_);stroke:#FFFFFF;stroke-miterlimit:10;}
</style>
<linearGradient id="SVGID_1_" gradientUnits="userSpaceOnUse" x1="187.3179" y1="40.9578" x2="187.3179" y2="530.2506">
	<stop  offset="0" style="stop-color:#5F71F4;stop-opacity:0"/>
	<stop  offset="0.7899" style="stop-color:#5F71F4"/>
</linearGradient>
<path class="st0" d="M286.79,509.01c-8.53-7.66-26.15-19.4-26.4-25.53c-0.26-6.13,5.62-28.85,12.51-38.3l4.6-0.26
	c0,0,5.36-20.43,11.74-27.32c6.38-6.89,18.02-63.94,14.55-75.57c-4.34-14.55-24.77-21.96-24.77-21.96s51.32-36.51,47.49-116.17
	c0,0-7.4-43.91-45.19-49.53c0,0-32.68-1.53-46.21,14.55c0,0-6.38-16.85-13.28-20.68c-6.89-3.83-47.83-17.28-47.83-17.28
	s-1.15-0.68-0.89-7.57c0,0,10.83-2.74,10.26-11.41c-1.19-18.04,4.17-21.7-1.28-29.62c0,0,1.66-4.51-1.09-5.62
	c0,0,1.85-5.02-1.38-10.3c-3.23-5.28-4.26-12-11.4-16.09c0,0,1.19-7.49-5.7-8.51c-6.89-1.02-22.55-3.4-36.34,8.43
	c-13.79,11.83-12.68,22.89-11.15,30.98c1.53,8.09,0.17,10.72,4.09,11.57c0,0,0.26,6.55,3.23,7.15c0,0,1.62,9.53,5.36,14.38
	c0,0-0.51,9.62-2.04,12.09c0,0-9,5.14-17.45,8.26c-21.19,7.83-37.02,8.43-41.62,23.74c0,0-6.51,12.12-8.09,24.85
	c-2.3,18.55-8,29.45-9.02,36.94c-2.87,21.02-1.87,49.25,3.49,54.75c0,0,21.45,18.78,40.17,23.03c0,0-0.17,12.43-2.64,16.17
	s-2.13,24.77-2.13,24.77s-4.94,8.09-3.06,14.98c1.87,6.89-0.6,85.87,1.96,108.85c0,0-2.81,8.94-0.26,15.32
	c2.55,6.38,7.4,18.38,12.77,19.66c3.5,0.83,10.9,0.58,15.63,0.3c3.75-0.22,8.34-2.04,10.96-4.73c1.46-1.51,3.17-3.54,5.07-6.29
	c1.95-2.82,4.85-2.04,7.91-11.74c0.93-2.95,1.58-5.33,2.01-7.37l0,0c0,0,3.1,1.41,8.72,4.47c5.62,3.06,5.45-7.83,8-7.32
	c1.58,0.32,1.79,3.88,1.72,6.56c-0.05,1.79,1.45,3.24,3.23,3.11c4.11-0.3,5.52-2.62,5.94-6.6c0.51-4.94,0-12.09-1.19-16.68
	s-5.28-5.62-9.87-9.53c-4.6-3.91-2.55-16.85-7.15-26.72c-2.23-4.79-5.3-5.85-7.87-5.68c3.96-13.77,12.02-27.32,27.1-37.9
	c0,0,4.09-3.32,13.02-1.28c8.94,2.04,24.26,2.81,24.26,2.81s-2.04,16.85,5.36,21.96c0,0-4.09-20.43-1.02-22.21l2.81,0.51
	c0,0,10.98,5.62,14.55,5.11c0,0-7.4-3.32-7.15-5.62c0,0,22.72-2.81,29.11,0.51c0,0-12.42,27.55-12.26,48.51
	c0.09,10.93-2.3,14.81-2.3,14.81l2.3,1.53c0,0-4.6,37.02-12.51,51.06c-7.91,14.04,0.51,22.47,3.83,24s17.11-3.83,29.11,3.57
	c12,7.4,10.98,6.38,20.68,9.19c9.7,2.81,32.17,7.15,31.66,1.02C310.94,521.01,295.32,516.67,286.79,509.01z"/>
</svg>
