<?xml version="1.0" encoding="utf-8"?>
<!-- Generator: Adobe Illustrator 24.3.0, SVG Export Plug-In . SVG Version: 6.00 Build 0)  -->
<svg version="1.1" id="Шар_2" xmlns="http://www.w3.org/2000/svg" xmlns:xlink="http://www.w3.org/1999/xlink" x="0px" y="0px"
	 viewBox="0 0 432 588" style="enable-background:new 0 0 432 588;" xml:space="preserve">
<style type="text/css">
	.st0{fill:url(#SVGID_1_);}
</style>
<linearGradient id="SVGID_1_" gradientUnits="userSpaceOnUse" x1="223.7048" y1="11.6756" x2="223.7048" y2="575">
	<stop  offset="0" style="stop-color:#E00949;stop-opacity:0"/>
	<stop  offset="0.8927" style="stop-color:#E00848"/>
</linearGradient>
<path class="st0" d="M344.22,210.15c0,0,6.38,4.21,13.91,2.55c7.53-1.66,18.51-8.68,19.66-11.11c0,0,9.45-0.64,7.79-8.43
	c-1.66-7.79-13.53-18.77-15.45-22.6c-1.91-3.83-6.77-9.06-9.06-6.51s6.26,7.91,2.3,10.34c-3.96,2.43-3.19-7.02-6.51-11.74
	s-12.38-14.17-11.49-24.77s-12.77-29.62-19.02-33.19c-6.26-3.57-31.4-12.64-31.4-12.64s13.91-3.45,10.98-12
	c-2.94-8.55,1.02-10.53,0.41-12.38c-0.55-1.66-2.07-3.96-2.07-3.96s6.51-1.02,5.09-5.14c-1.12-3.25-9.05-6.48-5.47-11.58
	c0,0,2.43-2.04,0.38-5.49c-2.04-3.45-10.34-18-10.34-18s1.91-5.87-8.04-9.7c-9.96-3.83-32.51-4.11-41.74,13.02
	c-10.6,19.66-1.66,29.36-1.79,31.53c-0.37,6.33,4.85,14.04,3.06,22.47c0,0-22.31,6.51-29.41,10.47c-7.1,3.96-11.7-4.6-22.29,1.66
	c0,0-24.51,14.55-39.57,44.68c0,0-22.47,10.21-32.43,32.04s-26.17,38.94-28.09,47.49s-0.64,12.38-5.49,28.47
	c-4.85,16.09-3.83,23.11-2.3,20.55c0,0-3.45,8.55,0.38,9.06c3.83,0.51,3.96-1.66,3.96-1.66s-1.4,8.17,3.45,4.34
	c4.85-3.83,3.96-28.34,12.51-33.96c0,0,2.68-0.64,2.43,1.91s0.51,3.96,3.45,3.96s2.94-12.13,4.21-14.04
	c1.28-1.91,0.64-7.79-3.45-12.64s10.34-18.89,10.34-18.89s31.79-30.13,39.19-42.26c0,0,30.13-16.09,32.04-13.53
	c1.91,2.55,2.17,10.72,5.87,19.28c3.7,8.55,0.64,30.26,0.64,30.26s-2.9,13.28-3.87,27.06c0,0-10.42,12.26-9.15,16.72
	c1.28,4.47,8.94,0.77,5.11,8.17c-3.83,7.4-7.66,17.87-6.77,41.87c0,0,2.68,13.66,16.21,25.91c0,0-10.34,18.64-14.81,43.53
	s-7.91,22.98-7.91,22.98s-21.32-10.47-51.19-4.72c0,0-43.79,4.72-53.23,1.91c0,0-1.28-1.4-4.09-2.81l0.64-4.34
	c0,0-13.28,6.38-23.23-10.85c0,0-10.6-3.45-14.43,11.36c-3.45,13.34,0.41,15.41-3.06,43.15c-5.11,40.72,5.97,41.41,10.72,39.96
	c4.6-1.4,2.92-16.11,13.34-26.53c4.98-4.98,7.47-11.13,15.52-12.02c0,0,9.19,3.06,12.89-10.21c0,0,26.43-1.66,41.23,5.23
	s41.11,5.62,56.04,13.66c14.94,8.04,25.79,2.17,33.7-6.64c7.91-8.81,32.04-46.09,35.62-60.38h2.17c0,0,25.79,19.15,29.74,22.85
	c3.96,3.7,11.36,6.77,10.34,18s-0.39,43.03,5.36,57.57c8.43,21.32,34.6,60.51,28.47,75.06c0,0-6.26,3.32-4.98,5.62
	c1.28,2.3,11.14,0.87,8.43,10.47c-1.66,5.87,5.36,6.89,5.36,12.89c0,0-3.32,11.49,3.83,11.49s10.47-3.83,11.74-7.02
	c0,0,8.94,2.55,16.34-8.81c0,0,11.74-0.26,17.49-8.04c0,0,6.64,0.26,13.15-9.83c0,0,2.04,0.38,7.28-5.62s19.02-19.91,9.57-23.49
	c-9.45-3.57-20.81,7.91-28.21,5.23c0,0,0.13-3.96-2.55-1.53s-3.57-1.28-7.4,1.02c-3.83,2.3-5.11-1.15-6.51-0.51s5.74-4.98,1.66-4.98
	s-7.66,5.62-7.66,5.62l-1.91-0.26c0,0,1.03-2.83-2.17-4.6c-0.65-0.36,0.64-14.68-8.81-9.83c0,0-8.3-6.13-11.62-50.04
	c0,0-9.7-41.11-6.13-59.62c3.57-18.51-2.68-26.04-2.68-26.04s-6.94-11.74-14.06-17.74c-7.13-6-40.19-49.91-40.19-49.91
	s-11.87-12.89-3.96-17.23c0,0,0.64-15.45,7.15-16.98c0,0-0.77-4.85,3.96-6.26c0,0,0.04-2.4,1.28-8.81
	c2.81-14.55,20.81-40.98,20.04-60c0,0,2.43-3.45,2.81-8.17c0.38-4.72,4.6,1.66,6.13-18.38c0,0,1.28-3.06,3.32,0.77
	c2.04,3.83,3.38,13.86,13.53,28.34c4.4,6.28,0.13,9.83,13.15,17.74"/>
</svg>
