<svg width="222" height="222" viewBox="0 0 222 222" fill="none" xmlns="http://www.w3.org/2000/svg">
<g style="mix-blend-mode:multiply">
<mask id="mask0" style="mask-type:alpha" maskUnits="userSpaceOnUse" x="0" y="0" width="222" height="222">
<circle cx="110.819" cy="110.819" r="110.819" fill="white"/>
<circle cx="110.819" cy="110.819" r="110.819" fill="white"/>
</mask>
<g mask="url(#mask0)">
<g opacity="0.2">
<path d="M-218.26 -39.4004C-218.26 -39.4004 -113.031 50.5928 -30.6344 16.6224C51.7622 -17.3481 199.606 -118.574 266.879 5.80097C334.153 130.176 275.7 182.059 351.456 242.597C427.212 303.136 526.077 331.064 586.475 223.653C646.872 116.243 770.162 133.47 852.982 194.464C935.801 255.458 1071.79 418.366 1071.79 418.366" stroke="#E6DAFF" stroke-width="3" stroke-miterlimit="10"/>
<path d="M-224.716 -31.9334C-224.285 -32.3639 -161.319 11.4398 -92.9549 18.1458C-71.4734 20.2515 -50.1707 19.3774 -30.8252 13.1501C-7.82472 5.83263 18.9047 -4.5671 46.4573 -13.8553C98.2631 -31.2749 164.438 -46.5402 214.18 -33.7294C234.833 -28.4253 253.698 -14.5175 269.056 10.551C282.217 31.5424 292.289 54.318 298.964 78.1778C320.726 158.941 305.763 204.054 367.404 247.761C443.699 301.891 538.55 325.812 599.012 221.81C604.308 212.735 610.407 204.153 617.236 196.168C681.472 121.201 788.216 141.18 864.298 194.707C893.509 215.382 928.54 247.907 963.03 280.2C1028.88 341.879 1084.99 405.576 1084.99 405.576" stroke="#E0D5FF" stroke-width="3" stroke-miterlimit="10"/>
<path d="M-231.166 -24.4916C-230.31 -25.3258 -166.254 9.25634 -95.5702 13.4221C-72.6553 14.7908 -50.6964 14.15 -30.99 9.68653C-7.57354 4.46381 18.3572 -2.0972 44.0896 -7.27423C92.6886 -17.0165 163.477 -25.9006 213.896 -21.7323C235.074 -19.9954 254.786 -8.39014 271.258 15.3098C286.09 36.2511 297.122 59.6385 303.849 84.4027C325.288 166.69 320.736 213.93 383.366 252.873C460.099 300.538 550.705 320.245 611.562 219.914C616.966 211.069 623.163 202.733 630.077 195.011C693.972 122.712 799.071 143.573 875.688 195.001C905.257 214.766 939.948 246.308 974.963 276.213C1018.02 312.924 1059.15 351.834 1098.19 392.787" stroke="#DAD1FF" stroke-width="3" stroke-miterlimit="10"/>
<path d="M-237.606 -17.0197C-236.346 -18.2916 -171.142 6.96898 -98.1682 8.70167C-75.8088 9.61489 -53.4121 8.77348 -31.1841 6.18511C-7.3014 2.86939 17.7929 0.395678 41.7463 -0.716649C86.7951 -2.78735 162.569 -5.39177 213.576 -9.74628C235.374 -11.6087 255.926 -2.27908 273.416 20.0844C289.978 40.9396 301.989 65.0326 308.674 90.8114C329.852 174.609 335.541 223.962 399.282 258.114C476.352 299.374 563.026 314.981 624.068 218.148C629.56 209.496 635.811 201.35 642.748 193.807C706.302 124.176 809.563 145.78 886.913 195.22C916.798 214.236 951.273 244.657 986.831 271.891C1030.48 305.378 1072.06 341.476 1111.35 379.988" stroke="#D5CCFF" stroke-width="3" stroke-miterlimit="10"/>
<path d="M-244.052 -9.54887C-242.386 -11.2584 -175.995 4.63419 -100.772 3.98026C-74.8542 3.79668 -51.512 3.78527 -31.4448 2.69512C-7.82085 1.55002 15.8583 2.59315 39.29 5.81115C80.9031 11.414 161.652 14.9139 213.197 2.22431C235.594 -3.27147 256.979 3.80939 275.496 24.8095C293.794 45.4862 306.814 70.2865 313.441 97.0904C334.392 182.379 350.187 233.922 415.133 263.253C492.385 298.151 575.176 309.585 636.522 216.225C642.112 207.789 648.438 199.866 655.427 192.548C718.594 125.544 820.118 147.948 898.148 195.385C928.341 213.679 962.708 242.893 998.638 267.668C1042.76 297.896 1084.76 331.113 1124.34 367.084" stroke="#CFC8FF" stroke-width="3" stroke-miterlimit="10"/>
<path d="M-250.52 -2.0552C-248.43 -4.16838 -180.902 2.22729 -103.405 -0.691614C-76.14 -1.72129 -51.9167 -1.26664 -31.5474 -0.695011C-8.15823 0.185381 14.9612 4.61635 37.0185 12.446C75.0152 25.6452 160.929 35.1854 212.976 14.2948C236.036 5.03878 258.243 10.0121 277.84 29.6633C297.886 50.089 311.922 75.6377 318.413 103.51C339.171 190.271 364.929 243.995 431.196 268.506C508.493 297.122 587.751 304.361 649.16 214.524C654.853 206.31 661.254 198.61 668.289 191.511C731.075 127.107 830.847 150.363 909.558 195.799C940.074 213.317 974.394 241.311 1010.66 263.646C1089.3 312.138 1137.77 354.472 1137.77 354.472" stroke="#C9C3FF" stroke-width="3" stroke-miterlimit="10"/>
<path d="M-256.958 5.35907C-254.437 2.8154 -185.754 -0.251763 -106.002 -5.46965C-81.2164 -7.22148 -56.3246 -6.7937 -31.6135 -4.19128C-8.06334 -1.36664 14.5905 6.54725 34.7765 19.0015C69.1517 39.7094 160.157 55.2416 212.764 26.2519C236.387 13.1801 259.545 16.1087 280.061 34.3678C301.886 54.4735 317.007 80.7999 323.375 109.783C343.933 198.042 379.537 254.174 447.208 273.658C524.562 296.052 600.237 298.968 661.734 212.662C667.545 204.664 674.031 197.18 681.122 190.292C743.494 128.508 841.528 152.563 921.026 196.025C951.829 212.902 986.233 239.51 1022.7 259.485C1104.97 304.523 1151.12 341.666 1151.12 341.666" stroke="#C3BFFF" stroke-width="3" stroke-miterlimit="10"/>
<path d="M-263.415 12.8281C-260.462 9.85395 -190.627 -2.76368 -108.59 -10.1857C-83.0262 -12.8717 -57.2149 -12.0387 -31.8775 -7.70997C-7.7866 -2.84742 14.4593 8.66966 32.3364 25.5346C63.2083 53.5243 159.141 75.2342 212.401 38.2279C236.667 21.3619 260.682 22.1632 282.149 39.1251C303.617 56.087 320.601 82.9137 328.152 116.094C348.577 205.812 393.902 264.176 463.098 278.721C540.191 295.009 612.585 293.54 674.212 210.718C680.143 202.957 686.703 195.697 693.825 189.012C755.689 129.765 852.106 154.709 932.196 196.174C963.351 212.167 997.837 237.504 1034.48 255.199C1120.45 296.743 1164.23 328.769 1164.23 328.769" stroke="#BDBAFF" stroke-width="3" stroke-miterlimit="10"/>
<path d="M-269.838 20.2756C-266.488 16.8906 -195.515 -5.33835 -111.227 -14.8305C-79.629 -18.407 -53.1199 -16.5064 -32.0715 -11.0677C-5.70998 -4.00413 14.542 12.3447 29.9736 32.2019C57.3351 67.5002 158.109 95.2785 211.954 50.2948C236.79 29.5862 261.782 28.35 284.188 43.9538C306.594 59.5576 325.071 87.359 332.871 122.503C353.171 213.654 408.145 274.516 478.887 284.044C555.729 294.401 624.887 288.386 686.591 209.033C692.619 201.49 699.253 194.453 706.428 187.991C767.884 131.337 862.576 157.14 943.354 196.577C974.824 211.821 1009.46 235.732 1046.21 251.214C1136.04 289.051 1177.2 316.116 1177.2 316.116" stroke="#B8B6FF" stroke-width="3" stroke-miterlimit="10"/>
<path d="M-276.293 27.7426C-272.397 23.929 -200.4 -7.91321 -113.811 -19.6631C-80.7634 -24.1446 -53.4464 -21.8263 -32.232 -14.6473C-5.35247 -5.54792 14.0223 14.5036 27.6156 38.7545C51.6222 81.3169 157.04 115.255 211.802 62.2386C237.146 37.6998 263.164 34.3527 286.522 48.6592C310.492 63.36 329.809 91.6739 337.866 128.755C358.053 221.399 422.514 284.832 494.966 289.156C571.548 293.724 637.444 283.04 699.251 207.164C705.373 199.795 712.093 192.943 719.342 186.679C780.318 132.569 873.284 159.232 954.823 196.688C986.609 211.183 1021.48 233.577 1058.26 246.937C1152.05 280.922 1190.55 303.194 1190.55 303.194" stroke="#B2B1FF" stroke-width="3" stroke-miterlimit="10"/>
<path d="M-282.772 35.2907C-278.552 31.0179 -205.296 -10.4606 -116.449 -24.3073C-81.9586 -29.667 -53.8626 -26.8238 -32.4194 -18.0314C-5.04342 -6.8157 13.4758 16.8581 25.3346 45.3294C45.9989 95.2166 155.995 135.239 211.53 74.2955C237.39 45.8998 264.453 40.4757 288.735 53.4779C313.991 67.0285 334.453 96.1091 342.787 135.162C362.849 229.238 436.987 295.494 510.944 294.415C587.238 293.301 649.996 277.81 711.826 205.389C718.068 198.285 724.862 191.686 732.146 185.655C792.588 134.075 883.99 161.641 966.148 197.107C998.257 210.827 1033.35 231.641 1070.19 242.922C1167.97 272.886 1203.76 290.553 1203.76 290.553" stroke="#ACADFE" stroke-width="3" stroke-miterlimit="10"/>
<path d="M-289.12 42.6733C-284.502 37.9897 -210.12 -13.1609 -118.935 -29.083C-83.0222 -35.3548 -54.1829 -31.8526 -32.5019 -21.588C-4.67067 -8.20963 13.0734 19.108 23.0224 51.8102C40.4248 109.044 154.885 155.148 211.295 86.2191C237.637 53.986 265.76 46.4315 290.952 58.1828C317.473 70.5492 339.108 100.404 347.698 141.394C367.682 236.943 451.402 306.055 526.939 299.506C602.956 292.886 662.551 272.465 724.41 203.473C730.757 196.596 737.625 190.22 744.955 184.403C804.87 135.326 894.667 163.842 977.512 197.279C1009.94 210.249 1045.3 229.412 1082.13 238.705C1184 264.421 1216.97 277.711 1216.97 277.711" stroke="#A6A8FE" stroke-width="3" stroke-miterlimit="10"/>
<path d="M-295.634 50.1258C-290.612 45.0045 -215.097 -15.845 -121.635 -33.83C-84.2574 -41.0605 -54.6588 -37.0673 -32.7777 -25.082C-4.45723 -9.56056 12.5116 21.4009 20.5778 58.3411C34.7039 122.975 153.642 175.108 210.9 98.1857C237.769 62.2709 266.941 52.4106 293.043 62.9111C320.837 74.0665 343.656 104.756 352.441 147.81C372.434 244.828 465.693 316.955 542.774 304.755C618.592 292.764 674.964 267.313 736.826 201.741C743.272 195.076 750.217 188.914 757.603 183.308C817 136.593 905.138 166.044 988.691 197.486C1021.4 209.701 1057.01 227.116 1093.75 234.462C1199.68 255.687 1229.88 264.815 1229.88 264.815" stroke="#A1A4FE" stroke-width="3" stroke-miterlimit="10"/>
<path d="M-302.081 57.5954C-296.627 52.0436 -220.006 -18.512 -124.261 -38.4722C-85.468 -46.588 -55.0706 -42.0359 -32.9752 -28.3836C-4.20472 -10.7871 12.0178 23.711 18.2207 64.9232C29.1065 136.823 152.433 195.104 210.574 110.169C237.9 70.2957 268.19 58.4069 295.229 67.6638C324.189 77.5794 348.28 109.098 357.317 154.002C377.151 252.472 480.169 327.76 558.726 309.834C634.411 292.547 687.556 261.977 749.516 199.795C756.072 193.366 763.091 187.426 770.517 182.025C829.219 137.797 915.838 168.307 1000.12 197.788C1033.18 209.234 1069 224.868 1105.89 230.385C1215.92 246.903 1243.33 252.092 1243.33 252.092" stroke="#9B9FFE" stroke-width="3" stroke-miterlimit="10"/>
<path d="M-308.525 65.0368C-302.647 59.0813 -225.047 -21.2432 -126.849 -43.2768C-86.6263 -52.3316 -55.4785 -47.1473 -33.1183 -32.0157C-3.92662 -12.2368 11.7011 25.9822 15.8923 71.4842C23.5196 150.932 151.265 215.141 210.322 122.173C238.07 78.4746 269.495 64.3892 297.436 72.4222C327.777 81.1555 352.945 113.481 362.205 160.341C381.994 260.265 494.75 338.794 574.706 315.006C650.323 292.498 700.17 256.647 761.943 197.95C768.61 191.759 775.703 186.044 783.169 180.844C841.414 138.965 926.472 170.581 1011.38 198.018C1044.76 208.715 1080.85 222.38 1117.76 226.234C1231.82 237.797 1256.48 239.289 1256.48 239.289" stroke="#959BFE" stroke-width="3" stroke-miterlimit="10"/>
<path d="M-315.018 72.6396C-308.708 66.2536 -229.907 -23.809 -129.466 -47.8859C-87.847 -57.8601 -55.9541 -52.1312 -33.3115 -35.3718C-3.6718 -13.4033 11.0377 28.5649 13.5232 78.18C17.867 165.055 150.003 235.297 209.977 134.297C238.199 86.7882 270.705 70.4919 299.569 77.3349C331.17 84.7964 357.657 117.992 367.06 166.788C386.75 268.151 509.391 350.019 590.591 320.298C666.268 292.633 712.698 251.727 774.444 196.242C781.21 190.277 788.377 184.784 795.894 179.8C853.553 140.322 937.081 172.821 1022.73 198.27C1056.42 208.219 1092.68 220.062 1129.68 222.072C1247.71 228.488 1269.68 226.501 1269.68 226.501" stroke="#8F96FE" stroke-width="3" stroke-miterlimit="10"/>
<path d="M-321.436 79.9726C-314.694 73.1561 -234.806 -26.6466 -132.042 -52.7452C-88.8856 -63.6296 -56.3425 -57.3242 -33.464 -38.9782C-3.36899 -14.847 10.5923 30.7723 11.2021 84.5986C12.282 178.935 148.816 255.184 209.732 146.159C238.403 94.832 271.99 76.3247 301.81 81.9581C334.645 88.1406 362.249 122.21 371.955 172.984C391.601 275.802 524.172 361.049 606.658 325.349C682.449 292.54 725.517 246.48 787.093 194.312C793.973 188.584 801.216 183.305 808.775 178.507C865.739 141.516 947.713 175.093 1034.07 198.433C1068.1 207.552 1104.52 217.512 1141.63 217.827C1263.54 218.874 1282.91 213.604 1282.91 213.604" stroke="#8992FE" stroke-width="3" stroke-miterlimit="10"/>
<path d="M-327.875 87.4169C-320.736 80.1896 -239.781 -29.3874 -134.674 -57.4736C-90.1873 -69.3526 -56.7916 -62.4737 -33.645 -42.4463C-3.15368 -16.2544 10.1716 33.1322 8.84485 91.1822C6.84342 192.942 147.566 275.228 209.352 158.13C238.497 102.992 273.173 82.2472 303.915 86.6906C338.038 91.6085 366.927 126.569 376.829 179.292C396.553 283.424 538.985 372.205 622.501 330.515C698.52 292.565 737.971 241.338 799.506 192.437C806.512 186.965 813.836 181.911 821.439 177.303C877.838 142.632 958.332 177.336 1045.34 198.781C1079.67 207.204 1116.24 215.106 1153.43 213.745C1279.12 209.226 1296.01 200.904 1296.01 200.904" stroke="#848DFE" stroke-width="3" stroke-miterlimit="10"/>
<path d="M-334.321 94.8868C-326.777 87.2218 -244.786 -32.3386 -137.266 -62.1352C-91.4079 -75.0552 -57.2855 -67.3492 -33.8258 -45.9157C-2.92042 -17.5147 9.63701 35.489 6.49539 97.7378C1.1425 206.963 146.169 295.175 209.099 170.162C238.619 111.159 274.49 88.2045 306.155 91.458C341.49 95.1772 371.612 130.899 381.669 185.618C401.347 291.319 553.925 383.422 638.379 335.66C714.679 292.583 750.524 236.366 811.973 190.574C819.083 185.342 826.481 180.511 834.13 176.104C889.885 143.733 968.872 179.556 1056.58 199.033C1091.23 206.68 1127.89 212.563 1165.33 209.604C1294.55 199.305 1309.06 188.073 1309.06 188.073" stroke="#7E89FE" stroke-width="3" stroke-miterlimit="10"/>
<path d="M-340.778 102.354C-332.856 94.2443 -249.714 -34.8665 -139.866 -66.9138C-30.0178 -98.9611 12.8663 -12.3939 4.13514 104.291C-4.59604 220.975 145.109 315.327 208.823 182.131C272.537 48.9355 366.986 84.763 386.586 191.937C406.185 299.111 568.997 394.646 654.461 340.86C739.925 287.074 770.124 216.956 847.025 174.96C923.927 132.964 1044.34 221.623 1177.35 205.495C1310.35 189.368 1322.49 175.402 1322.49 175.402" stroke="#7884FE" stroke-width="3" stroke-miterlimit="10"/>
</g>
</g>
<circle cx="110.819" cy="110.819" r="110.819" fill="url(#paint0_radial)"/>
</g>
<defs>
<radialGradient id="paint0_radial" cx="0" cy="0" r="1" gradientUnits="userSpaceOnUse" gradientTransform="translate(110.819 108.3) rotate(90) scale(113.337)">
<stop offset="0.571597" stop-color="white" stop-opacity="0"/>
<stop offset="1" stop-color="white"/>
</radialGradient>
</defs>
</svg>
