<svg width="178" height="432" viewBox="0 0 178 432" fill="none" xmlns="http://www.w3.org/2000/svg">
<g opacity="0.75" filter="url(#filter0_f)">
<path d="M60.0086 36.9375L60.6945 37.8531L61.2554 38.6283L62.2916 40.1045L64.2564 42.9956C65.5425 44.9133 66.7592 46.8244 67.9539 48.7487C70.3353 52.5901 72.6032 56.4511 74.7577 60.3318C79.1026 68.06 83.0626 76.0227 86.7182 84.0647C94.0068 100.097 99.9889 116.692 104.606 133.687C109.209 150.624 112.318 167.931 113.896 185.411C114.694 194.106 115.048 202.845 115.043 211.553C115.038 220.26 114.561 228.956 113.714 237.598L98.7706 230.494C103.234 226.623 107.667 222.33 112.025 217.962C114.164 215.774 116.38 213.547 118.527 211.314C120.674 209.08 122.794 206.791 124.93 204.558L125.281 204.177C126.404 202.969 127.881 202.15 129.499 201.836C131.117 201.523 132.793 201.733 134.285 202.434C135.776 203.136 137.006 204.294 137.797 205.741C138.589 207.187 138.9 208.848 138.686 210.483C138.366 212.896 138.017 215.069 137.652 217.335C137.287 219.601 136.906 221.8 136.492 224.024C135.686 228.469 134.818 232.897 133.888 237.306C132.02 246.124 129.933 254.878 127.626 263.568C123.037 280.955 117.46 298.066 110.923 314.818C104.415 331.583 96.6038 347.811 87.5615 363.354C78.5759 378.922 67.731 393.338 55.2656 406.285C54.9826 406.584 54.5924 406.758 54.1808 406.769C53.7693 406.781 53.3702 406.628 53.0712 406.345C52.7722 406.062 52.5978 405.671 52.5865 405.26C52.5752 404.848 52.7279 404.449 53.0108 404.149C64.4501 390.77 74.2168 376.046 82.0949 360.302C90.0187 344.614 96.701 328.328 102.081 311.595C107.484 294.879 111.929 277.868 115.395 260.646C117.149 252.05 118.675 243.417 119.972 234.746C120.625 230.411 121.212 226.076 121.735 221.743C122.007 219.571 122.253 217.405 122.473 215.245C122.687 213.116 122.904 210.872 123.048 208.875L136.802 214.777C134.687 217.296 132.699 219.667 130.614 222.115C128.528 224.562 126.442 227.01 124.247 229.373C120 234.17 115.611 238.908 110.815 243.584C109.569 244.775 108.002 245.575 106.306 245.885C104.611 246.195 102.862 246.001 101.275 245.327C99.6887 244.652 98.3346 243.528 97.38 242.092C96.4254 240.656 95.9123 238.972 95.9041 237.248L95.8613 236.654C96.1881 228.589 96.1541 220.459 95.7449 212.379C95.3356 204.298 94.5829 196.231 93.3292 188.223C90.9653 172.174 87.1999 156.363 82.076 140.972C76.9593 125.557 70.6099 110.579 63.0894 96.1836C59.3338 88.9874 57.7379 84.5142 53.4228 77.6799C51.2713 74.2661 49.0434 70.9076 46.7391 67.6043C45.5877 65.9641 44.425 64.3248 43.2435 62.7442L41.4562 60.4031L40.5703 59.2608L39.7636 58.262L39.2337 57.5994C37.0628 54.5532 36.1345 50.7934 36.6379 47.0864C37.1413 43.3793 37.8797 39.3734 41.2996 35.9708C44.2961 32.9894 46.9559 30.8932 50.6853 31.1668C54.4146 31.4404 57.0482 33.7887 59.5785 36.5435L60.0086 36.9375Z" fill="url(#paint0_linear)"/>
</g>
<path d="M59.5201 37.0327L60.2059 37.9483L60.7669 38.7235L61.8031 40.1997L63.7678 43.0908C65.0539 45.0085 66.2707 46.9196 67.4654 48.8439C69.8467 52.6853 72.1147 56.5463 74.2692 60.427C78.6141 68.1552 82.574 76.1179 86.2297 84.1599C93.5182 100.192 99.5003 116.787 104.118 133.783C108.721 150.719 111.829 168.026 113.408 185.506C114.206 194.202 114.559 202.941 114.554 211.648C114.549 220.356 114.073 229.051 113.225 237.693L98.2821 230.589C102.745 226.719 107.178 222.425 111.537 218.057C113.675 215.87 115.892 213.642 118.039 211.409C120.186 209.175 122.306 206.886 124.441 204.653L124.793 204.272C125.915 203.064 127.392 202.245 129.01 201.932C130.629 201.618 132.304 201.828 133.796 202.53C135.288 203.231 136.518 204.389 137.309 205.836C138.1 207.283 138.411 208.943 138.198 210.579C137.877 212.991 137.529 215.164 137.164 217.43C136.798 219.696 136.417 221.895 136.003 224.119C135.198 228.565 134.33 232.992 133.4 237.401C131.531 246.22 129.444 254.974 127.138 263.663C122.548 281.05 116.971 298.161 110.435 314.913C103.927 331.678 96.1153 347.906 87.0729 363.45C78.0873 379.017 67.2424 393.433 54.777 406.38C54.494 406.679 54.1038 406.853 53.6923 406.865C53.2808 406.876 52.8816 406.723 52.5826 406.44C52.2837 406.157 52.1093 405.767 52.098 405.355C52.0866 404.943 52.2393 404.544 52.5223 404.245C63.9615 390.865 73.7282 376.141 81.6064 360.397C89.5301 344.709 96.2124 328.423 101.592 311.69C106.995 294.974 111.441 277.963 114.907 260.741C116.661 252.145 118.187 243.512 119.484 234.842C120.136 230.506 120.724 226.172 121.246 221.838C121.519 219.666 121.765 217.501 121.984 215.341C122.198 213.212 122.416 210.968 122.559 208.97L136.314 214.872C134.199 217.391 132.211 219.762 130.125 222.21C128.039 224.657 125.954 227.105 123.759 229.468C119.511 234.265 115.122 239.004 110.326 243.679C109.08 244.871 107.513 245.671 105.817 245.98C104.122 246.29 102.373 246.096 100.787 245.422C99.2002 244.748 97.846 243.623 96.8915 242.187C95.9369 240.752 95.4238 239.067 95.4156 237.343L95.3728 236.749C95.6995 228.685 95.6655 220.554 95.2563 212.474C94.8471 204.394 94.0943 196.327 92.8407 188.318C90.4768 172.269 86.7113 156.458 81.5874 141.067C76.4707 125.652 70.1214 110.674 62.6008 96.2788C58.8453 89.0826 57.2493 84.6094 52.9343 77.7751C50.7828 74.3613 48.5548 71.0028 46.2505 67.6995C45.0992 66.0594 43.9364 64.42 42.7549 62.8394L40.9677 60.4983L40.0818 59.356L39.2751 58.3572L38.7452 57.6947C36.5743 54.6484 35.6459 50.8886 36.1493 47.1816C36.6527 43.4745 37.3911 39.4686 40.811 36.066C43.8075 33.0846 46.526 31.9867 50.2553 32.2603C53.9847 32.5339 56.5597 33.8839 59.0899 36.6387L59.5201 37.0327Z" fill="url(#paint1_linear)"/>
<defs>
<filter id="filter0_f" x="0.788086" y="0.687622" width="176.672" height="431.19" filterUnits="userSpaceOnUse" color-interpolation-filters="sRGB">
<feFlood flood-opacity="0" result="BackgroundImageFix"/>
<feBlend mode="normal" in="SourceGraphic" in2="BackgroundImageFix" result="shape"/>
<feGaussianBlur stdDeviation="12.5" result="effect1_foregroundBlur"/>
</filter>
<linearGradient id="paint0_linear" x1="68.0234" y1="395.59" x2="262.195" y2="280.405" gradientUnits="userSpaceOnUse">
<stop stop-color="#0085FF" stop-opacity="0"/>
<stop offset="1" stop-color="#0038FF"/>
</linearGradient>
<linearGradient id="paint1_linear" x1="67.5336" y1="395.684" x2="268.262" y2="212.625" gradientUnits="userSpaceOnUse">
<stop stop-color="#7684FD" stop-opacity="0"/>
<stop offset="1" stop-color="#4858EF"/>
</linearGradient>
</defs>
</svg>
