<svg width="223" height="223" viewBox="0 0 223 223" fill="none" xmlns="http://www.w3.org/2000/svg">
<g style="mix-blend-mode:multiply">
<mask id="mask0" style="mask-type:alpha" maskUnits="userSpaceOnUse" x="0" y="0" width="223" height="223">
<circle cx="111.5" cy="111.5" r="111.5" fill="white"/>
<circle cx="111.5" cy="111.5" r="111.5" fill="white"/>
</mask>
<g mask="url(#mask0)">
<g opacity="0.2">
<path d="M622.873 -885.784C622.873 -885.784 613.832 -717.975 514.993 -674.024C416.154 -630.073 203.424 -584.933 256.372 -421.684C309.32 -258.435 403.849 -266.351 393.608 -149.1C383.367 -31.8495 325.123 78.3999 180.178 41.5295C35.2331 4.6592 -52.8637 127.408 -68.6193 251.246C-84.3748 375.085 -55.1098 630.975 -55.1098 630.975" stroke="#E6DAFF" stroke-width="3" stroke-miterlimit="10"/>
<path d="M634.839 -885.203C634.1 -885.184 619.864 -793.184 568.514 -727.503C552.377 -706.865 533.772 -688.88 512.102 -677.097C486.414 -663.016 454.896 -648.239 423.665 -631.808C364.982 -600.876 296.16 -555.515 265.766 -501.085C253.133 -478.497 249.556 -450.277 258.723 -415.793C266.147 -386.653 277.723 -358.733 293.098 -332.89C345.837 -246.145 398.002 -221.518 384.791 -130.762C368.468 -18.4048 310.064 84.9627 168.06 51.0027C155.653 48.0579 143.006 46.2311 130.272 45.5445C10.619 39.2129 -61.2055 149.729 -77.8812 261.395C-84.1741 304.371 -84.9299 362.384 -85.4355 419.728C-86.3812 529.229 -77.3995 631.865 -77.3995 631.865" stroke="#E0D5FF" stroke-width="3" stroke-miterlimit="10"/>
<path d="M646.78 -884.637C645.33 -884.584 622.079 -799.346 566.554 -733.755C548.57 -712.475 529.62 -693.718 509.198 -680.141C485.002 -663.94 457.526 -646.651 431.431 -628.376C382.178 -593.834 315.1 -539.077 276.546 -491.287C260.339 -471.226 254.03 -444.189 261.062 -409.872C267.042 -379.306 278.353 -350.031 294.478 -323.384C348.826 -235.647 394.144 -200.092 375.919 -112.457C353.548 -5.12689 294.998 90.9822 155.887 60.4435C143.591 57.7854 131.078 56.251 118.504 55.8593C1.4812 51.4619 -68.1917 161.271 -87.1584 271.649C-94.5512 314.178 -95.885 371.07 -98.929 426.874C-102.725 495.442 -102.978 564.16 -99.6858 632.754" stroke="#DAD1FF" stroke-width="3" stroke-miterlimit="10"/>
<path d="M658.733 -884.031C656.56 -883.989 624.159 -805.549 564.579 -739.982C546.659 -719.572 527.167 -700.598 506.281 -683.236C483.37 -665.028 460.185 -645.051 439.151 -624.937C399.611 -587.09 333.876 -522.694 287.341 -481.524C267.453 -463.932 258.442 -438.063 263.446 -403.97C267.902 -371.956 279.014 -341.23 296.066 -313.771C351.959 -224.998 390.558 -178.676 367.194 -94.0762C338.913 8.18634 280.052 97.4082 143.861 69.96C131.661 67.5412 119.269 66.2132 106.833 65.9918C-7.55995 63.5284 -75.0409 172.345 -96.3686 281.703C-104.684 323.883 -106.821 379.645 -112.667 433.69C-119.794 500.082 -122.896 566.843 -121.956 633.609" stroke="#D5CCFF" stroke-width="3" stroke-miterlimit="10"/>
<path d="M670.7 -883.45C667.803 -883.418 626.176 -811.778 562.616 -746.234C540.753 -723.616 521.198 -703.116 503.438 -686.398C482.651 -666.6 463.741 -644.922 446.948 -621.64C417.028 -580.387 352.49 -506.508 298.182 -471.846C274.599 -456.769 262.915 -432.051 265.862 -398.198C268.707 -364.807 279.595 -332.602 297.596 -304.336C354.99 -214.514 387.052 -157.479 358.441 -75.8572C324.42 21.2381 265.143 103.554 131.749 79.2822C119.657 77.1293 107.398 76.0533 95.1164 76.067C-16.6444 75.4624 -81.9684 183.422 -105.625 291.701C-114.833 333.547 -117.941 388.203 -126.258 440.516C-136.642 504.593 -142.623 569.306 -144.159 634.2" stroke="#CFC8FF" stroke-width="3" stroke-miterlimit="10"/>
<path d="M682.696 -882.853C679.09 -882.787 628.167 -818.101 560.713 -752.455C536.978 -729.361 517.095 -707.697 500.542 -689.322C481.731 -668.034 466.266 -644.011 454.676 -618.075C434.458 -573.639 370.903 -490.165 308.969 -461.928C281.528 -449.417 267.302 -425.741 268.159 -392.068C269.321 -357.354 280.016 -323.628 299.07 -294.587C357.919 -203.703 383.554 -136.087 349.603 -57.3404C310.024 34.534 250.02 110.234 119.669 88.9668C107.685 87.091 95.5595 86.2672 83.4316 86.5047C-25.7264 87.7427 -88.8342 194.877 -114.819 302.077C-124.979 343.558 -129.12 397.151 -139.862 447.719C-163.102 557.415 -166.492 635.449 -166.492 635.449" stroke="#C9C3FF" stroke-width="3" stroke-miterlimit="10"/>
<path d="M694.604 -882.307C690.258 -882.222 630.054 -824.444 558.692 -758.742C536.399 -738.431 515.933 -716.203 497.528 -692.312C480.291 -669.255 468.276 -642.725 462.316 -614.561C451.728 -567.019 389.174 -474.055 319.655 -452.107C288.39 -442.297 271.572 -419.498 270.436 -386.183C269.827 -350.172 280.297 -314.844 300.43 -284.98C360.762 -193.017 380.269 -114.734 340.725 -38.963C295.631 47.7523 234.83 116.683 107.507 98.4501C95.6148 96.8584 83.608 96.2912 71.6188 96.7545C-34.8906 99.8218 -95.8415 206.099 -124.22 312.338C-135.184 353.533 -140.612 406.041 -153.597 454.808C-182.91 564.799 -188.92 636.451 -188.92 636.451" stroke="#C3BFFF" stroke-width="3" stroke-miterlimit="10"/>
<path d="M706.573 -881.724C701.487 -881.62 631.927 -830.827 556.715 -764.962C532.95 -744.75 512.07 -721.375 494.657 -695.488C478.758 -670.25 470.25 -641.061 470.099 -611.232C468.842 -560.672 407.591 -458.205 330.481 -442.396C295.344 -435.198 275.939 -413.427 272.867 -380.363C269.795 -347.299 279.144 -309.913 301.975 -275.497C363.701 -182.428 377.028 -93.7361 331.87 -20.7603C281.629 60.6131 219.721 122.99 95.3505 107.788C83.5655 106.5 71.6944 106.185 59.8576 106.846C-43.9977 111.592 -102.813 217.191 -133.442 322.28C-145.476 363.044 -152.091 414.559 -167.23 461.575C-202.706 571.888 -211.232 637.177 -211.232 637.177" stroke="#BDBAFF" stroke-width="3" stroke-miterlimit="10"/>
<path d="M718.492 -881.129C712.712 -881.02 633.755 -837.275 554.839 -771.166C525.239 -746.398 504.712 -721.515 491.867 -698.468C476 -669.391 473.407 -637.909 477.933 -607.723C486.036 -554.127 426.063 -442.326 341.454 -432.682C302.464 -428.201 280.451 -407.277 275.4 -374.526C270.349 -341.774 279.304 -302.261 303.652 -265.981C366.741 -171.823 374.185 -72.5605 323.323 -2.42835C268.081 73.7592 204.889 129.485 83.5027 117.256C71.8282 116.237 60.0898 116.173 48.405 117.066C-52.8314 123.625 -109.447 228.429 -142.434 332.423C-155.391 372.838 -163.385 423.292 -180.556 468.547C-222.527 579.154 -233.204 637.972 -233.204 637.972" stroke="#B8B6FF" stroke-width="3" stroke-miterlimit="10"/>
<path d="M730.46 -880.553C723.847 -880.323 635.586 -843.728 552.76 -777.488C521.151 -752.204 500.315 -726.261 488.859 -701.611C474.348 -670.375 475.742 -636.562 485.668 -604.313C502.963 -547.582 444.513 -426.544 352.079 -422.82C309.298 -421.099 284.571 -401.042 277.584 -368.541C270.429 -335.171 279.132 -294.491 304.966 -256.363C369.462 -161.054 371.221 -51.3039 314.355 15.9738C254.244 87.0858 189.681 136.037 71.2634 126.81C59.6625 126.019 48.0161 126.186 36.4426 127.309C-62.1559 135.576 -116.571 239.584 -151.936 342.588C-165.815 382.652 -175.339 432.042 -194.392 475.54C-243.068 586.404 -255.733 638.878 -255.733 638.878" stroke="#B2B1FF" stroke-width="3" stroke-miterlimit="10"/>
<path d="M742.513 -879.923C735.225 -879.792 637.442 -850.159 550.884 -783.691C517.295 -757.875 496.268 -730.808 486.038 -704.606C472.97 -671.162 478.264 -635.068 493.35 -600.809C519.879 -540.882 462.941 -410.726 362.895 -412.961C316.293 -414.016 288.867 -394.779 279.959 -362.558C270.718 -329.022 279.136 -286.693 306.47 -246.672C372.328 -150.273 368.465 -29.6571 305.592 34.4192C240.73 100.52 174.571 142.689 59.1701 136.375C47.7019 135.911 36.215 136.356 24.817 137.705C-71.1114 147.621 -123.424 251.011 -161.055 352.892C-175.886 392.591 -186.983 440.854 -207.921 482.671C-263.462 593.666 -277.91 639.908 -277.91 639.908" stroke="#ACADFE" stroke-width="3" stroke-miterlimit="10"/>
<path d="M754.316 -879.317C746.334 -879.181 639.111 -856.657 548.771 -789.873C513.19 -763.57 492.119 -735.299 482.984 -707.655C471.435 -672 480.579 -633.536 500.981 -597.413C536.696 -534.2 481.365 -395.029 373.57 -403.182C323.192 -407.027 293.007 -388.643 282.239 -356.669C270.897 -323.013 279.013 -279.006 307.834 -237.137C375.053 -139.574 365.675 -8.14772 296.673 52.738C227.206 113.984 159.365 149.246 46.9508 145.829C35.5947 145.647 24.2416 146.343 12.9929 147.912C-80.2949 159.461 -130.429 262.236 -170.419 363.022C-186.172 402.372 -198.947 449.488 -221.619 489.629C-284.325 600.668 -300.255 640.765 -300.255 640.765" stroke="#A6A8FE" stroke-width="3" stroke-miterlimit="10"/>
<path d="M766.316 -878.795C757.61 -878.671 640.917 -863.272 546.858 -796.214C509.208 -769.428 487.933 -740.078 480.142 -710.818C470.066 -672.938 483.061 -632.105 508.764 -594.087C553.724 -527.557 499.94 -379.404 384.412 -393.504C330.358 -399.968 297.269 -382.594 284.639 -350.868C271.168 -317.107 279.025 -271.36 309.497 -227.592C377.999 -128.791 363.283 13.5413 288.024 71.0507C214.004 127.625 144.441 155.844 35.0304 155.293C23.7775 155.375 12.5473 156.318 1.43815 158.113C-89.3409 171.185 -137.264 273.285 -179.599 373.022C-196.258 411.992 -210.767 457.855 -235.083 496.294C-305.124 607.13 -322.396 641.313 -322.396 641.313" stroke="#A1A4FE" stroke-width="3" stroke-miterlimit="10"/>
<path d="M778.282 -878.216C768.838 -878.073 642.69 -869.83 544.984 -802.42C505.371 -775.131 483.919 -744.612 477.413 -713.767C468.784 -673.755 485.511 -630.616 516.527 -590.658C570.584 -520.891 518.528 -363.734 395.22 -383.768C337.306 -393.146 301.498 -376.487 286.991 -344.979C271.454 -311.232 278.975 -263.673 310.862 -218.135C380.772 -118.258 360.662 35.2956 279.135 89.3078C200.574 141.331 129.216 162.428 22.7009 164.801C11.5627 165.178 0.467148 166.372 -10.4962 168.375C-98.5082 182.918 -144.229 284.569 -188.895 383.303C-206.522 421.936 -222.779 466.5 -248.824 503.535C-326.438 614.038 -344.83 642.466 -344.83 642.466" stroke="#9B9FFE" stroke-width="3" stroke-miterlimit="10"/>
<path d="M790.219 -877.651C780.064 -877.473 644.514 -876.549 542.932 -808.721C501.297 -780.962 479.772 -749.254 474.344 -716.938C467.279 -674.728 487.774 -628.996 524.243 -587.214C587.661 -513.989 537.112 -347.987 405.98 -373.941C344.352 -386.151 305.664 -370.335 289.326 -339.059C271.595 -305.089 278.922 -255.909 312.34 -208.536C383.566 -107.481 358.151 57.3423 270.301 107.674C187.21 155.267 113.973 169.044 10.6769 174.172C-0.344681 174.846 -11.3055 176.292 -22.125 178.498C-107.69 194.607 -151.133 295.812 -198.125 393.392C-216.675 431.676 -234.886 474.827 -262.404 510.482C-347.748 620.376 -367.088 643.296 -367.088 643.296" stroke="#959BFE" stroke-width="3" stroke-miterlimit="10"/>
<path d="M802.332 -876.986C791.438 -876.789 646.326 -882.964 541.071 -814.875C497.459 -786.659 475.788 -753.841 471.554 -719.914C466.038 -675.477 490.595 -627.413 532.107 -583.685C604.8 -507.127 555.876 -332.215 416.919 -364.09C351.545 -379.073 310.009 -364.158 291.853 -333.068C271.949 -299.055 278.937 -247.987 313.937 -198.869C386.509 -96.6953 355.751 79.608 261.647 126.066C173.974 169.393 99.1571 175.935 -1.29424 183.729C-12.2 184.679 -23.0277 186.376 -33.701 188.808C-116.666 206.413 -158.051 307.013 -207.404 403.573C-226.876 441.507 -246.833 483.284 -276.048 517.476C-369.233 626.546 -389.379 644.189 -389.379 644.189" stroke="#8F96FE" stroke-width="3" stroke-miterlimit="10"/>
<path d="M814.156 -876.492C802.522 -876.276 647.942 -889.652 538.965 -821.214C493.267 -792.41 471.558 -758.537 468.52 -723.074C464.523 -676.427 492.915 -625.962 539.697 -580.357C621.678 -500.419 574.35 -316.613 427.552 -354.379C358.449 -372.166 314.066 -358.152 294.046 -327.235C271.985 -293.209 278.806 -240.428 315.29 -189.386C389.177 -86.0344 353.073 101.824 252.639 144.406C160.352 183.525 83.821 182.798 -13.5731 193.22C-24.3673 194.468 -35.0698 196.411 -45.6142 199.036C-125.812 218.112 -164.949 318.251 -216.749 413.667C-237.232 451.203 -258.977 491.543 -289.773 524.411C-390.926 632.396 -411.781 645.008 -411.781 645.008" stroke="#8992FE" stroke-width="3" stroke-miterlimit="10"/>
<path d="M826.075 -875.894C813.748 -875.673 649.687 -896.296 537.001 -827.464C489.315 -798.323 467.396 -763.222 465.611 -726.115C463.093 -677.394 495.328 -624.334 547.442 -576.893C638.526 -493.447 592.995 -300.906 438.375 -344.668C365.527 -365.228 318.266 -352.132 296.428 -321.4C272.178 -287.302 278.705 -232.647 316.738 -179.801C391.714 -75.2784 350.458 124.202 243.899 162.673C146.904 197.688 68.8624 189.458 -25.6278 202.577C-36.3026 204.152 -46.875 206.355 -57.2899 209.176C-134.976 229.7 -171.884 329.481 -225.894 423.883C-247.241 461.101 -270.919 499.849 -303.25 531.381C-412.468 638.036 -433.922 645.906 -433.922 645.906" stroke="#848DFE" stroke-width="3" stroke-miterlimit="10"/>
<path d="M838.043 -875.313C824.992 -875.103 651.291 -903.175 535.083 -833.654C485.334 -804.181 463.533 -767.748 462.722 -729.19C461.798 -678.255 497.853 -622.841 555.176 -573.479C655.626 -486.726 611.697 -285.442 449.166 -334.826C372.607 -358.293 322.404 -345.997 298.749 -315.451C272.43 -281.291 278.594 -224.915 318.251 -170.261C394.644 -64.4671 347.811 146.71 235.132 180.921C133.396 211.89 53.99 196.313 -37.6958 211.96C-48.2468 213.827 -58.6854 216.281 -68.9627 219.312C-144.089 241.194 -178.751 340.589 -235.077 433.958C-257.375 470.81 -282.895 507.939 -316.845 538.356C-434.098 643.275 -456.113 646.617 -456.113 646.617" stroke="#7E89FE" stroke-width="3" stroke-miterlimit="10"/>
<path d="M850.008 -874.732C836.25 -874.562 653.195 -909.619 533.06 -839.938C412.925 -770.257 453.076 -660.094 562.908 -570.064C672.74 -480.033 630.288 -269.498 459.911 -325.044C289.535 -380.591 241.929 -267.607 319.683 -160.648C397.437 -53.6891 345.051 169.352 226.233 199.407C107.415 229.461 20.5225 197.284 -80.7672 229.687C-182.057 262.09 -204.987 442.127 -330.523 545.482C-456.059 648.837 -478.49 647.805 -478.49 647.805" stroke="#7884FE" stroke-width="3" stroke-miterlimit="10"/>
</g>
</g>
<circle cx="111.5" cy="111.5" r="111.5" fill="url(#paint0_radial)"/>
</g>
<defs>
<radialGradient id="paint0_radial" cx="0" cy="0" r="1" gradientUnits="userSpaceOnUse" gradientTransform="translate(111.5 108.966) rotate(90) scale(114.034)">
<stop offset="0.571597" stop-color="white" stop-opacity="0"/>
<stop offset="1" stop-color="white"/>
</radialGradient>
</defs>
</svg>
