<svg width="119" height="160" viewBox="0 0 119 160" fill="none" xmlns="http://www.w3.org/2000/svg">
<g opacity="0.75" filter="url(#filter0_f)">
<path d="M25.2413 126.15C30.518 116.729 36.2317 107.564 42.2021 98.5468C45.2067 94.0461 48.2879 89.5868 51.5218 85.2102C53.1503 83.0132 54.8148 80.852 56.527 78.7179C58.331 76.4657 60.2824 74.3355 62.3684 72.3413L63.5369 78.7431L46.6252 74.8034C45.7912 74.6075 45.0201 74.2042 44.3836 73.631C43.7471 73.0578 43.2658 72.3331 42.9843 71.5243C42.7028 70.7155 42.6303 69.8487 42.7735 69.0045C42.9167 68.1602 43.2709 67.3659 43.8034 66.6951L44.3984 65.9563C47.2116 62.6915 49.9945 59.7202 52.9341 56.7295C55.8737 53.7388 58.8773 50.8802 62.0552 48.0969C65.2561 45.2627 68.5969 42.5904 72.0652 40.0901C75.6998 37.4458 79.5597 35.1256 83.6006 33.1564C84.3407 32.8018 85.1435 32.5964 85.963 32.552C86.7826 32.5075 87.6029 32.6248 88.3772 32.8973C89.1514 33.1697 89.8644 33.5919 90.4755 34.1397C91.0865 34.6875 91.5837 35.3502 91.9385 36.0901C92.2934 36.8299 92.4989 37.6323 92.5435 38.4515C92.5881 39.2707 92.4708 40.0906 92.1984 40.8644C91.9259 41.6383 91.5037 42.3509 90.9557 42.9616C90.4077 43.5722 89.7447 44.0691 89.0046 44.4236C88.9697 44.4461 88.9327 44.4651 88.894 44.4802L88.4346 44.6835C85.0105 46.2592 81.7264 48.1226 78.6178 50.2538C75.4255 52.3988 72.3377 54.7532 69.3239 57.2409C66.31 59.7287 63.3917 62.3426 60.5429 65.0482C57.694 67.7538 54.8788 70.5872 52.3382 73.3662L50.1878 64.5605L65.9978 71.7142L66.2716 71.8137C67.1761 72.1656 67.9045 72.8611 68.2975 73.7482C68.6906 74.6354 68.7162 75.6419 68.3689 76.5478C68.1205 77.1698 67.7121 77.7152 67.185 78.1288C65.2319 79.7037 63.3816 81.4019 61.6455 83.2129C59.8343 85.0973 58.035 87.0449 56.2906 89.041C52.783 93.0206 49.3781 97.1477 46.0469 101.336C39.3947 109.715 32.9591 118.309 26.9463 127.186C26.7959 127.399 26.5697 127.545 26.3144 127.596C26.0591 127.646 25.794 127.597 25.5738 127.458C25.3679 127.319 25.2203 127.108 25.159 126.867C25.0977 126.626 25.127 126.371 25.2413 126.15Z" fill="url(#paint0_linear)"/>
</g>
<path d="M25.2413 126.15C30.518 116.729 36.2317 107.564 42.2021 98.5468C45.2067 94.0461 48.2879 89.5868 51.5218 85.2102C53.1503 83.0132 54.8148 80.852 56.527 78.7179C58.331 76.4657 60.2824 74.3355 62.3684 72.3413L63.5369 78.7431L46.6252 74.8034C45.7912 74.6075 45.0201 74.2042 44.3836 73.631C43.7471 73.0578 43.2658 72.3331 42.9843 71.5243C42.7028 70.7155 42.6303 69.8487 42.7735 69.0045C42.9167 68.1602 43.2709 67.3659 43.8034 66.6951L44.3984 65.9563C47.2116 62.6915 49.9945 59.7202 52.9341 56.7295C55.8737 53.7388 58.8773 50.8802 62.0552 48.0969C65.2561 45.2627 68.5969 42.5904 72.0652 40.0901C75.6998 37.4458 79.5597 35.1256 83.6006 33.1564C84.3407 32.8018 85.1435 32.5964 85.963 32.552C86.7826 32.5075 87.6029 32.6248 88.3772 32.8973C89.1514 33.1697 89.8644 33.5919 90.4755 34.1397C91.0865 34.6875 91.5837 35.3502 91.9385 36.0901C92.2934 36.8299 92.4989 37.6323 92.5435 38.4515C92.5881 39.2707 92.4708 40.0906 92.1984 40.8644C91.9259 41.6383 91.5037 42.3509 90.9557 42.9616C90.4077 43.5722 89.7447 44.0691 89.0046 44.4236C88.9697 44.4461 88.9327 44.4651 88.894 44.4802L88.4346 44.6835C85.0105 46.2592 81.7264 48.1226 78.6178 50.2538C75.4255 52.3988 72.3377 54.7532 69.3239 57.2409C66.31 59.7287 63.3917 62.3426 60.5429 65.0482C57.694 67.7538 54.8788 70.5872 52.3382 73.3662L50.1878 64.5605L65.9978 71.7142L66.2716 71.8137C67.1761 72.1656 67.9045 72.8611 68.2975 73.7482C68.6906 74.6354 68.7162 75.6419 68.3689 76.5478C68.1205 77.1698 67.7121 77.7152 67.185 78.1288C65.2319 79.7037 63.3816 81.4019 61.6455 83.2129C59.8343 85.0973 58.035 87.0449 56.2906 89.041C52.783 93.0206 49.3781 97.1477 46.0469 101.336C39.3947 109.715 32.9591 118.309 26.9463 127.186C26.7959 127.399 26.5697 127.545 26.3144 127.596C26.0591 127.646 25.794 127.597 25.5738 127.458C25.3679 127.319 25.2203 127.108 25.159 126.867C25.0977 126.626 25.127 126.371 25.2413 126.15Z" fill="url(#paint1_linear)"/>
<defs>
<filter id="filter0_f" x="0" y="0.947632" width="118.35" height="159.033" filterUnits="userSpaceOnUse" color-interpolation-filters="sRGB">
<feFlood flood-opacity="0" result="BackgroundImageFix"/>
<feBlend mode="normal" in="SourceGraphic" in2="BackgroundImageFix" result="shape"/>
<feGaussianBlur stdDeviation="12.5" result="effect1_foregroundBlur"/>
</filter>
<linearGradient id="paint0_linear" x1="38.2514" y1="42.486" x2="103.201" y2="71.1367" gradientUnits="userSpaceOnUse">
<stop stop-color="#7784FD" stop-opacity="0"/>
<stop offset="1" stop-color="#7784FD"/>
</linearGradient>
<linearGradient id="paint1_linear" x1="38.2554" y1="42.4854" x2="98.395" y2="62.21" gradientUnits="userSpaceOnUse">
<stop stop-color="#7784FD" stop-opacity="0"/>
<stop offset="1" stop-color="#7784FD"/>
</linearGradient>
</defs>
</svg>
