<svg width="243" height="298" viewBox="0 0 243 298" fill="none" xmlns="http://www.w3.org/2000/svg">
<g opacity="0.75" filter="url(#filter0_f)">
<path d="M136.77 266.595C147.634 259.101 157.428 249.993 165.629 239.7C173.83 229.407 180.5 217.959 185.389 205.845C190.277 193.73 193.385 180.949 194.553 168.112C195.752 155.213 195.01 142.258 192.382 129.734C189.755 117.211 185.362 105.179 179.289 94.0654C173.215 82.9521 165.491 72.8487 156.476 64.0897C138.475 46.6631 115.181 35.0108 90.79 30.8607C115.016 36.0782 137.356 48.7083 154.109 66.5037C162.456 75.3862 169.482 85.5217 174.83 96.4233C180.178 107.325 183.908 119.023 185.814 131.03C187.752 142.976 187.926 155.262 186.284 167.247C184.642 179.232 181.245 190.946 176.189 201.903C171.194 212.89 164.571 223.057 156.689 232.13C148.838 241.142 139.578 248.907 129.548 255.21C126.338 257.2 125.343 261.378 127.304 264.514C129.234 267.711 133.377 268.646 136.527 266.626C136.648 266.687 136.739 266.656 136.77 266.595Z" fill="url(#paint0_linear)"/>
</g>
<path d="M136.77 266.595C147.634 259.101 157.428 249.993 165.629 239.7C173.83 229.407 180.5 217.959 185.389 205.845C190.277 193.73 193.385 180.949 194.553 168.112C195.752 155.213 195.01 142.258 192.382 129.734C189.755 117.211 185.362 105.179 179.289 94.0654C173.215 82.9521 165.491 72.8487 156.476 64.0897C138.475 46.6631 115.181 35.0108 90.79 30.8607C115.016 36.0782 137.356 48.7083 154.109 66.5037C162.456 75.3862 169.482 85.5217 174.83 96.4233C180.178 107.325 183.908 119.023 185.814 131.03C187.752 142.976 187.926 155.262 186.284 167.247C184.642 179.232 181.245 190.946 176.189 201.903C171.194 212.89 164.571 223.057 156.689 232.13C148.838 241.142 139.578 248.907 129.548 255.21C126.338 257.2 125.343 261.378 127.304 264.514C129.234 267.711 133.377 268.646 136.527 266.626C136.648 266.687 136.739 266.656 136.77 266.595Z" fill="url(#paint1_linear)"/>
<defs>
<filter id="filter0_f" x="60.7891" y="0.860718" width="164.32" height="296.83" filterUnits="userSpaceOnUse" color-interpolation-filters="sRGB">
<feFlood flood-opacity="0" result="BackgroundImageFix"/>
<feBlend mode="normal" in="SourceGraphic" in2="BackgroundImageFix" result="shape"/>
<feGaussianBlur stdDeviation="15" result="effect1_foregroundBlur"/>
</filter>
<linearGradient id="paint0_linear" x1="128.565" y1="260.256" x2="105.004" y2="37.1803" gradientUnits="userSpaceOnUse">
<stop stop-color="#7784FD"/>
<stop offset="1" stop-color="#7784FD" stop-opacity="0"/>
</linearGradient>
<linearGradient id="paint1_linear" x1="128.565" y1="260.256" x2="105.004" y2="37.1803" gradientUnits="userSpaceOnUse">
<stop stop-color="#7784FD"/>
<stop offset="1" stop-color="#7784FD" stop-opacity="0"/>
</linearGradient>
</defs>
</svg>
