<svg width="223" height="223" viewBox="0 0 223 223" fill="none" xmlns="http://www.w3.org/2000/svg">
<g style="mix-blend-mode:multiply">
<mask id="mask0" style="mask-type:alpha" maskUnits="userSpaceOnUse" x="0" y="0" width="223" height="223">
<circle cx="111.052" cy="111.052" r="111.052" fill="white"/>
<circle cx="111.052" cy="111.052" r="111.052" fill="white"/>
</mask>
<g mask="url(#mask0)">
<g opacity="0.2">
<path d="M-367.63 253.691C-367.63 253.691 -262.179 163.509 -179.609 197.551C-97.0397 231.593 51.1143 333.031 118.53 208.395C185.945 83.7589 127.368 31.7668 203.283 -28.8992C279.198 -89.5651 378.271 -117.552 438.796 -9.91535C499.321 97.7211 622.87 80.4581 705.863 19.3356C788.857 -41.7868 925.134 -205.037 925.134 -205.037" stroke="#E6DAFF" stroke-width="3" stroke-miterlimit="10"/>
<path d="M-374.098 246.209C-373.665 246.64 -310.568 202.744 -242.059 196.024C-220.533 193.914 -199.185 194.79 -179.799 201.03C-156.75 208.363 -129.965 218.785 -102.354 228.093C-50.4397 245.549 15.8743 260.846 65.7204 248.008C86.4171 242.693 105.322 228.756 120.712 203.635C133.9 182.599 143.994 159.776 150.683 135.866C172.49 54.9329 157.497 9.72564 219.267 -34.0734C295.721 -88.3169 390.772 -112.288 451.361 -8.06744C456.668 1.02624 462.78 9.62586 469.623 17.6282C533.995 92.752 640.963 72.731 717.205 19.0918C746.477 -1.62659 781.582 -34.2197 816.144 -66.5809C882.133 -128.389 938.363 -192.22 938.363 -192.22" stroke="#E0D5FF" stroke-width="3" stroke-miterlimit="10"/>
<path d="M-380.561 238.751C-379.703 239.587 -315.512 204.932 -244.68 200.758C-221.717 199.386 -199.712 200.028 -179.964 204.501C-156.498 209.735 -130.513 216.309 -104.727 221.497C-56.0256 231.26 14.9117 240.163 65.4366 235.986C86.6591 234.245 106.413 222.616 122.919 198.866C137.782 177.881 148.837 154.444 155.579 129.628C177.063 47.1681 172.501 -0.171782 235.262 -39.1959C312.157 -86.9613 402.953 -106.71 463.938 -6.16773C469.354 2.69588 475.564 11.0487 482.492 18.7874C546.521 91.2377 651.841 70.3333 728.618 18.7974C758.25 -1.00916 793.014 -32.6179 828.103 -62.5854C871.248 -99.3733 912.466 -138.365 951.59 -179.405" stroke="#DAD1FF" stroke-width="3" stroke-miterlimit="10"/>
<path d="M-387.015 231.264C-385.752 232.538 -320.411 207.224 -247.284 205.488C-224.878 204.573 -202.434 205.416 -180.159 208.01C-156.226 211.333 -131.079 213.812 -107.076 214.926C-61.9321 217.001 14.0014 219.611 65.1154 223.975C86.9587 225.841 107.554 216.492 125.081 194.081C141.678 173.182 153.714 149.039 160.413 123.206C181.636 39.232 187.336 -10.2242 251.211 -44.4485C328.443 -85.7947 415.3 -101.435 476.469 -4.39812C481.973 4.27195 488.238 12.4349 495.189 19.9941C558.876 89.7709 662.355 68.1214 739.867 18.5775C769.815 -0.478579 804.362 -30.9634 839.995 -58.2541C883.737 -91.8117 925.408 -127.986 964.779 -166.578" stroke="#D5CCFF" stroke-width="3" stroke-miterlimit="10"/>
<path d="M-393.477 223.777C-391.808 225.49 -325.277 209.564 -249.896 210.219C-223.924 210.403 -200.532 210.415 -180.423 211.507C-156.749 212.655 -133.02 211.609 -109.539 208.385C-67.839 202.77 13.08 199.263 64.7328 211.979C87.1772 217.486 108.607 210.391 127.163 189.346C145.5 168.626 158.547 143.774 165.188 116.914C186.183 31.4454 202.01 -20.2057 267.093 -49.598C344.507 -84.5697 427.472 -96.0278 488.948 -2.47166C494.549 5.982 500.888 13.9221 507.892 21.2554C571.191 88.4 672.929 65.9497 751.123 18.4122C781.38 0.0797728 815.819 -29.1952 851.824 -54.0221C896.038 -84.3143 938.124 -117.601 977.787 -153.647" stroke="#CFC8FF" stroke-width="3" stroke-miterlimit="10"/>
<path d="M-399.958 216.268C-397.864 218.385 -330.194 211.976 -252.534 214.901C-225.212 215.933 -200.937 215.478 -180.525 214.905C-157.087 214.023 -133.919 209.582 -111.815 201.736C-73.7387 188.509 12.3561 178.949 64.5115 199.884C87.62 209.159 109.874 204.175 129.513 184.483C149.6 164.014 163.666 138.412 170.171 110.48C190.972 23.5376 216.785 -30.2994 283.191 -54.8616C360.649 -83.5375 440.075 -90.7922 501.612 -0.766786C507.318 7.46475 513.732 15.1814 520.782 22.2951C583.7 86.8344 683.681 63.5295 762.557 17.9984C793.137 0.443424 827.529 -27.6092 863.873 -49.992C942.677 -98.5858 991.249 -141.009 991.249 -141.009" stroke="#C9C3FF" stroke-width="3" stroke-miterlimit="10"/>
<path d="M-406.409 208.838C-403.882 211.387 -335.054 214.46 -255.135 219.689C-230.297 221.445 -205.353 221.016 -180.59 218.408C-156.991 215.577 -134.289 207.647 -114.061 195.167C-79.6134 174.415 11.5835 158.85 64.3006 187.901C87.9729 201 111.18 198.065 131.739 179.768C153.61 159.62 168.762 133.238 175.144 104.194C195.745 15.7498 231.424 -40.5005 299.238 -60.0248C376.754 -82.4659 452.588 -85.3883 514.214 1.09935C520.037 9.11398 526.537 16.6137 533.643 23.5157C596.145 85.43 694.386 61.3243 774.051 17.7709C804.919 0.858915 839.395 -25.8049 875.94 -45.8223C958.379 -90.9544 1004.63 -128.176 1004.63 -128.176" stroke="#C3BFFF" stroke-width="3" stroke-miterlimit="10"/>
<path d="M-412.879 201.353C-409.92 204.333 -339.939 216.978 -257.729 224.415C-232.111 227.107 -206.246 226.272 -180.855 221.934C-156.714 217.061 -134.421 205.52 -116.506 188.62C-85.5696 160.571 10.5646 138.816 63.9365 175.9C88.2531 192.801 112.319 191.998 133.832 175.001C155.344 158.003 172.364 131.12 179.93 97.8701C200.399 7.96333 245.819 -50.5226 315.16 -65.0989C392.415 -81.4212 464.961 -79.9488 526.718 3.04748C532.661 10.8251 539.235 18.1002 546.372 24.7987C608.366 84.1705 704.985 59.1743 785.244 17.6219C816.464 1.59488 851.022 -23.7948 887.748 -41.5274C973.89 -83.1585 1017.77 -115.251 1017.77 -115.251" stroke="#BDBAFF" stroke-width="3" stroke-miterlimit="10"/>
<path d="M-419.314 193.89C-415.957 197.282 -344.835 219.557 -260.37 229.069C-228.705 232.653 -202.14 230.749 -181.048 225.299C-154.631 218.22 -134.336 201.837 -118.872 181.938C-91.4533 146.566 9.53215 118.729 63.4907 163.807C88.3782 184.559 113.423 185.798 135.876 170.162C158.33 154.525 176.845 126.665 184.662 91.4471C205.004 0.104973 260.094 -60.8855 330.984 -70.433C407.988 -80.8121 477.291 -74.7839 539.124 4.7356C545.165 12.2942 551.813 19.3463 559.003 25.8217C620.589 82.5953 715.48 56.7373 796.427 17.2183C827.964 1.94176 862.674 -22.0198 899.504 -37.5338C989.522 -75.4508 1030.76 -102.573 1030.76 -102.573" stroke="#B8B6FF" stroke-width="3" stroke-miterlimit="10"/>
<path d="M-425.785 186.407C-421.88 190.229 -349.733 222.138 -262.962 233.912C-229.845 238.403 -202.47 236.08 -181.211 228.886C-154.275 219.767 -134.86 199.674 -121.238 175.372C-97.1809 132.72 8.45861 98.711 63.3355 151.838C88.7329 176.429 114.806 179.783 138.212 165.446C162.233 150.715 181.59 122.341 189.664 85.1819C209.894 -7.65652 274.49 -71.223 347.094 -75.5555C423.838 -80.1331 489.872 -69.4269 551.809 6.60842C557.944 13.993 564.678 20.8591 571.941 27.1368C633.045 81.3608 726.208 54.6411 807.918 17.1068C839.77 2.58082 874.716 -19.8594 911.568 -33.248C1005.56 -67.304 1044.14 -89.6232 1044.14 -89.6232" stroke="#B2B1FF" stroke-width="3" stroke-miterlimit="10"/>
<path d="M-432.276 178.843C-428.047 183.125 -354.637 224.691 -265.604 238.567C-231.041 243.938 -202.886 241.088 -181.398 232.278C-153.964 221.038 -135.406 197.315 -123.522 168.784C-102.815 118.792 7.41261 78.6855 63.0642 139.757C88.9789 168.212 116.099 173.647 140.432 160.618C165.74 147.039 186.246 117.897 194.597 78.7626C214.701 -15.5113 288.995 -81.9066 363.107 -80.8251C439.562 -79.7087 502.451 -64.185 564.411 8.38791C570.666 15.5066 577.475 22.1191 584.774 28.1634C645.343 79.8521 736.937 52.2274 819.268 16.687C851.444 2.93849 886.612 -17.9196 923.533 -29.2239C1021.51 -59.2506 1057.38 -76.9553 1057.38 -76.9553" stroke="#ACADFE" stroke-width="3" stroke-miterlimit="10"/>
<path d="M-438.638 171.445C-434.011 176.138 -359.472 227.396 -268.096 243.352C-232.107 249.637 -203.208 246.127 -181.481 235.841C-153.591 222.435 -135.81 195.06 -125.84 162.289C-108.401 104.935 6.2994 58.7336 62.828 127.807C89.2258 160.108 117.408 167.679 142.652 155.903C169.23 143.51 190.909 113.593 199.518 72.517C219.544 -23.2335 303.44 -92.4899 379.136 -85.928C455.312 -79.2932 515.032 -58.83 577.021 10.3072C583.381 17.1986 590.264 23.5877 597.609 29.4175C657.65 78.5978 747.636 50.0216 830.656 16.5146C863.148 3.51654 898.586 -15.6859 935.494 -24.9991C1037.58 -50.769 1070.62 -64.0866 1070.62 -64.0866" stroke="#A6A8FE" stroke-width="3" stroke-miterlimit="10"/>
<path d="M-445.164 163.977C-440.131 169.109 -364.457 230.086 -270.799 248.109C-233.343 255.355 -203.682 251.353 -181.755 239.343C-153.375 223.789 -136.371 192.762 -128.288 155.744C-114.132 90.9749 5.05605 38.7323 62.4348 115.816C89.3603 151.806 118.593 161.687 144.75 151.165C172.603 139.986 195.47 109.232 204.273 66.0878C224.308 -31.1341 317.763 -103.413 395.006 -91.1876C470.983 -79.1708 527.473 -53.666 589.466 12.0428C595.925 18.7222 602.885 24.8975 610.286 30.5148C669.808 77.3283 758.131 47.815 841.859 16.3071C874.641 4.06686 910.318 -13.3849 947.144 -20.7464C1053.29 -42.0156 1083.56 -51.1632 1083.56 -51.1632" stroke="#A1A4FE" stroke-width="3" stroke-miterlimit="10"/>
<path d="M-451.627 156.492C-446.161 162.055 -369.379 232.759 -273.433 252.761C-234.559 260.894 -204.097 256.332 -181.956 242.651C-153.125 225.018 -136.868 190.447 -130.652 149.148C-119.743 77.0977 3.84218 18.6938 62.1051 103.807C89.4887 143.765 119.842 155.679 146.938 146.402C175.959 136.466 200.101 104.88 209.157 59.8827C229.032 -38.7941 332.267 -114.24 410.989 -96.2769C486.833 -78.9533 540.089 -48.3191 602.18 13.9935C608.75 20.4363 615.784 26.3879 623.225 31.8003C682.05 76.1218 768.851 45.5475 853.307 16.0048C886.439 4.53473 922.336 -11.1323 959.307 -16.6606C1069.57 -33.2141 1097.03 -38.4138 1097.03 -38.4138" stroke="#9B9FFE" stroke-width="3" stroke-miterlimit="10"/>
<path d="M-458.085 149.034C-452.194 155.002 -374.431 235.496 -276.027 257.576C-235.72 266.649 -204.507 261.454 -182.099 246.291C-152.846 226.47 -137.186 188.171 -132.986 142.573C-125.342 62.9583 2.67171 -1.38477 61.8529 91.778C89.6587 135.568 121.149 149.683 149.15 141.634C179.554 132.882 204.776 100.489 214.055 53.5302C233.885 -46.6036 346.878 -125.298 427.002 -101.46C502.778 -78.9048 552.729 -42.978 614.633 15.8419C621.314 22.0456 628.421 27.7734 635.903 32.9835C694.27 74.9506 779.507 43.2689 864.598 15.7738C898.047 5.05428 934.212 -8.63989 971.198 -12.5015C1085.5 -24.0884 1110.21 -25.584 1110.21 -25.584" stroke="#959BFE" stroke-width="3" stroke-miterlimit="10"/>
<path d="M-464.59 141.416C-458.266 147.815 -379.3 238.067 -278.648 262.194C-236.941 272.189 -204.982 266.449 -182.291 249.654C-152.589 227.639 -137.849 185.583 -135.358 135.864C-131.005 48.8059 1.4085 -21.5838 61.5079 79.6283C89.7897 127.237 122.364 143.568 151.288 136.71C182.956 129.233 209.499 95.9677 218.921 47.0698C238.653 -54.5066 361.551 -136.547 442.922 -106.763C518.758 -79.0397 565.285 -38.0478 627.162 17.5534C633.941 23.5309 641.123 29.036 648.657 34.0299C706.437 73.5908 790.14 41.0238 875.967 15.5208C909.732 5.55179 946.07 -6.31639 983.147 -8.33036C1101.42 -14.7606 1123.44 -12.769 1123.44 -12.769" stroke="#8F96FE" stroke-width="3" stroke-miterlimit="10"/>
<path d="M-471.021 134.067C-464.266 140.898 -384.21 240.911 -281.23 267.064C-237.983 277.971 -205.371 271.653 -182.445 253.268C-152.286 229.086 -138.296 183.371 -137.685 129.432C-136.602 34.8975 0.218247 -41.512 61.2628 67.7421C89.9936 119.177 123.651 137.723 153.534 132.078C186.438 125.882 214.1 91.7408 223.826 40.8605C243.513 -62.1729 376.363 -147.599 459.022 -111.825C534.972 -78.947 578.131 -32.7896 639.837 19.4874C646.731 25.2278 653.989 30.5182 661.564 35.3256C718.647 72.3944 800.794 38.7468 887.331 15.3577C921.434 6.21982 957.932 -3.76141 995.119 -4.07654C1117.28 -5.12603 1136.7 0.155518 1136.7 0.155518" stroke="#8992FE" stroke-width="3" stroke-miterlimit="10"/>
<path d="M-477.474 126.607C-470.32 133.85 -389.196 243.657 -283.867 271.802C-239.287 283.706 -205.821 276.813 -182.626 256.744C-152.071 230.497 -138.718 181.006 -140.047 122.834C-142.053 20.8609 -1.0349 -61.5986 60.8814 55.7461C90.088 110.999 124.836 131.788 155.643 127.335C189.837 122.407 218.787 87.3733 228.71 34.5393C248.476 -69.8115 391.207 -158.779 474.899 -117.001C551.077 -78.9714 590.611 -27.6375 652.275 21.367C659.296 26.8506 666.636 31.9147 674.254 36.5329C730.772 71.2761 811.435 36.4995 898.625 15.0092C933.03 6.56818 969.677 -1.35042 1006.94 0.0136165C1132.9 4.54216 1149.82 12.8823 1149.82 12.8823" stroke="#848DFE" stroke-width="3" stroke-miterlimit="10"/>
<path d="M-483.932 119.122C-476.372 126.803 -394.209 246.615 -286.462 276.474C-240.508 289.421 -206.314 281.699 -182.805 260.22C-151.835 231.76 -139.251 178.645 -142.399 116.265C-147.764 6.80978 -2.43194 -81.5869 60.63 43.6885C90.2123 102.816 126.158 125.818 157.89 122.558C193.299 118.831 223.484 83.034 233.562 28.1997C253.282 -77.7227 406.181 -170.019 490.812 -122.157C567.272 -78.9893 603.192 -22.6545 664.77 23.2336C671.896 28.4767 679.309 33.3179 686.974 37.7343C742.846 70.1736 821.999 34.275 909.89 14.7571C944.618 7.0935 981.347 1.19815 1018.87 4.16406C1148.37 14.4842 1162.9 25.7395 1162.9 25.7395" stroke="#7E89FE" stroke-width="3" stroke-miterlimit="10"/>
<path d="M-490.403 111.638C-482.465 119.765 -399.148 249.147 -289.069 281.262C-178.99 313.377 -136.016 226.628 -144.766 109.698C-153.515 -7.23209 -3.49536 -101.782 60.3525 31.6939C124.2 165.169 218.848 129.267 238.489 21.8675C258.129 -85.5316 421.283 -181.267 506.926 -127.368C592.57 -73.4692 622.833 -3.20436 699.896 38.8801C776.959 80.9646 897.63 -7.88109 1030.91 8.28058C1164.2 24.4422 1176.36 38.437 1176.36 38.437" stroke="#7884FE" stroke-width="3" stroke-miterlimit="10"/>
</g>
</g>
<circle cx="111.052" cy="111.052" r="111.052" fill="url(#paint0_radial)"/>
</g>
<defs>
<radialGradient id="paint0_radial" cx="0" cy="0" r="1" gradientUnits="userSpaceOnUse" gradientTransform="translate(111.052 108.528) rotate(90) scale(113.576)">
<stop offset="0.571597" stop-color="white" stop-opacity="0"/>
<stop offset="1" stop-color="white"/>
</radialGradient>
</defs>
</svg>
