<?xml version="1.0" encoding="utf-8"?>
<!-- Generator: Adobe Illustrator 24.3.0, SVG Export Plug-In . SVG Version: 6.00 Build 0)  -->
<svg version="1.1" id="Шар_2" xmlns="http://www.w3.org/2000/svg" xmlns:xlink="http://www.w3.org/1999/xlink" x="0px" y="0px"
	 viewBox="0 0 407 618" style="enable-background:new 0 0 407 618;" xml:space="preserve">
<style type="text/css">
	.st0{fill:url(#SVGID_1_);stroke:#FFFFFF;stroke-miterlimit:10;}
</style>
<linearGradient id="SVGID_1_" gradientUnits="userSpaceOnUse" x1="200.7138" y1="613.971" x2="200.7138" y2="37.2001">
	<stop  offset="0.2369" style="stop-color:#4AE892"/>
	<stop  offset="0.9883" style="stop-color:#4AE892;stop-opacity:0"/>
</linearGradient>
<path class="st0" d="M109.73,121.13c0,0,13.7-14.51,14.72-24.98c1.02-10.47,1.66-29.23-0.64-36.89c-2.3-7.66-6.51-13.28-10.6-16.6
	s-18.89-9.57-32.68-1.53S66.88,60.41,67.14,73.3c0,0-5.11-2.55-4.34,3.83c0.77,6.38,6,19.53,9.32,18.26l0.13,13.4
	c0,0-1.79-0.13-3.06,3.32s-1.79,5.11-9.7,8.3s-36.38,13.02-37.15,36.64c0,0-0.26,21.32,12.89,67.15s4.6,82.34,4.6,86.55
	s1.15,8.43-0.38,12.89c-1.53,4.47-1.4,33.32,3.06,42.26c4.47,8.94-1.31,15.56,4.34,23.74c1.47,2.14-3.57,14.68,1.4,26.17
	c0,0,0.64,2.17-1.53,6.77c-2.17,4.6,1.66,3.45-1.79,9.45s3.19,7.15-1.79,13.91s2.04,3.19-1.02,13.91
	c-3.06,10.72-4.34,35.11,0.51,50.3s4.98,45.06,6.89,52.72c1.91,7.66,7.28,20.55,7.28,20.55h1.53c0,0,1.66,2.55-3.96,9.06
	s-10.98,12.64-7.79,15.45c3.19,2.81,2.04,4.09,5.36,3.45c0,0,1.53,2.81,5.11,1.15c0,0,4.09,3.83,7.66-1.02l1.4-2.94l3.06,0.51
	c0,0-1.4,3.45,3.83,3.57c5.23,0.13,9.83-0.13,9.06-3.83c-0.77-3.7-2.3-12.51-0.26-16.98c2.04-4.47,1.53-12.64,1.53-12.64
	s1.66-2.17,1.79-9.19c0.13-7.02,1.02-8.04-0.26-15.19c-1.28-7.15-2.43-50.04-2.43-50.04s1.79-17.87-0.89-25.02
	c-2.68-7.15-1.02-12.77,2.17-14.68c3.19-1.91-4.09-3.96-2.43-7.02c1.66-3.06,4.85-1.15,6.13-8.04s2.68-17.36,4.98-23.11
	s0-7.66,2.81-11.36c2.81-3.7-2.3-9.32,2.55-18.64s7.91-17.49,7.91-17.49s1.28,12.64,6,17.62s1.76,12.93,7.53,21.57
	c2.45,3.67-1.66,9.45,4.21,19.15c0,0,2.74,4.98,1.95,11.23c-0.8,6.26,3.41,4.47,0.99,9.57s2.04,2.3,1.79,9.57
	c-0.26,7.28-1.15,17.87,3.19,32.55s12.77,63.32,12.89,72.26l1.15,0.51c0,0-3.45,12.13,4.85,15.19c8.3,3.06,14.94-4.85,23.49-0.51
	c8.55,4.34,16.6,7.15,21.06,6.64c4.47-0.51,2.94,5.23,11.49,3.19s5.49-3.96,5.49-3.96s9.57,2.55,5.74-3.83
	c-3.83-6.38-9.32-8.3-18.13-9.7c-8.81-1.4-21.7-15.83-21.7-15.83l-2.81-7.28c0,0,2.68-4.34-3.06-10.34c0,0,2.43-39.19-2.3-43.15
	c0,0,2.3-17.74,0.38-34.85c0,0-0.38-7.66-2.55-11.62c-2.17-3.96,3.45-11.74,1.4-18.26c-2.04-6.51-2.3-14.81-1.66-21.83
	c0.64-7.02-0.26-37.4-3.32-52.34c-3.06-14.94-7.28-28.85-7.28-28.85l7.28-1.02c0,0-6-33.32-3.57-40.85c0,0,1.53,2.04,5.49-1.53
	c0,0,18.64,7.02,47.11-2.94c0,0,8.32-1.91,5.63-4.72c0,0,5.99-0.13,4.59-2.81c-1.4-2.68-4.47-2.04-4.47-2.04s3.61-1.64,2.3-3.7
	c-2.68-4.21-31.28,1.66-33.83-8.17c0,0,12.13-3.57,10.98-9.32c-1.15-5.74-8.3-0.89-15.7,0.77s-15.45,4.85-16.72,7.02l-8.68-2.04
	c0,0-5.49-45.83-2.04-55.15c0,0,7.79,7.4,21.45,12.64s16.98,11.49,51.19,19.28c0,0,19.02,9.57,27.7,2.17
	c8.68-7.4,19.91,5.36,29.87,4.34c0,0,3.19,9.7,8.04,12c0,0,1.66,57.57,0.89,69.19c-0.77,11.62,2.43,8.04,2.81,37.4
	c0.38,29.36,1.15,99.32,2.3,106.85c1.15,7.53,4.34,30.77,3.57,46.85c0,0-5.11,4.21-6.13,8.68c-1.02,4.47-10.21,7.15-10.21,6.77
	s-0.38-5.49-1.66-6c-1.28-0.51,1.4,5.49-1.91,8.81s-10.85,9.83-8.55,13.66c2.3,3.83,0.51,5.23,5.74,7.15
	c5.23,1.91,1.91,5.49-1.02,5.49c0,0,4.47-0.38,2.68,3.83s-0.89,10.6-2.43,11.49s4.09-2.81,4.34,1.15
	c0.26,3.96-8.04,12.26-8.04,12.26s7.66-6.89,10.85-7.4c3.19-0.51,3.96-4.72,7.02-3.45c3.06,1.28,2.81,3.32,2.81,3.32
	s-0.13-10.34,3.96-6.13c4.09,4.21,1.66,6.26-0.13,8.55c0,0,2.4-2.68,2.8-1.53s-5.1,7.53-5.1,7.53s4.49-4.72,5.12-3.06
	c0.63,1.66,8.03-9.7,9.05-6.64c1.02,3.06-6.38,7.79-5.49,12.77c0,0,2.94-4.72,3.57-3.32s0,6.26-0.77,7.91
	c-0.77,1.66,2.36-3.7,2.78-2.68c0.41,1.02,2.07,6.64,6.03,6.64c0,0-5.36-5.36-2.68-10.72s3.19-5.23,3.32-4.85
	c0.13,0.38,3.7,3.06,2.94,6.51c0,0-3.23-12.26,0.11-8.94c3.34,3.32,3.59,7.4,3.59,7.4s0.89-7.79,2.94-6.51
	c2.04,1.28,2.3,4.21,2.3,4.21s6.13-8.17,4.47-13.15c0,0,11.11-6.51,3.45-14.68c0,0,6-6.77-5.36-14.94c0,0-19.15-9.57-20.3-20.43
	c-1.15-10.85-4.85-72-4.85-72s0.51-2.43-0.13-6.77c-0.64-4.34-0.51-66.64-1.28-78.13c-0.77-11.49-3.45-79.02-3.32-89.11
	s-0.89-34.47-0.89-34.47s3.7,0.51,2.04-6.89c0,0,2.55-5.74-0.26-10.21c0,0,5.23-3.96,2.04-7.02c-3.19-3.06-4.21-2.17-4.21-2.17
	l0.26-14.94c0,0,33.96,1.79,45.19-9.96c0,0,26.04-6.98,31.15-41.7s-23.49-87.49-42.21-93.62c-34.61-11.33-78.3-9.87-100.43,13.28
	c-12.71,13.3-33.02,58.21-27.4,77.62s10.72,37.79,34.72,44.94c24,7.15,47.49,12.77,49.53,10.21v8c0,0-14.98,5.28-21.28,4.09
	c-6.3-1.19-2.04-4.77-9.87-4.6c-7.83,0.17,2.55-6.64-18.38-4.43c0,0-27.4-8.34-35.06-14.47c-7.66-6.13-40-28.26-42.38-39.32
	c-2.38-11.06-17.74-23.1-29.79-27.23C124.54,127.26,109.73,121.13,109.73,121.13z"/>
</svg>
