<svg width="187" height="187" viewBox="0 0 187 187" fill="none" xmlns="http://www.w3.org/2000/svg">
<path d="M70.1608 104.144C70.1952 104.217 70.2147 104.297 70.2183 104.378C70.2219 104.459 70.2094 104.54 70.1816 104.616C70.1538 104.692 70.1113 104.762 70.0564 104.822C70.0015 104.882 69.9353 104.93 69.8617 104.964L61.4655 108.825C61.3322 108.89 61.1802 108.904 61.0372 108.865C60.8943 108.827 60.77 108.738 60.687 108.615L60.6268 108.529C60.5585 108.379 60.5524 108.208 60.6096 108.053C60.6669 107.898 60.783 107.773 60.9325 107.703L69.3354 103.838C69.4855 103.769 69.6565 103.763 69.8111 103.821C69.9657 103.878 70.0914 103.994 70.1608 104.144Z" fill="#4AE792"/>
<path d="M125.854 79.099L117.458 82.9599C117.309 83.0272 117.14 83.0335 116.987 82.9776C116.833 82.9217 116.708 82.808 116.637 82.6608C116.602 82.5881 116.582 82.5092 116.578 82.4286C116.574 82.348 116.586 82.2674 116.613 82.1915C116.64 82.1155 116.682 82.0458 116.737 81.9862C116.791 81.9267 116.857 81.8785 116.93 81.8446L125.333 77.979C125.407 77.944 125.488 77.9241 125.57 77.9203C125.652 77.9165 125.734 77.929 125.811 77.9569C125.889 77.9849 125.96 78.0279 126.02 78.0833C126.081 78.1388 126.13 78.2057 126.165 78.2802C126.227 78.4306 126.229 78.5988 126.171 78.7508C126.114 78.9028 126 79.0273 125.854 79.099Z" fill="#4AE792"/>
<path d="M43.1288 116.771L43.0686 116.684C43.0336 116.61 43.0137 116.529 43.0099 116.447C43.0061 116.365 43.0185 116.283 43.0465 116.206C43.0745 116.128 43.1175 116.057 43.1729 115.997C43.2284 115.936 43.2953 115.887 43.3698 115.852L53.5684 111.143C53.6434 111.098 53.727 111.07 53.8137 111.059C53.9004 111.049 53.9884 111.057 54.0719 111.083C54.1554 111.108 54.2326 111.151 54.2985 111.208C54.3644 111.266 54.4176 111.336 54.4545 111.415C54.4915 111.495 54.5115 111.581 54.5132 111.668C54.5148 111.755 54.4982 111.842 54.4643 111.922C54.4304 112.003 54.38 112.075 54.3163 112.135C54.2526 112.195 54.1772 112.241 54.0947 112.27L43.8941 116.99C43.7607 117.046 43.612 117.056 43.4727 117.016C43.3334 116.976 43.2121 116.889 43.1288 116.771Z" fill="#4AE792"/>
<path d="M132.458 75.4766L132.393 75.3833C132.358 75.3091 132.338 75.2288 132.335 75.1469C132.331 75.065 132.344 74.9832 132.372 74.9064C132.401 74.8295 132.444 74.7591 132.5 74.6993C132.556 74.6394 132.624 74.5913 132.699 74.5578L142.879 69.8515C143.03 69.782 143.202 69.7752 143.358 69.8328C143.514 69.8903 143.641 70.0074 143.71 70.1583C143.78 70.3092 143.787 70.4815 143.729 70.6374C143.671 70.7933 143.554 70.9199 143.403 70.9894L133.248 75.7177C133.11 75.7825 132.952 75.7937 132.806 75.7491C132.66 75.7046 132.536 75.6074 132.458 75.4766Z" fill="#4AE792"/>
<path d="M68.6455 99.9471C68.6673 100.027 68.6727 100.111 68.6613 100.193C68.6499 100.276 68.622 100.355 68.5793 100.426C68.5365 100.498 68.4798 100.559 68.4125 100.608C68.3452 100.657 68.2687 100.692 68.1877 100.71L59.2624 103.071C59.1387 103.104 59.0078 103.099 58.8874 103.055C58.7669 103.012 58.6628 102.932 58.589 102.827C58.5381 102.774 58.4959 102.714 58.4639 102.648C58.4422 102.567 58.4367 102.483 58.4478 102.401C58.4589 102.318 58.4864 102.239 58.5286 102.167C58.5708 102.096 58.6269 102.033 58.6936 101.983C58.7604 101.934 58.8363 101.898 58.9171 101.878L67.847 99.5238C67.9271 99.4946 68.0124 99.4826 68.0973 99.4885C68.1823 99.4944 68.2651 99.518 68.3404 99.5579C68.4157 99.5979 68.4817 99.6531 68.5343 99.7202C68.5868 99.7872 68.6247 99.8645 68.6455 99.9471Z" fill="#4AE792"/>
<path d="M127.846 84.9507L118.91 87.3093C118.829 87.3311 118.746 87.3365 118.663 87.3251C118.581 87.3137 118.502 87.2858 118.43 87.243C118.359 87.2003 118.297 87.1435 118.248 87.0762C118.2 87.0089 118.165 86.9325 118.146 86.8515C118.125 86.7712 118.119 86.6874 118.131 86.6051C118.142 86.5228 118.17 86.4436 118.213 86.3723C118.255 86.301 118.312 86.2391 118.379 86.1903C118.447 86.1415 118.523 86.1068 118.604 86.0883L127.536 83.723C127.617 83.7013 127.7 83.6958 127.783 83.7069C127.865 83.718 127.945 83.7455 128.016 83.7877C128.088 83.8299 128.151 83.886 128.2 83.9528C128.25 84.0195 128.286 84.0954 128.306 84.1762C128.327 84.2573 128.332 84.3417 128.32 84.4247C128.309 84.5077 128.281 84.5875 128.238 84.6595C128.195 84.7315 128.138 84.7944 128.071 84.8444C128.004 84.8943 127.927 84.9305 127.846 84.9507Z" fill="#4AE792"/>
<path d="M39.892 107.78C39.8507 107.718 39.8197 107.65 39.8002 107.577C39.7773 107.497 39.771 107.413 39.7816 107.33C39.7921 107.247 39.8195 107.167 39.8618 107.095C39.9042 107.023 39.9608 106.961 40.0281 106.911C40.0954 106.862 40.1721 106.826 40.2534 106.808L51.1117 103.943C51.1913 103.922 51.2742 103.917 51.3557 103.928C51.4372 103.939 51.5158 103.966 51.5868 104.008C51.6579 104.049 51.72 104.104 51.7698 104.17C51.8196 104.235 51.856 104.31 51.8769 104.39C51.8978 104.469 51.9029 104.552 51.8918 104.634C51.8806 104.715 51.8536 104.794 51.8121 104.865C51.7706 104.936 51.7156 104.998 51.6501 105.048C51.5846 105.097 51.5099 105.134 51.4304 105.155L40.572 108.019C40.448 108.056 40.3155 108.052 40.1935 108.01C40.0715 107.967 39.966 107.887 39.892 107.78Z" fill="#4AE792"/>
<path d="M135.032 82.6212C134.982 82.5709 134.941 82.5123 134.911 82.4479C134.89 82.3676 134.884 82.2838 134.895 82.2013C134.906 82.1188 134.934 82.0394 134.976 81.9677C135.018 81.896 135.074 81.8335 135.141 81.7837C135.208 81.734 135.284 81.6981 135.365 81.6781L146.218 78.807C146.299 78.7852 146.383 78.7798 146.465 78.7909C146.547 78.802 146.627 78.8295 146.699 78.8717C146.77 78.9139 146.833 78.97 146.883 79.0367C146.932 79.1034 146.968 79.1794 146.988 79.2602C147.03 79.4223 147.005 79.5944 146.92 79.7387C146.836 79.8829 146.697 79.9877 146.535 80.03L135.677 82.8945C135.554 82.9197 135.427 82.907 135.312 82.8582C135.197 82.8094 135.099 82.7267 135.032 82.6212Z" fill="#4AE792"/>
<path d="M67.8894 95.549C67.8991 95.7052 67.849 95.8592 67.7494 95.9799C67.6498 96.1006 67.508 96.1788 67.3528 96.1989L58.1533 96.971C58.0431 96.9819 57.932 96.963 57.8317 96.9163C57.7314 96.8695 57.6455 96.7966 57.583 96.7052C57.5206 96.6169 57.4828 96.5135 57.4736 96.4057C57.4612 96.2396 57.5148 96.0753 57.6227 95.9485C57.7307 95.8216 57.8842 95.7424 58.0502 95.728L67.2497 94.9559C67.3306 94.9529 67.4114 94.9658 67.4874 94.9939C67.5633 95.0221 67.633 95.0649 67.6924 95.12C67.7518 95.175 67.7998 95.2413 67.8336 95.3149C67.8674 95.3885 67.8863 95.4681 67.8894 95.549Z" fill="#4AE792"/>
<path d="M128.789 91.0557L119.603 91.8185C119.447 91.8262 119.294 91.7755 119.174 91.6762C119.054 91.5769 118.975 91.4363 118.953 91.2819C118.943 91.1256 118.994 90.9716 119.095 90.8518C119.196 90.732 119.339 90.6557 119.494 90.6387L128.7 89.8619C128.857 89.8523 129.011 89.9023 129.131 90.0019C129.252 90.1016 129.33 90.2434 129.35 90.3985C129.359 90.5593 129.306 90.7173 129.202 90.8397C129.097 90.9622 128.949 91.0395 128.789 91.0557Z" fill="#4AE792"/>
<path d="M38.264 98.358C38.2016 98.2696 38.1638 98.1662 38.1546 98.0584C38.1469 97.9027 38.1976 97.7497 38.2969 97.6294C38.3962 97.5092 38.5368 97.4304 38.6912 97.4086L49.8932 96.46C50.052 96.457 50.2059 96.5147 50.3237 96.6211C50.4415 96.7276 50.5144 96.8749 50.5275 97.0331C50.5406 97.1913 50.493 97.3486 50.3943 97.4731C50.2957 97.5975 50.1534 97.6797 49.9963 97.7029L38.7943 98.6515C38.6884 98.6509 38.5844 98.6236 38.4918 98.5723C38.3991 98.5211 38.3208 98.4473 38.264 98.358Z" fill="#4AE792"/>
<path d="M136.323 90.106C136.26 90.0177 136.223 89.9143 136.213 89.8065C136.204 89.6503 136.254 89.4963 136.353 89.3756C136.453 89.2549 136.595 89.1766 136.75 89.1566L147.952 88.208C148.116 88.1968 148.278 88.2501 148.404 88.3565C148.53 88.4629 148.609 88.614 148.625 88.7779C148.635 88.9341 148.585 89.0881 148.485 89.2088C148.385 89.3295 148.244 89.4077 148.088 89.4278L136.886 90.3764C136.777 90.384 136.668 90.363 136.569 90.3156C136.47 90.2682 136.385 90.196 136.323 90.106Z" fill="#4AE792"/>
<path d="M67.9141 91.0877C67.9002 91.2506 67.8222 91.4014 67.6972 91.5069C67.5722 91.6124 67.4104 91.6638 67.2474 91.65L58.039 90.8171C57.8739 90.7999 57.7221 90.7185 57.6164 90.5904C57.5108 90.4624 57.4596 90.2979 57.4741 90.1325C57.4811 90.0509 57.5043 89.9716 57.5424 89.8991C57.5804 89.8266 57.6325 89.7624 57.6956 89.7103C57.7587 89.6581 57.8316 89.6191 57.9099 89.5953C57.9883 89.5716 58.0706 89.5638 58.152 89.5722L67.3604 90.4051C67.4418 90.413 67.5208 90.4369 67.5929 90.4756C67.665 90.5143 67.7286 90.567 67.7801 90.6305C67.8316 90.694 67.87 90.7671 67.893 90.8456C67.916 90.9241 67.9232 91.0064 67.9141 91.0877Z" fill="#4AE792"/>
<path d="M128.661 97.2424L119.46 96.4048C119.296 96.3885 119.145 96.3081 119.04 96.1811C118.935 96.0542 118.884 95.8909 118.899 95.7269C118.915 95.5642 118.994 95.4144 119.12 95.3102C119.246 95.206 119.408 95.156 119.57 95.1712L128.772 96.0087C128.854 96.015 128.934 96.0375 129.006 96.0748C129.079 96.1122 129.144 96.1638 129.197 96.2264C129.25 96.2891 129.29 96.3617 129.314 96.4399C129.338 96.5182 129.347 96.6005 129.339 96.6821C129.321 96.8451 129.24 96.9946 129.113 97.0992C128.987 97.2037 128.825 97.2551 128.661 97.2424Z" fill="#4AE792"/>
<path d="M38.2943 88.8076C38.2253 88.7097 38.186 88.5941 38.1809 88.4745C38.1758 88.3549 38.2052 88.2363 38.2656 88.1329C38.3259 88.0295 38.4147 87.9457 38.5213 87.8913C38.628 87.8369 38.748 87.8143 38.8672 87.8261L50.0536 88.8455C50.1353 88.8517 50.215 88.8742 50.2879 88.9116C50.3608 88.9489 50.4256 89.0005 50.4784 89.0632C50.5312 89.1258 50.5709 89.1984 50.5953 89.2766C50.6198 89.3549 50.6284 89.4372 50.6206 89.5188C50.605 89.6842 50.5249 89.8369 50.3977 89.9439C50.2705 90.0508 50.1063 90.1035 49.9406 90.0904L38.7356 89.0444C38.6494 89.039 38.5653 89.0151 38.4891 88.9742C38.4129 88.9334 38.3465 88.8765 38.2943 88.8076Z" fill="#4AE792"/>
<path d="M136.3 97.7063C136.233 97.6089 136.195 97.4944 136.191 97.3763C136.186 97.2581 136.215 97.1411 136.275 97.0388C136.334 96.9365 136.421 96.8531 136.526 96.7984C136.631 96.7436 136.749 96.7197 136.867 96.7294L148.06 97.7441C148.225 97.7597 148.378 97.8398 148.485 97.967C148.592 98.0942 148.644 98.2584 148.631 98.4241C148.614 98.5892 148.533 98.741 148.405 98.8467C148.277 98.9523 148.112 99.0035 147.947 98.9891L136.75 97.9969C136.658 97.9853 136.57 97.9532 136.492 97.9028C136.414 97.8525 136.349 97.7853 136.3 97.7063Z" fill="#4AE792"/>
<path d="M68.699 86.6923C68.6784 86.7699 68.6427 86.8426 68.5939 86.9063C68.5451 86.97 68.4841 87.0234 68.4146 87.0634C68.3451 87.1035 68.2684 87.1294 68.1888 87.1397C68.1092 87.15 68.0284 87.1445 67.951 87.1234L59.0335 84.7044C58.888 84.6695 58.7604 84.5822 58.6752 84.4593C58.6233 84.3838 58.5886 84.2978 58.5736 84.2075C58.5586 84.1171 58.5637 84.0246 58.5884 83.9364C58.6096 83.8572 58.6463 83.7831 58.6964 83.7182C58.7466 83.6534 58.8091 83.5992 58.8804 83.5588C58.9517 83.5185 59.0304 83.4927 59.1118 83.483C59.1931 83.4734 59.2756 83.4801 59.3544 83.5027L68.2786 85.9171C68.4369 85.9644 68.57 86.0726 68.6488 86.2179C68.7276 86.3632 68.7457 86.5338 68.699 86.6923Z" fill="#4AE792"/>
<path d="M127.468 103.3L118.539 100.879C118.382 100.836 118.248 100.731 118.167 100.589C118.087 100.446 118.066 100.278 118.11 100.12C118.153 99.9624 118.256 99.8279 118.397 99.7462C118.539 99.6645 118.707 99.6422 118.865 99.6844L127.787 102.11C127.866 102.131 127.941 102.167 128.006 102.216C128.071 102.266 128.126 102.328 128.167 102.398C128.208 102.469 128.234 102.548 128.245 102.629C128.255 102.71 128.249 102.792 128.227 102.871C128.182 103.028 128.077 103.16 127.935 103.24C127.793 103.32 127.626 103.342 127.468 103.3Z" fill="#4AE792"/>
<path d="M39.9818 79.3976C39.9094 79.2921 39.8711 79.167 39.8721 79.0391C39.8732 78.9111 39.9134 78.7866 39.9875 78.6823C40.0616 78.578 40.1658 78.4989 40.2863 78.4558C40.4067 78.4126 40.5375 78.4075 40.6609 78.441L51.5069 81.3874C51.6677 81.4303 51.805 81.5352 51.8885 81.6793C51.9719 81.8233 51.9947 81.9946 51.9519 82.1554C51.9091 82.3163 51.8041 82.4535 51.6601 82.537C51.516 82.6205 51.3448 82.6433 51.1839 82.6004L40.3426 79.6607C40.1947 79.6191 40.0666 79.5257 39.9818 79.3976Z" fill="#4AE792"/>
<path d="M134.949 105.178C134.895 105.103 134.859 105.017 134.844 104.926C134.829 104.836 134.835 104.743 134.862 104.655C134.883 104.576 134.92 104.502 134.97 104.437C135.02 104.372 135.082 104.318 135.154 104.277C135.225 104.237 135.304 104.211 135.385 104.202C135.466 104.192 135.549 104.199 135.628 104.221L146.469 107.161C146.629 107.205 146.765 107.31 146.849 107.454C146.932 107.597 146.955 107.768 146.914 107.929C146.869 108.089 146.762 108.224 146.618 108.306C146.473 108.388 146.302 108.41 146.141 108.367L135.3 105.428C135.158 105.387 135.033 105.299 134.949 105.178Z" fill="#4AE792"/>
<path d="M70.2449 82.4989C70.1748 82.6389 70.0534 82.7464 69.906 82.7992C69.7586 82.8519 69.5966 82.8459 69.4535 82.7823L61.094 78.8485C60.9932 78.8012 60.9059 78.7293 60.84 78.6396C60.7611 78.5263 60.722 78.3901 60.7287 78.2522C60.7353 78.1143 60.7875 77.9825 60.877 77.8774C60.9665 77.7723 61.0882 77.6998 61.2233 77.6711C61.3583 77.6425 61.499 77.6594 61.6235 77.7192L69.983 81.653C70.0575 81.6895 70.1237 81.7409 70.1775 81.8039C70.2314 81.8669 70.2719 81.9403 70.2964 82.0195C70.321 82.0987 70.329 82.1821 70.3202 82.2645C70.3113 82.3469 70.2857 82.4267 70.2449 82.4989Z" fill="#4AE792"/>
<path d="M125.228 109.068L116.869 105.134C116.73 105.063 116.624 104.941 116.571 104.794C116.519 104.647 116.524 104.486 116.585 104.343C116.658 104.204 116.781 104.099 116.929 104.047C117.076 103.996 117.238 104.003 117.381 104.066L125.741 108C125.88 108.076 125.985 108.203 126.034 108.354C126.083 108.505 126.073 108.669 126.005 108.813C125.938 108.957 125.818 109.069 125.671 109.128C125.523 109.187 125.359 109.187 125.211 109.129L125.228 109.068Z" fill="#4AE792"/>
<path d="M43.2832 70.4351C43.2193 70.3448 43.1809 70.2388 43.172 70.1285C43.1631 70.0182 43.1841 69.9075 43.2327 69.808C43.3048 69.66 43.4317 69.5459 43.5866 69.4899C43.7414 69.4339 43.912 69.4404 44.0621 69.5081L54.2327 74.298C54.3718 74.3745 54.4766 74.5011 54.5257 74.6521C54.5749 74.8031 54.5647 74.9671 54.4973 75.1109C54.4299 75.2547 54.3103 75.3674 54.1628 75.4261C54.0153 75.4849 53.851 75.4853 53.7032 75.4273L43.5326 70.6374C43.4331 70.5932 43.347 70.5234 43.2832 70.4351Z" fill="#4AE792"/>
<path d="M132.333 112.314C132.271 112.223 132.234 112.117 132.226 112.007C132.217 111.898 132.236 111.787 132.282 111.687C132.318 111.613 132.368 111.547 132.429 111.492C132.49 111.437 132.561 111.395 132.639 111.368C132.716 111.341 132.798 111.329 132.88 111.333C132.962 111.338 133.042 111.358 133.116 111.394L143.287 116.184C143.424 116.258 143.529 116.381 143.58 116.528C143.631 116.676 143.625 116.837 143.564 116.98C143.492 117.128 143.365 117.242 143.21 117.298C143.055 117.354 142.885 117.348 142.734 117.28L132.564 112.49C132.475 112.449 132.396 112.389 132.333 112.314Z" fill="#4AE792"/>
<path d="M72.4863 78.6438C72.441 78.7144 72.3816 78.7749 72.3118 78.8215C72.2421 78.868 72.1634 78.8997 72.0808 78.9144C71.9983 78.9291 71.9135 78.9266 71.832 78.907C71.7504 78.8874 71.6738 78.8512 71.6069 78.8006L64.0555 73.4844C64.0044 73.4316 63.9621 73.3709 63.9304 73.3045C63.8569 73.2005 63.8174 73.0763 63.8173 72.9489C63.8172 72.8215 63.8566 72.6972 63.93 72.5931C64.0261 72.456 64.1725 72.3625 64.3374 72.3331C64.5022 72.3038 64.6719 72.3409 64.8095 72.4363L72.3034 77.8122C72.435 77.9007 72.5274 78.0365 72.5614 78.1914C72.5955 78.3463 72.5686 78.5083 72.4863 78.6438Z" fill="#4AE792"/>
<path d="M122.024 114.351L114.479 109.031C114.409 108.985 114.35 108.926 114.304 108.857C114.258 108.788 114.226 108.71 114.211 108.628C114.196 108.546 114.197 108.462 114.215 108.381C114.233 108.3 114.267 108.223 114.316 108.156C114.359 108.084 114.418 108.023 114.487 107.976C114.556 107.928 114.634 107.896 114.717 107.88C114.799 107.865 114.884 107.867 114.965 107.886C115.047 107.905 115.124 107.942 115.19 107.992L122.746 113.315C122.881 113.411 122.973 113.557 123 113.721C123.028 113.884 122.989 114.052 122.893 114.187C122.797 114.322 122.651 114.413 122.487 114.441C122.324 114.468 122.156 114.43 122.021 114.333L122.024 114.351Z" fill="#4AE792"/>
<path d="M48.0915 62.1683C48.0105 62.0476 47.9741 61.9024 47.9886 61.7578C48.0031 61.6132 48.0675 61.4782 48.1708 61.3759C48.2741 61.2737 48.4098 61.2106 48.5545 61.1976C48.6993 61.1846 48.8441 61.2225 48.9639 61.3047L58.1385 67.7756C58.2134 67.819 58.2784 67.8775 58.3295 67.9473C58.3806 68.0172 58.4166 68.0969 58.4352 68.1814C58.4539 68.2659 58.4548 68.3534 58.4379 68.4382C58.421 68.5231 58.3866 68.6035 58.337 68.6744C58.2874 68.7453 58.2236 68.8052 58.1497 68.8501C58.0757 68.8951 57.9933 68.9242 57.9075 68.9356C57.8217 68.947 57.7345 68.9405 57.6514 68.9164C57.5682 68.8924 57.491 68.8513 57.4246 68.7959L48.2433 62.3296C48.1842 62.2845 48.133 62.23 48.0915 62.1683Z" fill="#4AE792"/>
<path d="M128.531 118.873C128.449 118.753 128.41 118.608 128.424 118.462C128.437 118.317 128.5 118.181 128.603 118.077C128.706 117.974 128.843 117.91 128.988 117.896C129.133 117.883 129.279 117.92 129.399 118.003L138.58 124.469C138.647 124.517 138.704 124.577 138.748 124.647C138.791 124.716 138.821 124.794 138.834 124.875C138.848 124.956 138.845 125.039 138.827 125.119C138.809 125.199 138.775 125.274 138.727 125.341C138.679 125.408 138.619 125.465 138.549 125.508C138.48 125.552 138.402 125.581 138.321 125.595C138.241 125.608 138.158 125.606 138.078 125.588C137.998 125.569 137.922 125.535 137.855 125.488L128.674 119.021C128.619 118.98 128.571 118.93 128.531 118.873Z" fill="#4AE792"/>
<path d="M75.3675 75.2388C75.3109 75.2966 75.2433 75.3426 75.1688 75.374C75.0942 75.4054 75.0141 75.4217 74.9332 75.4218C74.8523 75.4219 74.7722 75.4059 74.6975 75.3747C74.6229 75.3435 74.5552 75.2977 74.4985 75.24L67.9615 68.7243L67.8967 68.631C67.8057 68.5025 67.7666 68.3443 67.7872 68.1882C67.8078 68.0321 67.8866 67.8895 68.0078 67.7889C68.129 67.6884 68.2837 67.6374 68.441 67.646C68.5982 67.6546 68.7464 67.7223 68.8559 67.8355L75.3821 74.3785C75.4923 74.4955 75.5523 74.6509 75.5496 74.8116C75.5468 74.9723 75.4815 75.1255 75.3675 75.2388Z" fill="#4AE792"/>
<path d="M117.942 118.983L111.416 112.44C111.358 112.383 111.312 112.314 111.28 112.239C111.249 112.164 111.233 112.083 111.234 112.002C111.234 111.92 111.251 111.84 111.283 111.765C111.315 111.69 111.362 111.622 111.421 111.566C111.537 111.451 111.693 111.387 111.855 111.386C112.018 111.386 112.174 111.45 112.29 111.565L118.821 118.114C118.888 118.17 118.943 118.239 118.982 118.318C119.021 118.396 119.043 118.481 119.047 118.569C119.05 118.656 119.036 118.743 119.004 118.824C118.972 118.906 118.923 118.979 118.861 119.041C118.799 119.102 118.724 119.15 118.642 119.18C118.561 119.211 118.473 119.224 118.386 119.219C118.299 119.214 118.214 119.191 118.136 119.151C118.058 119.111 117.99 119.055 117.935 118.987L117.942 118.983Z" fill="#4AE792"/>
<path d="M54.2533 54.8685C54.1701 54.7492 54.1317 54.6043 54.1449 54.4595C54.1582 54.3146 54.2222 54.1791 54.3256 54.0769C54.3835 54.0181 54.4523 53.9714 54.5283 53.9394C54.6043 53.9073 54.6859 53.8907 54.7683 53.8903C54.8507 53.8899 54.9324 53.9059 55.0087 53.9373C55.0849 53.9686 55.1542 54.0148 55.2126 54.073L63.1312 62.0498C63.1984 62.1056 63.2532 62.1748 63.2921 62.2531C63.3309 62.3313 63.3529 62.4168 63.3567 62.5041C63.3604 62.5914 63.3458 62.6785 63.3139 62.7597C63.2819 62.841 63.2332 62.9147 63.171 62.976C63.1088 63.0373 63.0344 63.0849 62.9526 63.1157C62.8709 63.1465 62.7836 63.1598 62.6964 63.1548C62.6092 63.1498 62.524 63.1265 62.4463 63.0865C62.3686 63.0465 62.3002 62.9907 62.2455 62.9227L54.3248 54.9571L54.2533 54.8685Z" fill="#4AE792"/>
<path d="M123.615 124.684C123.563 124.621 123.524 124.549 123.5 124.471C123.476 124.394 123.467 124.312 123.475 124.231C123.482 124.15 123.506 124.071 123.544 124C123.581 123.928 123.633 123.864 123.696 123.812C123.758 123.76 123.83 123.721 123.908 123.697C123.986 123.673 124.067 123.664 124.148 123.672C124.229 123.679 124.308 123.703 124.38 123.741C124.452 123.779 124.515 123.83 124.567 123.893L132.488 131.858C132.546 131.917 132.591 131.986 132.622 132.062C132.653 132.139 132.669 132.22 132.668 132.302C132.667 132.385 132.65 132.466 132.618 132.541C132.586 132.617 132.539 132.686 132.481 132.743C132.423 132.802 132.355 132.848 132.279 132.88C132.203 132.911 132.122 132.928 132.04 132.928C131.958 132.927 131.877 132.911 131.802 132.879C131.726 132.848 131.658 132.801 131.6 132.742L123.682 124.766L123.615 124.684Z" fill="#4AE792"/>
<path d="M78.9539 71.5273C79.0473 71.6616 79.0835 71.8275 79.0545 71.9885C79.0256 72.1495 78.9339 72.2924 78.7996 72.3858C78.6653 72.4792 78.4994 72.5154 78.3384 72.4865C78.1774 72.4575 78.0345 72.3658 77.9411 72.2315L72.6641 64.642C72.6141 64.5707 72.5795 64.4898 72.5626 64.4044C72.5458 64.319 72.5469 64.231 72.566 64.146C72.5851 64.0611 72.6218 63.981 72.6736 63.9111C72.7255 63.8411 72.7914 63.7828 72.8671 63.7398C73.0079 63.666 73.171 63.6465 73.3253 63.685C73.4796 63.7235 73.6144 63.8173 73.7041 63.9485L78.9539 71.5273Z" fill="#4AE792"/>
<path d="M114.05 123.001C113.984 123.057 113.906 123.098 113.822 123.123C113.739 123.147 113.651 123.153 113.565 123.142C113.478 123.13 113.395 123.1 113.321 123.055C113.247 123.009 113.183 122.949 113.134 122.877L107.857 115.288C107.763 115.153 107.727 114.987 107.756 114.826C107.785 114.665 107.877 114.522 108.011 114.429C108.145 114.336 108.311 114.299 108.472 114.328C108.633 114.357 108.776 114.449 108.87 114.583L114.133 122.153C114.224 122.28 114.265 122.436 114.25 122.592C114.235 122.748 114.164 122.893 114.05 123.001Z" fill="#4AE792"/>
<path d="M68.0129 57.9806L61.5962 48.7519C61.5016 48.6159 61.4649 48.4478 61.4942 48.2847C61.5236 48.1215 61.6165 47.9767 61.7526 47.8821C61.8886 47.7875 62.0567 47.7508 62.2198 47.7802C62.383 47.8095 62.5278 47.9024 62.6224 48.0385L69.0391 57.2671C69.1337 57.4032 69.1704 57.5713 69.141 57.7344C69.1117 57.8975 69.0188 58.0423 68.8827 58.1369C68.7467 58.2315 68.5786 58.2682 68.4154 58.2389C68.2523 58.2096 68.1075 58.1167 68.0129 57.9806Z" fill="#4AE792"/>
<path d="M124.188 138.773L117.776 129.551C117.729 129.484 117.696 129.408 117.678 129.328C117.661 129.247 117.659 129.165 117.674 129.084C117.688 129.003 117.719 128.926 117.763 128.857C117.807 128.788 117.865 128.728 117.932 128.681C118 128.634 118.076 128.601 118.156 128.584C118.236 128.566 118.319 128.565 118.4 128.579C118.48 128.594 118.557 128.624 118.626 128.668C118.696 128.713 118.755 128.77 118.802 128.838L125.214 138.06C125.261 138.127 125.294 138.203 125.312 138.283C125.329 138.363 125.331 138.446 125.316 138.527C125.302 138.608 125.271 138.685 125.227 138.754C125.183 138.823 125.125 138.883 125.058 138.929C124.99 138.976 124.914 139.009 124.834 139.027C124.754 139.044 124.671 139.046 124.591 139.031C124.51 139.017 124.433 138.987 124.364 138.942C124.294 138.898 124.235 138.84 124.188 138.773Z" fill="#4AE792"/>
<path d="M79.1021 60.9786L82.9492 69.3548C83.0162 69.5031 83.0219 69.6719 82.965 69.8244C82.9081 69.977 82.7932 70.1008 82.6454 70.169C82.5721 70.2045 82.4924 70.2249 82.411 70.229C82.3296 70.2332 82.2483 70.2209 82.1717 70.193C82.0952 70.1651 82.025 70.1221 81.9654 70.0666C81.9057 70.0111 81.8579 69.9442 81.8246 69.8698L77.9636 61.4737C77.9244 61.3923 77.9033 61.3033 77.9018 61.213C77.9003 61.1226 77.9184 61.033 77.9549 60.9503C77.9914 60.8676 78.0454 60.7939 78.1131 60.7341C78.1809 60.6743 78.2608 60.6299 78.3474 60.6039C78.4972 60.5664 78.6555 60.5835 78.7938 60.6522C78.9321 60.7209 79.0414 60.8366 79.1021 60.9786Z" fill="#4AE792"/>
<path d="M108.551 126.162C108.417 126.224 108.265 126.238 108.123 126.199C107.98 126.161 107.856 126.073 107.772 125.952L107.712 125.865L103.846 117.462C103.812 117.389 103.793 117.31 103.789 117.229C103.786 117.148 103.799 117.067 103.827 116.992C103.855 116.916 103.899 116.846 103.954 116.787C104.009 116.729 104.076 116.681 104.15 116.648C104.223 116.614 104.303 116.594 104.384 116.591C104.465 116.587 104.546 116.6 104.622 116.628C104.699 116.655 104.769 116.698 104.828 116.753C104.888 116.808 104.937 116.874 104.971 116.947L108.832 125.344C108.897 125.49 108.905 125.656 108.853 125.808C108.8 125.96 108.692 126.087 108.551 126.162Z" fill="#4AE792"/>
<path d="M74.614 54.2135L74.5538 54.1268L69.8336 43.9262C69.7987 43.852 69.7789 43.7717 69.7754 43.6898C69.772 43.6079 69.7848 43.5262 69.8133 43.4493C69.8418 43.3725 69.8853 43.3021 69.9413 43.2422C69.9972 43.1824 70.0646 43.1343 70.1394 43.1007C70.2138 43.0658 70.2943 43.0458 70.3765 43.042C70.4586 43.0382 70.5406 43.0507 70.6179 43.0786C70.6952 43.1066 70.7663 43.1496 70.8269 43.205C70.8876 43.2605 70.9367 43.3274 70.9715 43.4019L75.6804 53.6005C75.7623 53.7428 75.7843 53.9118 75.7416 54.0703C75.6989 54.2289 75.595 54.3639 75.4527 54.4458C75.3104 54.5277 75.1414 54.5497 74.9829 54.507C74.8243 54.4643 74.6893 54.3604 74.6074 54.2181L74.614 54.2135Z" fill="#4AE792"/>
<path d="M115.898 143.528L115.833 143.435L111.124 133.236C111.089 133.162 111.069 133.081 111.065 132.999C111.062 132.917 111.074 132.835 111.102 132.758C111.13 132.681 111.173 132.61 111.228 132.549C111.284 132.488 111.351 132.439 111.425 132.404C111.576 132.338 111.746 132.333 111.9 132.39C112.054 132.447 112.18 132.562 112.251 132.71L116.971 142.911C117.005 142.986 117.024 143.067 117.027 143.149C117.03 143.232 117.017 143.314 116.987 143.391C116.958 143.468 116.914 143.539 116.858 143.599C116.801 143.659 116.734 143.707 116.658 143.741C116.527 143.8 116.379 143.811 116.24 143.772C116.101 143.733 115.98 143.647 115.898 143.528Z" fill="#4AE792"/>
<path d="M84.9189 58.9912L87.2729 67.9211C87.2958 68.0014 87.3021 68.0856 87.2915 68.1684C87.2809 68.2513 87.2536 68.3311 87.2112 68.4031C87.1688 68.4751 87.1123 68.5377 87.045 68.5872C86.9777 68.6367 86.901 68.672 86.8196 68.6909C86.7393 68.7138 86.6552 68.7202 86.5723 68.7096C86.4894 68.699 86.4096 68.6716 86.3376 68.6293C86.2656 68.5869 86.203 68.5303 86.1535 68.463C86.1041 68.3957 86.0688 68.3191 86.0498 68.2377L83.6912 59.3011C83.6496 59.1389 83.6739 58.9669 83.7589 58.8226C83.8438 58.6783 83.9824 58.5736 84.1444 58.5313C84.308 58.4907 84.4811 58.5163 84.626 58.6023C84.7709 58.6884 84.8762 58.8281 84.9189 58.9912Z" fill="#4AE792"/>
<path d="M102.626 128.293C102.503 128.326 102.373 128.32 102.254 128.275C102.134 128.231 102.032 128.15 101.96 128.045C101.91 127.995 101.869 127.936 101.839 127.872L99.5145 118.941C99.4926 118.861 99.4873 118.777 99.4987 118.695C99.51 118.613 99.538 118.534 99.5807 118.462C99.6235 118.391 99.6802 118.329 99.7475 118.28C99.8148 118.232 99.8913 118.197 99.9723 118.178C100.053 118.157 100.136 118.151 100.219 118.162C100.301 118.173 100.381 118.201 100.453 118.243C100.524 118.285 100.587 118.341 100.636 118.408C100.686 118.475 100.722 118.551 100.742 118.632L103.103 127.557C103.136 127.718 103.105 127.885 103.015 128.023C102.926 128.161 102.787 128.258 102.626 128.293Z" fill="#4AE792"/>
<path d="M81.7653 51.6149C81.7162 51.5639 81.6756 51.5054 81.6449 51.4416L78.7804 40.5833C78.7381 40.4226 78.7614 40.2517 78.8452 40.1082C78.9289 39.9647 79.0662 39.8604 79.2269 39.8181C79.3876 39.7759 79.5585 39.7992 79.702 39.8829C79.8455 39.9667 79.9499 40.104 79.9921 40.2647L82.8566 51.123C82.8742 51.2562 82.8485 51.3915 82.7832 51.5089C82.7178 51.6263 82.6164 51.7196 82.4939 51.7748C82.3714 51.83 82.2344 51.8442 82.1031 51.8154C81.9719 51.7866 81.8534 51.7163 81.7653 51.6149Z" fill="#4AE792"/>
<path d="M106.913 146.764C106.863 146.714 106.823 146.655 106.793 146.591L103.928 135.733C103.899 135.651 103.888 135.564 103.894 135.478C103.901 135.392 103.925 135.308 103.966 135.231C104.006 135.155 104.062 135.088 104.13 135.034C104.198 134.98 104.276 134.941 104.36 134.92C104.444 134.898 104.531 134.894 104.616 134.907C104.702 134.921 104.784 134.952 104.856 134.999C104.929 135.046 104.991 135.108 105.039 135.18C105.087 135.252 105.119 135.333 105.133 135.419L108.005 146.272C108.04 146.413 108.025 146.562 107.962 146.693C107.9 146.825 107.793 146.93 107.662 146.991C107.53 147.052 107.381 147.066 107.24 147.029C107.1 146.992 106.976 146.907 106.891 146.789L106.913 146.764Z" fill="#4AE792"/>
<path d="M91.0546 58.0231L91.8313 67.2293C91.8391 67.385 91.7877 67.538 91.6872 67.6573C91.5868 67.7767 91.4449 67.8536 91.2901 67.8725C91.1339 67.8821 90.9799 67.8321 90.8592 67.7325C90.7385 67.6328 90.6603 67.4911 90.6402 67.3359L89.8701 58.1251C89.8624 58.0433 89.8712 57.9608 89.8958 57.8824C89.9204 57.804 89.9604 57.7313 90.0135 57.6686C90.0666 57.6059 90.1317 57.5545 90.2049 57.5173C90.2782 57.4801 90.3581 57.4579 90.4401 57.452C90.5951 57.454 90.7438 57.5136 90.8574 57.6191C90.971 57.7246 91.0412 57.8686 91.0546 58.0231Z" fill="#4AE792"/>
<path d="M96.4358 129.367C96.3258 129.377 96.2153 129.357 96.1153 129.31C96.0152 129.264 95.9291 129.192 95.8655 129.102C95.805 129.011 95.7695 128.906 95.7627 128.798L94.986 119.591C94.9763 119.435 95.0264 119.281 95.126 119.16C95.2256 119.04 95.3674 118.962 95.5226 118.941C95.6788 118.932 95.8328 118.982 95.9535 119.081C96.0742 119.181 96.1524 119.323 96.1725 119.478L96.9492 128.684C96.9644 128.842 96.9202 128.999 96.8252 129.126C96.7301 129.252 96.5912 129.338 96.4358 129.367Z" fill="#4AE792"/>
<path d="M89.237 50.3321C89.1765 50.2415 89.1411 50.1366 89.1343 50.0279L88.1857 38.8259C88.1827 38.6672 88.2403 38.5133 88.3468 38.3954C88.4533 38.2776 88.6006 38.2048 88.7588 38.1916C88.917 38.1785 89.0743 38.2261 89.1988 38.3248C89.3232 38.4234 89.4053 38.5657 89.4286 38.7228L90.3772 49.9248C90.39 50.0629 90.3565 50.2014 90.2819 50.3184C90.2073 50.4354 90.0959 50.5243 89.9652 50.571C89.8345 50.6176 89.692 50.6195 89.5602 50.5762C89.4283 50.533 89.3146 50.4471 89.237 50.3321Z" fill="#4AE792"/>
<path d="M97.4898 148.395C97.4293 148.304 97.3938 148.199 97.387 148.09L96.4384 136.888C96.4259 136.804 96.4308 136.718 96.4529 136.635C96.475 136.553 96.5138 136.475 96.5669 136.409C96.62 136.342 96.6863 136.286 96.7616 136.246C96.8369 136.206 96.9197 136.181 97.0049 136.174C97.09 136.167 97.1757 136.177 97.2567 136.205C97.3376 136.232 97.4121 136.276 97.4755 136.333C97.5389 136.39 97.5899 136.46 97.6253 136.538C97.6607 136.616 97.6798 136.7 97.6814 136.785L98.63 147.987C98.6412 148.152 98.5879 148.314 98.4815 148.439C98.3751 148.565 98.2239 148.644 98.06 148.66C97.9499 148.671 97.8388 148.652 97.7385 148.606C97.6381 148.559 97.5522 148.486 97.4898 148.395Z" fill="#4AE792"/>
<path d="M97.203 58.1791L96.3654 67.3809C96.35 67.5435 96.2706 67.6934 96.1447 67.7976C96.0189 67.9017 95.8568 67.9517 95.6942 67.9366C95.5315 67.9211 95.3816 67.8417 95.2775 67.7159C95.1733 67.59 95.1233 67.428 95.1385 67.2653L95.976 58.0636C95.9919 57.8979 96.0729 57.7452 96.2013 57.6393C96.3297 57.5333 96.4949 57.4827 96.6606 57.4986C96.8263 57.5145 96.9789 57.5955 97.0849 57.7239C97.1908 57.8523 97.2414 58.0175 97.2256 58.1832L97.203 58.1791Z" fill="#4AE792"/>
<path d="M90.1407 129.344C90.0494 129.336 89.9609 129.309 89.8814 129.263C89.8019 129.218 89.7334 129.155 89.6808 129.081C89.5978 128.961 89.5599 128.816 89.5737 128.671L90.3933 119.472C90.4096 119.308 90.49 119.157 90.617 119.052C90.7439 118.947 90.9072 118.896 91.0712 118.911C91.1522 118.918 91.231 118.941 91.303 118.978C91.375 119.016 91.4388 119.067 91.4906 119.13C91.5423 119.192 91.5811 119.265 91.6045 119.342C91.6279 119.42 91.6356 119.502 91.6269 119.582L90.794 128.791C90.776 128.949 90.6983 129.094 90.5769 129.197C90.4555 129.3 90.2995 129.352 90.1407 129.344Z" fill="#4AE792"/>
<path d="M96.8333 50.3572C96.7504 50.2375 96.7124 50.0922 96.7263 49.9473L97.741 38.7541C97.7566 38.5887 97.8367 38.436 97.9639 38.329C98.0911 38.2221 98.2553 38.1694 98.421 38.1825C98.5861 38.1997 98.7379 38.2811 98.8435 38.4092C98.9492 38.5373 99.0003 38.7017 98.9859 38.8671L97.9666 50.0536C97.9603 50.1353 97.9378 50.2149 97.9005 50.2879C97.8631 50.3608 97.8116 50.4255 97.7489 50.4783C97.6862 50.5311 97.6136 50.5709 97.5354 50.5953C97.4572 50.6197 97.3748 50.6283 97.2933 50.6206C97.2016 50.6148 97.1124 50.588 97.0327 50.5423C96.9529 50.4967 96.8847 50.4333 96.8333 50.3572Z" fill="#4AE792"/>
<path d="M87.9372 148.362C87.853 148.241 87.8135 148.093 87.8255 147.946L88.8449 136.759C88.8511 136.678 88.8736 136.598 88.911 136.525C88.9483 136.452 88.9999 136.387 89.0626 136.335C89.1252 136.282 89.1978 136.242 89.2761 136.218C89.3543 136.193 89.4366 136.185 89.5182 136.192C89.6836 136.208 89.8363 136.288 89.9433 136.415C90.0502 136.542 90.1029 136.707 90.0898 136.872L89.0704 148.059C89.0548 148.224 88.9748 148.377 88.8476 148.484C88.7203 148.591 88.5562 148.643 88.3905 148.63C88.2998 148.622 88.2122 148.593 88.1338 148.547C88.0554 148.501 87.9883 148.438 87.9372 148.362Z" fill="#4AE792"/>
<path d="M103.299 59.3575L100.88 68.275C100.836 68.4326 100.731 68.5663 100.589 68.6468C100.446 68.7273 100.278 68.7479 100.12 68.7041C99.9626 68.6617 99.8281 68.5584 99.7464 68.4169C99.6647 68.2754 99.6425 68.1073 99.6846 67.9495L102.104 59.032C102.146 58.8711 102.251 58.7339 102.395 58.6504C102.54 58.5669 102.711 58.5441 102.872 58.5869C103.033 58.6298 103.17 58.7347 103.253 58.8788C103.337 59.0228 103.36 59.1941 103.317 59.3549L103.299 59.3575Z" fill="#4AE792"/>
<path d="M83.9523 128.23C83.7934 128.187 83.658 128.082 83.5755 127.94C83.493 127.797 83.4702 127.628 83.5119 127.469L85.9376 118.546C85.98 118.389 86.0833 118.254 86.2248 118.172C86.3663 118.091 86.5344 118.069 86.6923 118.111C86.8512 118.154 86.9866 118.258 87.0691 118.401C87.1516 118.543 87.1744 118.713 87.1327 118.872L84.707 127.794C84.6646 127.952 84.5613 128.086 84.4198 128.168C84.2783 128.25 84.1102 128.272 83.9523 128.23Z" fill="#4AE792"/>
<path d="M104.313 51.7015C104.26 51.6274 104.225 51.5424 104.208 51.4528C104.192 51.3633 104.196 51.2712 104.22 51.1833L107.166 40.3373C107.217 40.1782 107.329 40.0456 107.477 39.9685C107.625 39.8914 107.798 39.876 107.957 39.9256C108.117 39.9711 108.253 40.0776 108.335 40.2221C108.417 40.3667 108.439 40.5377 108.396 40.6982L105.419 51.5155C105.388 51.6293 105.324 51.7318 105.236 51.8109C105.148 51.8901 105.04 51.9427 104.923 51.9627C104.807 51.9826 104.687 51.9691 104.578 51.9237C104.469 51.8783 104.375 51.8028 104.307 51.7061L104.313 51.7015Z" fill="#4AE792"/>
<path d="M78.5273 146.672C78.4738 146.597 78.4381 146.511 78.4231 146.42C78.408 146.33 78.414 146.237 78.4405 146.149L81.3802 135.308C81.4257 135.148 81.5322 135.012 81.6767 134.93C81.8213 134.848 81.9923 134.826 82.1528 134.869C82.232 134.89 82.3062 134.927 82.371 134.977C82.4358 135.027 82.49 135.09 82.5304 135.161C82.5708 135.232 82.5966 135.311 82.6062 135.392C82.6158 135.474 82.6092 135.556 82.5866 135.635L79.6468 146.476C79.6165 146.592 79.5535 146.697 79.4653 146.778C79.3772 146.859 79.2677 146.913 79.1497 146.933C79.0318 146.954 78.9104 146.94 78.8001 146.894C78.6897 146.847 78.595 146.77 78.5273 146.672Z" fill="#4AE792"/>
<path d="M109.061 61.5869L105.127 69.9464C105.054 70.0849 104.931 70.1906 104.783 70.242C104.636 70.2934 104.474 70.2866 104.331 70.2232C104.192 70.1515 104.086 70.0301 104.033 69.8832C103.981 69.7364 103.986 69.5751 104.047 69.4317L107.981 61.0722C108.055 60.9351 108.178 60.8307 108.326 60.7795C108.473 60.7283 108.634 60.734 108.777 60.7955C108.916 60.8671 109.022 60.9886 109.075 61.1354C109.127 61.2823 109.122 61.4436 109.061 61.5869Z" fill="#4AE792"/>
<path d="M78.0464 126.061C77.9486 126.015 77.8648 125.944 77.8038 125.854C77.7412 125.764 77.703 125.66 77.6929 125.551C77.6829 125.441 77.7014 125.332 77.7465 125.232L81.6737 116.877C81.7465 116.738 81.8693 116.633 82.0171 116.581C82.1649 116.53 82.3267 116.537 82.4698 116.6C82.6083 116.673 82.7139 116.796 82.7653 116.944C82.8167 117.091 82.81 117.253 82.7465 117.396L78.8127 125.756C78.7438 125.891 78.6281 125.997 78.4871 126.053C78.3461 126.109 78.1895 126.112 78.0464 126.061Z" fill="#4AE792"/>
<path d="M111.436 54.3115C111.374 54.2216 111.336 54.1169 111.326 54.0078C111.316 53.8987 111.334 53.7888 111.379 53.689L116.169 43.5184C116.246 43.3793 116.372 43.2745 116.523 43.2253C116.674 43.1762 116.838 43.1863 116.982 43.2537C117.126 43.3211 117.238 43.4407 117.297 43.5882C117.356 43.7357 117.356 43.9001 117.298 44.0479L112.508 54.2185C112.436 54.357 112.313 54.4626 112.165 54.514C112.017 54.5654 111.855 54.5587 111.712 54.4952C111.605 54.4607 111.51 54.3971 111.436 54.3115Z" fill="#4AE792"/>
<path d="M69.5625 143.377C69.4999 143.287 69.4617 143.182 69.4517 143.073C69.4417 142.964 69.4601 142.854 69.5053 142.754L74.2952 132.584C74.3264 132.504 74.3736 132.432 74.4339 132.371C74.4942 132.311 74.5662 132.263 74.6456 132.231C74.725 132.2 74.81 132.185 74.8954 132.187C74.9808 132.19 75.0648 132.21 75.1422 132.246C75.2195 132.282 75.2886 132.334 75.3452 132.398C75.4018 132.462 75.4446 132.537 75.4711 132.618C75.4975 132.7 75.507 132.786 75.499 132.871C75.491 132.956 75.4656 133.038 75.4244 133.113L70.6345 143.284C70.5617 143.422 70.439 143.528 70.2912 143.579C70.1433 143.631 69.9815 143.624 69.8385 143.56C69.7313 143.526 69.6357 143.462 69.5625 143.377Z" fill="#4AE792"/>
<path d="M114.352 64.7883L109.025 72.3376C108.979 72.4071 108.92 72.4667 108.851 72.5128C108.782 72.5589 108.704 72.5905 108.622 72.6058C108.54 72.621 108.457 72.6196 108.375 72.6016C108.294 72.5836 108.218 72.5494 108.15 72.5011C108.08 72.4555 108.021 72.3963 107.975 72.3272C107.929 72.258 107.897 72.1802 107.882 72.0985C107.866 72.0168 107.868 71.9328 107.886 71.8517C107.904 71.7705 107.938 71.6938 107.986 71.6262L113.309 64.0703C113.405 63.9343 113.551 63.842 113.714 63.8134C113.878 63.7849 114.046 63.8225 114.182 63.9181C114.318 64.0137 114.41 64.1593 114.439 64.323C114.467 64.4867 114.43 64.655 114.334 64.7909L114.352 64.7883Z" fill="#4AE792"/>
<path d="M72.6133 122.898C72.5624 122.845 72.5202 122.784 72.4882 122.718C72.4158 122.612 72.3775 122.487 72.3786 122.359C72.3798 122.231 72.4202 122.106 72.4945 122.002L77.8153 114.457C77.8616 114.388 77.9211 114.33 77.9903 114.284C78.0596 114.239 78.1371 114.208 78.2185 114.192C78.2999 114.177 78.3835 114.178 78.4645 114.196C78.5454 114.213 78.6221 114.246 78.6901 114.294C78.7588 114.34 78.8175 114.399 78.8629 114.469C78.9084 114.538 78.9396 114.615 78.9548 114.697C78.97 114.778 78.9689 114.862 78.9515 114.943C78.9341 115.024 78.9009 115.1 78.8536 115.168L73.5261 122.718C73.4821 122.794 73.4223 122.86 73.3507 122.912C73.279 122.963 73.1972 122.998 73.1107 123.016C73.0242 123.033 72.935 123.031 72.8492 123.011C72.7634 122.99 72.683 122.952 72.6133 122.898Z" fill="#4AE792"/>
<path d="M118.013 58.1419C117.939 58.0379 117.9 57.9137 117.899 57.7863C117.899 57.6589 117.939 57.5346 118.012 57.4305L124.467 48.2179C124.563 48.0808 124.709 47.9873 124.874 47.9579C125.039 47.9286 125.208 47.9657 125.346 48.0611C125.415 48.108 125.473 48.1681 125.519 48.2379C125.564 48.3078 125.595 48.386 125.609 48.4679C125.624 48.5498 125.622 48.6338 125.604 48.715C125.585 48.7962 125.551 48.8729 125.503 48.9406L119.037 58.1219C118.939 58.2573 118.793 58.3494 118.629 58.3786C118.464 58.4079 118.295 58.3721 118.157 58.2787C118.103 58.2404 118.054 58.1943 118.013 58.1419Z" fill="#4AE792"/>
<path d="M61.3104 138.586C61.2379 138.481 61.1996 138.355 61.2008 138.227C61.2019 138.099 61.2423 137.974 61.3166 137.87L67.7875 128.695C67.8309 128.621 67.8894 128.556 67.9592 128.505C68.0291 128.453 68.1088 128.417 68.1933 128.399C68.2778 128.38 68.3653 128.379 68.4501 128.396C68.535 128.413 68.6154 128.447 68.6863 128.497C68.7572 128.547 68.817 128.61 68.862 128.684C68.907 128.758 68.9361 128.841 68.9475 128.927C68.9589 129.012 68.9524 129.1 68.9283 129.183C68.9043 129.266 68.8632 129.343 68.8078 129.409L62.3415 138.591C62.2954 138.66 62.2357 138.72 62.1659 138.766C62.0961 138.812 62.0177 138.843 61.9354 138.858C61.8532 138.872 61.7688 138.87 61.6875 138.851C61.6061 138.832 61.5294 138.797 61.4621 138.748C61.4032 138.702 61.352 138.648 61.3104 138.586Z" fill="#4AE792"/>
<path d="M118.983 68.8335L112.433 75.3644C112.376 75.4212 112.308 75.466 112.233 75.4963C112.158 75.5266 112.078 75.5417 111.998 75.5407C111.917 75.5398 111.837 75.5228 111.763 75.4908C111.689 75.4588 111.622 75.4124 111.566 75.3543C111.453 75.2369 111.39 75.0797 111.391 74.9164C111.392 74.7531 111.457 74.5968 111.572 74.4807L118.115 67.9545C118.17 67.888 118.239 67.8339 118.317 67.7955C118.395 67.7571 118.48 67.7353 118.567 67.7316C118.653 67.7278 118.74 67.7421 118.82 67.7736C118.901 67.8051 118.975 67.853 119.036 67.9144C119.097 67.9758 119.145 68.0493 119.176 68.1301C119.208 68.211 119.222 68.2975 119.218 68.3842C119.214 68.4708 119.192 68.5557 119.154 68.6334C119.115 68.7111 119.061 68.7799 118.994 68.8355L118.983 68.8335Z" fill="#4AE792"/>
<path d="M67.8043 118.838L67.744 118.752C67.6596 118.631 67.6208 118.483 67.6344 118.337C67.648 118.19 67.7132 118.052 67.8184 117.949L74.3613 111.422C74.419 111.365 74.4874 111.32 74.5625 111.289C74.6376 111.259 74.7181 111.243 74.7993 111.244C74.8804 111.244 74.9607 111.261 75.0354 111.292C75.1102 111.324 75.178 111.37 75.235 111.428C75.3479 111.544 75.4111 111.7 75.4113 111.862C75.4116 112.024 75.3488 112.18 75.2362 112.297L68.6866 118.828C68.5698 118.944 68.4123 119.01 68.2476 119.012C68.0828 119.014 67.9238 118.952 67.8043 118.838Z" fill="#4AE792"/>
<path d="M123.813 63.0425C123.73 62.9232 123.692 62.7783 123.705 62.6335C123.718 62.4886 123.782 62.3531 123.886 62.2509L131.858 54.3256C131.98 54.2231 132.136 54.1711 132.295 54.1803C132.455 54.1894 132.604 54.2589 132.714 54.3747C132.823 54.4904 132.884 54.6436 132.885 54.8029C132.885 54.9623 132.824 55.1157 132.715 55.2319L124.765 63.1319C124.708 63.1904 124.639 63.2368 124.564 63.2684C124.488 63.3 124.407 63.3163 124.325 63.3162C124.243 63.3162 124.162 63.2998 124.086 63.268C124.011 63.2362 123.942 63.1897 123.885 63.1311L123.813 63.0425Z" fill="#4AE792"/>
<path d="M53.9931 132.402C53.9102 132.28 53.8723 132.133 53.8858 131.987C53.8994 131.84 53.9636 131.703 54.0674 131.599L62.0442 123.68C62.1 123.613 62.1692 123.558 62.2474 123.519C62.3257 123.48 62.4112 123.458 62.4985 123.455C62.5857 123.451 62.6728 123.466 62.7541 123.498C62.8354 123.53 62.9091 123.578 62.9704 123.64C63.0317 123.703 63.0793 123.777 63.1101 123.859C63.1409 123.941 63.1542 124.028 63.1492 124.115C63.1442 124.202 63.1209 124.287 63.0809 124.365C63.0409 124.443 62.9851 124.511 62.917 124.566L54.9582 132.482C54.8997 132.54 54.8303 132.585 54.7541 132.616C54.6779 132.647 54.5964 132.663 54.5142 132.662C54.432 132.661 54.3507 132.644 54.2751 132.612C54.1994 132.58 54.1308 132.533 54.0733 132.474L53.9931 132.402Z" fill="#4AE792"/>
<path d="M72.3926 108.02C72.486 108.154 72.5222 108.32 72.4933 108.481C72.4643 108.642 72.3726 108.785 72.2383 108.878L64.6688 114.141C64.5408 114.234 64.3828 114.276 64.2254 114.26C64.068 114.244 63.9222 114.169 63.8161 114.052C63.7587 113.985 63.7161 113.908 63.6908 113.823C63.6656 113.739 63.6583 113.651 63.6696 113.564C63.6808 113.477 63.7103 113.393 63.7561 113.318C63.8019 113.243 63.863 113.179 63.9354 113.129L71.5248 107.852C71.6592 107.758 71.8251 107.722 71.9861 107.751C72.1471 107.78 72.29 107.872 72.3834 108.006L72.3926 108.02Z" fill="#4AE792"/>
<path d="M122.828 73.7113L115.258 78.9744C115.192 79.0206 115.117 79.0533 115.038 79.0706C114.959 79.0879 114.877 79.0894 114.797 79.0751C114.718 79.0607 114.641 79.0308 114.573 78.9871C114.505 78.9433 114.446 78.8866 114.4 78.8201C114.354 78.7536 114.321 78.6786 114.304 78.5995C114.286 78.5204 114.285 78.4386 114.299 78.3589C114.314 78.2792 114.343 78.203 114.387 78.1349C114.431 78.0667 114.488 78.0078 114.554 77.9616L122.17 72.6661C122.243 72.6168 122.324 72.583 122.41 72.5668C122.496 72.5507 122.585 72.5525 122.67 72.5722C122.755 72.5919 122.835 72.629 122.905 72.6813C122.975 72.7335 123.034 72.7997 123.077 72.8757C123.149 73.0208 123.163 73.1875 123.117 73.3424C123.07 73.4974 122.967 73.6291 122.828 73.7113Z" fill="#4AE792"/>
<path d="M128.674 68.8857C128.582 68.7489 128.546 68.5815 128.575 68.419C128.605 68.2565 128.696 68.1118 128.831 68.0159L138.059 61.5992C138.195 61.5046 138.363 61.4679 138.526 61.4972C138.69 61.5265 138.834 61.6194 138.929 61.7555C139.024 61.8916 139.06 62.0597 139.031 62.2228C139.002 62.3859 138.909 62.5307 138.773 62.6253L129.544 69.042C129.477 69.0889 129.401 69.122 129.321 69.1395C129.24 69.157 129.158 69.1585 129.077 69.144C128.996 69.1295 128.919 69.0992 128.85 69.0549C128.781 69.0105 128.721 68.9531 128.674 68.8857Z" fill="#4AE792"/>
<path d="M47.882 125.06C47.7874 124.924 47.7507 124.756 47.7801 124.592C47.8094 124.429 47.9023 124.285 48.0384 124.19L57.2604 117.778C57.3964 117.683 57.5645 117.647 57.7277 117.676C57.8908 117.705 58.0356 117.798 58.1302 117.934C58.2248 118.07 58.2615 118.238 58.2322 118.402C58.2028 118.565 58.1099 118.709 57.9738 118.804L48.7519 125.216C48.6849 125.264 48.6089 125.298 48.5286 125.316C48.4482 125.334 48.365 125.336 48.284 125.321C48.2029 125.307 48.1256 125.276 48.0565 125.231C47.9875 125.186 47.9282 125.128 47.882 125.06Z" fill="#4AE792"/>
<path d="M85.9421 135.661C86.0762 135.684 86.2044 135.733 86.3193 135.806C86.4343 135.879 86.5338 135.973 86.6121 136.085C86.6905 136.196 86.7461 136.321 86.7758 136.454C86.8055 136.587 86.8088 136.724 86.7853 136.858L84.0653 152.104C84.0262 152.349 83.9002 152.571 83.7105 152.731C83.5207 152.891 83.2798 152.977 83.0317 152.974H82.8549C82.5831 152.924 82.342 152.769 82.184 152.542C82.0261 152.316 81.9642 152.036 82.0117 151.764L84.7317 136.504C84.7814 136.233 84.9365 135.991 85.1633 135.833C85.39 135.676 85.6699 135.614 85.9421 135.661Z" fill="#4AE792"/>
<path d="M104.764 35.0757L102.044 50.3213C101.994 50.5904 101.841 50.8292 101.617 50.9868C101.393 51.1444 101.117 51.2082 100.847 51.1645C100.713 51.1431 100.585 51.0954 100.471 51.0241C100.356 50.9529 100.256 50.8594 100.178 50.7494C100.099 50.6393 100.043 50.5147 100.014 50.3828C99.9836 50.251 99.9803 50.1145 100.004 49.9813L102.724 34.7221C102.747 34.5863 102.796 34.4564 102.87 34.3398C102.943 34.2232 103.039 34.1222 103.151 34.0426C103.263 33.963 103.39 33.9064 103.525 33.8759C103.659 33.8455 103.798 33.8419 103.934 33.8653C104.2 33.9243 104.434 34.0821 104.588 34.3068C104.742 34.5316 104.805 34.8064 104.764 35.0757Z" fill="#4AE792"/>
<path d="M77.4551 184.934H77.2783C77.1425 184.911 77.0125 184.861 76.8959 184.788C76.7793 184.715 76.6783 184.619 76.5987 184.507C76.5191 184.394 76.4625 184.267 76.4321 184.133C76.4017 183.998 76.3981 183.859 76.4215 183.724L79.6991 165.187C79.7093 165.041 79.75 164.899 79.8187 164.769C79.8873 164.64 79.9822 164.526 80.0974 164.436C80.2126 164.346 80.3454 164.281 80.4874 164.245C80.6293 164.209 80.7772 164.203 80.9214 164.228C81.0657 164.253 81.2031 164.308 81.3249 164.389C81.4467 164.47 81.5501 164.576 81.6284 164.7C81.7067 164.823 81.7583 164.962 81.7797 165.107C81.8011 165.252 81.7919 165.399 81.7527 165.54L78.4887 184.091C78.4389 184.328 78.3091 184.542 78.121 184.695C77.9329 184.849 77.6978 184.933 77.4551 184.934Z" fill="#4AE792"/>
<path d="M106.098 22.5227H105.908C105.773 22.4998 105.643 22.4501 105.527 22.3766C105.411 22.303 105.311 22.2071 105.232 22.0944C105.154 21.9817 105.099 21.8545 105.07 21.7202C105.041 21.586 105.039 21.4473 105.065 21.3123L108.329 2.80271C108.377 2.52858 108.533 2.28502 108.761 2.12561C108.99 1.96621 109.272 1.90401 109.546 1.95271C109.82 2.0014 110.064 2.157 110.223 2.38527C110.382 2.61354 110.445 2.89578 110.396 3.1699L107.186 21.6659C107.143 21.918 107.008 22.1452 106.807 22.3035C106.606 22.4617 106.354 22.5398 106.098 22.5227Z" fill="#4AE792"/>
<path d="M78.7194 133.73C78.8507 133.777 78.9711 133.85 79.0735 133.944C79.1759 134.038 79.2581 134.153 79.3153 134.28C79.3725 134.407 79.4034 134.544 79.4061 134.683C79.4089 134.822 79.3835 134.961 79.3314 135.09L74.041 149.628C73.9686 149.83 73.8358 150.005 73.6606 150.129C73.4855 150.253 73.2765 150.321 73.0618 150.322C72.9402 150.341 72.8163 150.341 72.6946 150.322C72.5633 150.275 72.4427 150.202 72.3399 150.108C72.2371 150.014 72.1541 149.9 72.0958 149.774C72.0376 149.647 72.0052 149.51 72.0006 149.371C71.996 149.231 72.0193 149.092 72.069 148.962L77.373 134.424C77.4095 134.286 77.4746 134.157 77.564 134.045C77.6534 133.934 77.7652 133.843 77.8921 133.778C78.019 133.712 78.1582 133.674 78.3007 133.666C78.4432 133.658 78.5859 133.68 78.7194 133.73Z" fill="#4AE792"/>
<path d="M114.722 37.9314L109.418 52.4834C109.371 52.6146 109.298 52.7351 109.204 52.8375C109.11 52.9399 108.995 53.0221 108.868 53.0793C108.741 53.1364 108.604 53.1673 108.465 53.1701C108.326 53.1729 108.187 53.1475 108.058 53.0954C107.927 53.0487 107.806 52.9759 107.704 52.8815C107.602 52.787 107.519 52.6729 107.462 52.5459C107.405 52.4188 107.374 52.2816 107.371 52.1423C107.369 52.003 107.394 51.8646 107.446 51.7354L112.736 37.1834C112.783 37.0521 112.856 36.9315 112.95 36.8287C113.044 36.7259 113.158 36.6429 113.285 36.5846C113.411 36.5263 113.549 36.4939 113.688 36.4893C113.827 36.4847 113.966 36.508 114.096 36.5578C114.228 36.6062 114.349 36.6803 114.452 36.7757C114.555 36.8712 114.638 36.9862 114.696 37.1139C114.754 37.2417 114.787 37.3798 114.791 37.5201C114.795 37.6604 114.772 37.8002 114.722 37.9314Z" fill="#4AE792"/>
<path d="M61.9918 180.786C61.8665 180.783 61.7426 180.76 61.6246 180.718C61.4922 180.673 61.3703 180.601 61.2664 180.507C61.1626 180.413 61.0789 180.299 61.0204 180.172C60.9619 180.045 60.9298 179.907 60.9261 179.767C60.9225 179.627 60.9473 179.488 60.999 179.358L67.4454 161.678C67.4927 161.548 67.5651 161.43 67.6584 161.328C67.7517 161.227 67.864 161.144 67.989 161.086C68.1141 161.028 68.2493 160.995 68.387 160.989C68.5248 160.984 68.6623 161.005 68.7918 161.052C68.9213 161.1 69.0402 161.172 69.1417 161.265C69.2432 161.359 69.3254 161.471 69.3835 161.596C69.4415 161.721 69.4744 161.856 69.4803 161.994C69.4861 162.132 69.4647 162.269 69.4174 162.399L62.971 180.079C62.9026 180.284 62.7712 180.463 62.5955 180.59C62.4197 180.717 62.2086 180.786 61.9918 180.786Z" fill="#4AE792"/>
<path d="M118.392 25.814C118.275 25.8346 118.155 25.8346 118.038 25.814C117.907 25.767 117.786 25.6943 117.684 25.6002C117.581 25.506 117.498 25.3922 117.44 25.2656C117.381 25.1389 117.349 25.0018 117.344 24.8625C117.34 24.7231 117.363 24.5842 117.413 24.454L123.846 6.77399C123.893 6.64269 123.965 6.52209 124.059 6.41926C124.154 6.31643 124.267 6.23345 124.394 6.17518C124.521 6.11691 124.658 6.08452 124.797 6.07992C124.936 6.07532 125.075 6.0986 125.206 6.14839C125.469 6.24627 125.682 6.44433 125.799 6.69922C125.916 6.9541 125.928 7.24504 125.831 7.50839L119.385 25.1884C119.302 25.381 119.163 25.544 118.986 25.6557C118.808 25.7675 118.601 25.8227 118.392 25.814Z" fill="#4AE792"/>
<path d="M71.9478 130.561C72.1719 130.697 72.336 130.914 72.4067 131.166C72.4774 131.419 72.4495 131.689 72.3286 131.921L64.5902 145.317C64.4999 145.479 64.3676 145.614 64.2073 145.707C64.047 145.801 63.8645 145.849 63.679 145.848C63.4977 145.849 63.3193 145.802 63.1622 145.712C62.9218 145.57 62.7471 145.339 62.6758 145.069C62.6045 144.799 62.6425 144.512 62.7814 144.27L70.5198 130.874C70.593 130.76 70.688 130.661 70.7994 130.583C70.9108 130.506 71.0364 130.451 71.169 130.422C71.3016 130.393 71.4386 130.39 71.5723 130.414C71.7059 130.438 71.8335 130.488 71.9478 130.561Z" fill="#4AE792"/>
<path d="M124.023 42.474L116.285 55.8428C116.147 56.0645 115.93 56.2265 115.679 56.2969C115.427 56.3674 115.158 56.3412 114.925 56.2236C114.701 56.0876 114.537 55.8704 114.469 55.6171C114.4 55.3639 114.432 55.094 114.558 54.8636L122.296 41.454C122.432 41.2298 122.648 41.0658 122.901 40.9951C123.153 40.9244 123.423 40.9523 123.656 41.0732C123.886 41.2144 124.052 41.4389 124.121 41.6999C124.189 41.9608 124.154 42.2381 124.023 42.474Z" fill="#4AE792"/>
<path d="M47.4668 174.013C47.2855 174.015 47.1071 173.968 46.95 173.877C46.7283 173.739 46.5663 173.523 46.4958 173.271C46.4254 173.019 46.4515 172.751 46.5692 172.517L55.9804 156.197C56.1282 155.976 56.3547 155.819 56.6139 155.759C56.8731 155.699 57.1455 155.74 57.3758 155.873C57.606 156.006 57.7769 156.222 57.8537 156.477C57.9305 156.732 57.9074 157.006 57.7892 157.244L48.378 173.564C48.2758 173.71 48.1388 173.827 47.9796 173.905C47.8204 173.983 47.6441 174.021 47.4668 174.013Z" fill="#4AE792"/>
<path d="M129.924 31.1995C129.743 31.2009 129.564 31.1539 129.407 31.0635C129.183 30.9274 129.019 30.7112 128.948 30.4587C128.878 30.2062 128.906 29.9362 129.027 29.7035L138.438 13.3835C138.579 13.1468 138.808 12.9746 139.074 12.9035C139.341 12.8324 139.625 12.868 139.866 13.0027C140.09 13.1388 140.254 13.355 140.325 13.6075C140.395 13.86 140.367 14.13 140.247 14.3627L130.835 30.6827C130.741 30.8403 130.608 30.9708 130.448 31.0614C130.288 31.152 130.108 31.1996 129.924 31.1995Z" fill="#4AE792"/>
<path d="M65.8304 126.264C66.0414 126.439 66.1742 126.69 66.1998 126.963C66.2253 127.236 66.1413 127.508 65.9664 127.719L56.0112 139.592C55.8296 139.802 55.5724 139.933 55.2951 139.956C55.0178 139.979 54.7426 139.892 54.5288 139.714C54.4234 139.626 54.3364 139.519 54.2731 139.397C54.2097 139.275 54.1712 139.142 54.1598 139.005C54.1484 138.869 54.1644 138.731 54.2067 138.601C54.249 138.47 54.3169 138.349 54.4064 138.245L64.3616 126.373C64.4503 126.268 64.5589 126.182 64.6811 126.12C64.8033 126.058 64.9366 126.021 65.0732 126.011C65.2099 126.001 65.3473 126.018 65.4773 126.061C65.6072 126.105 65.7273 126.173 65.8304 126.264Z" fill="#4AE792"/>
<path d="M132.415 48.5669L122.46 60.4261C122.28 60.6359 122.025 60.7665 121.75 60.7894C121.475 60.8123 121.202 60.7257 120.991 60.5485C120.782 60.3716 120.652 60.119 120.629 59.8462C120.606 59.5733 120.692 59.3026 120.868 59.0933L130.824 47.2341C130.91 47.1276 131.017 47.0395 131.139 46.9749C131.26 46.9104 131.393 46.8706 131.529 46.8579C131.666 46.8453 131.804 46.86 131.935 46.9012C132.066 46.9424 132.188 47.0094 132.292 47.0981C132.499 47.2793 132.628 47.5337 132.65 47.8077C132.673 48.0818 132.589 48.3539 132.415 48.5669Z" fill="#4AE792"/>
<path d="M34.3579 164.833C34.1573 164.834 33.9606 164.778 33.7911 164.67C33.6217 164.563 33.4867 164.409 33.4022 164.227C33.3176 164.045 33.2872 163.843 33.3143 163.644C33.3415 163.445 33.4252 163.258 33.5555 163.106L45.6595 148.69C45.7463 148.583 45.8534 148.495 45.9746 148.431C46.0958 148.366 46.2286 148.326 46.3654 148.314C46.5021 148.301 46.64 148.316 46.771 148.357C46.902 148.398 47.0235 148.465 47.1283 148.554C47.3411 148.734 47.4746 148.99 47.5 149.267C47.5255 149.545 47.4408 149.821 47.2643 150.036L35.1059 164.452C35.016 164.566 34.9026 164.659 34.7735 164.724C34.6444 164.79 34.5027 164.827 34.3579 164.833Z" fill="#4AE792"/>
<path d="M140.358 38.5027C140.16 38.5017 139.966 38.4445 139.799 38.3377C139.632 38.231 139.499 38.0791 139.415 37.8996C139.331 37.7202 139.3 37.5206 139.325 37.324C139.35 37.1274 139.43 36.942 139.556 36.7891L151.66 22.3595C151.84 22.1468 152.096 22.0133 152.373 21.9878C152.651 21.9624 152.927 22.047 153.142 22.2235C153.353 22.4052 153.484 22.6624 153.507 22.9397C153.53 23.217 153.443 23.4921 153.265 23.7059L141.188 38.1627C141.084 38.278 140.955 38.3685 140.812 38.4274C140.668 38.4862 140.513 38.512 140.358 38.5027Z" fill="#4AE792"/>
<path d="M60.5367 120.973C60.6237 121.076 60.6896 121.194 60.7305 121.322C60.7715 121.45 60.7867 121.585 60.7753 121.719C60.7639 121.853 60.7262 121.984 60.6642 122.103C60.6023 122.222 60.5173 122.328 60.4143 122.415L48.5551 132.37C48.3679 132.537 48.1258 132.629 47.8751 132.628C47.7216 132.628 47.5702 132.593 47.4315 132.527C47.2929 132.461 47.1704 132.366 47.0727 132.247C46.984 132.143 46.9171 132.021 46.8758 131.89C46.8346 131.759 46.8199 131.621 46.8325 131.485C46.8452 131.348 46.885 131.215 46.9496 131.094C47.0142 130.973 47.1022 130.865 47.2087 130.779L59.0679 120.81C59.2845 120.637 59.5607 120.558 59.836 120.588C60.1113 120.619 60.3632 120.757 60.5367 120.973Z" fill="#4AE792"/>
<path d="M139.607 56.006L127.734 65.9748C127.523 66.1497 127.251 66.2336 126.978 66.2081C126.705 66.1826 126.454 66.0498 126.279 65.8388C126.102 65.6295 126.016 65.3587 126.039 65.0859C126.062 64.8131 126.192 64.5605 126.401 64.3836L138.274 54.4284C138.378 54.3389 138.499 54.271 138.629 54.2287C138.759 54.1863 138.897 54.1704 139.034 54.1818C139.171 54.1932 139.304 54.2317 139.425 54.295C139.547 54.3584 139.655 54.4453 139.743 54.5508C139.914 54.7632 139.996 55.0342 139.97 55.306C139.945 55.5779 139.814 55.829 139.607 56.006Z" fill="#4AE792"/>
<path d="M23.029 153.504C22.8146 153.503 22.6058 153.436 22.4308 153.312C22.2558 153.188 22.1229 153.014 22.0503 152.812C21.9776 152.61 21.9686 152.391 22.0245 152.184C22.0803 151.977 22.1983 151.792 22.3626 151.655L36.7922 139.551C37.005 139.37 37.2808 139.282 37.5588 139.305C37.8368 139.328 38.0943 139.46 38.2746 139.673C38.455 139.886 38.5434 140.162 38.5204 140.44C38.4975 140.718 38.365 140.975 38.1522 141.155L23.7362 153.259C23.5374 153.423 23.2865 153.51 23.029 153.504Z" fill="#4AE792"/>
<path d="M149.348 47.506C149.194 47.5081 149.041 47.4749 148.902 47.4089C148.763 47.3429 148.641 47.2458 148.545 47.1252C148.457 47.0204 148.39 46.8989 148.348 46.7679C148.307 46.6369 148.293 46.499 148.305 46.3623C148.318 46.2255 148.358 46.0927 148.422 45.9715C148.487 45.8503 148.575 45.7432 148.681 45.6564L163.097 33.5524C163.311 33.3743 163.586 33.2873 163.864 33.3102C164.141 33.3331 164.398 33.464 164.58 33.6748C164.756 33.8903 164.841 34.1665 164.815 34.4438C164.79 34.7212 164.656 34.9774 164.444 35.1572L150.028 47.2612C149.836 47.4189 149.596 47.5054 149.348 47.506Z" fill="#4AE792"/>
<path d="M56.2418 114.839C56.3673 115.07 56.3991 115.34 56.3307 115.593C56.2623 115.846 56.099 116.063 55.8746 116.199L42.465 123.938C42.3035 124.031 42.1212 124.083 41.9346 124.087C41.7033 124.088 41.4784 124.011 41.2951 123.87C41.1118 123.729 40.9804 123.531 40.9214 123.307C40.8624 123.084 40.8791 122.847 40.9689 122.634C41.0587 122.421 41.2165 122.243 41.4178 122.129L54.8274 114.391C54.9489 114.323 55.0829 114.281 55.2211 114.267C55.3594 114.253 55.499 114.268 55.6314 114.31C55.7639 114.352 55.8863 114.421 55.9913 114.512C56.0963 114.603 56.1815 114.714 56.2418 114.839Z" fill="#4AE792"/>
<path d="M145.402 64.6012L131.992 72.3396C131.761 72.4617 131.492 72.4917 131.24 72.4235C130.987 72.3554 130.77 72.1942 130.632 71.9724C130.511 71.7397 130.483 71.4697 130.554 71.2172C130.625 70.9647 130.789 70.7485 131.013 70.6124L144.422 62.874C144.661 62.7557 144.935 62.7327 145.19 62.8095C145.445 62.8862 145.661 63.0571 145.794 63.2874C145.927 63.5177 145.968 63.7901 145.908 64.0493C145.847 64.3084 145.691 64.5349 145.47 64.6828L145.402 64.6012Z" fill="#4AE792"/>
<path d="M13.8509 140.394C13.6654 140.395 13.4829 140.347 13.3226 140.254C13.1623 140.16 13.03 140.026 12.9397 139.864C12.805 139.623 12.7694 139.339 12.8405 139.072C12.9116 138.806 13.0838 138.577 13.3205 138.436L29.6405 129.024C29.8789 128.906 30.1533 128.883 30.4081 128.96C30.6628 129.037 30.8788 129.208 31.0121 129.438C31.1454 129.668 31.1861 129.94 31.1258 130.2C31.0656 130.459 30.9089 130.685 30.6877 130.833L14.3677 140.244C14.2117 140.339 14.0334 140.391 13.8509 140.394Z" fill="#4AE792"/>
<path d="M156.661 57.9371C156.476 57.9344 156.295 57.8843 156.136 57.7913C155.976 57.6984 155.843 57.566 155.75 57.4067C155.682 57.287 155.638 57.1552 155.621 57.0186C155.604 56.8821 155.614 56.7436 155.651 56.611C155.688 56.4783 155.75 56.3542 155.835 56.2458C155.919 56.1373 156.024 56.0465 156.144 55.9787L172.464 46.5675C172.697 46.4498 172.966 46.4236 173.218 46.4941C173.47 46.5646 173.686 46.7266 173.824 46.9483C173.959 47.1891 173.994 47.4729 173.923 47.7395C173.852 48.0061 173.68 48.2345 173.443 48.3763L157.123 57.7875C156.982 57.8707 156.824 57.9218 156.661 57.9371Z" fill="#4AE792"/>
<path d="M53.0833 108.067C53.1371 108.197 53.1635 108.336 53.1608 108.477C53.1581 108.617 53.1264 108.756 53.0676 108.884C53.0089 109.011 52.9244 109.125 52.8194 109.219C52.7145 109.312 52.5913 109.383 52.4577 109.427L37.9193 114.731C37.7977 114.751 37.6737 114.751 37.5521 114.731C37.3386 114.733 37.1299 114.668 36.9546 114.546C36.7793 114.424 36.6459 114.251 36.5729 114.051C36.4761 113.788 36.4876 113.497 36.6049 113.242C36.7221 112.987 36.9356 112.789 37.1985 112.691L51.7641 107.523C52.0118 107.427 52.287 107.429 52.5326 107.531C52.7783 107.632 52.9755 107.824 53.0833 108.067Z" fill="#4AE792"/>
<path d="M149.604 74.0666L135.065 79.357C134.936 79.4091 134.798 79.4345 134.658 79.4317C134.519 79.429 134.382 79.3981 134.255 79.3409C134.128 79.2837 134.014 79.2015 133.919 79.0991C133.825 78.9967 133.752 78.8762 133.705 78.745C133.649 78.6163 133.62 78.4772 133.621 78.3367C133.622 78.1963 133.652 78.0575 133.71 77.9294C133.767 77.8013 133.851 77.6867 133.956 77.5929C134.06 77.4992 134.184 77.4283 134.317 77.385L148.869 72.081C149.131 71.9872 149.419 72.0012 149.67 72.1198C149.921 72.2384 150.115 72.4519 150.209 72.7134C150.303 72.9749 150.289 73.263 150.17 73.5142C150.051 73.7654 149.838 73.9592 149.576 74.053L149.604 74.0666Z" fill="#4AE792"/>
<path d="M7.07684 125.869C6.83332 125.865 6.5988 125.776 6.41366 125.618C6.22852 125.46 6.10433 125.242 6.06247 125.002C6.0206 124.762 6.06367 124.515 6.18427 124.304C6.30488 124.092 6.49547 123.929 6.72324 123.843L24.4032 117.41C24.5346 117.349 24.6773 117.315 24.8222 117.312C24.9672 117.308 25.1113 117.335 25.2454 117.39C25.3795 117.445 25.5007 117.528 25.6013 117.632C25.7019 117.736 25.7797 117.861 25.8298 117.997C25.8799 118.133 25.9012 118.278 25.8923 118.423C25.8834 118.567 25.8446 118.709 25.7782 118.838C25.7119 118.967 25.6195 119.08 25.5069 119.172C25.3943 119.263 25.2639 119.33 25.124 119.368L7.44404 125.815C7.32543 125.853 7.20139 125.871 7.07684 125.869Z" fill="#4AE792"/>
<path d="M162.047 69.4427C161.802 69.4418 161.566 69.3552 161.378 69.198C161.191 69.0409 161.064 68.823 161.021 68.5822C160.977 68.3415 161.019 68.0931 161.14 67.8801C161.26 67.6671 161.451 67.503 161.68 67.4163L179.36 60.9699C179.489 60.9235 179.627 60.903 179.764 60.9097C179.902 60.9163 180.036 60.95 180.161 61.0087C180.285 61.0674 180.397 61.1501 180.489 61.2519C180.582 61.3538 180.653 61.4728 180.7 61.6023C180.746 61.7318 180.766 61.8692 180.76 62.0066C180.753 62.144 180.72 62.2787 180.661 62.4031C180.602 62.5275 180.519 62.6391 180.418 62.7315C180.316 62.824 180.197 62.8955 180.067 62.9419L162.387 69.3883C162.277 69.424 162.163 69.4423 162.047 69.4427Z" fill="#4AE792"/>
<path d="M51.1538 100.845C51.1792 100.978 51.1779 101.115 51.1498 101.248C51.1217 101.381 51.0675 101.506 50.9902 101.618C50.913 101.729 50.8143 101.824 50.6999 101.897C50.5856 101.97 50.4578 102.019 50.3242 102.042L35.1058 104.803H34.9154C34.6515 104.805 34.3965 104.707 34.2014 104.53C34.0063 104.352 33.8855 104.107 33.8631 103.844C33.8408 103.581 33.9186 103.32 34.0809 103.111C34.2432 102.903 34.4781 102.764 34.7386 102.722L49.9842 100.002C50.2506 99.9624 50.5218 100.028 50.7403 100.186C50.9587 100.343 51.1071 100.58 51.1538 100.845Z" fill="#4AE792"/>
<path d="M152.068 84.1171L136.822 86.8371C136.688 86.8624 136.55 86.8606 136.417 86.8316C136.283 86.8027 136.157 86.7473 136.045 86.6686C135.934 86.59 135.839 86.4898 135.767 86.3738C135.695 86.2579 135.647 86.1287 135.625 85.9939C135.578 85.7253 135.638 85.4488 135.794 85.2246C135.949 85.0004 136.187 84.8467 136.455 84.7971L151.714 82.0771C151.855 82.0379 152.003 82.0287 152.148 82.0501C152.292 82.0715 152.431 82.123 152.555 82.2014C152.678 82.2797 152.784 82.3831 152.866 82.5048C152.947 82.6266 153.002 82.7641 153.026 82.9083C153.051 83.0526 153.046 83.2005 153.01 83.3424C152.974 83.4843 152.909 83.6172 152.818 83.7323C152.728 83.8475 152.615 83.9425 152.485 84.0111C152.356 84.0797 152.214 84.1204 152.068 84.1307V84.1171Z" fill="#4AE792"/>
<path d="M2.92865 110.406C2.6849 110.406 2.44885 110.321 2.26221 110.164C2.07557 110.007 1.95034 109.789 1.90865 109.549C1.88313 109.413 1.88473 109.274 1.91335 109.139C1.94198 109.004 1.99707 108.875 2.07545 108.762C2.15382 108.648 2.25394 108.551 2.37003 108.476C2.48612 108.401 2.61588 108.35 2.75185 108.325L21.3022 105.061C21.4433 105.022 21.591 105.013 21.7358 105.034C21.8806 105.056 22.0193 105.107 22.143 105.185C22.2667 105.264 22.3725 105.367 22.4538 105.489C22.535 105.611 22.5898 105.748 22.6147 105.892C22.6395 106.037 22.6338 106.185 22.598 106.327C22.5621 106.468 22.497 106.601 22.4066 106.716C22.3163 106.832 22.2028 106.927 22.0735 106.995C21.9441 107.064 21.8019 107.105 21.6559 107.115L3.11905 110.392L2.92865 110.406Z" fill="#4AE792"/>
<path d="M165.341 81.7643C165.205 81.7759 165.068 81.7607 164.938 81.7195C164.809 81.6782 164.688 81.6119 164.584 81.5241C164.48 81.4363 164.394 81.3289 164.331 81.2079C164.268 81.087 164.23 80.9549 164.219 80.8191C164.207 80.6834 164.222 80.5467 164.263 80.4168C164.305 80.287 164.371 80.1665 164.459 80.0624C164.547 79.9582 164.654 79.8723 164.775 79.8096C164.896 79.747 165.028 79.7087 165.164 79.6971L183.701 76.4195C183.836 76.3961 183.975 76.3997 184.11 76.4301C184.244 76.4605 184.371 76.5172 184.484 76.5968C184.596 76.6764 184.692 76.7773 184.765 76.894C184.838 77.0106 184.888 77.1405 184.911 77.2763C184.936 77.4113 184.935 77.55 184.906 77.6843C184.877 77.8185 184.822 77.9457 184.743 78.0584C184.665 78.1711 184.565 78.267 184.449 78.3406C184.333 78.4141 184.203 78.4638 184.068 78.4867L165.517 81.7507L165.341 81.7643Z" fill="#4AE792"/>
<path d="M49.4794 92.3588C49.7536 92.3588 50.0165 92.4677 50.2103 92.6615C50.4041 92.8554 50.513 93.1182 50.513 93.3924C50.513 93.6665 50.4041 93.9294 50.2103 94.1232C50.0165 94.3171 49.7536 94.426 49.4794 94.426H33.989C33.8431 94.4266 33.6987 94.3967 33.565 94.3382C33.4313 94.2797 33.3114 94.194 33.2128 94.0864C33.1142 93.9788 33.0391 93.8519 32.9925 93.7136C32.9458 93.5754 32.9286 93.4289 32.9418 93.2836C32.9751 93.0192 33.1043 92.7762 33.3049 92.6007C33.5054 92.4253 33.7634 92.3295 34.0298 92.3316L49.4794 92.3588Z" fill="#4AE792"/>
<path d="M153.876 93.3106C153.889 93.4559 153.872 93.6024 153.825 93.7407C153.779 93.8789 153.704 94.0059 153.605 94.1135C153.506 94.221 153.386 94.3068 153.253 94.3653C153.119 94.4237 152.975 94.4536 152.829 94.453H137.338C137.064 94.453 136.801 94.3441 136.607 94.1503C136.414 93.9565 136.305 93.6936 136.305 93.4194C136.305 93.1453 136.414 92.8824 136.607 92.6886C136.801 92.4947 137.064 92.3858 137.338 92.3858H152.788C153.05 92.3828 153.305 92.4748 153.505 92.6448C153.705 92.8147 153.837 93.0512 153.876 93.3106Z" fill="#4AE792"/>
<path d="M20.3754 94.4533H1.53939C1.26165 94.4533 0.995295 94.343 0.798907 94.1466C0.602519 93.9502 0.492188 93.6838 0.492188 93.4061C0.492188 93.1283 0.602519 92.862 0.798907 92.6656C0.995295 92.4692 1.26165 92.3589 1.53939 92.3589H20.3754C20.6531 92.3589 20.9195 92.4692 21.1159 92.6656C21.3123 92.862 21.4226 93.1283 21.4226 93.4061C21.4226 93.6838 21.3123 93.9502 21.1159 94.1466C20.9195 94.343 20.6531 94.4533 20.3754 94.4533Z" fill="#4AE792"/>
<path d="M185.276 94.4533H166.453C166.316 94.4533 166.18 94.4262 166.053 94.3736C165.926 94.321 165.81 94.2438 165.713 94.1466C165.616 94.0493 165.539 93.9339 165.486 93.8068C165.433 93.6798 165.406 93.5436 165.406 93.4061C165.406 93.2686 165.433 93.1324 165.486 93.0053C165.539 92.8783 165.616 92.7628 165.713 92.6656C165.81 92.5684 165.926 92.4912 166.053 92.4386C166.18 92.386 166.316 92.3589 166.453 92.3589H185.276C185.413 92.3589 185.55 92.386 185.677 92.4386C185.804 92.4912 185.919 92.5684 186.016 92.6656C186.114 92.7628 186.191 92.8783 186.243 93.0053C186.296 93.1324 186.323 93.2686 186.323 93.4061C186.323 93.5436 186.296 93.6798 186.243 93.8068C186.191 93.9339 186.114 94.0493 186.016 94.1466C185.919 94.2438 185.804 94.321 185.677 94.3736C185.55 94.4262 185.413 94.4533 185.276 94.4533Z" fill="#4AE792"/>
<path d="M35.106 82.0635L50.3108 84.7835C50.5791 84.8332 50.8168 84.9868 50.9722 85.211C51.1276 85.4352 51.1881 85.7117 51.1404 85.9803C51.1191 86.1152 51.071 86.2444 50.9988 86.3603C50.9267 86.4762 50.832 86.5765 50.7204 86.6551C50.6088 86.7337 50.4825 86.7891 50.3491 86.8181C50.2157 86.847 50.0778 86.8489 49.9436 86.8235L34.698 84.1035C34.5485 84.0796 34.4059 84.0235 34.2802 83.9391C34.1544 83.8548 34.0485 83.7441 33.9696 83.6148C33.8907 83.4856 33.8409 83.3407 33.8234 83.1903C33.8059 83.0399 33.8213 82.8874 33.8684 82.7435C33.9601 82.5015 34.1351 82.3001 34.3619 82.1755C34.5888 82.0508 34.8526 82.0112 35.106 82.0635Z" fill="#4AE792"/>
<path d="M152.962 103.905C152.92 104.149 152.793 104.37 152.604 104.529C152.415 104.689 152.176 104.776 151.928 104.775H151.751L136.492 102.055C136.359 102.033 136.231 101.983 136.117 101.91C136.002 101.838 135.903 101.743 135.826 101.631C135.749 101.52 135.695 101.394 135.667 101.261C135.639 101.129 135.637 100.992 135.663 100.859C135.686 100.725 135.735 100.596 135.808 100.481C135.88 100.366 135.975 100.267 136.086 100.189C136.197 100.11 136.323 100.055 136.455 100.025C136.588 99.9953 136.725 99.992 136.859 100.015L152.105 102.735C152.37 102.785 152.605 102.934 152.764 103.151C152.924 103.368 152.994 103.638 152.962 103.905Z" fill="#4AE792"/>
<path d="M21.5062 81.7644H21.3294L2.77902 78.5004C2.64361 78.4775 2.51413 78.4278 2.39814 78.3543C2.28215 78.2807 2.18197 78.1848 2.10347 78.0721C2.02497 77.9594 1.96971 77.8322 1.94093 77.6979C1.91214 77.5636 1.91041 77.425 1.93583 77.29C1.95887 77.1542 2.00848 77.0242 2.08183 76.9076C2.15517 76.791 2.2508 76.69 2.36324 76.6104C2.47568 76.5309 2.60272 76.4742 2.73707 76.4438C2.87143 76.4134 3.01047 76.4098 3.14623 76.4332L21.683 79.7108C21.9572 79.7342 22.2107 79.8656 22.388 80.076C22.5653 80.2865 22.6517 80.5587 22.6282 80.8328C22.6048 81.1069 22.4734 81.3605 22.263 81.5378C22.0526 81.715 21.7804 81.8015 21.5062 81.778V81.7644Z" fill="#4AE792"/>
<path d="M183.888 110.406H183.698L165.161 107.128C165.025 107.105 164.895 107.056 164.779 106.982C164.662 106.909 164.561 106.813 164.482 106.701C164.402 106.588 164.345 106.461 164.315 106.327C164.284 106.193 164.281 106.054 164.304 105.918C164.357 105.648 164.513 105.409 164.739 105.251C164.965 105.094 165.243 105.031 165.515 105.075L184.065 108.339C184.201 108.363 184.331 108.414 184.447 108.489C184.563 108.564 184.663 108.661 184.742 108.775C184.82 108.889 184.875 109.017 184.904 109.152C184.932 109.287 184.934 109.427 184.908 109.563C184.864 109.8 184.737 110.015 184.551 110.169C184.365 110.323 184.13 110.407 183.888 110.406Z" fill="#4AE792"/>
<path d="M37.9348 72.1628L52.4732 77.4668C52.6056 77.5122 52.7275 77.5839 52.8313 77.6778C52.9352 77.7716 53.0189 77.8856 53.0774 78.0128C53.1359 78.1399 53.168 78.2777 53.1717 78.4176C53.1753 78.5576 53.1505 78.6968 53.0988 78.8268C53.0534 78.9593 52.9817 79.0811 52.8878 79.185C52.794 79.2889 52.68 79.3726 52.5528 79.4311C52.4257 79.4896 52.2879 79.5217 52.148 79.5253C52.0081 79.529 51.8689 79.5042 51.7388 79.4524L37.1868 74.1484C36.9239 74.0506 36.7104 73.8525 36.5932 73.5976C36.4759 73.3427 36.4644 73.0518 36.5612 72.7884C36.6619 72.5245 36.8625 72.3109 37.1196 72.1938C37.3767 72.0767 37.6696 72.0656 37.9348 72.1628Z" fill="#4AE792"/>
<path d="M150.23 114.091C150.157 114.292 150.024 114.465 149.848 114.587C149.673 114.709 149.464 114.773 149.251 114.771C149.134 114.792 149.014 114.792 148.897 114.771L134.386 109.427C134.255 109.38 134.134 109.307 134.032 109.213C133.93 109.118 133.847 109.004 133.79 108.877C133.733 108.75 133.702 108.613 133.699 108.474C133.697 108.334 133.722 108.196 133.774 108.067C133.821 107.935 133.894 107.815 133.988 107.712C134.082 107.609 134.196 107.526 134.323 107.468C134.449 107.41 134.586 107.377 134.726 107.373C134.865 107.368 135.004 107.391 135.134 107.441L149.673 112.731C149.925 112.84 150.126 113.043 150.23 113.297C150.334 113.552 150.334 113.837 150.23 114.091Z" fill="#4AE792"/>
<path d="M24.7699 69.4427C24.6528 69.4615 24.5334 69.4615 24.4163 69.4427L6.73628 62.9963C6.47477 62.9007 6.26195 62.7051 6.14463 62.4526C6.02731 62.2001 6.01509 61.9114 6.11068 61.6499C6.20626 61.3884 6.40181 61.1755 6.65431 61.0582C6.90681 60.9409 7.19557 60.9287 7.45707 61.0243L25.1371 67.4707C25.3372 67.5738 25.4988 67.7387 25.5978 67.9409C25.6969 68.1431 25.7281 68.3719 25.6869 68.5932C25.6456 68.8146 25.5342 69.0167 25.369 69.1698C25.2038 69.3228 24.9937 69.4185 24.7699 69.4427Z" fill="#4AE792"/>
<path d="M179.741 125.869C179.624 125.89 179.505 125.89 179.388 125.869L161.708 119.423C161.568 119.384 161.438 119.317 161.325 119.226C161.212 119.135 161.12 119.021 161.054 118.892C160.987 118.763 160.948 118.622 160.939 118.477C160.931 118.332 160.952 118.187 161.002 118.051C161.052 117.915 161.13 117.791 161.23 117.686C161.331 117.582 161.452 117.5 161.586 117.444C161.72 117.389 161.865 117.363 162.01 117.366C162.155 117.369 162.297 117.403 162.429 117.464L180.109 123.897C180.336 123.983 180.527 124.146 180.648 124.358C180.768 124.57 180.811 124.817 180.769 125.057C180.727 125.297 180.603 125.514 180.418 125.673C180.233 125.831 179.998 125.92 179.755 125.924L179.741 125.869Z" fill="#4AE792"/>
<path d="M42.4755 62.7925L55.8851 70.5309C56.107 70.6691 56.2682 70.8863 56.3363 71.1386C56.4044 71.391 56.3744 71.6597 56.2523 71.8909C56.1163 72.115 55.9 72.2791 55.6475 72.3498C55.395 72.4205 55.1251 72.3925 54.8923 72.2717L41.4827 64.5197C41.3628 64.452 41.2577 64.3611 41.1734 64.2522C41.0891 64.1434 41.0274 64.0188 40.9919 63.8858C40.9565 63.7528 40.9479 63.614 40.9668 63.4776C40.9857 63.3412 41.0316 63.21 41.1019 63.0917C41.253 62.8803 41.4772 62.7326 41.7311 62.6773C41.9849 62.622 42.2503 62.6631 42.4755 62.7925Z" fill="#4AE792"/>
<path d="M145.784 123.639C145.692 123.799 145.559 123.932 145.399 124.025C145.239 124.118 145.058 124.168 144.873 124.169C144.69 124.166 144.512 124.114 144.356 124.019L130.946 116.281C130.722 116.145 130.558 115.929 130.487 115.676C130.417 115.424 130.445 115.154 130.566 114.921C130.702 114.697 130.918 114.533 131.17 114.462C131.423 114.391 131.693 114.419 131.926 114.54L145.335 122.279C145.566 122.408 145.741 122.62 145.824 122.871C145.907 123.123 145.893 123.397 145.784 123.639Z" fill="#4AE792"/>
<path d="M30.1537 57.9372C29.9712 57.9338 29.7929 57.8822 29.6369 57.7876L13.3169 48.3764C13.0957 48.2285 12.939 48.002 12.8788 47.7429C12.8185 47.4837 12.8592 47.2113 12.9925 46.981C13.1258 46.7507 13.3418 46.5798 13.5965 46.5031C13.8513 46.4263 14.1257 46.4493 14.3641 46.5676L30.6841 55.9788C30.8864 56.0933 31.0449 56.272 31.1345 56.4866C31.2241 56.7011 31.2398 56.9394 31.179 57.1638C31.1182 57.3883 30.9844 57.5861 30.7988 57.7261C30.6132 57.8662 30.3862 57.9404 30.1537 57.9372Z" fill="#4AE792"/>
<path d="M172.969 140.394C172.787 140.391 172.609 140.339 172.453 140.244L156.133 130.833C156.004 130.77 155.891 130.68 155.798 130.571C155.706 130.462 155.637 130.334 155.595 130.197C155.554 130.06 155.541 129.916 155.558 129.774C155.574 129.632 155.62 129.494 155.692 129.37C155.763 129.246 155.86 129.139 155.975 129.053C156.09 128.968 156.221 128.908 156.361 128.875C156.5 128.843 156.645 128.839 156.786 128.865C156.927 128.891 157.061 128.945 157.18 129.024L173.5 138.436C173.737 138.577 173.909 138.806 173.98 139.072C174.051 139.339 174.015 139.623 173.881 139.864C173.79 140.026 173.658 140.16 173.498 140.254C173.337 140.347 173.155 140.396 172.969 140.394Z" fill="#4AE792"/>
<path d="M48.5718 54.4826L60.431 64.4379C60.64 64.6147 60.7702 64.8673 60.7932 65.1401C60.8161 65.4129 60.7299 65.6837 60.5534 65.893C60.3765 66.102 60.1239 66.2323 59.8511 66.2552C59.5783 66.2782 59.3075 66.1919 59.0982 66.0154L47.239 56.0602C47.0262 55.8799 46.8937 55.6224 46.8708 55.3444C46.8478 55.0664 46.9362 54.7906 47.1166 54.5778C47.2969 54.365 47.5544 54.2326 47.8324 54.2096C48.1104 54.1867 48.3862 54.2751 48.599 54.4554L48.5718 54.4826Z" fill="#4AE792"/>
<path d="M139.732 132.275C139.634 132.393 139.512 132.489 139.373 132.555C139.235 132.62 139.083 132.655 138.93 132.656C138.686 132.655 138.449 132.569 138.263 132.411L126.39 122.483C126.181 122.304 126.05 122.049 126.027 121.774C126.004 121.499 126.091 121.226 126.268 121.014C126.355 120.909 126.461 120.822 126.582 120.759C126.702 120.696 126.834 120.658 126.97 120.646C127.105 120.635 127.242 120.651 127.371 120.693C127.501 120.735 127.62 120.803 127.723 120.892L139.596 130.847C139.796 131.023 139.922 131.269 139.947 131.534C139.972 131.799 139.895 132.064 139.732 132.275Z" fill="#4AE792"/>
<path d="M37.4565 47.506C37.2124 47.5056 36.9764 47.4189 36.7901 47.2612L22.3605 35.1572C22.1478 34.9774 22.0143 34.7212 21.9888 34.4438C21.9634 34.1665 22.048 33.8903 22.2245 33.6748C22.4062 33.464 22.6634 33.3331 22.9406 33.3102C23.2179 33.2873 23.4931 33.3743 23.7069 33.5524L38.1229 45.6564C38.2293 45.7432 38.3174 45.8503 38.382 45.9715C38.4466 46.0927 38.4864 46.2255 38.499 46.3623C38.5117 46.499 38.497 46.6369 38.4558 46.7679C38.4145 46.8989 38.3476 47.0204 38.2589 47.1252C38.1632 47.2458 38.0411 47.3429 37.902 47.4089C37.7629 47.4749 37.6105 47.5081 37.4565 47.506Z" fill="#4AE792"/>
<path d="M163.789 153.504C163.541 153.504 163.301 153.417 163.109 153.259L148.693 141.155C148.587 141.069 148.499 140.962 148.434 140.84C148.369 140.719 148.33 140.586 148.317 140.45C148.304 140.313 148.319 140.175 148.36 140.044C148.401 139.913 148.468 139.791 148.557 139.687C148.737 139.474 148.993 139.34 149.27 139.315C149.548 139.29 149.824 139.374 150.039 139.551L164.455 151.655C164.668 151.834 164.802 152.091 164.827 152.368C164.853 152.645 164.768 152.922 164.591 153.137C164.493 153.254 164.37 153.347 164.231 153.411C164.093 153.474 163.942 153.506 163.789 153.504Z" fill="#4AE792"/>
<path d="M56.0242 47.2203L65.9794 59.0795C66.1543 59.2905 66.2382 59.5623 66.2127 59.8352C66.1872 60.1081 66.0543 60.3597 65.8434 60.5347C65.6341 60.7112 65.3633 60.7974 65.0905 60.7745C64.8176 60.7515 64.5651 60.6213 64.3882 60.4123L54.433 48.5531C54.2526 48.3403 54.1642 48.0645 54.1872 47.7865C54.2101 47.5085 54.3426 47.251 54.5554 47.0707C54.7682 46.8903 55.0439 46.8019 55.3219 46.8249C55.5999 46.8478 55.8574 46.9803 56.0378 47.1931L56.0242 47.2203Z" fill="#4AE792"/>
<path d="M132.277 139.728C132.065 139.905 131.792 139.992 131.517 139.969C131.242 139.946 130.987 139.815 130.808 139.605L120.853 127.732C120.676 127.523 120.59 127.252 120.613 126.98C120.636 126.707 120.766 126.454 120.975 126.277C121.187 126.1 121.46 126.013 121.735 126.036C122.01 126.059 122.265 126.19 122.444 126.4L132.399 138.272C132.576 138.482 132.662 138.753 132.639 139.025C132.616 139.298 132.486 139.551 132.277 139.728Z" fill="#4AE792"/>
<path d="M46.4612 38.5027C46.3086 38.5045 46.1576 38.4725 46.0188 38.4091C45.8801 38.3456 45.7571 38.2522 45.6588 38.1355L33.5548 23.7059C33.3845 23.4837 33.3089 23.2032 33.3446 22.9255C33.3803 22.6478 33.5242 22.3955 33.7452 22.2235C33.9606 22.047 34.2369 21.9624 34.5142 21.9878C34.7916 22.0133 35.0478 22.1468 35.2276 22.3595L47.2636 36.8027C47.3897 36.9556 47.4698 37.141 47.4947 37.3376C47.5196 37.5342 47.4882 37.7338 47.4042 37.9132C47.3201 38.0927 47.1869 38.2446 47.02 38.3513C46.8531 38.4581 46.6593 38.5153 46.4612 38.5163V38.5027Z" fill="#4AE792"/>
<path d="M152.459 164.833C152.305 164.835 152.153 164.802 152.014 164.736C151.874 164.67 151.752 164.573 151.657 164.452L139.553 150.036C139.376 149.821 139.291 149.545 139.317 149.267C139.342 148.99 139.476 148.734 139.689 148.554C139.793 148.465 139.915 148.398 140.046 148.357C140.177 148.316 140.315 148.301 140.452 148.314C140.588 148.326 140.721 148.366 140.842 148.431C140.964 148.495 141.071 148.583 141.157 148.69L153.261 163.106C153.392 163.258 153.475 163.445 153.503 163.644C153.53 163.843 153.499 164.045 153.415 164.227C153.33 164.409 153.195 164.563 153.026 164.67C152.856 164.778 152.66 164.834 152.459 164.833Z" fill="#4AE792"/>
<path d="M64.6029 41.4268L72.3413 54.8365C72.4622 55.0692 72.4902 55.3391 72.4194 55.5916C72.3487 55.8442 72.1847 56.0604 71.9605 56.1965C71.7294 56.3186 71.4606 56.3486 71.2083 56.2804C70.956 56.2123 70.7388 56.0511 70.6005 55.8293L62.8622 42.4196C62.7445 42.1863 62.7183 41.9174 62.7888 41.6658C62.8592 41.4142 63.0212 41.1979 63.243 41.0596C63.4741 40.9375 63.7428 40.9075 63.9952 40.9757C64.2475 41.0438 64.4647 41.205 64.6029 41.4268Z" fill="#4AE792"/>
<path d="M123.642 145.78C123.485 145.87 123.307 145.917 123.125 145.916C122.942 145.916 122.761 145.868 122.602 145.777C122.442 145.687 122.308 145.556 122.214 145.399L114.476 132.003C114.355 131.77 114.327 131.5 114.398 131.248C114.468 130.995 114.632 130.779 114.857 130.643C115.089 130.522 115.359 130.494 115.612 130.565C115.864 130.635 116.08 130.799 116.217 131.024L123.955 144.433C124.075 144.657 124.11 144.918 124.052 145.165C123.995 145.413 123.849 145.631 123.642 145.78Z" fill="#4AE792"/>
<path d="M56.8651 31.1994C56.6814 31.1995 56.5009 31.152 56.3412 31.0614C56.1815 30.9708 56.048 30.8403 55.9539 30.6826L46.5427 14.3626C46.4244 14.1243 46.4014 13.8498 46.4782 13.5951C46.5549 13.3403 46.7258 13.1243 46.9561 12.991C47.1864 12.8577 47.4588 12.817 47.7179 12.8773C47.9771 12.9376 48.2036 13.0942 48.3515 13.3155L57.7627 29.6355C57.8836 29.8682 57.9115 30.1381 57.8408 30.3906C57.7701 30.6431 57.606 30.8594 57.3819 30.9955C57.2318 31.11 57.0529 31.1806 56.8651 31.1994Z" fill="#4AE792"/>
<path d="M139.35 174.013C139.167 174.013 138.986 173.966 138.827 173.875C138.667 173.785 138.533 173.654 138.439 173.496L129.028 157.176C128.949 157.057 128.894 156.923 128.869 156.782C128.843 156.642 128.846 156.497 128.879 156.357C128.911 156.218 128.972 156.087 129.057 155.972C129.142 155.856 129.25 155.76 129.374 155.688C129.498 155.617 129.635 155.571 129.778 155.554C129.92 155.538 130.064 155.551 130.201 155.592C130.338 155.633 130.465 155.702 130.575 155.795C130.684 155.887 130.773 156.001 130.837 156.129L140.248 172.449C140.369 172.682 140.397 172.952 140.326 173.204C140.255 173.457 140.091 173.673 139.867 173.809C139.717 173.924 139.538 173.994 139.35 174.013Z" fill="#4AE792"/>
<path d="M74.0689 37.2108L79.3593 51.7628C79.4114 51.892 79.4368 52.0304 79.434 52.1696C79.4312 52.3089 79.4004 52.4462 79.3432 52.5732C79.286 52.7003 79.2038 52.8144 79.1014 52.9089C78.999 53.0033 78.8786 53.0761 78.7473 53.1228C78.6181 53.1748 78.4797 53.2002 78.3405 53.1975C78.2012 53.1947 78.0639 53.1638 77.9369 53.1066C77.8099 53.0495 77.6957 52.9672 77.6013 52.8648C77.5068 52.7624 77.4341 52.642 77.3873 52.5108L72.0833 37.9588C71.9878 37.6973 72 37.4085 72.1173 37.156C72.2346 36.9035 72.4474 36.708 72.7089 36.6124C72.9704 36.5168 73.2592 36.529 73.5117 36.6463C73.7642 36.7637 73.9597 36.9765 74.0553 37.238L74.0689 37.2108Z" fill="#4AE792"/>
<path d="M114.094 150.227C113.973 150.246 113.849 150.246 113.727 150.227C113.512 150.225 113.303 150.158 113.128 150.034C112.953 149.91 112.82 149.735 112.748 149.533L107.457 134.995C107.407 134.865 107.383 134.727 107.387 134.589C107.391 134.45 107.422 134.313 107.479 134.187C107.536 134.06 107.617 133.946 107.719 133.851C107.82 133.757 107.939 133.683 108.069 133.635C108.199 133.585 108.337 133.561 108.476 133.564C108.614 133.568 108.751 133.599 108.877 133.656C109.004 133.713 109.118 133.795 109.213 133.896C109.307 133.997 109.381 134.117 109.429 134.247L114.72 148.799C114.783 148.932 114.817 149.078 114.819 149.226C114.821 149.373 114.791 149.52 114.732 149.655C114.673 149.79 114.585 149.911 114.475 150.01C114.365 150.109 114.235 150.182 114.094 150.227Z" fill="#4AE792"/>
<path d="M68.4279 25.8139C68.2144 25.8155 68.0057 25.751 67.8304 25.6293C67.6551 25.5075 67.5217 25.3345 67.4487 25.1339L60.9479 7.44027C60.8511 7.17693 60.8626 6.88597 60.9799 6.63109C61.0971 6.37621 61.3106 6.17816 61.5735 6.08027C61.7037 6.03048 61.8426 6.0072 61.982 6.0118C62.1213 6.0164 62.2584 6.04879 62.3851 6.10706C62.5117 6.16533 62.6255 6.24831 62.7197 6.35114C62.8139 6.45396 62.8866 6.57457 62.9335 6.70587L69.3799 24.3859C69.473 24.6494 69.4598 24.9389 69.3429 25.1928C69.2261 25.4467 69.015 25.6451 68.7543 25.7459C68.6494 25.7844 68.5394 25.8073 68.4279 25.8139Z" fill="#4AE792"/>
<path d="M124.866 180.786C124.652 180.785 124.443 180.717 124.267 180.593C124.092 180.469 123.959 180.294 123.887 180.092L117.454 162.412C117.393 162.281 117.359 162.138 117.356 161.993C117.352 161.848 117.379 161.704 117.434 161.57C117.489 161.436 117.572 161.315 117.676 161.214C117.781 161.114 117.905 161.036 118.041 160.986C118.177 160.936 118.322 160.914 118.467 160.923C118.612 160.932 118.753 160.971 118.882 161.037C119.011 161.104 119.125 161.196 119.216 161.309C119.307 161.421 119.374 161.552 119.413 161.692L125.859 179.372C125.911 179.502 125.936 179.641 125.932 179.781C125.928 179.921 125.896 180.059 125.838 180.186C125.779 180.313 125.695 180.427 125.592 180.521C125.488 180.615 125.366 180.686 125.233 180.732C125.115 180.769 124.991 180.788 124.866 180.786Z" fill="#4AE792"/>
<path d="M84.065 34.7082L86.785 49.9674C86.8083 50.1006 86.805 50.2371 86.7751 50.3689C86.7452 50.5008 86.6894 50.6253 86.611 50.7354C86.5325 50.8455 86.4329 50.9389 86.3181 51.0102C86.2032 51.0815 86.0753 51.1292 85.9418 51.1506C85.6717 51.1943 85.3953 51.1305 85.1716 50.9729C84.9479 50.8153 84.7948 50.5765 84.745 50.3074L82.025 35.0618C81.9869 34.9216 81.9783 34.7749 81.9999 34.6312C82.0215 34.4875 82.0728 34.3499 82.1505 34.227C82.2282 34.1042 82.3307 33.9989 82.4513 33.9178C82.5719 33.8368 82.7081 33.7817 82.8512 33.7561C82.9942 33.7305 83.1411 33.735 83.2823 33.7693C83.4235 33.8035 83.5561 33.8668 83.6716 33.9551C83.787 34.0433 83.8828 34.1547 83.9529 34.282C84.023 34.4093 84.0658 34.5499 84.0786 34.6946L84.065 34.7082Z" fill="#4AE792"/>
<path d="M103.907 152.96H103.73C103.483 152.961 103.243 152.874 103.054 152.714C102.865 152.555 102.738 152.334 102.696 152.09L99.9764 136.844C99.953 136.71 99.9562 136.573 99.9859 136.44C100.016 136.308 100.071 136.182 100.15 136.071C100.228 135.96 100.327 135.865 100.442 135.793C100.557 135.72 100.686 135.671 100.82 135.648C101.088 135.604 101.362 135.666 101.586 135.82C101.809 135.975 101.964 136.211 102.016 136.477L104.736 151.736C104.785 152.008 104.725 152.288 104.57 152.517C104.415 152.745 104.177 152.904 103.907 152.96Z" fill="#4AE792"/>
<path d="M80.7199 22.5227C80.4762 22.5231 80.2401 22.4373 80.0535 22.2805C79.8668 22.1238 79.7416 21.9061 79.6999 21.6659L76.4223 3.1155C76.398 2.8496 76.4763 2.58446 76.641 2.37431C76.8057 2.16417 77.0445 2.02488 77.3085 1.98493C77.5725 1.94499 77.8418 2.00739 78.0613 2.1594C78.2808 2.3114 78.434 2.54152 78.4895 2.8027L81.7535 21.2987C81.7789 21.4337 81.7772 21.5724 81.7484 21.7066C81.7196 21.8409 81.6644 21.9681 81.5859 22.0808C81.5074 22.1935 81.4072 22.2894 81.2912 22.363C81.1752 22.4365 81.0457 22.4862 80.9103 22.5091L80.7199 22.5227Z" fill="#4AE792"/>
<path d="M109.359 184.934C109.113 184.932 108.875 184.843 108.686 184.685C108.497 184.526 108.37 184.306 108.326 184.064L105.062 165.513C105.022 165.372 105.013 165.224 105.035 165.08C105.056 164.935 105.108 164.796 105.186 164.672C105.264 164.549 105.368 164.443 105.489 164.362C105.611 164.28 105.749 164.226 105.893 164.201C106.037 164.176 106.185 164.182 106.327 164.217C106.469 164.253 106.602 164.318 106.717 164.409C106.832 164.499 106.927 164.613 106.996 164.742C107.064 164.871 107.105 165.014 107.115 165.16L110.393 183.683C110.416 183.819 110.413 183.958 110.382 184.092C110.352 184.226 110.295 184.353 110.216 184.466C110.136 184.578 110.035 184.674 109.918 184.747C109.802 184.821 109.672 184.87 109.536 184.893L109.359 184.934Z" fill="#4AE792"/>
<path d="M93.4085 136.3C93.6826 136.3 93.9455 136.409 94.1393 136.603C94.3332 136.797 94.4421 137.06 94.4421 137.334V152.783C94.4475 153.049 94.3547 153.307 94.1815 153.507C94.0082 153.708 93.7668 153.838 93.5037 153.871C93.3573 153.887 93.2093 153.871 93.0694 153.825C92.9296 153.78 92.8009 153.705 92.6918 153.606C92.5827 153.507 92.4957 153.387 92.4364 153.252C92.3771 153.117 92.3469 152.971 92.3477 152.824V137.334C92.3477 137.06 92.4566 136.797 92.6504 136.603C92.8442 136.409 93.1071 136.3 93.3813 136.3H93.4085Z" fill="#4AE792"/>
<path d="M94.4578 34.0827V49.5323C94.4578 49.6681 94.4311 49.8025 94.3791 49.9279C94.3272 50.0533 94.2511 50.1672 94.1551 50.2632C94.0591 50.3592 93.9452 50.4353 93.8198 50.4873C93.6944 50.5392 93.56 50.5659 93.4242 50.5659C93.2885 50.5659 93.1541 50.5392 93.0287 50.4873C92.9033 50.4353 92.7893 50.3592 92.6934 50.2632C92.5974 50.1672 92.5212 50.0533 92.4693 49.9279C92.4174 49.8025 92.3906 49.6681 92.3906 49.5323V33.9875C92.3919 33.841 92.4235 33.6963 92.4835 33.5626C92.5435 33.4289 92.6306 33.309 92.7392 33.2106C92.8478 33.1123 92.9756 33.0374 93.1146 32.9909C93.2536 32.9444 93.4007 32.9272 93.5466 32.9403C93.8146 32.9807 94.0574 33.1209 94.2264 33.3328C94.3953 33.5446 94.478 33.8125 94.4578 34.0827Z" fill="#4AE792"/>
<path d="M93.4105 21.4211C93.1338 21.4176 92.8695 21.3061 92.6739 21.1105C92.4783 20.9149 92.3668 20.6506 92.3633 20.3739V1.53792C92.3633 1.26018 92.4736 0.993825 92.67 0.797437C92.8664 0.601048 93.1327 0.490723 93.4105 0.490723C93.6882 0.490723 93.9546 0.601048 94.151 0.797437C94.3473 0.993825 94.4577 1.26018 94.4577 1.53792V20.3739C94.4577 20.5114 94.4306 20.6476 94.378 20.7747C94.3253 20.9017 94.2482 21.0172 94.151 21.1144C94.0537 21.2116 93.9383 21.2888 93.8112 21.3414C93.6842 21.394 93.548 21.4211 93.4105 21.4211Z" fill="#4AE792"/>
<path d="M93.4105 186.321C93.1328 186.321 92.8664 186.211 92.67 186.014C92.4736 185.818 92.3633 185.552 92.3633 185.274V166.452C92.3633 166.174 92.4736 165.907 92.67 165.711C92.8664 165.515 93.1328 165.404 93.4105 165.404C93.6882 165.404 93.9546 165.515 94.151 165.711C94.3474 165.907 94.4577 166.174 94.4577 166.452V185.274C94.4595 185.412 94.4337 185.549 94.3817 185.677C94.3297 185.805 94.2526 185.921 94.155 186.018C94.0574 186.116 93.9413 186.193 93.8134 186.245C93.6855 186.297 93.5485 186.323 93.4105 186.321Z" fill="#4AE792"/>
</svg>
