<svg width="348" height="353" viewBox="0 0 348 353" fill="none" xmlns="http://www.w3.org/2000/svg">
<g opacity="0.2" filter="url(#filter0_f)">
<path d="M188.194 275.087C187.942 274.96 187.724 274.775 187.556 274.548C187.389 274.321 187.277 274.058 187.229 273.779L174.531 193.349C174.449 193.1 174.423 192.836 174.454 192.576C174.486 192.315 174.574 192.065 174.714 191.842C174.853 191.62 175.039 191.431 175.26 191.289C175.48 191.147 175.729 191.055 175.989 191.02C176.249 190.985 176.514 191.007 176.764 191.086C177.014 191.165 177.244 191.297 177.437 191.475C177.63 191.652 177.782 191.87 177.881 192.113C177.981 192.356 178.026 192.617 178.013 192.879L190.774 273.185C190.846 273.654 190.731 274.131 190.454 274.516C190.178 274.9 189.761 275.161 189.294 275.241C188.92 275.312 188.533 275.258 188.194 275.087Z" fill="#4AE792"/>
<path d="M193.384 308.041C193.14 307.9 192.928 307.709 192.764 307.481C192.599 307.252 192.485 306.991 192.429 306.715L188.729 283.159C188.749 282.742 188.915 282.346 189.198 282.039C189.48 281.732 189.861 281.533 190.274 281.477C190.688 281.421 191.108 281.512 191.461 281.733C191.815 281.955 192.08 282.293 192.21 282.689L195.91 306.245C195.98 306.715 195.862 307.193 195.581 307.576C195.301 307.959 194.882 308.216 194.413 308.292C194.054 308.303 193.698 308.216 193.384 308.041Z" fill="#4AE792"/>
<path d="M170.215 161.304C169.965 161.179 169.748 160.996 169.584 160.77C169.419 160.544 169.311 160.282 169.269 160.005L156.553 79.5661C156.516 79.3332 156.525 79.0954 156.58 78.8663C156.636 78.6371 156.736 78.4212 156.875 78.231C157.014 78.0407 157.19 77.8799 157.391 77.7577C157.593 77.6355 157.817 77.5545 158.05 77.5192C158.281 77.482 158.517 77.4911 158.745 77.546C158.972 77.6008 159.187 77.7004 159.376 77.8389C159.564 77.9774 159.724 78.152 159.845 78.3526C159.965 78.5532 160.045 78.7758 160.079 79.0075L172.795 159.446C172.832 159.678 172.823 159.914 172.768 160.142C172.713 160.369 172.614 160.584 172.475 160.772C172.337 160.961 172.162 161.121 171.962 161.241C171.761 161.362 171.538 161.442 171.307 161.476C170.934 161.541 170.55 161.481 170.215 161.304Z" fill="#4AE792"/>
<path d="M156.03 71.5021C155.776 71.3744 155.557 71.1872 155.39 70.9564C155.224 70.7257 155.116 70.4581 155.075 70.1766L151.277 46.5937C151.298 46.177 151.464 45.7807 151.746 45.4735C152.029 45.1664 152.41 44.9677 152.823 44.9119C153.236 44.8561 153.656 44.9467 154.01 45.168C154.364 45.3894 154.629 45.7275 154.759 46.1237L158.459 69.6798C158.532 70.148 158.417 70.6258 158.14 71.0104C157.863 71.3949 157.447 71.6553 156.98 71.7356C156.649 71.7381 156.323 71.6579 156.03 71.5021Z" fill="#4AE792"/>
<path d="M128.173 265.565C127.962 265.46 127.775 265.313 127.622 265.134C127.47 264.955 127.354 264.747 127.283 264.523C127.211 264.298 127.186 264.062 127.207 263.827C127.228 263.593 127.296 263.365 127.407 263.157L164.38 190.641C164.598 190.218 164.975 189.899 165.427 189.752C165.88 189.605 166.372 189.643 166.797 189.857C167.006 189.962 167.192 190.107 167.344 190.285C167.496 190.462 167.611 190.668 167.683 190.89C167.756 191.113 167.783 191.347 167.764 191.58C167.744 191.813 167.679 192.04 167.572 192.247L130.599 264.764C130.383 265.192 130.006 265.517 129.551 265.667C129.097 265.818 128.6 265.781 128.173 265.565Z" fill="#4AE792"/>
<path d="M113.012 295.274C112.803 295.166 112.618 295.019 112.467 294.839C112.316 294.66 112.201 294.452 112.13 294.229C112.059 294.005 112.033 293.77 112.052 293.536C112.072 293.302 112.138 293.074 112.246 292.866L123.065 271.64C123.278 271.217 123.65 270.896 124.1 270.747C124.55 270.598 125.041 270.635 125.464 270.848C125.887 271.061 126.209 271.433 126.357 271.883C126.506 272.333 126.47 272.824 126.257 273.247L115.438 294.473C115.222 294.901 114.846 295.226 114.391 295.376C113.936 295.526 113.44 295.49 113.012 295.274Z" fill="#4AE792"/>
<path d="M180.516 162.956C180.093 162.737 179.774 162.361 179.627 161.908C179.481 161.455 179.518 160.963 179.732 160.538L216.723 88.0306C216.936 87.6074 217.309 87.2861 217.759 87.1374C218.209 86.9888 218.7 87.025 219.123 87.2381C219.546 87.4512 219.867 87.8237 220.016 88.2737C220.165 88.7236 220.128 89.2142 219.915 89.6375L182.924 162.145C182.82 162.358 182.675 162.547 182.498 162.703C182.32 162.859 182.113 162.978 181.889 163.053C181.665 163.129 181.429 163.159 181.193 163.142C180.957 163.125 180.727 163.062 180.516 162.956Z" fill="#4AE792"/>
<path d="M221.828 81.9549C221.406 81.7364 221.086 81.36 220.94 80.9074C220.793 80.4549 220.831 79.9627 221.045 79.5378L231.881 58.321C232.094 57.8978 232.467 57.5765 232.917 57.4278C233.367 57.2792 233.857 57.3154 234.281 57.5285C234.704 57.7416 235.025 58.1141 235.174 58.5641C235.322 59.014 235.286 59.5046 235.073 59.9279L224.237 81.1447C224.133 81.3569 223.988 81.5465 223.81 81.7023C223.632 81.8581 223.426 81.9772 223.202 82.0525C222.978 82.1279 222.741 82.1581 222.505 82.1413C222.269 82.1246 222.039 82.0612 221.828 81.9549Z" fill="#4AE792"/>
<path d="M85.2199 222.581C84.8853 222.413 84.6171 222.137 84.4584 221.797C84.35 221.589 84.2839 221.36 84.264 221.126C84.244 220.891 84.2706 220.655 84.3421 220.431C84.4137 220.207 84.5288 219.999 84.681 219.819C84.8331 219.64 85.0192 219.492 85.2286 219.385L157.761 182.55C157.97 182.425 158.204 182.344 158.446 182.312C158.689 182.281 158.935 182.299 159.17 182.367C159.405 182.434 159.624 182.549 159.813 182.704C160.001 182.86 160.156 183.052 160.268 183.27C160.379 183.487 160.445 183.726 160.46 183.97C160.476 184.214 160.441 184.458 160.359 184.688C160.276 184.918 160.147 185.129 159.98 185.307C159.812 185.486 159.61 185.627 159.386 185.724L86.8 222.665C86.5478 222.773 86.2741 222.822 86.0001 222.807C85.7261 222.793 85.4591 222.715 85.2199 222.581Z" fill="#4AE792"/>
<path d="M55.52 237.702C55.1787 237.538 54.9014 237.266 54.7319 236.928C54.6255 236.718 54.5615 236.49 54.5435 236.255C54.5255 236.021 54.554 235.785 54.6272 235.562C54.7003 235.339 54.8169 235.132 54.97 234.954C55.1232 234.776 55.31 234.63 55.5198 234.524L76.7691 223.705C77.192 223.492 77.6818 223.453 78.1331 223.597C78.5844 223.741 78.9611 224.056 79.182 224.476C79.2884 224.685 79.3524 224.914 79.3703 225.148C79.3883 225.382 79.3599 225.618 79.2867 225.841C79.2135 226.064 79.097 226.271 78.9438 226.449C78.7907 226.627 78.6038 226.774 78.3941 226.879L57.1358 237.715C56.8858 237.845 56.6079 237.912 56.3262 237.909C56.0446 237.907 55.7678 237.836 55.52 237.702Z" fill="#4AE792"/>
<path d="M187.894 170.337C187.56 170.158 187.288 169.882 187.115 169.545C187.008 169.335 186.944 169.107 186.927 168.873C186.909 168.638 186.937 168.403 187.01 168.179C187.083 167.956 187.2 167.749 187.353 167.571C187.506 167.393 187.693 167.247 187.903 167.141L260.417 130.298C260.627 130.172 260.86 130.091 261.103 130.06C261.345 130.028 261.592 130.047 261.827 130.114C262.062 130.181 262.28 130.296 262.469 130.452C262.658 130.607 262.813 130.8 262.924 131.017C263.036 131.235 263.101 131.473 263.117 131.717C263.132 131.961 263.098 132.206 263.015 132.436C262.933 132.666 262.803 132.877 262.636 133.055C262.469 133.233 262.267 133.375 262.042 133.472L189.528 170.315C189.276 170.445 188.997 170.515 188.713 170.519C188.43 170.523 188.149 170.461 187.894 170.337Z" fill="#4AE792"/>
<path d="M268.918 129.087C268.589 128.911 268.323 128.637 268.156 128.304C268.048 128.095 267.982 127.867 267.962 127.632C267.942 127.398 267.968 127.162 268.04 126.937C268.111 126.713 268.227 126.505 268.379 126.326C268.531 126.146 268.717 125.998 268.926 125.891L290.176 115.073C290.592 114.893 291.061 114.878 291.488 115.032C291.915 115.185 292.268 115.495 292.474 115.899C292.681 116.303 292.727 116.77 292.601 117.206C292.476 117.642 292.19 118.014 291.801 118.247L270.525 129.074C270.276 129.201 270.002 129.269 269.723 129.271C269.444 129.274 269.168 129.211 268.918 129.087Z" fill="#4AE792"/>
<path d="M75.7398 162.553C75.406 162.383 75.1343 162.111 74.9631 161.778C74.792 161.444 74.73 161.066 74.786 160.695C74.8626 160.224 75.1228 159.802 75.5095 159.522C75.8963 159.241 76.3782 159.126 76.8499 159.2L157.264 171.965C157.733 172.047 158.151 172.308 158.431 172.693C158.71 173.079 158.827 173.558 158.759 174.029C158.678 174.496 158.417 174.911 158.033 175.188C157.649 175.464 157.171 175.578 156.704 175.506L76.272 162.732C76.086 162.702 75.9061 162.642 75.7398 162.553Z" fill="#4AE792"/>
<path d="M42.8112 157.334C42.4275 157.143 42.125 156.821 41.959 156.426C41.793 156.031 41.7746 155.589 41.907 155.182C42.0394 154.774 42.3139 154.428 42.6804 154.206C43.0469 153.984 43.481 153.901 43.9036 153.972L67.4481 157.756C67.8912 157.855 68.2801 158.119 68.5357 158.494C68.7913 158.869 68.8944 159.328 68.8243 159.776C68.7541 160.225 68.5158 160.63 68.1578 160.909C67.7998 161.188 67.349 161.321 66.8969 161.28L43.3256 157.548C43.1472 157.495 42.9748 157.423 42.8112 157.334Z" fill="#4AE792"/>
<path d="M189.519 180.624C189.183 180.456 188.909 180.185 188.738 179.851C188.566 179.516 188.506 179.136 188.565 178.765C188.639 178.299 188.895 177.88 189.277 177.602C189.658 177.323 190.135 177.207 190.602 177.279L271.034 190.054C271.477 190.152 271.866 190.416 272.121 190.792C272.377 191.167 272.48 191.625 272.41 192.074C272.34 192.522 272.101 192.927 271.743 193.206C271.385 193.486 270.935 193.618 270.482 193.577L190.051 180.803C189.865 180.773 189.685 180.712 189.519 180.624Z" fill="#4AE792"/>
<path d="M279.326 194.896C278.942 194.705 278.64 194.383 278.474 193.988C278.308 193.593 278.29 193.151 278.422 192.744C278.554 192.336 278.829 191.99 279.195 191.768C279.562 191.546 279.996 191.463 280.419 191.534L303.963 195.274C304.433 195.349 304.854 195.605 305.135 195.988C305.417 196.371 305.536 196.85 305.467 197.32C305.432 197.553 305.35 197.777 305.227 197.979C305.104 198.18 304.942 198.355 304.751 198.492C304.559 198.63 304.342 198.728 304.112 198.78C303.882 198.833 303.644 198.838 303.412 198.797L279.841 195.066C279.661 195.038 279.487 194.98 279.326 194.896Z" fill="#4AE792"/>
<path d="M160.914 166.046C160.748 165.955 160.596 165.841 160.462 165.707L102.909 108.106C102.588 107.769 102.411 107.32 102.416 106.854C102.421 106.388 102.608 105.943 102.936 105.613C103.264 105.283 103.709 105.094 104.174 105.087C104.64 105.079 105.09 105.254 105.429 105.573L163.088 163.229C163.4 163.528 163.593 163.93 163.632 164.361C163.67 164.791 163.551 165.221 163.296 165.571C163.041 165.92 162.669 166.166 162.247 166.261C161.825 166.357 161.383 166.296 161.003 166.091L160.914 166.046Z" fill="#4AE792"/>
<path d="M96.6586 101.713C96.4811 101.656 96.3135 101.572 96.1621 101.463L79.2945 84.5924C78.9599 84.2559 78.7726 83.8003 78.7739 83.3258C78.7752 82.8513 78.965 82.3967 79.3014 82.062C79.6379 81.7274 80.0935 81.5401 80.568 81.5414C81.0426 81.5427 81.4972 81.7325 81.8318 82.069L98.6994 98.94C99.0298 99.2786 99.2142 99.7334 99.2129 100.207C99.2116 100.68 99.0247 101.133 98.6925 101.47C98.4207 101.717 98.0788 101.873 97.7143 101.917C97.3499 101.96 96.9809 101.889 96.6586 101.713Z" fill="#4AE792"/>
<path d="M242.338 247.534C242.171 247.445 242.018 247.331 241.886 247.195L184.333 189.594C184.012 189.257 183.835 188.807 183.84 188.342C183.845 187.876 184.031 187.431 184.36 187.101C184.688 186.771 185.133 186.582 185.598 186.575C186.064 186.567 186.514 186.742 186.853 187.061L244.441 244.636C244.753 244.936 244.946 245.338 244.985 245.768C245.023 246.199 244.904 246.629 244.649 246.978C244.394 247.328 244.022 247.573 243.6 247.669C243.178 247.764 242.736 247.704 242.356 247.498L242.338 247.534Z" fill="#4AE792"/>
<path d="M265.916 271.117C265.739 271.06 265.571 270.975 265.42 270.867L248.552 253.996C248.387 253.829 248.255 253.632 248.166 253.414C248.077 253.197 248.031 252.964 248.032 252.729C248.032 252.494 248.079 252.262 248.17 252.045C248.26 251.828 248.393 251.631 248.559 251.465C248.726 251.3 248.923 251.168 249.141 251.079C249.358 250.99 249.591 250.944 249.826 250.945C250.061 250.945 250.293 250.992 250.51 251.083C250.727 251.173 250.924 251.306 251.09 251.472L267.939 268.334C268.275 268.671 268.464 269.126 268.466 269.602C268.468 270.077 268.283 270.534 267.95 270.874C267.679 271.12 267.337 271.276 266.972 271.32C266.608 271.364 266.239 271.292 265.916 271.117Z" fill="#4AE792"/>
<path d="M170.215 161.304C169.965 161.179 169.748 160.996 169.584 160.77C169.419 160.544 169.311 160.282 169.269 160.005L156.553 79.5661C156.516 79.3332 156.525 79.0954 156.58 78.8663C156.636 78.6371 156.736 78.4212 156.875 78.231C157.014 78.0407 157.19 77.8799 157.391 77.7577C157.593 77.6355 157.817 77.5545 158.05 77.5192C158.281 77.482 158.517 77.4911 158.745 77.546C158.972 77.6008 159.187 77.7004 159.376 77.8389C159.564 77.9774 159.724 78.152 159.845 78.3526C159.965 78.5532 160.045 78.7758 160.079 79.0075L172.795 159.446C172.832 159.678 172.823 159.914 172.768 160.142C172.713 160.369 172.614 160.584 172.475 160.772C172.337 160.961 172.162 161.121 171.962 161.241C171.761 161.362 171.538 161.442 171.307 161.476C170.934 161.541 170.55 161.481 170.215 161.304Z" fill="#4AE792"/>
<path d="M156.03 71.5021C155.776 71.3744 155.557 71.1872 155.39 70.9564C155.224 70.7257 155.116 70.4581 155.075 70.1766L151.277 46.5937C151.298 46.177 151.464 45.7807 151.746 45.4735C152.029 45.1664 152.41 44.9677 152.823 44.9119C153.236 44.8561 153.656 44.9467 154.01 45.168C154.364 45.3894 154.629 45.7275 154.759 46.1237L158.459 69.6798C158.532 70.148 158.417 70.6258 158.14 71.0104C157.863 71.3949 157.447 71.6553 156.98 71.7356C156.649 71.7381 156.323 71.6579 156.03 71.5021Z" fill="#4AE792"/>
<path d="M188.194 275.087C187.942 274.96 187.724 274.775 187.556 274.548C187.389 274.321 187.277 274.058 187.229 273.779L174.531 193.349C174.449 193.1 174.423 192.836 174.454 192.576C174.486 192.315 174.574 192.065 174.714 191.842C174.853 191.62 175.039 191.431 175.26 191.289C175.48 191.147 175.729 191.055 175.989 191.02C176.249 190.985 176.514 191.007 176.764 191.086C177.014 191.165 177.244 191.297 177.437 191.475C177.63 191.652 177.782 191.87 177.881 192.113C177.981 192.356 178.026 192.617 178.013 192.879L190.774 273.185C190.846 273.654 190.731 274.131 190.454 274.516C190.178 274.9 189.761 275.161 189.294 275.241C188.92 275.312 188.533 275.258 188.194 275.087Z" fill="#4AE792"/>
<path d="M193.384 308.041C193.14 307.9 192.928 307.709 192.764 307.481C192.599 307.252 192.485 306.991 192.429 306.715L188.729 283.159C188.749 282.742 188.915 282.346 189.198 282.039C189.48 281.732 189.861 281.533 190.274 281.477C190.688 281.421 191.108 281.512 191.461 281.733C191.815 281.955 192.08 282.293 192.21 282.689L195.91 306.245C195.98 306.715 195.862 307.193 195.581 307.576C195.301 307.959 194.882 308.216 194.413 308.292C194.054 308.303 193.698 308.216 193.384 308.041Z" fill="#4AE792"/>
<path d="M180.516 162.956C180.093 162.737 179.774 162.361 179.627 161.908C179.481 161.455 179.518 160.963 179.732 160.538L216.723 88.0306C216.936 87.6074 217.309 87.2861 217.759 87.1374C218.209 86.9888 218.7 87.025 219.123 87.2381C219.546 87.4512 219.867 87.8237 220.016 88.2737C220.165 88.7236 220.128 89.2142 219.915 89.6375L182.924 162.145C182.82 162.358 182.675 162.547 182.498 162.703C182.32 162.859 182.113 162.978 181.889 163.053C181.665 163.129 181.429 163.159 181.193 163.142C180.957 163.125 180.727 163.062 180.516 162.956Z" fill="#4AE792"/>
<path d="M221.828 81.9549C221.406 81.7364 221.086 81.36 220.94 80.9074C220.793 80.4549 220.831 79.9627 221.045 79.5378L231.881 58.321C232.094 57.8978 232.467 57.5765 232.917 57.4278C233.367 57.2792 233.857 57.3154 234.281 57.5285C234.704 57.7416 235.025 58.1141 235.174 58.5641C235.322 59.014 235.286 59.5046 235.073 59.9279L224.237 81.1447C224.133 81.3569 223.988 81.5465 223.81 81.7023C223.632 81.8581 223.426 81.9772 223.202 82.0525C222.978 82.1279 222.741 82.1581 222.505 82.1413C222.269 82.1246 222.039 82.0612 221.828 81.9549Z" fill="#4AE792"/>
<path d="M128.173 265.565C127.962 265.46 127.775 265.313 127.622 265.134C127.47 264.955 127.354 264.747 127.283 264.523C127.211 264.298 127.186 264.062 127.207 263.827C127.228 263.593 127.296 263.365 127.407 263.157L164.38 190.641C164.598 190.218 164.975 189.899 165.427 189.752C165.88 189.605 166.372 189.643 166.797 189.857C167.006 189.962 167.192 190.107 167.344 190.285C167.496 190.462 167.611 190.668 167.683 190.89C167.756 191.113 167.783 191.347 167.764 191.58C167.744 191.813 167.679 192.04 167.572 192.247L130.599 264.764C130.383 265.192 130.006 265.517 129.551 265.667C129.097 265.818 128.6 265.781 128.173 265.565Z" fill="#4AE792"/>
<path d="M113.012 295.274C112.803 295.166 112.618 295.019 112.467 294.839C112.316 294.66 112.201 294.452 112.13 294.229C112.059 294.005 112.033 293.77 112.052 293.536C112.072 293.302 112.138 293.074 112.246 292.866L123.065 271.64C123.278 271.217 123.65 270.896 124.1 270.747C124.55 270.598 125.041 270.635 125.464 270.848C125.887 271.061 126.209 271.433 126.357 271.883C126.506 272.333 126.47 272.824 126.257 273.247L115.438 294.473C115.222 294.901 114.846 295.226 114.391 295.376C113.936 295.526 113.44 295.49 113.012 295.274Z" fill="#4AE792"/>
<path d="M179.823 140.003C179.489 139.837 179.216 139.57 179.043 139.239C178.87 138.908 178.806 138.532 178.861 138.162L187.203 81.0606C187.271 80.591 187.523 80.1678 187.904 79.8841C188.284 79.6005 188.762 79.4795 189.231 79.5479C189.701 79.6163 190.124 79.8684 190.408 80.2489C190.691 80.6293 190.812 81.1068 190.744 81.5764L182.402 138.678C182.329 139.146 182.076 139.566 181.697 139.849C181.317 140.132 180.842 140.255 180.373 140.191C180.182 140.156 179.996 140.092 179.823 140.003Z" fill="#4AE792"/>
<path d="M200.146 150.366C199.968 150.283 199.808 150.165 199.676 150.019C199.346 149.681 199.163 149.226 199.168 148.753C199.172 148.281 199.364 147.829 199.701 147.497L240.981 107.31C241.149 107.145 241.348 107.014 241.568 106.926C241.787 106.838 242.021 106.795 242.257 106.798C242.493 106.801 242.726 106.851 242.943 106.945C243.16 107.038 243.356 107.174 243.52 107.344C243.686 107.51 243.816 107.707 243.904 107.925C243.992 108.142 244.036 108.375 244.032 108.609C244.028 108.844 243.977 109.075 243.881 109.289C243.786 109.504 243.649 109.697 243.477 109.857L202.224 150.035C201.958 150.303 201.613 150.48 201.239 150.539C200.866 150.599 200.483 150.538 200.146 150.366Z" fill="#4AE792"/>
<path d="M81.7102 139.399C81.3254 139.198 81.0254 138.866 80.8651 138.463C80.7049 138.06 80.695 137.613 80.8373 137.203C80.9175 136.982 81.0405 136.779 81.1992 136.606C81.358 136.433 81.5494 136.292 81.7624 136.193C81.9755 136.094 82.206 136.038 82.4409 136.028C82.6757 136.018 82.9101 136.054 83.1308 136.135L137.432 155.648C137.653 155.727 137.857 155.849 138.031 156.007C138.205 156.165 138.346 156.356 138.447 156.568C138.547 156.781 138.605 157.011 138.616 157.246C138.628 157.481 138.593 157.716 138.513 157.937C138.434 158.158 138.312 158.362 138.154 158.536C137.996 158.71 137.805 158.851 137.593 158.952C137.38 159.052 137.15 159.11 136.915 159.121C136.68 159.132 136.446 159.098 136.224 159.018L81.9319 139.488L81.7102 139.399Z" fill="#4AE792"/>
<path d="M151.544 138.48C151.265 138.337 151.027 138.126 150.853 137.865L119.573 89.3558C119.447 89.1578 119.36 88.9369 119.319 88.7055C119.278 88.4742 119.283 88.237 119.333 88.0076C119.384 87.7781 119.479 87.5608 119.614 87.3681C119.748 87.1755 119.919 87.0112 120.117 86.8846C120.315 86.7581 120.536 86.6718 120.767 86.6306C120.999 86.5895 121.236 86.5943 121.465 86.6448C121.695 86.6953 121.912 86.7905 122.105 86.925C122.297 87.0594 122.462 87.2306 122.588 87.4285L153.762 135.884C154.018 136.282 154.106 136.765 154.006 137.227C153.907 137.69 153.628 138.094 153.231 138.351C152.984 138.515 152.7 138.613 152.404 138.636C152.109 138.659 151.812 138.605 151.544 138.48Z" fill="#4AE792"/>
<path d="M254.877 227.663L254.664 227.556L206.987 195.063C206.594 194.795 206.324 194.382 206.236 193.914C206.149 193.447 206.25 192.964 206.518 192.571C206.787 192.179 207.2 191.909 207.667 191.821C208.134 191.733 208.618 191.835 209.01 192.103L256.688 224.596C257.097 224.837 257.393 225.231 257.512 225.691C257.631 226.151 257.562 226.639 257.32 227.048C257.079 227.457 256.685 227.754 256.225 227.872C255.765 227.991 255.277 227.922 254.868 227.681L254.877 227.663Z" fill="#4AE792"/>
<path d="M214.593 170.641C214.313 170.504 214.076 170.293 213.906 170.032C213.737 169.77 213.641 169.468 213.629 169.156C213.616 168.922 213.649 168.687 213.726 168.465C213.803 168.243 213.924 168.039 214.08 167.864C214.236 167.689 214.426 167.546 214.637 167.444C214.849 167.342 215.078 167.283 215.313 167.27L272.934 164.115C273.177 164.086 273.423 164.108 273.658 164.178C273.892 164.248 274.11 164.365 274.297 164.523C274.484 164.681 274.637 164.875 274.746 165.094C274.854 165.313 274.917 165.552 274.93 165.797C274.943 166.041 274.905 166.285 274.82 166.514C274.734 166.744 274.602 166.953 274.433 167.129C274.263 167.305 274.059 167.445 273.833 167.539C273.607 167.633 273.364 167.68 273.12 167.676L215.445 170.804C215.153 170.813 214.862 170.758 214.593 170.641Z" fill="#4AE792"/>
<path d="M105.315 244.478C105.142 244.386 104.984 244.269 104.845 244.13C104.682 243.961 104.554 243.761 104.468 243.542C104.383 243.323 104.341 243.09 104.346 242.855C104.35 242.62 104.401 242.388 104.496 242.173C104.591 241.957 104.727 241.763 104.896 241.6L146.203 201.316C146.546 200.986 147.004 200.805 147.48 200.811C147.955 200.817 148.409 201.011 148.742 201.349C148.905 201.519 149.033 201.718 149.119 201.937C149.205 202.156 149.247 202.39 149.242 202.625C149.237 202.86 149.186 203.092 149.091 203.307C148.997 203.522 148.861 203.717 148.691 203.879L107.384 244.164C107.115 244.425 106.77 244.595 106.4 244.651C106.029 244.708 105.65 244.647 105.315 244.478Z" fill="#4AE792"/>
<path d="M68 192.464C67.6597 192.289 67.3845 192.009 67.2149 191.666C67.0453 191.323 66.9903 190.935 67.0579 190.559C67.1256 190.182 67.3123 189.837 67.5906 189.575C67.8689 189.312 68.2241 189.146 68.604 189.1L125.889 182.376C126.36 182.318 126.835 182.45 127.209 182.743C127.583 183.035 127.825 183.464 127.883 183.935C127.94 184.406 127.808 184.881 127.516 185.255C127.223 185.629 126.794 185.871 126.323 185.929L69.0382 192.653C68.681 192.695 68.3195 192.629 68 192.464Z" fill="#4AE792"/>
<path d="M221.249 270.746C220.934 270.587 220.672 270.339 220.496 270.034L192.338 219.651C192.149 219.243 192.12 218.779 192.258 218.351C192.395 217.923 192.689 217.562 193.081 217.341C193.473 217.121 193.933 217.056 194.371 217.159C194.808 217.263 195.191 217.528 195.441 217.901L223.609 268.266C223.8 268.602 223.878 268.99 223.83 269.373C223.783 269.756 223.612 270.113 223.345 270.391C223.077 270.67 222.726 270.854 222.345 270.916C221.965 270.978 221.574 270.915 221.231 270.737L221.249 270.746Z" fill="#4AE792"/>
<path d="M158.67 271.694C158.336 271.523 158.064 271.252 157.893 270.919C157.722 270.585 157.66 270.206 157.716 269.836L166.058 212.734C166.127 212.264 166.379 211.841 166.759 211.557C167.14 211.274 167.617 211.153 168.087 211.221C168.556 211.289 168.979 211.542 169.263 211.922C169.547 212.302 169.668 212.78 169.599 213.249L161.257 270.351C161.185 270.819 160.931 271.239 160.552 271.522C160.173 271.805 159.698 271.928 159.229 271.864C159.035 271.835 158.847 271.778 158.67 271.694Z" fill="#4AE792"/>
</g>
<defs>
<filter id="filter0_f" x="39.8203" y="42.8958" width="267.665" height="267.397" filterUnits="userSpaceOnUse" color-interpolation-filters="sRGB">
<feFlood flood-opacity="0" result="BackgroundImageFix"/>
<feBlend mode="normal" in="SourceGraphic" in2="BackgroundImageFix" result="shape"/>
<feGaussianBlur stdDeviation="1" result="effect1_foregroundBlur"/>
</filter>
</defs>
</svg>
