<svg width="269" height="269" viewBox="0 0 269 269" fill="none" xmlns="http://www.w3.org/2000/svg">
<g opacity="0.2" filter="url(#filter0_f)">
<path d="M88.0233 244.09C87.9929 244.303 88.0052 244.521 88.0594 244.73C88.1137 244.938 88.2089 245.134 88.3394 245.306C88.4699 245.478 88.6332 245.622 88.8198 245.73C89.0064 245.839 89.2126 245.909 89.4265 245.937C89.8531 245.988 90.2827 245.869 90.622 245.606C90.9613 245.342 91.183 244.955 91.2389 244.529C92.0805 238.412 93.1979 232.204 94.6743 225.509C93.6497 225.067 92.6271 224.609 91.6241 224.135C90.0926 231.141 88.9005 237.676 88.0233 244.09Z" fill="#4AE792"/>
<path d="M115.15 164.652C114.959 164.535 114.746 164.46 114.524 164.43C114.302 164.4 114.076 164.417 113.861 164.479C113.646 164.541 113.446 164.647 113.274 164.791C113.102 164.935 112.962 165.113 112.862 165.313L112.233 166.58C108.752 173.121 105.79 179.924 103.373 186.928C102.892 188.142 102.377 189.334 101.887 190.476C100.786 192.871 99.8238 195.327 99.0057 197.833C97.2504 203.028 95.7715 208.274 94.2028 213.827L93.7147 215.535C93.4651 216.583 93.2196 217.596 92.9742 218.608C93.9642 219.093 94.9672 219.567 95.9833 220.03C96.2692 218.828 96.5767 217.593 96.8842 216.358L97.3548 214.648C98.9368 209.132 100.411 203.92 102.141 198.793C102.921 196.402 103.84 194.058 104.893 191.774C105.407 190.582 105.943 189.357 106.451 188.075C106.451 188.075 106.451 188.075 106.461 187.988C108.83 181.111 111.736 174.431 115.153 168.009L115.782 166.742C115.958 166.378 115.991 165.961 115.874 165.574C115.757 165.187 115.498 164.858 115.15 164.652Z" fill="#4AE792"/>
<path d="M179.764 23.8415C179.792 23.6291 179.778 23.4133 179.722 23.2064C179.667 22.9994 179.571 22.8055 179.44 22.6356C179.31 22.4657 179.147 22.3232 178.962 22.2161C178.776 22.1091 178.571 22.0397 178.359 22.0118C177.93 21.9649 177.5 22.0877 177.161 22.3541C176.822 22.6204 176.6 23.0091 176.544 23.4367C175.644 30.805 174.369 38.1227 172.724 45.3615C173.732 45.8006 174.754 46.2592 175.757 46.7332C177.489 39.1772 178.826 31.5363 179.764 23.8415Z" fill="#4AE792"/>
<path d="M152.79 103.333C152.98 103.447 153.19 103.521 153.41 103.55C153.629 103.579 153.852 103.563 154.065 103.503C154.277 103.442 154.475 103.338 154.646 103.198C154.817 103.058 154.958 102.884 155.059 102.687C163.387 86.6542 169.879 69.7322 174.41 52.2425C173.426 51.7532 172.421 51.2967 171.399 50.8381C166.933 68.33 160.482 85.2538 152.171 101.28C152.005 101.638 151.976 102.046 152.09 102.424C152.204 102.803 152.453 103.126 152.79 103.333Z" fill="#4AE792"/>
<path d="M160.082 109.227C160.236 109.386 160.422 109.512 160.627 109.597C160.832 109.682 161.052 109.725 161.274 109.722C161.496 109.719 161.715 109.67 161.918 109.579C162.121 109.489 162.303 109.358 162.453 109.194C174.672 95.8174 185.333 81.0964 194.23 65.3141C195.171 63.6605 196.059 62.0007 196.93 60.3387C200.53 53.5564 203.779 46.5938 206.665 39.4784C206.809 39.0949 206.815 38.6728 206.681 38.2856C206.546 37.8983 206.281 37.5703 205.93 37.3584C205.729 37.2519 205.508 37.1888 205.281 37.1729C205.054 37.1571 204.826 37.1889 204.612 37.2664C204.398 37.3438 204.203 37.4651 204.038 37.6226C203.874 37.78 203.745 37.97 203.658 38.1805C200.895 44.9976 197.794 51.6914 194.353 58.2622C193.482 59.9241 192.594 61.584 191.688 63.2417C182.812 79.0378 172.15 93.7611 159.911 107.122C159.681 107.435 159.573 107.82 159.604 108.206C159.635 108.593 159.805 108.955 160.082 109.227Z" fill="#4AE792"/>
<path d="M39.1542 206.342C38.8912 206.686 38.7742 207.12 38.8283 207.55C38.8824 207.979 39.1034 208.37 39.4434 208.638C39.6774 208.82 39.9575 208.934 40.2522 208.965C40.5313 208.989 40.812 208.945 41.0708 208.838C41.3296 208.731 41.5589 208.563 41.7396 208.349C45.6085 203.355 49.7693 198.432 54.5271 193.244C53.8593 192.334 53.2262 191.427 52.5953 190.503C47.5887 195.997 43.2286 201.108 39.1542 206.342Z" fill="#4AE792"/>
<path d="M73.9914 174.155C75.861 172.471 77.8204 170.891 79.8609 169.419C80.906 168.661 81.9686 167.906 83.0653 167.013C88.5374 162.246 94.3746 157.915 100.523 154.06L101.714 153.267C102.051 153.045 102.292 152.705 102.388 152.313C102.484 151.922 102.429 151.508 102.233 151.156C102.126 150.961 101.98 150.79 101.804 150.654C101.628 150.518 101.426 150.419 101.21 150.365C100.994 150.311 100.769 150.302 100.55 150.339C100.33 150.376 100.121 150.458 99.9347 150.579L98.7439 151.372C92.4592 155.3 86.4935 159.716 80.9021 164.58C79.8681 165.392 78.8293 166.097 77.8323 166.896C75.6887 168.423 73.6328 170.069 71.6742 171.827C67.5639 175.449 63.7135 179.261 59.5223 183.262L58.2033 184.535L56.3456 186.467C56.9591 187.389 57.5816 188.382 58.223 189.219L60.5246 186.828L61.8067 185.569C65.9261 181.577 69.8073 177.803 73.8569 174.245C73.9719 174.17 73.9739 174.153 73.9914 174.155Z" fill="#4AE792"/>
<path d="M166.161 114.675C165.811 114.894 165.56 115.239 165.459 115.638C165.359 116.038 165.416 116.461 165.62 116.819C165.727 117.011 165.873 117.18 166.047 117.314C166.222 117.448 166.423 117.545 166.636 117.599C166.85 117.653 167.072 117.662 167.29 117.627C167.507 117.592 167.715 117.512 167.901 117.393C183.259 107.585 197.453 96.0622 210.209 83.0476C209.576 82.1411 208.943 81.2346 208.271 80.3588C195.598 93.3761 181.468 104.891 166.161 114.675Z" fill="#4AE792"/>
<path d="M228.741 61.4781C228.888 61.3099 228.999 61.1132 229.067 60.9002C229.135 60.6872 229.158 60.4626 229.136 60.2401C229.114 60.0177 229.046 59.8023 228.936 59.6072C228.827 59.4121 228.679 59.2415 228.501 59.106C228.323 58.9706 228.12 58.8731 227.903 58.8197C227.685 58.7663 227.46 58.7582 227.239 58.7957C227.019 58.8332 226.809 58.9156 226.621 59.0378C226.434 59.16 226.274 59.3194 226.151 59.506C221.771 65.3432 217.098 70.955 212.151 76.32C212.821 77.2133 213.491 78.1065 214.124 79.013C219.288 73.4174 224.166 67.565 228.741 61.4781Z" fill="#4AE792"/>
<path d="M49.4332 165.955L51.0022 165.101C56.004 162.293 60.7368 159.664 65.5839 157.261C67.8245 156.117 70.1291 155.102 72.4861 154.222C73.6914 153.748 74.951 153.264 76.1995 152.725C82.7316 149.524 89.5101 146.854 96.4699 144.739L97.8145 144.282C98.1968 144.155 98.5166 143.887 98.7099 143.534C98.9031 143.18 98.9555 142.766 98.8564 142.376C98.806 142.158 98.7105 141.954 98.5762 141.776C98.4419 141.598 98.2717 141.45 98.0767 141.341C97.8816 141.233 97.666 141.167 97.4437 141.147C97.2215 141.127 96.9975 141.154 96.7863 141.226L95.4417 141.682C88.3569 143.851 81.4506 146.564 74.7847 149.799C73.5926 150.309 72.3873 150.783 71.219 151.243C68.7571 152.171 66.3471 153.232 63.9997 154.42C59.0788 156.85 54.3244 159.511 49.2878 162.315L47.7146 163.204L45.6773 164.425C44.0372 165.429 42.4341 166.42 40.8873 167.383C34.5575 171.392 28.9514 175.258 23.5551 179.291C23.2074 179.578 22.9834 179.987 22.9296 180.435C22.8757 180.882 22.9963 181.333 23.2661 181.694C23.5295 182.009 23.9031 182.212 24.3109 182.262C24.7324 182.313 25.1574 182.199 25.4973 181.945C30.6095 178.072 35.966 174.37 41.9942 170.519C43.5256 169.537 45.1114 168.544 46.7494 167.558C47.7346 167.005 48.609 166.491 49.4332 165.955Z" fill="#4AE792"/>
<path d="M170.075 123.662C169.686 123.786 169.358 124.053 169.158 124.409C168.957 124.765 168.9 125.184 168.997 125.581C169.052 125.796 169.15 125.997 169.285 126.173C169.421 126.348 169.591 126.494 169.784 126.601C169.978 126.709 170.192 126.776 170.412 126.798C170.633 126.821 170.855 126.798 171.067 126.731C188.563 121.209 205.366 113.691 221.144 104.326C222.76 103.372 224.344 102.397 225.934 101.369C232.278 97.3718 238.417 93.0566 244.325 88.4398C244.658 88.171 244.872 87.7824 244.92 87.3576C244.969 86.9328 244.849 86.5057 244.587 86.1684C244.324 85.8311 243.939 85.6105 243.515 85.5541C243.091 85.4976 242.662 85.6099 242.32 85.8666C236.665 90.2866 230.797 94.4276 224.714 98.2896C223.146 99.2847 221.562 100.26 219.959 101.251C204.251 110.621 187.512 118.141 170.075 123.662Z" fill="#4AE792"/>
<path d="M231.551 126.248C238.6 124.045 245.525 121.503 252.325 118.623C252.527 118.545 252.712 118.428 252.868 118.278C253.024 118.129 253.149 117.949 253.236 117.751C253.322 117.552 253.368 117.339 253.371 117.122C253.374 116.906 253.334 116.691 253.253 116.491C253.171 116.292 253.05 116.112 252.897 115.961C252.744 115.81 252.563 115.691 252.363 115.612C252.164 115.532 251.951 115.492 251.736 115.496C251.521 115.499 251.309 115.546 251.113 115.632C244.633 118.387 238.01 120.823 231.241 122.942C231.331 123.96 231.445 125.069 231.551 126.248Z" fill="#4AE792"/>
<path d="M96.3709 131.3L94.9463 131.393C87.5422 131.651 80.1696 132.489 72.8967 133.901C71.603 134.081 70.3135 134.226 69.0588 134.376C66.442 134.63 63.8409 135.024 61.2667 135.559C55.8328 136.672 50.6237 137.972 45.0302 139.384L43.2091 139.836L41.3754 140.393C41.4176 141.511 41.4967 142.616 41.6107 143.725L44.155 142.989L45.974 142.554C51.5307 141.155 56.7787 139.825 62.065 138.764C64.5247 138.243 67.0124 137.864 69.5157 137.628C70.8052 137.483 72.1491 137.327 73.4971 137.136L73.6016 137.148C80.7097 135.724 87.9197 134.866 95.1636 134.582L96.5708 134.486C96.9752 134.458 97.3543 134.279 97.6345 133.986C97.9147 133.694 98.0758 133.307 98.0864 132.902C98.0852 132.682 98.0392 132.465 97.9511 132.263C97.863 132.062 97.7347 131.881 97.5741 131.731C97.4135 131.581 97.2239 131.465 97.017 131.391C96.8101 131.317 96.5903 131.286 96.3709 131.3Z" fill="#4AE792"/>
<path d="M169.978 134.921C169.971 135.142 170.009 135.361 170.091 135.566C170.173 135.77 170.297 135.956 170.455 136.109C170.613 136.263 170.801 136.382 171.008 136.459C171.214 136.535 171.435 136.568 171.655 136.554C190.115 135.731 208.418 132.768 226.195 127.724C226.116 126.619 226 125.528 225.866 124.434C208.156 129.494 189.916 132.471 171.516 133.304C171.102 133.328 170.713 133.509 170.427 133.809C170.142 134.109 169.981 134.507 169.978 134.921Z" fill="#4AE792"/>
<path d="M35.9335 142.036C28.5946 144.298 22.0416 146.637 15.6375 149.206C15.4381 149.287 15.2567 149.407 15.1038 149.558C14.9508 149.709 14.8293 149.89 14.7463 150.088C14.6633 150.287 14.6205 150.5 14.6202 150.715C14.6199 150.93 14.6622 151.143 14.7446 151.342C14.8637 151.605 15.0454 151.834 15.2739 152.009C15.5024 152.184 15.7706 152.301 16.0547 152.348C16.3298 152.382 16.6089 152.342 16.8636 152.233C22.9025 149.762 29.1602 147.528 36.1361 145.346C36.144 144.252 35.9952 143.138 35.9335 142.036Z" fill="#4AE792"/>
<path d="M253.686 147.849C253.625 147.423 253.399 147.039 253.056 146.779C252.713 146.52 252.282 146.406 251.856 146.463C244.97 147.413 238.055 148.054 231.114 148.385C229.337 148.472 227.44 148.526 225.599 148.552C207.058 148.895 188.541 147.054 170.431 143.067C170.029 142.978 169.608 143.045 169.255 143.255C168.901 143.466 168.641 143.803 168.528 144.199C168.468 144.411 168.451 144.632 168.48 144.851C168.509 145.069 168.582 145.279 168.695 145.468C168.808 145.657 168.958 145.821 169.137 145.95C169.316 146.078 169.519 146.169 169.734 146.216C177.493 147.903 185.239 149.211 192.971 150.141C203.626 151.427 214.356 151.979 225.086 151.794C226.856 151.76 228.788 151.71 230.635 151.631C237.903 151.327 245.131 150.671 252.319 149.663C252.74 149.602 253.12 149.377 253.376 149.037C253.632 148.697 253.743 148.27 253.686 147.849Z" fill="#4AE792"/>
<path d="M101.516 112.202C94.9729 108.719 88.1625 105.761 81.1498 103.358L77.6029 101.854C75.2057 100.758 72.7499 99.7966 70.2465 98.9726C65.0668 97.2368 59.8229 95.7406 54.2871 94.1739L52.5791 93.6858L51.4116 93.4041C50.9056 94.3798 50.4143 95.3807 49.9375 96.4069L51.7563 96.8553L53.4643 97.3434C58.9827 98.9079 64.1744 100.398 69.2865 102.108C71.6826 102.891 74.0318 103.81 76.3225 104.862C77.515 105.376 78.7751 105.917 80.0721 106.444C86.935 108.813 93.6037 111.712 100.018 115.114L101.285 115.743C101.647 115.922 102.063 115.96 102.451 115.85C102.84 115.74 103.174 115.49 103.388 115.148C103.505 114.957 103.581 114.743 103.611 114.521C103.641 114.299 103.624 114.074 103.562 113.858C103.499 113.643 103.393 113.443 103.249 113.271C103.106 113.099 102.928 112.959 102.727 112.86L101.516 112.202Z" fill="#4AE792"/>
<path d="M23.5216 91.2519C30.2118 92.1801 36.9709 93.4168 44.4022 95.0877C44.8413 94.0805 45.3173 93.06 45.824 92.0786C38.0354 90.294 30.9496 88.9827 23.9634 88.019C23.5338 87.9673 23.1013 88.0884 22.761 88.3556C22.4208 88.6229 22.2006 89.0143 22.149 89.4439C22.0973 89.8734 22.2184 90.3059 22.4856 90.6461C22.7528 90.9864 23.1443 91.2066 23.5739 91.2582L23.5216 91.2519Z" fill="#4AE792"/>
<path d="M164.724 152.769C164.61 152.959 164.536 153.169 164.506 153.389C164.477 153.608 164.493 153.831 164.554 154.044C164.615 154.256 164.718 154.454 164.859 154.625C164.999 154.796 165.173 154.936 165.37 155.037C181.999 163.663 199.58 170.313 217.755 174.852C218.229 173.849 218.685 172.844 219.107 171.834C200.972 167.354 183.43 160.744 166.848 152.141C166.481 151.955 166.056 151.916 165.661 152.033C165.266 152.15 164.931 152.413 164.724 152.769Z" fill="#4AE792"/>
<path d="M244.618 176.545C237.873 175.734 231.173 174.592 224.519 173.121C224.095 174.148 223.656 175.155 223.199 176.16C230.151 177.703 237.161 178.911 244.229 179.784C244.536 179.828 244.848 179.78 245.128 179.647C245.408 179.514 245.643 179.302 245.803 179.037C245.95 178.804 246.036 178.538 246.053 178.263C246.069 177.988 246.016 177.713 245.898 177.464C245.779 177.215 245.6 177.001 245.376 176.84C245.153 176.679 244.892 176.578 244.618 176.545Z" fill="#4AE792"/>
<path d="M229.774 203.769C223.608 201.273 217.564 198.503 211.64 195.458C209.976 194.605 208.314 193.733 206.657 192.827C190.179 183.782 174.839 172.804 160.962 160.126C160.659 159.854 160.264 159.706 159.857 159.713C159.45 159.72 159.061 159.88 158.767 160.162C158.61 160.318 158.486 160.504 158.402 160.709C158.319 160.914 158.277 161.133 158.28 161.355C158.283 161.576 158.331 161.794 158.42 161.997C158.509 162.199 158.638 162.382 158.8 162.533C172.719 175.242 188.086 186.269 204.582 195.387C206.24 196.293 207.9 197.182 209.564 198.035C215.807 201.259 222.163 204.185 228.631 206.812C228.774 206.846 228.92 206.864 229.067 206.864C229.429 206.91 229.796 206.831 230.108 206.64C230.419 206.45 230.657 206.159 230.783 205.816C230.886 205.411 230.842 204.982 230.657 204.606C230.472 204.231 230.159 203.934 229.774 203.769Z" fill="#4AE792"/>
<path d="M38.3514 64.1496C44.6754 66.8004 50.9925 69.8037 57.8541 73.4202L62.8337 76.086L64.1425 76.8087L65.6741 77.7349C70.6223 80.6619 75.2521 83.4447 79.7439 86.4935C81.8594 87.8646 83.8919 89.3596 85.8307 90.9708C86.8462 91.782 87.9118 92.6168 89.0646 93.4621C95.0949 97.5137 100.789 102.045 106.092 107.011L107.162 107.952C107.467 108.217 107.86 108.358 108.263 108.348C108.667 108.338 109.052 108.176 109.342 107.896C109.505 107.743 109.635 107.557 109.721 107.351C109.808 107.144 109.851 106.922 109.846 106.698C109.841 106.474 109.789 106.254 109.694 106.052C109.598 105.849 109.461 105.669 109.292 105.523L108.239 104.583C102.817 99.5258 97.0049 94.9044 90.8555 90.7623C89.8205 89.9665 88.803 89.1728 87.8202 88.3833C85.7884 86.7167 83.6699 85.1587 81.4736 83.7158C76.9101 80.676 72.228 77.887 67.2645 74.9404L65.7154 74.0121L65.0043 73.6086C63.3486 72.6852 61.6908 71.7791 60.0268 70.9253C52.8357 67.1103 46.2352 63.9669 39.6276 61.176C39.2284 61.0086 38.779 61.0065 38.3783 61.1704C37.9776 61.3342 37.6584 61.6505 37.4909 62.0498C37.3234 62.449 37.3213 62.8984 37.4852 63.2991C37.6491 63.6998 37.9654 64.019 38.3646 64.1865L38.3514 64.1496Z" fill="#4AE792"/>
<path d="M208.552 226.146C203.293 222.18 198.215 217.983 193.317 213.555C192.436 214.226 191.545 214.878 190.644 215.512C195.748 220.178 201.066 224.586 206.597 228.737C206.818 228.918 207.087 229.03 207.371 229.06C207.655 229.085 207.94 229.041 208.202 228.931C208.465 228.821 208.697 228.648 208.878 228.429C209.137 228.083 209.249 227.648 209.187 227.22C209.126 226.792 208.898 226.405 208.552 226.146Z" fill="#4AE792"/>
<path d="M153.377 166.157C153.159 165.808 152.814 165.556 152.414 165.456C152.015 165.355 151.592 165.413 151.234 165.616C151.041 165.724 150.873 165.869 150.738 166.044C150.604 166.218 150.507 166.419 150.453 166.633C150.399 166.846 150.39 167.069 150.425 167.286C150.461 167.504 150.54 167.712 150.659 167.897C160.861 183.859 172.917 198.558 186.576 211.684L189.282 209.748C175.606 196.713 163.551 182.077 153.377 166.157Z" fill="#4AE792"/>
<path d="M93.8874 73.9543C95.565 75.8235 97.1401 77.7822 98.6057 79.8218C99.3634 80.8669 100.119 81.9295 101.012 83.0262C105.783 88.495 110.114 94.3325 113.965 100.484L114.76 101.657C114.987 101.993 115.33 102.232 115.724 102.328C116.117 102.424 116.532 102.371 116.888 102.178C117.084 102.072 117.256 101.926 117.392 101.749C117.528 101.572 117.626 101.369 117.678 101.152C117.731 100.936 117.738 100.71 117.698 100.491C117.658 100.271 117.573 100.063 117.448 99.8781L116.672 98.6895C112.74 92.4081 108.324 86.4428 103.464 80.8477C102.67 79.8158 101.945 78.7923 101.148 77.7778C99.6214 75.6343 97.9752 73.5784 96.2175 71.6198C92.5953 67.5095 88.8003 63.6611 84.7818 59.4678L83.5094 58.1488L83.1465 57.7871C82.2073 58.3986 81.2332 59.0058 80.3769 59.6625L81.2336 60.4722L82.4753 61.7522C86.5378 66.0214 90.3112 69.9025 93.8874 73.9543Z" fill="#4AE792"/>
<path d="M129.44 61.4775C129.939 63.939 130.304 66.4258 130.534 68.9269C130.657 70.2119 130.77 71.5108 130.983 72.9087C132.324 80.0413 133.099 87.2687 133.3 94.5234L133.391 95.9379C133.417 96.342 133.592 96.7223 133.882 97.0046C134.172 97.287 134.557 97.4513 134.962 97.4656C135.185 97.4733 135.407 97.4342 135.613 97.3509C135.82 97.2675 136.007 97.1417 136.163 96.9816C136.318 96.8215 136.438 96.6306 136.515 96.4213C136.592 96.212 136.624 95.9888 136.61 95.7663L136.543 94.3485C136.338 86.9407 135.555 79.5602 134.202 72.274C134.04 70.9817 133.934 69.732 133.761 68.4536C133.532 65.832 133.155 63.2254 132.632 60.6461C131.593 55.267 130.273 50.026 128.934 44.3744L128.506 42.5924L128.376 42.0967C127.257 42.1477 126.109 42.1775 125.038 42.3095L125.366 43.4417L125.788 45.1745C127.126 50.9138 128.411 56.1721 129.44 61.4775Z" fill="#4AE792"/>
<path d="M59.7033 41.7358C65.2231 45.9329 70.6146 50.6093 76.3814 55.9845C77.292 55.3167 78.1985 54.6836 79.1203 54.0701C73.0847 48.4329 67.4466 43.6033 61.7103 39.1504C61.3685 38.875 60.9314 38.7467 60.4951 38.7936C60.0587 38.8405 59.6588 39.0589 59.3834 39.4006C59.1081 39.7424 58.9797 40.1795 59.0267 40.6158C59.0736 41.0522 59.292 41.452 59.6337 41.7274L59.7033 41.7358Z" fill="#4AE792"/>
<path d="M170.869 226.42C169.857 224.849 168.862 223.281 167.906 221.682C157.998 205.492 150.086 188.162 144.343 170.07C144.219 169.676 143.95 169.345 143.589 169.144C143.229 168.943 142.806 168.888 142.406 168.989C142.191 169.04 141.988 169.135 141.812 169.269C141.635 169.402 141.489 169.57 141.381 169.763C141.273 169.956 141.206 170.17 141.185 170.39C141.164 170.61 141.189 170.832 141.258 171.042C146.999 189.184 154.89 206.574 164.763 222.841C165.748 224.444 166.735 226.029 167.725 227.596C171.415 233.34 175.358 238.897 179.554 244.265C179.82 244.61 180.212 244.835 180.644 244.891C180.855 244.917 181.068 244.901 181.272 244.844C181.476 244.786 181.667 244.689 181.833 244.557C182.003 244.425 182.144 244.26 182.25 244.073C182.356 243.886 182.424 243.679 182.45 243.465C182.475 243.252 182.458 243.035 182.4 242.828C182.342 242.621 182.243 242.427 182.109 242.258C178.163 237.167 174.417 231.887 170.869 226.42Z" fill="#4AE792"/>
<path d="M126.46 95.5911C124.302 88.508 121.587 81.6066 118.341 74.9515C117.833 73.742 117.36 72.5367 116.899 71.3684C115.985 68.9008 114.924 66.4901 113.722 64.1491C111.292 59.2282 108.648 54.4759 105.827 49.4372L104.938 47.864L104.778 47.5797C103.776 45.9222 102.803 44.3211 101.823 42.7722C97.3751 35.683 93.2017 29.5454 88.7795 23.7135C88.5188 23.3682 88.1317 23.1406 87.7032 23.0808C87.2747 23.021 86.8399 23.1339 86.4947 23.3946C86.1494 23.6553 85.9218 24.0425 85.862 24.471C85.8022 24.8995 85.9151 25.3342 86.1758 25.6795C90.4141 31.2772 94.4754 37.1717 98.6995 43.9161L101.659 48.6887L102.159 49.5262L103.032 51.0799C105.823 56.0796 108.469 60.8145 110.855 65.6595C111.997 67.9037 113.005 70.2136 113.874 72.577C114.365 73.7844 114.85 75.044 115.406 76.2946C118.587 82.8267 121.252 89.5977 123.377 96.5454C123.536 96.9885 123.677 97.4295 123.834 97.8901C123.961 98.2723 124.229 98.5921 124.582 98.7854C124.936 98.9787 125.349 99.031 125.74 98.932C125.958 98.8796 126.163 98.7825 126.342 98.6465C126.52 98.5106 126.668 98.3388 126.777 98.1424C126.885 97.946 126.951 97.7291 126.971 97.5056C126.991 97.2821 126.964 97.057 126.892 96.8445C126.688 96.4843 126.627 95.9645 126.46 95.5911Z" fill="#4AE792"/>
<path d="M145.755 232.94L142.428 233.282C144.489 239.749 146.846 246.098 149.501 252.33C149.671 252.727 149.991 253.041 150.391 253.205C150.791 253.368 151.239 253.369 151.639 253.205C152.024 253.015 152.326 252.691 152.487 252.294C152.649 251.897 152.659 251.454 152.517 251.049C150.002 245.129 147.748 239.092 145.755 232.94Z" fill="#4AE792"/>
<path d="M123.231 37.9437C124.342 37.8123 125.449 37.7157 126.554 37.6366C124.11 29.6046 121.623 22.5214 118.838 15.7028C118.676 15.3014 118.36 14.981 117.962 14.8121C117.563 14.6432 117.113 14.6396 116.712 14.8022C116.31 14.9648 115.99 15.2802 115.821 15.679C115.652 16.0778 115.649 16.5274 115.811 16.9288C118.485 23.4868 120.886 30.2594 123.231 37.9437Z" fill="#4AE792"/>
<path d="M134.712 171.527C134.692 171.117 134.518 170.73 134.225 170.443C133.932 170.155 133.542 169.989 133.132 169.977C132.912 169.971 132.694 170.012 132.491 170.094C132.287 170.177 132.103 170.301 131.95 170.459C131.797 170.616 131.678 170.803 131.6 171.009C131.523 171.214 131.488 171.434 131.499 171.653C132.352 190.712 135.484 209.6 140.829 227.914C141.934 227.835 143.041 227.738 144.135 227.605C138.749 209.359 135.585 190.531 134.712 171.527Z" fill="#4AE792"/>
<path d="M148.482 38.5245C148.551 40.2995 148.603 42.0724 148.629 44.0544L148.638 44.868L148.62 46.6326C148.551 52.3484 148.465 57.7619 148.118 63.144C147.958 65.655 147.657 68.1551 147.218 70.6326C147.063 71.9213 146.904 73.2449 146.741 74.6033L146.724 74.7425C146.222 81.984 145.145 89.1741 143.502 96.2447L143.23 97.6253C143.136 98.0273 143.202 98.45 143.413 98.8048C143.624 99.1595 143.964 99.4188 144.362 99.5281C144.576 99.5887 144.801 99.6042 145.022 99.5736C145.243 99.543 145.455 99.4671 145.645 99.3505C145.835 99.2339 145.998 99.0792 146.126 98.8962C146.253 98.7132 146.341 98.5059 146.384 98.2872C146.438 97.8344 146.495 97.3642 146.673 96.9087C148.336 89.687 149.431 82.3462 149.949 74.9537C150.106 73.6476 150.259 72.3763 150.41 71.1224C150.87 68.5357 151.184 65.925 151.35 63.3029C151.69 57.8316 151.778 52.4007 151.853 46.6326L151.871 44.8681C151.871 44.8681 151.885 44.7462 151.894 44.6765C151.876 42.7664 151.815 40.9217 151.75 39.1118C151.474 30.6867 150.89 23.1964 149.962 15.9296C149.95 15.706 149.891 15.4874 149.791 15.2873C149.691 15.0872 149.55 14.91 149.378 14.7666C149.206 14.6232 149.007 14.5167 148.792 14.4537C148.577 14.3908 148.351 14.3727 148.129 14.4007C147.907 14.4287 147.693 14.5021 147.501 14.6164C147.308 14.7306 147.141 14.8833 147.01 15.0649C146.879 15.2465 146.787 15.4531 146.739 15.6718C146.692 15.8906 146.689 16.1168 146.733 16.3364C147.633 23.2465 148.2 30.4344 148.482 38.5245Z" fill="#4AE792"/>
<path d="M119.753 232.605C119.648 230.826 119.579 228.91 119.535 227.067C119.065 208.037 120.895 189.019 124.985 170.428C125.075 170.026 125.008 169.606 124.797 169.252C124.587 168.898 124.249 168.638 123.854 168.525C123.642 168.465 123.42 168.449 123.202 168.477C122.983 168.506 122.773 168.579 122.584 168.692C122.395 168.805 122.231 168.956 122.103 169.134C121.974 169.313 121.883 169.516 121.836 169.731C117.729 188.365 115.865 207.423 116.282 226.499C116.323 228.359 116.4 230.223 116.495 232.072C116.856 238.865 117.488 245.613 118.389 252.317C118.443 252.672 118.611 253 118.868 253.251C119.124 253.502 119.456 253.662 119.812 253.707L120.23 253.757C120.443 253.727 120.647 253.656 120.832 253.547C121.017 253.438 121.179 253.293 121.308 253.122C121.437 252.95 121.53 252.755 121.584 252.547C121.637 252.339 121.649 252.123 121.618 251.91C120.705 245.499 120.083 239.064 119.753 232.605Z" fill="#4AE792"/>
<path d="M74.3993 214.932C75.1065 213.296 75.906 211.553 76.6958 209.888C84.834 192.679 95.0211 176.516 107.036 161.751C107.296 161.432 107.426 161.026 107.397 160.616C107.368 160.205 107.183 159.821 106.881 159.543C106.719 159.393 106.528 159.279 106.32 159.207C106.112 159.134 105.892 159.105 105.672 159.121C105.452 159.137 105.238 159.197 105.043 159.299C104.848 159.401 104.675 159.541 104.536 159.712C92.4883 174.508 82.2521 190.692 74.0456 207.918C73.2461 209.597 72.4757 211.297 71.7297 212.991C68.9975 219.22 66.5266 225.531 64.317 231.925C64.2051 232.266 64.2076 232.634 64.3241 232.974C64.4407 233.313 64.6648 233.606 64.9626 233.806L65.3133 234.039C65.5166 234.108 65.7315 234.136 65.9457 234.122C66.1599 234.108 66.3692 234.051 66.5615 233.956C66.7539 233.861 66.9255 233.729 67.0666 233.567C67.2077 233.405 67.3156 233.217 67.3839 233.014C69.4514 226.877 71.7898 220.85 74.3993 214.932Z" fill="#4AE792"/>
<path d="M42.6591 119.435L44.9259 119.39L46.6905 119.408C52.4042 119.494 57.8198 119.562 63.2193 119.911C65.7303 120.072 68.2304 120.373 70.7079 120.812C71.9966 120.967 73.3201 121.126 74.6785 121.289L74.8004 121.304C82.0468 121.815 89.2419 122.893 96.32 124.527L97.7006 124.799C98.0999 124.894 98.5201 124.83 98.874 124.623C99.2279 124.415 99.4883 124.08 99.6013 123.685C99.6647 123.47 99.6824 123.243 99.6533 123.021C99.6242 122.798 99.549 122.584 99.4324 122.392C99.3158 122.2 99.1604 122.035 98.9762 121.906C98.7919 121.778 98.5829 121.689 98.3625 121.646L96.9839 121.357C89.7606 119.703 82.4206 118.607 75.029 118.081C73.7229 117.924 72.4515 117.771 71.1976 117.62C68.6 117.188 65.98 116.902 63.3503 116.765C57.8812 116.407 52.4481 116.337 46.6822 116.244L44.9176 116.227L43.323 116.265C41.4108 116.3 39.5487 116.358 37.7388 116.423C29.8926 116.734 22.8286 117.298 15.9227 118.164C15.6991 118.176 15.4805 118.234 15.2804 118.335C15.0803 118.435 14.9031 118.576 14.7597 118.748C14.6163 118.92 14.5098 119.119 14.4468 119.334C14.3839 119.549 14.3658 119.775 14.3938 119.997C14.4218 120.219 14.4952 120.433 14.6094 120.625C14.7237 120.818 14.8764 120.985 15.0579 121.116C15.2395 121.247 15.4461 121.339 15.6648 121.387C15.8836 121.434 16.1099 121.436 16.3295 121.393C22.9309 120.561 29.6751 120.012 37.1472 119.727C38.8712 119.592 40.7085 119.495 42.6591 119.435Z" fill="#4AE792"/>
</g>
<defs>
<filter id="filter0_f" x="12.3809" y="12.3879" width="243.32" height="243.369" filterUnits="userSpaceOnUse" color-interpolation-filters="sRGB">
<feFlood flood-opacity="0" result="BackgroundImageFix"/>
<feBlend mode="normal" in="SourceGraphic" in2="BackgroundImageFix" result="shape"/>
<feGaussianBlur stdDeviation="1" result="effect1_foregroundBlur"/>
</filter>
</defs>
</svg>
