<svg width="243" height="298" viewBox="0 0 243 298" fill="none" xmlns="http://www.w3.org/2000/svg">
<g opacity="0.75" filter="url(#filter0_f)">
<path d="M106.226 266.595C95.3617 259.101 85.5684 249.993 77.3671 239.7C69.1658 229.407 62.4963 217.959 57.6076 205.845C52.7188 193.73 49.6109 180.949 48.4432 168.112C47.2445 155.213 47.9861 142.258 50.6137 129.734C53.2413 117.211 57.6344 105.179 63.7075 94.0654C69.7806 82.9521 77.5047 72.8487 86.52 64.0898C104.521 46.6632 127.815 35.0108 152.206 30.8607C127.98 36.0783 105.64 48.7084 88.8867 66.5037C80.5402 75.3862 73.5142 85.5217 68.1662 96.4233C62.8182 107.325 59.088 119.023 57.1816 131.03C55.2441 142.976 55.0701 155.262 56.7119 167.247C58.3537 179.232 61.7511 190.946 66.8068 201.903C71.8022 212.89 78.4247 223.057 86.3069 232.13C94.1579 241.142 103.418 248.907 113.448 255.21C116.658 257.2 117.653 261.378 115.692 264.514C113.762 267.711 109.619 268.646 106.469 266.626C106.348 266.687 106.257 266.656 106.226 266.595Z" fill="url(#paint0_linear)"/>
</g>
<path d="M106.226 266.595C95.3617 259.101 85.5684 249.993 77.3671 239.7C69.1658 229.407 62.4963 217.959 57.6076 205.845C52.7188 193.73 49.6109 180.949 48.4432 168.112C47.2445 155.213 47.9861 142.258 50.6137 129.734C53.2413 117.211 57.6344 105.179 63.7075 94.0654C69.7806 82.9521 77.5047 72.8487 86.52 64.0898C104.521 46.6632 127.815 35.0108 152.206 30.8607C127.98 36.0783 105.64 48.7084 88.8867 66.5037C80.5402 75.3862 73.5142 85.5217 68.1662 96.4233C62.8182 107.325 59.088 119.023 57.1816 131.03C55.2441 142.976 55.0701 155.262 56.7119 167.247C58.3537 179.232 61.7511 190.946 66.8068 201.903C71.8022 212.89 78.4247 223.057 86.3069 232.13C94.1579 241.142 103.418 248.907 113.448 255.21C116.658 257.2 117.653 261.378 115.692 264.514C113.762 267.711 109.619 268.646 106.469 266.626C106.348 266.687 106.257 266.656 106.226 266.595Z" fill="url(#paint1_linear)"/>
<defs>
<filter id="filter0_f" x="17.8867" y="0.860741" width="164.32" height="296.83" filterUnits="userSpaceOnUse" color-interpolation-filters="sRGB">
<feFlood flood-opacity="0" result="BackgroundImageFix"/>
<feBlend mode="normal" in="SourceGraphic" in2="BackgroundImageFix" result="shape"/>
<feGaussianBlur stdDeviation="15" result="effect1_foregroundBlur"/>
</filter>
<linearGradient id="paint0_linear" x1="114.431" y1="260.256" x2="137.992" y2="37.1803" gradientUnits="userSpaceOnUse">
<stop stop-color="#4AE792"/>
<stop offset="1" stop-color="#4AE792" stop-opacity="0"/>
</linearGradient>
<linearGradient id="paint1_linear" x1="114.431" y1="260.256" x2="137.992" y2="37.1803" gradientUnits="userSpaceOnUse">
<stop stop-color="#4AE792"/>
<stop offset="1" stop-color="#4AE792" stop-opacity="0"/>
</linearGradient>
</defs>
</svg>
