<svg width="188" height="188" viewBox="0 0 188 188" fill="none" xmlns="http://www.w3.org/2000/svg">
<path d="M68.8011 183.013C68.7975 183.18 68.8271 183.347 68.8882 183.502C68.9492 183.658 69.0406 183.8 69.157 183.92C69.2734 184.04 69.4124 184.136 69.5661 184.202C69.7198 184.268 69.885 184.303 70.0523 184.305C70.3854 184.305 70.7051 184.174 70.9419 183.939C71.1787 183.705 71.3135 183.387 71.3171 183.054C71.3987 178.267 71.6843 173.384 72.2011 168.094C71.3715 167.849 70.5419 167.591 69.7259 167.319C69.1955 172.854 68.8827 177.995 68.8011 183.013Z" fill="#4AE792"/>
<path d="M82.3307 119.351C82.1727 119.279 82.0014 119.241 81.8278 119.238C81.6541 119.236 81.4818 119.27 81.3219 119.337C81.162 119.405 81.0179 119.505 80.8989 119.632C80.7799 119.759 80.6886 119.908 80.6307 120.072L80.2635 121.106C78.1893 126.463 76.5386 131.974 75.3267 137.589C75.0683 138.568 74.7827 139.534 74.5107 140.459C73.8848 142.404 73.3717 144.384 72.9739 146.388C72.1035 150.55 71.4507 154.725 70.7571 159.145L70.5395 160.505C70.4443 161.335 70.3491 162.137 70.2539 162.939C71.0608 163.22 71.8768 163.492 72.7019 163.755C72.8107 162.803 72.9331 161.824 73.0555 160.845L73.2595 159.485C73.9667 155.092 74.6195 150.944 75.4763 146.837C75.8553 144.924 76.3457 143.035 76.9451 141.179C77.2307 140.214 77.5299 139.221 77.8019 138.187C77.8019 138.187 77.8019 138.187 77.8019 138.119C78.9889 132.606 80.6077 127.195 82.6435 121.935L83.0107 120.902C83.1122 120.605 83.0986 120.281 82.9727 119.994C82.8468 119.707 82.6176 119.478 82.3307 119.351Z" fill="#4AE792"/>
<path d="M119.037 4.97542C119.038 4.80932 119.007 4.64451 118.946 4.49037C118.884 4.33623 118.792 4.19578 118.676 4.07707C118.56 3.95836 118.421 3.86371 118.268 3.7985C118.116 3.73329 117.951 3.6988 117.785 3.69702C117.451 3.70056 117.131 3.83495 116.895 4.07139C116.659 4.30782 116.524 4.62746 116.521 4.96181C116.509 10.7173 116.205 16.4684 115.609 22.193C116.425 22.4378 117.255 22.6962 118.071 22.9682C118.705 16.9914 119.027 10.9857 119.037 4.97542Z" fill="#4AE792"/>
<path d="M105.63 68.6643C105.786 68.7346 105.956 68.7719 106.127 68.7741C106.299 68.7763 106.469 68.7432 106.627 68.6769C106.785 68.6105 106.928 68.5124 107.046 68.3886C107.165 68.2648 107.257 68.1179 107.316 67.9571C112.244 54.8441 115.675 41.2167 117.544 27.3339C116.741 27.0483 115.925 26.7899 115.096 26.5315C113.277 40.41 109.878 54.035 104.964 67.141C104.869 67.4325 104.884 67.7486 105.007 68.0294C105.13 68.3101 105.352 68.5361 105.63 68.6643Z" fill="#4AE792"/>
<path d="M111.788 72.5268C111.922 72.635 112.076 72.7148 112.242 72.7613C112.408 72.8078 112.581 72.82 112.752 72.797C112.923 72.7741 113.087 72.7166 113.234 72.628C113.382 72.5395 113.51 72.4217 113.61 72.2819C121.778 60.8535 128.622 48.5346 134.01 35.5619C134.582 34.2019 135.112 32.8419 135.629 31.4819C137.772 25.9278 139.629 20.2672 141.191 14.5227C141.267 14.2141 141.232 13.8887 141.093 13.603C140.954 13.3173 140.719 13.0894 140.43 12.9587C140.265 12.8954 140.089 12.8673 139.913 12.8761C139.736 12.8849 139.564 12.9305 139.407 13.0099C139.249 13.0893 139.11 13.2008 138.998 13.3372C138.886 13.4736 138.804 13.6319 138.757 13.8019C137.261 19.3054 135.493 24.7454 133.453 30.1219C132.936 31.4819 132.406 32.8419 131.862 34.2019C126.491 47.1832 119.646 59.5041 111.462 70.9219C111.314 71.184 111.266 71.4905 111.326 71.7852C111.386 72.0799 111.55 72.3432 111.788 72.5268Z" fill="#4AE792"/>
<path d="M27.689 158.479C27.5184 158.768 27.4685 159.112 27.5499 159.438C27.6313 159.764 27.8376 160.045 28.1242 160.219C28.3212 160.338 28.5472 160.399 28.777 160.396C28.9941 160.388 29.2061 160.329 29.3954 160.222C29.5847 160.116 29.7457 159.966 29.865 159.784C32.381 155.582 35.1282 151.407 38.3106 146.973C37.7122 146.334 37.141 145.695 36.5698 145.042C33.2242 149.734 30.341 154.072 27.689 158.479Z" fill="#4AE792"/>
<path d="M51.526 130.476C52.8095 129.007 54.1715 127.609 55.606 126.287C56.3404 125.607 57.0884 124.927 57.85 124.139C61.6212 119.962 65.7137 116.088 70.09 112.551L70.9332 111.831C71.1722 111.629 71.3261 111.345 71.3639 111.034C71.4018 110.724 71.3208 110.411 71.1372 110.158C71.0369 110.017 70.9087 109.899 70.7606 109.811C70.6125 109.722 70.4477 109.665 70.2766 109.644C70.1054 109.622 69.9316 109.636 69.7661 109.685C69.6006 109.733 69.447 109.816 69.3148 109.927L68.4716 110.647C63.9972 114.252 59.8136 118.204 55.9596 122.466C55.2388 123.187 54.5044 123.826 53.8108 124.533C52.3021 125.907 50.8718 127.364 49.5268 128.899C46.698 132.067 44.0869 135.359 41.2309 138.827L40.3332 139.928L39.082 141.587C39.6396 142.24 40.2108 142.947 40.782 143.532L42.3324 141.479L43.2028 140.391C46.0044 136.936 48.6428 133.672 51.4308 130.558C51.5124 130.49 51.5124 130.476 51.526 130.476Z" fill="#4AE792"/>
<path d="M116.972 76.1577C116.724 76.3582 116.562 76.6471 116.522 76.9639C116.481 77.2808 116.565 77.601 116.755 77.8577C116.855 77.996 116.983 78.1124 117.13 78.1995C117.277 78.2867 117.44 78.3428 117.609 78.3644C117.779 78.3861 117.951 78.3728 118.115 78.3254C118.279 78.278 118.432 78.1976 118.564 78.0889C129.479 69.1167 139.338 58.933 147.953 47.7337C147.382 47.0945 146.811 46.4553 146.212 45.8433C137.662 57.037 127.85 67.2088 116.972 76.1577Z" fill="#4AE792"/>
<path d="M160.221 29.4147C160.319 29.2716 160.386 29.1098 160.419 28.9396C160.451 28.7694 160.449 28.5942 160.411 28.4251C160.373 28.2559 160.301 28.0964 160.199 27.9563C160.097 27.8162 159.967 27.6986 159.817 27.6108C159.668 27.523 159.502 27.4668 159.33 27.4458C159.158 27.4248 158.983 27.4394 158.817 27.4887C158.651 27.538 158.497 27.6209 158.364 27.7323C158.231 27.8437 158.122 27.9812 158.045 28.1363C155.213 33.0351 152.136 37.7876 148.824 42.3755C149.423 43.0011 150.021 43.6267 150.592 44.2659C154.049 39.4805 157.263 34.5238 160.221 29.4147Z" fill="#4AE792"/>
<path d="M31.8628 126.437L32.9916 125.635C36.582 123.01 39.982 120.548 43.4908 118.25C45.1097 117.161 46.7898 116.167 48.5228 115.271C49.4068 114.795 50.3316 114.306 51.2428 113.775C55.9749 110.707 60.9458 108.024 66.1076 105.751L67.1004 105.275C67.3829 105.142 67.6044 104.906 67.7204 104.616C67.8364 104.326 67.8384 104.003 67.726 103.711C67.6671 103.549 67.5747 103.4 67.4548 103.276C67.3349 103.151 67.1902 103.053 67.03 102.987C66.8698 102.922 66.6977 102.891 66.5248 102.896C66.3519 102.901 66.1819 102.943 66.026 103.018L65.0333 103.494C59.7801 105.819 54.7148 108.547 49.8828 111.654C49.0124 112.157 48.1284 112.633 47.2716 113.095C45.4624 114.038 43.7054 115.078 42.0084 116.21C38.4452 118.535 35.0316 121.024 31.414 123.649L30.2852 124.479L28.83 125.607C27.6604 126.532 26.518 127.443 25.4164 128.327C20.9148 131.999 16.9572 135.495 13.1764 139.099C12.9353 139.352 12.8008 139.688 12.8008 140.037C12.8008 140.386 12.9353 140.722 13.1764 140.975C13.4084 141.194 13.7148 141.315 14.0332 141.315C14.3624 141.316 14.6791 141.189 14.9172 140.962C18.494 137.507 22.2748 134.162 26.5588 130.639C27.6468 129.742 28.7756 128.831 29.9452 127.919C30.6524 127.403 31.278 126.927 31.8628 126.437Z" fill="#4AE792"/>
<path d="M120.818 82.713C120.53 82.8444 120.302 83.0803 120.181 83.3732C120.06 83.666 120.054 83.9939 120.165 84.2906C120.228 84.4507 120.322 84.5965 120.443 84.7189C120.563 84.8414 120.707 84.938 120.866 85.0029C121.025 85.0678 121.196 85.0996 121.368 85.0964C121.54 85.0932 121.709 85.055 121.865 84.9842C134.823 79.1133 147.062 71.7708 158.341 63.1018C159.497 62.2178 160.626 61.3202 161.754 60.3818C166.268 56.7175 170.594 52.8275 174.715 48.7266C174.946 48.4889 175.075 48.1699 175.073 47.8384C175.071 47.5069 174.94 47.1892 174.706 46.9539C174.473 46.7186 174.156 46.5844 173.824 46.5802C173.493 46.576 173.173 46.7021 172.934 46.9314C168.99 50.8573 164.855 54.5882 160.53 58.1242C159.415 59.0354 158.286 59.933 157.144 60.8442C145.919 69.5106 133.73 76.849 120.818 82.713Z" fill="#4AE792"/>
<path d="M168.38 79.0138C173.602 76.6655 178.698 74.0679 183.666 71.2209C183.815 71.1425 183.946 71.0353 184.052 70.9056C184.159 70.7759 184.238 70.6264 184.287 70.4656C184.335 70.3049 184.35 70.1362 184.333 69.9693C184.315 69.8025 184.264 69.6408 184.183 69.4938C184.101 69.3487 183.992 69.2214 183.86 69.1194C183.728 69.0173 183.578 68.9426 183.417 68.8995C183.256 68.8564 183.088 68.8459 182.923 68.8685C182.758 68.8912 182.599 68.9466 182.456 69.0314C177.723 71.7514 172.85 74.2402 167.836 76.4978C167.999 77.273 168.19 78.1162 168.38 79.0138Z" fill="#4AE792"/>
<path d="M64.7865 95.4154L63.6986 95.6194C58.0227 96.503 52.425 97.8309 46.957 99.5906C45.9778 99.849 44.9985 100.08 44.0465 100.311C42.0557 100.749 40.0899 101.294 38.1578 101.943C34.0778 103.303 30.1882 104.786 26.013 106.391L24.653 106.907L23.293 107.506C23.429 108.363 23.5921 109.206 23.7825 110.049L25.673 109.247L27.033 108.743C31.181 107.152 35.0977 105.643 39.0689 104.337C40.9142 103.708 42.7941 103.186 44.6994 102.773C45.6786 102.542 46.6986 102.297 47.7186 102.025H47.8002C53.1401 100.271 58.6109 98.9426 64.161 98.0538L65.2354 97.8498C65.544 97.7903 65.8194 97.6181 66.0079 97.3667C66.1965 97.1153 66.2847 96.8027 66.2554 96.4898C66.2341 96.3207 66.1786 96.1578 66.0921 96.0109C66.0057 95.8641 65.8902 95.7365 65.7526 95.6359C65.6151 95.5353 65.4585 95.4638 65.2924 95.4259C65.1262 95.388 64.9541 95.3844 64.7865 95.4154Z" fill="#4AE792"/>
<path d="M121.785 91.3899C121.8 91.5603 121.849 91.7257 121.932 91.8756C122.014 92.0255 122.126 92.1566 122.262 92.2604C122.398 92.3641 122.554 92.4383 122.72 92.4781C122.886 92.5179 123.059 92.5225 123.227 92.4915C137.362 90.1495 151.177 86.1743 164.394 80.646C164.231 79.8028 164.041 78.9732 163.837 78.1436C150.672 83.6784 136.906 87.6584 122.819 90.0027C122.503 90.0594 122.22 90.2344 122.028 90.492C121.836 90.7496 121.749 91.0707 121.785 91.3899Z" fill="#4AE792"/>
<path d="M19.2568 109.274C13.8168 111.695 8.98884 114.102 4.29685 116.672C4.15084 116.753 4.02227 116.862 3.91854 116.993C3.81482 117.124 3.73798 117.273 3.69247 117.434C3.64696 117.595 3.63368 117.763 3.65337 117.928C3.67307 118.094 3.72535 118.254 3.80723 118.4C3.92314 118.59 4.08426 118.75 4.27639 118.864C4.46851 118.978 4.68572 119.042 4.90882 119.052C5.12369 119.053 5.33494 118.997 5.52084 118.889C9.94083 116.428 14.5512 114.129 19.7192 111.804C19.624 110.96 19.4064 110.117 19.2568 109.274Z" fill="#4AE792"/>
<path d="M187.419 93.593C187.333 93.2711 187.123 92.9962 186.835 92.8282C186.548 92.6601 186.205 92.6124 185.882 92.6954C180.669 94.0645 175.406 95.1978 170.093 96.0954C168.733 96.3266 167.278 96.5442 165.863 96.7346C151.622 98.7145 137.198 99.0112 122.887 97.6186C122.57 97.5868 122.252 97.6776 121.999 97.8722C121.747 98.0669 121.578 98.3508 121.527 98.6658C121.5 98.8344 121.508 99.0067 121.551 99.1721C121.593 99.3376 121.669 99.4925 121.773 99.6276C121.878 99.7626 122.009 99.8748 122.158 99.9574C122.308 100.04 122.472 100.091 122.642 100.107C128.771 100.688 134.855 100.978 140.894 100.978C149.214 100.981 157.525 100.413 165.768 99.2778C167.128 99.0874 168.61 98.8698 170.025 98.6386C175.592 97.7319 181.095 96.5578 186.535 95.1162C186.854 95.03 187.125 94.8217 187.291 94.5365C187.456 94.2512 187.502 93.9121 187.419 93.593Z" fill="#4AE792"/>
<path d="M66.9798 80.2378C61.6201 78.1618 56.1037 76.5155 50.4829 75.3146L47.6133 74.485C45.6666 73.8638 43.6871 73.3508 41.6837 72.9482C37.5357 72.0914 33.3605 71.425 28.9541 70.7314L27.5941 70.5138L26.6693 70.405C26.3701 71.2029 26.0845 72.0189 25.8125 72.853L27.2541 73.0298L28.6141 73.2474C33.0069 73.941 37.1413 74.6074 41.2349 75.4506C43.1519 75.8312 45.0454 76.3216 46.9061 76.9194C47.8717 77.205 48.8917 77.5042 49.9389 77.7898C55.4413 78.9788 60.8432 80.5929 66.0958 82.6178L67.1293 82.985C67.4246 83.0891 67.748 83.0799 68.0369 82.9593C68.3258 82.8387 68.5596 82.6153 68.6933 82.3322C68.7656 82.1743 68.8041 82.003 68.8065 81.8293C68.809 81.6556 68.7752 81.4833 68.7074 81.3234C68.6396 81.1635 68.5392 81.0195 68.4127 80.9005C68.2862 80.7815 68.1363 80.6901 67.9725 80.6322L66.9798 80.2378Z" fill="#4AE792"/>
<path d="M5.00134 71.3299C10.2373 71.4251 15.5549 71.7515 21.4301 72.3499C21.6749 71.5339 21.9469 70.7043 22.2461 69.9019C16.0853 69.2491 10.5093 68.8955 5.04213 68.8003C4.70669 68.8003 4.38496 68.9336 4.14777 69.1708C3.91057 69.408 3.77734 69.7297 3.77734 70.0651C3.77734 70.4006 3.91057 70.7223 4.14777 70.9595C4.38496 71.1966 4.70669 71.3299 5.04213 71.3299H5.00134Z" fill="#4AE792"/>
<path d="M119.391 105.616C119.321 105.772 119.284 105.941 119.281 106.113C119.279 106.284 119.312 106.454 119.379 106.612C119.445 106.77 119.543 106.913 119.667 107.032C119.791 107.151 119.938 107.242 120.098 107.302C133.698 112.403 147.847 115.894 162.258 117.706C162.53 116.89 162.789 116.074 163.02 115.258C148.645 113.488 134.53 110.023 120.969 104.936C120.669 104.826 120.338 104.836 120.045 104.962C119.752 105.088 119.518 105.322 119.391 105.616Z" fill="#4AE792"/>
<path d="M183.094 116.523C177.827 116.523 172.563 116.264 167.305 115.748C167.074 116.577 166.829 117.393 166.57 118.209C172.065 118.753 177.573 119.034 183.094 119.052C183.335 119.058 183.571 118.992 183.774 118.864C183.977 118.736 184.138 118.551 184.237 118.332C184.329 118.139 184.37 117.926 184.358 117.713C184.345 117.499 184.278 117.293 184.164 117.112C184.05 116.932 183.892 116.783 183.705 116.68C183.518 116.577 183.308 116.523 183.094 116.523Z" fill="#4AE792"/>
<path d="M174.188 138.854C169.211 137.503 164.301 135.93 159.459 134.135C158.099 133.631 156.739 133.115 155.379 132.571C141.858 127.133 129.033 120.102 117.177 111.627C116.918 111.445 116.601 111.368 116.288 111.411C115.976 111.454 115.691 111.614 115.49 111.858C115.384 111.992 115.306 112.147 115.26 112.313C115.215 112.478 115.203 112.651 115.226 112.821C115.249 112.991 115.306 113.155 115.393 113.302C115.481 113.45 115.597 113.578 115.735 113.68C127.627 122.175 140.477 129.241 154.019 134.733C155.379 135.277 156.739 135.807 158.099 136.311C163.204 138.215 168.367 139.878 173.59 141.302C173.703 141.315 173.817 141.315 173.93 141.302C174.213 141.303 174.488 141.208 174.711 141.033C174.933 140.857 175.089 140.612 175.154 140.336C175.196 140.015 175.122 139.688 174.945 139.417C174.768 139.145 174.499 138.945 174.188 138.854Z" fill="#4AE792"/>
<path d="M13.9091 49.0938C19.0227 50.549 24.1635 52.2762 29.7803 54.425L33.8603 56.0162L34.9347 56.4514L36.1995 57.0226C40.2795 58.8178 44.1011 60.5314 47.8411 62.4626C49.5965 63.3222 51.2995 64.285 52.9411 65.3458C53.7979 65.8762 54.6955 66.4202 55.6611 66.9642C60.6783 69.525 65.481 72.4857 70.0227 75.8178L70.9339 76.4434C71.1928 76.6192 71.5082 76.6916 71.8179 76.6463C72.1276 76.6009 72.409 76.4412 72.6067 76.1986C72.7182 76.0656 72.8005 75.9106 72.8482 75.7437C72.8959 75.5768 72.908 75.4017 72.8836 75.2298C72.8592 75.058 72.799 74.8932 72.7067 74.7461C72.6145 74.599 72.4924 74.473 72.3483 74.3762L71.4507 73.7506C66.8092 70.3591 61.907 67.3395 56.7899 64.7202C55.9195 64.2034 55.0627 63.6866 54.2331 63.1698C52.5148 62.075 50.7398 61.0717 48.9155 60.1642C45.1211 58.2466 41.2587 56.533 37.1651 54.7242L35.8867 54.153L35.3019 53.9082C33.9419 53.3506 32.5819 52.8066 31.2219 52.3034C25.3331 50.0322 19.9611 48.2234 14.6163 46.6866C14.2935 46.5947 13.9474 46.6347 13.6541 46.7979C13.3608 46.9611 13.1443 47.2342 13.0524 47.557C12.9604 47.8798 13.0004 48.226 13.1636 48.5193C13.3269 48.8126 13.5999 49.029 13.9227 49.121L13.9091 49.0938Z" fill="#4AE792"/>
<path d="M159.922 158.043C155.506 155.478 151.209 152.717 147.029 149.761C146.413 150.359 145.787 150.944 145.152 151.515C149.513 154.634 154.015 157.536 158.657 160.219C158.844 160.338 159.061 160.399 159.283 160.396C159.503 160.389 159.719 160.329 159.911 160.22C160.103 160.111 160.265 159.956 160.384 159.771C160.552 159.48 160.597 159.135 160.511 158.811C160.424 158.487 160.212 158.211 159.922 158.043Z" fill="#4AE792"/>
<path d="M111.897 116.971C111.696 116.723 111.407 116.561 111.09 116.521C110.773 116.48 110.453 116.564 110.197 116.754C110.058 116.854 109.942 116.982 109.855 117.129C109.768 117.276 109.711 117.439 109.69 117.608C109.668 117.778 109.681 117.95 109.729 118.114C109.776 118.278 109.857 118.431 109.965 118.563C119.296 129.906 129.937 140.105 141.667 148.945L143.571 147.204C131.837 138.436 121.202 128.285 111.897 116.971Z" fill="#4AE792"/>
<path d="M57.5669 51.501C59.0313 52.7846 60.4251 54.1466 61.7422 55.581C62.4222 56.3154 63.1021 57.0634 63.8909 57.825C68.0699 61.5933 71.9444 65.686 75.4782 70.065L76.199 70.8946C76.4046 71.1318 76.6911 71.2841 77.0028 71.3218C77.3145 71.3595 77.6291 71.28 77.8853 71.0986C78.0264 70.9986 78.145 70.8702 78.2334 70.7215C78.3217 70.5729 78.378 70.4074 78.3985 70.2357C78.419 70.064 78.4033 69.8899 78.3524 69.7246C78.3015 69.5594 78.2165 69.4066 78.103 69.2762L77.3958 68.433C73.7873 63.9616 69.8359 59.7783 65.5774 55.921C64.8702 55.2002 64.2173 54.4794 63.5101 53.7722C62.1364 52.2635 60.6789 50.8332 59.1445 49.4882C55.9757 46.6594 52.6982 44.0482 49.2166 41.1922L48.115 40.2946L47.8022 40.0498C47.1358 40.6074 46.4421 41.165 45.8438 41.7498L46.5782 42.2938L47.6525 43.1642C51.1749 46.0746 54.4389 48.713 57.5669 51.501Z" fill="#4AE792"/>
<path d="M83.7818 38.6053C84.3936 40.4541 84.9047 42.3346 85.3129 44.2387C85.5268 45.2164 85.7338 46.2059 86.0278 47.2622C87.7201 52.6287 88.9855 58.1206 89.8121 63.6866L90.0129 64.7671C90.0699 65.0758 90.2397 65.3523 90.4893 65.5428C90.7389 65.7333 91.0504 65.8241 91.3632 65.7977C91.5355 65.783 91.7028 65.7324 91.8544 65.6491C92.0059 65.5657 92.1383 65.4516 92.243 65.314C92.3477 65.1763 92.4224 65.0183 92.4623 64.8501C92.5021 64.6818 92.5063 64.507 92.4745 64.337L92.2923 63.2517C91.4482 57.5683 90.1624 51.9593 88.4466 46.4757C88.2023 45.4959 88.0049 44.5437 87.7538 43.5756C87.3343 41.5787 86.8029 39.6071 86.162 37.6699C84.8642 33.6252 83.3624 29.713 81.8089 25.4863L81.3142 24.1542L81.1687 23.7847C80.3116 23.9275 79.431 24.0566 78.6188 24.2574L78.9761 25.0986L79.4611 26.3935C81.0223 30.6877 82.4986 34.6165 83.7818 38.6053Z" fill="#4AE792"/>
<path d="M28.2707 29.8635C32.9083 32.5835 37.4915 35.6843 42.4283 39.2883C43.0675 38.6899 43.7067 38.1187 44.3595 37.5611C39.1915 33.7803 34.4043 30.5843 29.5763 27.6875C29.2878 27.5071 28.9394 27.4488 28.6078 27.5253C28.2763 27.6018 27.9886 27.8069 27.8083 28.0955C27.628 28.384 27.5696 28.7324 27.6461 29.064C27.7227 29.3955 27.9278 29.6831 28.2163 29.8635H28.2707Z" fill="#4AE792"/>
<path d="M130.94 161.743C130.015 160.627 129.104 159.512 128.22 158.37C119.094 146.824 111.4 134.216 105.304 120.82C105.172 120.529 104.934 120.299 104.638 120.177C104.342 120.056 104.011 120.052 103.713 120.167C103.552 120.227 103.405 120.319 103.282 120.438C103.158 120.556 103.061 120.7 102.995 120.858C102.93 121.017 102.899 121.187 102.903 121.359C102.907 121.53 102.946 121.699 103.019 121.854C109.118 135.288 116.802 147.945 125.908 159.553C126.815 160.695 127.721 161.824 128.628 162.939C132.001 167.019 135.55 170.932 139.277 174.676C139.514 174.917 139.837 175.054 140.174 175.057C140.339 175.058 140.501 175.025 140.653 174.962C140.805 174.899 140.943 174.807 141.058 174.69C141.177 174.572 141.271 174.432 141.335 174.278C141.399 174.124 141.432 173.959 141.432 173.792C141.432 173.625 141.399 173.46 141.335 173.306C141.271 173.152 141.177 173.012 141.058 172.895C137.55 169.341 134.177 165.623 130.94 161.743Z" fill="#4AE792"/>
<path d="M84.6438 65.1419C82.327 59.8891 79.5985 54.8278 76.4838 50.0052C75.9806 49.1212 75.5046 48.2372 75.0422 47.3804C74.1099 45.5655 73.0699 43.8079 71.9278 42.1172C69.6022 38.554 67.127 35.1403 64.4886 31.5227L63.659 30.394L63.5094 30.19C62.5846 29.0068 61.687 27.8643 60.7894 26.7627C56.7094 21.7171 52.9286 17.3788 48.9846 13.2988C48.752 13.0571 48.4329 12.9177 48.0975 12.9114C47.7621 12.905 47.4379 13.0321 47.1962 13.2648C46.9546 13.4974 46.8152 13.8165 46.8088 14.1519C46.8024 14.4873 46.9296 14.8115 47.1622 15.0532C50.943 18.97 54.615 23.1316 58.491 27.9324L61.211 31.3324L61.6734 31.9308L62.4894 33.046C65.1006 36.6364 67.5758 40.0364 69.8606 43.5452C70.9476 45.1671 71.9376 46.8519 72.8254 48.5908C73.315 49.4748 73.8046 50.3996 74.3486 51.3108C77.4018 56.0448 80.0801 61.0103 82.359 66.1619C82.5222 66.4883 82.6718 66.8148 82.835 67.1548C82.9686 67.4372 83.204 67.6587 83.4941 67.7747C83.7842 67.8907 84.1075 67.8927 84.399 67.7803C84.5621 67.7199 84.7108 67.6261 84.8356 67.5049C84.9605 67.3838 85.0586 67.2379 85.1239 67.0766C85.1892 66.9154 85.2201 66.7423 85.2147 66.5684C85.2093 66.3945 85.1677 66.2237 85.0926 66.0668C84.9022 65.8084 84.807 65.4139 84.6438 65.1419Z" fill="#4AE792"/>
<path d="M112.209 169.087L109.68 169.658C111.865 174.445 114.267 179.114 116.888 183.666C117.056 183.956 117.331 184.168 117.654 184.257C117.977 184.346 118.322 184.305 118.615 184.142C118.893 183.96 119.096 183.682 119.183 183.362C119.271 183.041 119.238 182.699 119.091 182.401C116.607 178.076 114.313 173.638 112.209 169.087Z" fill="#4AE792"/>
<path d="M76.8223 21.0643C77.6655 20.8603 78.5087 20.6835 79.3519 20.5203C76.7271 14.5635 74.1567 9.34114 71.3823 4.34994C71.22 4.05598 70.9476 3.83853 70.6249 3.74544C70.3023 3.65235 69.9559 3.6912 69.662 3.85352C69.368 4.01583 69.1505 4.28828 69.0575 4.61092C68.9644 4.93356 69.0032 5.27997 69.1655 5.57393C71.8311 10.3747 74.3063 15.3659 76.8223 21.0643Z" fill="#4AE792"/>
<path d="M98.0264 122.833C97.9729 122.519 97.8032 122.237 97.5512 122.043C97.2991 121.849 96.9832 121.757 96.6664 121.786C96.4968 121.802 96.3325 121.853 96.1836 121.936C96.0347 122.019 95.9045 122.131 95.8011 122.266C95.6977 122.402 95.6234 122.557 95.5827 122.722C95.542 122.888 95.5359 123.06 95.5648 123.227C97.9849 137.82 102.144 152.07 107.954 165.673C108.798 165.51 109.641 165.333 110.47 165.129C104.636 151.582 100.457 137.381 98.0264 122.833Z" fill="#4AE792"/>
<path d="M96.314 19.1739C96.5316 20.5339 96.7355 21.8939 96.9395 23.4171L97.0211 24.0426L97.1707 25.4026C97.6467 29.809 98.0819 33.9843 98.3131 38.1595C98.4219 40.1073 98.4219 42.0597 98.3131 44.0075C98.3131 45.0139 98.3131 46.0475 98.3131 47.1083V47.2171C98.5972 52.838 98.4335 58.4726 97.8235 64.0675L97.7419 65.1555C97.7068 65.4736 97.7962 65.7929 97.9915 66.0465C98.1867 66.3001 98.4726 66.4682 98.7891 66.5155C98.9599 66.5422 99.1343 66.5334 99.3014 66.4894C99.4685 66.4454 99.6247 66.3673 99.7602 66.26C99.8956 66.1527 100.007 66.0185 100.088 65.8658C100.169 65.7132 100.218 65.5454 100.231 65.3731C100.231 65.0195 100.231 64.6523 100.326 64.2851C100.938 58.572 101.101 52.8197 100.816 47.0811C100.816 46.0611 100.816 45.0683 100.816 44.0891C100.93 42.0552 100.93 40.0165 100.816 37.9826C100.571 33.7394 100.136 29.5506 99.6596 25.1034L99.5099 23.7434C99.5099 23.7434 99.5099 23.6483 99.5099 23.5939C99.3195 22.1251 99.1019 20.7106 98.8843 19.3234C97.8915 12.8634 96.7491 7.15144 95.3619 1.64344C95.3318 1.47249 95.2667 1.30959 95.1709 1.16486C95.0751 1.02013 94.9504 0.896688 94.8048 0.802198C94.6592 0.707708 94.4957 0.644203 94.3245 0.615638C94.1533 0.587072 93.978 0.59404 93.8096 0.636141C93.6412 0.678242 93.4833 0.754566 93.3456 0.860345C93.208 0.966124 93.0936 1.09912 93.0096 1.25102C92.9256 1.40292 92.8737 1.57049 92.8573 1.7433C92.8408 1.9161 92.8601 2.09043 92.914 2.25546C94.2468 7.49146 95.3484 12.9723 96.314 19.1739Z" fill="#4AE792"/>
<path d="M92.1635 171.235C91.9187 169.875 91.6875 168.407 91.4835 166.992C89.3598 152.386 89.0082 137.578 90.4363 122.887C90.4681 122.57 90.3774 122.252 90.1827 122C89.9881 121.747 89.7042 121.578 89.3891 121.527C89.2205 121.501 89.0482 121.509 88.8828 121.551C88.7174 121.593 88.5624 121.669 88.4274 121.774C88.2923 121.878 88.1801 122.009 88.0976 122.158C88.0151 122.308 87.964 122.473 87.9475 122.643C86.511 137.367 86.8398 152.21 88.9267 166.856C89.1307 168.284 89.3619 169.712 89.6067 171.127C90.5134 176.322 91.6241 181.458 92.9387 186.535C93.0128 186.804 93.1724 187.041 93.3933 187.21C93.6142 187.379 93.8844 187.472 94.1627 187.474H94.4891C94.65 187.431 94.8009 187.357 94.9331 187.256C95.0654 187.155 95.1764 187.029 95.2598 186.885C95.3431 186.741 95.3973 186.582 95.419 186.417C95.4408 186.252 95.4298 186.084 95.3867 185.923C94.0902 181.073 93.0158 176.177 92.1635 171.235Z" fill="#4AE792"/>
<path d="M55.6147 161.829C56.0077 160.504 56.4618 159.088 56.9157 157.733C61.5875 143.733 67.9334 130.348 75.8156 117.869C75.9867 117.6 76.0485 117.276 75.9883 116.962C75.9282 116.649 75.7506 116.37 75.4919 116.184C75.3533 116.084 75.1958 116.014 75.029 115.977C74.8622 115.94 74.6898 115.938 74.5222 115.971C74.3546 116.003 74.1954 116.07 74.0545 116.166C73.9136 116.263 73.7939 116.387 73.7027 116.531C65.7978 129.036 59.416 142.442 54.6932 156.462C54.2332 157.829 53.7975 159.208 53.38 160.582C51.8534 165.63 50.5355 170.717 49.4263 175.843C49.3717 176.116 49.4078 176.399 49.5289 176.65C49.6501 176.9 49.8497 177.105 50.0975 177.232L50.389 177.378C50.5519 177.413 50.7199 177.414 50.8835 177.384C51.047 177.353 51.2029 177.29 51.3422 177.199C51.4814 177.108 51.6013 176.99 51.6949 176.852C51.7886 176.715 51.8542 176.56 51.888 176.397C52.9114 171.482 54.1537 166.626 55.6147 161.829Z" fill="#4AE792"/>
<path d="M22.3419 91.2539L24.0827 91.0091L25.4427 90.8595C29.8491 90.3971 34.0243 89.9483 38.2131 89.7171C40.1609 89.6084 42.1133 89.6084 44.0611 89.7171C45.0675 89.7171 46.1011 89.7171 47.1619 89.7171H47.2571C52.8826 89.4398 58.5212 89.6036 64.1211 90.2068L65.2091 90.2883C65.5252 90.3238 65.8428 90.2363 66.096 90.0438C66.3493 89.8514 66.5187 89.5688 66.5691 89.2547C66.598 89.083 66.5906 88.9071 66.5476 88.7384C66.5046 88.5696 66.4269 88.4118 66.3194 88.2748C66.2118 88.1378 66.0769 88.0248 65.9232 87.943C65.7695 87.8611 65.6004 87.8123 65.4267 87.7995L64.3387 87.7044C58.6251 87.0997 52.8735 86.936 47.1347 87.2147C46.1147 87.2147 45.1219 87.2147 44.1427 87.2147C42.103 87.1227 40.0598 87.1454 38.0227 87.2827C33.7795 87.5139 29.5907 87.9628 25.1435 88.4252L23.7835 88.5747L22.5595 88.7515C21.0907 88.9555 19.6627 89.1731 18.2755 89.3907C12.2643 90.3563 6.87871 91.4443 1.64271 92.7499C1.47176 92.7801 1.30886 92.8451 1.16413 92.9409C1.0194 93.0368 0.895956 93.1614 0.801466 93.307C0.706975 93.4526 0.643471 93.6162 0.614905 93.7874C0.58634 93.9586 0.593307 94.1339 0.635408 94.3023C0.67751 94.4707 0.753833 94.6286 0.859613 94.7662C0.965392 94.9039 1.09835 95.0182 1.25025 95.1023C1.40215 95.1863 1.56972 95.2382 1.74253 95.2546C1.91533 95.2711 2.0897 95.2518 2.25472 95.1979C7.25952 93.9467 12.4003 92.8995 18.1259 91.9883C19.4406 91.7254 20.8459 91.4806 22.3419 91.2539Z" fill="#4AE792"/>
<path d="M95.2485 64.0999L115.624 73.9069L123.097 95.2489L113.29 115.624L91.9475 123.097L71.5724 113.29L64.0995 91.948L73.9065 71.5728L95.2485 64.0999Z" stroke="#4AE792" stroke-width="2" stroke-linejoin="round"/>
<path d="M94.574 76.1494L106.626 81.9504L111.047 94.5747L105.246 106.627L92.6214 111.047L80.5691 105.246L76.1487 92.6221L81.9497 80.5697L94.574 76.1494Z" stroke="#4AE792" stroke-width="2" stroke-linejoin="round"/>
</svg>
