<svg width="374" height="378" viewBox="0 0 374 378" fill="none" xmlns="http://www.w3.org/2000/svg">
<g filter="url(#filter0_f)">
<path d="M105.798 57.3162C93.4185 44.8608 105.151 22.7021 122.714 28.0573C130.496 30.4303 137.401 40.0744 142.858 46.0224C158.128 62.6667 172.365 80.2813 185.164 98.9027C232.076 167.157 271.228 272.695 255.759 357.229C255.453 358.901 254.95 354.704 254.96 354.34C255.109 348.962 254.967 343.582 254.625 338.216C253.8 325.268 251.764 312.407 249.015 299.742C240.723 261.54 225.844 224.845 207.32 190.539C180.374 140.638 145.614 97.3746 105.798 57.3162Z" fill="url(#paint0_linear)"/>
</g>
<g filter="url(#filter1_f)">
<path d="M108.053 55.1191C95.6848 42.6527 105.881 21.9905 122.875 27.9002C130.405 30.5189 137.425 40.051 142.897 45.9839C158.211 62.5856 172.583 80.0689 185.628 98.4503C233.443 165.824 275.53 268.504 264.571 348.643C264.354 350.229 263.686 346.192 263.679 345.845C263.579 340.709 263.202 335.558 262.635 330.412C261.267 317.993 258.747 305.603 255.556 293.369C245.931 256.466 230.089 220.708 210.878 187.072C182.934 138.145 147.833 95.2128 108.053 55.1191Z" fill="url(#paint1_linear)"/>
</g>
<defs>
<filter id="filter0_f" x="0" y="0" width="373.955" height="377.642" filterUnits="userSpaceOnUse" color-interpolation-filters="sRGB">
<feFlood flood-opacity="0" result="BackgroundImageFix"/>
<feBlend mode="normal" in="SourceGraphic" in2="BackgroundImageFix" result="shape"/>
<feGaussianBlur stdDeviation="10" result="effect1_foregroundBlur"/>
</filter>
<filter id="filter1_f" x="27.8379" y="19" width="327.117" height="331.031" filterUnits="userSpaceOnUse" color-interpolation-filters="sRGB">
<feFlood flood-opacity="0" result="BackgroundImageFix"/>
<feBlend mode="normal" in="SourceGraphic" in2="BackgroundImageFix" result="shape"/>
<feGaussianBlur stdDeviation="0.5" result="effect1_foregroundBlur"/>
</filter>
<linearGradient id="paint0_linear" x1="112.414" y1="41.7734" x2="255.257" y2="321.22" gradientUnits="userSpaceOnUse">
<stop stop-color="#4AE792"/>
<stop offset="1" stop-color="#4AE792" stop-opacity="0"/>
</linearGradient>
<linearGradient id="paint1_linear" x1="113.666" y1="40.5535" x2="247.535" y2="321.311" gradientUnits="userSpaceOnUse">
<stop stop-color="#4AE792"/>
<stop offset="1" stop-color="#4AE792" stop-opacity="0"/>
</linearGradient>
</defs>
</svg>
