<svg width="331" height="331" viewBox="0 0 331 331" fill="none" xmlns="http://www.w3.org/2000/svg">
<g opacity="0.1" filter="url(#filter0_f)">
<path d="M129.449 208.23C129.585 208.344 129.698 208.483 129.78 208.64C129.863 208.797 129.913 208.968 129.929 209.145C129.945 209.321 129.926 209.499 129.873 209.668C129.82 209.838 129.735 209.995 129.621 210.131L116.617 225.564C116.413 225.815 116.126 225.985 115.808 226.041C115.49 226.098 115.162 226.038 114.884 225.873L114.684 225.758C114.41 225.525 114.239 225.193 114.208 224.834C114.178 224.475 114.29 224.119 114.521 223.842L127.534 208.393C127.767 208.119 128.099 207.948 128.458 207.917C128.817 207.887 129.173 207.999 129.449 208.23Z" fill="#4AE792"/>
<path d="M216.231 106.975L203.228 122.409C202.996 122.68 202.668 122.85 202.313 122.882C201.958 122.914 201.604 122.806 201.328 122.58C201.191 122.469 201.078 122.332 200.994 122.177C200.911 122.022 200.86 121.851 200.843 121.676C200.826 121.501 200.844 121.324 200.897 121.155C200.949 120.987 201.034 120.831 201.147 120.696L214.159 105.247C214.274 105.108 214.415 104.994 214.573 104.91C214.732 104.826 214.906 104.775 215.085 104.758C215.263 104.742 215.444 104.761 215.615 104.814C215.787 104.867 215.946 104.954 216.084 105.068C216.346 105.308 216.506 105.639 216.534 105.993C216.561 106.347 216.453 106.698 216.231 106.975Z" fill="#4AE792"/>
<path d="M87.764 258.309L87.5645 258.194C87.4262 258.08 87.3119 257.939 87.2281 257.78C87.1443 257.621 87.0926 257.448 87.076 257.269C87.0595 257.09 87.0783 256.91 87.1316 256.738C87.1848 256.567 87.2713 256.408 87.3862 256.27L103.164 237.485C103.27 237.327 103.409 237.193 103.571 237.092C103.732 236.99 103.914 236.924 104.102 236.897C104.291 236.87 104.484 236.883 104.667 236.935C104.851 236.987 105.021 237.077 105.168 237.199C105.315 237.321 105.434 237.473 105.518 237.644C105.603 237.815 105.651 238.002 105.658 238.192C105.666 238.383 105.634 238.573 105.564 238.751C105.494 238.928 105.387 239.089 105.251 239.222L89.4799 258.031C89.2689 258.267 88.9835 258.423 88.6712 258.474C88.3589 258.524 88.0387 258.466 87.764 258.309Z" fill="#4AE792"/>
<path d="M225.915 93.6772L225.701 93.5532C225.563 93.4391 225.449 93.2986 225.366 93.1401C225.283 92.9815 225.232 92.808 225.217 92.6296C225.202 92.4513 225.223 92.2717 225.278 92.1014C225.333 91.9311 225.421 91.7735 225.538 91.6377L241.282 72.8748C241.516 72.5971 241.85 72.4236 242.211 72.3925C242.573 72.3613 242.932 72.475 243.21 72.7086C243.487 72.9422 243.661 73.2765 243.692 73.638C243.723 73.9995 243.609 74.3585 243.376 74.6362L227.702 93.4192C227.489 93.6756 227.188 93.8439 226.858 93.8916C226.528 93.9393 226.192 93.8629 225.915 93.6772Z" fill="#4AE792"/>
<path d="M122.556 201.345C122.674 201.483 122.762 201.644 122.816 201.817C122.87 201.99 122.889 202.173 122.871 202.353C122.852 202.534 122.798 202.709 122.71 202.868C122.623 203.027 122.504 203.167 122.361 203.279L106.917 216.239C106.704 216.42 106.44 216.531 106.161 216.557C105.883 216.583 105.603 216.522 105.36 216.384C105.21 216.327 105.07 216.246 104.946 216.145C104.828 216.006 104.739 215.846 104.685 215.672C104.63 215.499 104.61 215.316 104.627 215.136C104.644 214.955 104.697 214.779 104.782 214.619C104.868 214.458 104.985 214.317 105.126 214.202L120.585 201.25C120.716 201.118 120.873 201.015 121.047 200.948C121.22 200.881 121.406 200.85 121.592 200.859C121.777 200.868 121.959 200.916 122.125 201C122.292 201.083 122.438 201.201 122.556 201.345Z" fill="#4AE792"/>
<path d="M225.608 116.687L210.14 129.654C210.002 129.772 209.841 129.86 209.668 129.914C209.495 129.968 209.312 129.987 209.132 129.969C208.951 129.95 208.776 129.896 208.617 129.808C208.458 129.72 208.318 129.602 208.206 129.459C208.089 129.32 208 129.16 207.946 128.987C207.892 128.813 207.874 128.631 207.892 128.45C207.91 128.27 207.965 128.095 208.052 127.936C208.14 127.777 208.259 127.637 208.402 127.525L223.855 114.549C223.993 114.431 224.154 114.343 224.327 114.288C224.5 114.233 224.683 114.214 224.864 114.231C225.045 114.247 225.22 114.3 225.381 114.386C225.541 114.471 225.682 114.588 225.797 114.729C225.914 114.87 226.002 115.032 226.056 115.207C226.11 115.382 226.129 115.565 226.112 115.748C226.094 115.93 226.04 116.106 225.954 116.268C225.868 116.429 225.75 116.571 225.608 116.687Z" fill="#4AE792"/>
<path d="M73.0142 243.552C72.8747 243.467 72.7498 243.36 72.6441 243.236C72.5242 243.098 72.4334 242.938 72.3774 242.764C72.3213 242.591 72.3011 242.408 72.3179 242.226C72.3348 242.044 72.3883 241.868 72.4754 241.708C72.5624 241.547 72.6811 241.406 72.8242 241.293L91.6197 225.54C91.7575 225.425 91.9166 225.338 92.0881 225.284C92.2595 225.23 92.4398 225.211 92.6188 225.227C92.7977 225.243 92.9718 225.294 93.131 225.377C93.2903 225.46 93.4316 225.574 93.5469 225.712C93.6622 225.849 93.7492 226.009 93.803 226.18C93.8568 226.351 93.8763 226.532 93.8604 226.711C93.8445 226.89 93.7935 227.064 93.7103 227.223C93.6271 227.382 93.5134 227.523 93.3756 227.639L74.5801 243.392C74.3689 243.579 74.104 243.696 73.823 243.724C73.542 243.753 73.2591 243.693 73.0142 243.552Z" fill="#4AE792"/>
<path d="M237.646 105.402C237.501 105.349 237.366 105.271 237.247 105.172C237.13 105.033 237.041 104.873 236.986 104.699C236.932 104.526 236.912 104.344 236.929 104.163C236.946 103.982 236.998 103.806 237.084 103.646C237.17 103.486 237.286 103.344 237.427 103.229L256.208 87.4675C256.346 87.3499 256.507 87.2612 256.68 87.2065C256.853 87.1518 257.036 87.1323 257.217 87.1491C257.398 87.1658 257.573 87.2186 257.734 87.3042C257.894 87.3898 258.036 87.5066 258.15 87.6476C258.383 87.9294 258.495 88.292 258.461 88.6561C258.427 89.0202 258.251 89.356 257.97 89.5902L239.174 105.343C238.956 105.507 238.693 105.6 238.42 105.611C238.147 105.621 237.877 105.549 237.646 105.402Z" fill="#4AE792"/>
<path d="M116.978 193.356C117.142 193.656 117.186 194.007 117.101 194.338C117.017 194.669 116.809 194.955 116.521 195.139L99.0591 205.216C98.8516 205.34 98.6145 205.405 98.3727 205.406C98.131 205.407 97.8935 205.343 97.6851 205.22C97.4796 205.104 97.3088 204.935 97.1904 204.73C97.0116 204.413 96.9648 204.039 97.0602 203.688C97.1556 203.337 97.3855 203.038 97.7 202.855L115.162 192.779C115.319 192.697 115.491 192.648 115.667 192.633C115.843 192.618 116.021 192.638 116.19 192.691C116.358 192.745 116.514 192.831 116.65 192.945C116.785 193.06 116.896 193.199 116.978 193.356Z" fill="#4AE792"/>
<path d="M233.147 127.874L215.702 137.92C215.402 138.08 215.052 138.122 214.722 138.037C214.392 137.953 214.106 137.748 213.919 137.463C213.755 137.164 213.712 136.812 213.8 136.482C213.888 136.151 214.099 135.867 214.391 135.689L231.862 125.597C232.162 125.433 232.513 125.389 232.844 125.474C233.175 125.558 233.461 125.766 233.645 126.054C233.813 126.363 233.854 126.725 233.761 127.064C233.668 127.403 233.448 127.693 233.147 127.874Z" fill="#4AE792"/>
<path d="M61.0362 226.445C60.8307 226.328 60.66 226.159 60.5416 225.954C60.3815 225.654 60.3395 225.304 60.424 224.974C60.5084 224.644 60.7132 224.358 60.998 224.171L82.2533 211.885C82.5643 211.732 82.922 211.703 83.2538 211.803C83.5856 211.904 83.8665 212.128 84.0395 212.428C84.2125 212.729 84.2646 213.084 84.1853 213.421C84.106 213.759 83.9011 214.054 83.6124 214.246L62.357 226.532C62.1472 226.629 61.9163 226.672 61.6855 226.657C61.4548 226.641 61.2315 226.568 61.0362 226.445Z" fill="#4AE792"/>
<path d="M247.151 118.995C246.945 118.878 246.774 118.709 246.656 118.504C246.492 118.205 246.447 117.854 246.532 117.523C246.617 117.192 246.824 116.905 247.112 116.721L268.368 104.435C268.682 104.26 269.052 104.215 269.399 104.308C269.746 104.402 270.044 104.627 270.228 104.936C270.392 105.235 270.436 105.586 270.351 105.917C270.267 106.248 270.059 106.535 269.771 106.719L248.516 119.005C248.307 119.122 248.071 119.182 247.832 119.18C247.593 119.178 247.358 119.114 247.151 118.995Z" fill="#4AE792"/>
<path d="M112.874 184.52C112.998 184.855 112.984 185.225 112.835 185.55C112.686 185.874 112.414 186.126 112.079 186.251L93.1076 193.163C92.7652 193.283 92.3897 193.263 92.0618 193.108C91.7339 192.953 91.48 192.676 91.3548 192.336C91.293 192.168 91.2651 191.989 91.2729 191.811C91.2807 191.632 91.3239 191.457 91.4002 191.295C91.4764 191.134 91.5841 190.989 91.7169 190.869C91.8497 190.749 92.005 190.657 92.1737 190.598L111.145 183.685C111.313 183.625 111.492 183.599 111.67 183.609C111.849 183.618 112.023 183.663 112.184 183.741C112.345 183.818 112.489 183.927 112.607 184.061C112.726 184.195 112.816 184.351 112.874 184.52Z" fill="#4AE792"/>
<path d="M238.646 140.218L219.684 147.116C219.345 147.236 218.972 147.217 218.647 147.064C218.321 146.91 218.07 146.635 217.946 146.297C217.826 145.961 217.843 145.591 217.995 145.268C218.147 144.945 218.421 144.696 218.756 144.575L237.719 137.677C237.886 137.614 238.065 137.584 238.244 137.59C238.422 137.596 238.598 137.638 238.761 137.713C238.923 137.788 239.069 137.894 239.19 138.026C239.311 138.158 239.405 138.312 239.465 138.481C239.581 138.82 239.56 139.191 239.407 139.515C239.254 139.839 238.982 140.091 238.646 140.218Z" fill="#4AE792"/>
<path d="M52.2247 207.543C51.9975 207.413 51.8123 207.221 51.691 206.99C51.5698 206.758 51.5177 206.497 51.5409 206.236C51.564 205.976 51.6615 205.727 51.8217 205.521C51.9819 205.314 52.1981 205.158 52.4445 205.071L75.4983 196.688C75.6656 196.624 75.8439 196.595 76.0227 196.601C76.2016 196.607 76.3775 196.648 76.54 196.723C76.7026 196.798 76.8487 196.904 76.9696 197.036C77.0906 197.168 77.1841 197.323 77.2446 197.491C77.3675 197.833 77.3513 198.209 77.1993 198.539C77.0473 198.868 76.7717 199.125 76.4322 199.253L53.317 207.6C53.1415 207.67 52.953 207.701 52.7645 207.691C52.576 207.681 52.3919 207.63 52.2247 207.543Z" fill="#4AE792"/>
<path d="M254.17 134.035C253.947 133.905 253.765 133.714 253.647 133.485C253.528 133.256 253.476 132.998 253.498 132.74C253.521 132.483 253.615 132.237 253.771 132.032C253.928 131.826 254.139 131.669 254.381 131.579L277.443 123.18C277.785 123.058 278.161 123.074 278.491 123.226C278.82 123.378 279.077 123.653 279.205 123.993C279.324 124.335 279.305 124.711 279.15 125.039C278.995 125.367 278.718 125.62 278.377 125.746L255.328 134.192C255.135 134.255 254.931 134.273 254.731 134.246C254.53 134.219 254.339 134.147 254.17 134.035Z" fill="#4AE792"/>
<path d="M110.347 175.1C110.379 175.272 110.376 175.449 110.338 175.62C110.301 175.792 110.23 175.954 110.13 176.098C110.03 176.241 109.903 176.364 109.755 176.458C109.607 176.552 109.442 176.617 109.27 176.647L89.3989 180.155C89.0789 180.221 88.7458 180.167 88.4631 180.004C88.2904 179.903 88.1419 179.765 88.0283 179.6C87.9147 179.436 87.8387 179.248 87.8056 179.051C87.7738 178.875 87.7774 178.694 87.8162 178.519C87.8551 178.345 87.9283 178.18 88.0317 178.033C88.1351 177.887 88.2666 177.763 88.4184 177.669C88.5703 177.574 88.7395 177.51 88.9161 177.482L108.796 173.959C109.153 173.905 109.516 173.995 109.807 174.209C110.098 174.423 110.292 174.743 110.347 175.1Z" fill="#4AE792"/>
<path d="M241.915 153.3L222.02 156.814C221.667 156.874 221.306 156.792 221.015 156.585C220.723 156.379 220.526 156.065 220.466 155.713C220.403 155.361 220.482 155 220.686 154.707C220.89 154.414 221.201 154.214 221.552 154.15L241.438 150.651C241.614 150.618 241.795 150.62 241.969 150.657C242.144 150.694 242.31 150.766 242.457 150.868C242.604 150.97 242.729 151.1 242.825 151.251C242.921 151.402 242.986 151.57 243.016 151.746C243.071 152.098 242.987 152.457 242.781 152.747C242.576 153.037 242.265 153.236 241.915 153.3Z" fill="#4AE792"/>
<path d="M46.8185 187.375C46.5774 187.234 46.3854 187.022 46.2686 186.768C46.1517 186.515 46.1155 186.231 46.1649 185.956C46.2143 185.681 46.3469 185.428 46.5448 185.231C46.7427 185.034 46.9964 184.902 47.2715 184.854L71.4435 180.595C71.8012 180.53 72.17 180.61 72.4688 180.817C72.7676 181.024 72.9719 181.342 73.0367 181.699C73.1016 182.057 73.0217 182.426 72.8147 182.725C72.6076 183.023 72.2904 183.228 71.9327 183.293L47.7761 187.56C47.4451 187.615 47.1052 187.549 46.8185 187.375Z" fill="#4AE792"/>
<path d="M258.449 150.055C258.274 149.957 258.123 149.82 258.009 149.655C257.895 149.49 257.821 149.3 257.791 149.102C257.76 148.926 257.763 148.745 257.802 148.57C257.841 148.396 257.914 148.231 258.018 148.084C258.121 147.938 258.252 147.814 258.404 147.72C258.556 147.625 258.725 147.561 258.902 147.533L283.059 143.266C283.416 143.204 283.783 143.285 284.081 143.492C284.379 143.698 284.584 144.014 284.652 144.37C284.711 144.728 284.626 145.095 284.417 145.391C284.207 145.688 283.89 145.89 283.532 145.954L259.376 150.221C259.057 150.275 258.729 150.216 258.449 150.055Z" fill="#4AE792"/>
<path d="M109.496 165.38C109.488 165.721 109.348 166.047 109.106 166.288C108.864 166.529 108.538 166.668 108.196 166.675L88.0197 166.671C87.7765 166.671 87.5372 166.611 87.3236 166.494C87.0624 166.344 86.8584 166.111 86.7435 165.832C86.6286 165.554 86.6092 165.245 86.6883 164.954C86.7674 164.663 86.9406 164.406 87.1809 164.224C87.4212 164.042 87.715 163.945 88.0164 163.947L108.193 163.952C108.374 163.954 108.552 163.994 108.717 164.069C108.882 164.143 109.03 164.251 109.153 164.384C109.275 164.518 109.368 164.675 109.427 164.846C109.486 165.018 109.51 165.199 109.496 165.38Z" fill="#4AE792"/>
<path d="M242.856 166.777L222.679 166.773C222.339 166.76 222.016 166.618 221.776 166.377C221.535 166.136 221.395 165.812 221.384 165.472C221.399 165.131 221.543 164.808 221.788 164.569C222.032 164.33 222.358 164.193 222.7 164.185L242.876 164.189C243.222 164.211 243.547 164.364 243.784 164.617C244.022 164.869 244.154 165.203 244.154 165.55C244.155 165.896 244.023 166.23 243.786 166.483C243.55 166.737 243.225 166.89 242.879 166.913L242.856 166.777Z" fill="#4AE792"/>
<path d="M45.0041 166.598C44.7937 166.479 44.6194 166.305 44.4992 166.096C44.3791 165.886 44.3176 165.647 44.3213 165.406C44.3262 165.046 44.471 164.703 44.7249 164.448C44.9789 164.194 45.322 164.048 45.6816 164.042L70.2324 164.055C70.5784 164.077 70.9032 164.229 71.1407 164.482C71.3782 164.735 71.5105 165.068 71.511 165.415C71.5114 165.762 71.3798 166.096 71.1429 166.349C70.906 166.602 70.5816 166.756 70.2356 166.779L45.6848 166.766C45.4471 166.771 45.2122 166.713 45.0041 166.598Z" fill="#4AE792"/>
<path d="M259.904 166.592C259.697 166.468 259.526 166.294 259.406 166.085C259.287 165.876 259.223 165.64 259.221 165.399C259.223 165.22 259.259 165.043 259.329 164.878C259.399 164.712 259.501 164.563 259.628 164.437C259.756 164.311 259.907 164.212 260.074 164.144C260.24 164.077 260.418 164.043 260.597 164.045L285.148 164.057C285.488 164.076 285.808 164.222 286.046 164.466C286.284 164.709 286.423 165.033 286.435 165.373C286.43 165.733 286.285 166.076 286.031 166.331C285.777 166.585 285.434 166.731 285.074 166.737L260.523 166.724C260.31 166.726 260.098 166.681 259.904 166.592Z" fill="#4AE792"/>
<path d="M110.344 155.677C110.32 155.859 110.259 156.034 110.164 156.19C110.069 156.347 109.943 156.483 109.794 156.589C109.644 156.695 109.475 156.768 109.295 156.806C109.116 156.843 108.931 156.842 108.752 156.804L88.8877 153.317C88.7375 153.261 88.5976 153.18 88.4733 153.078C88.2313 152.941 88.0377 152.732 87.9192 152.48C87.8007 152.229 87.7629 151.947 87.8112 151.673C87.8736 151.312 88.0762 150.992 88.3746 150.78C88.673 150.569 89.0429 150.485 89.4034 150.545L109.209 154.204C109.552 154.256 109.86 154.439 110.072 154.713C110.283 154.988 110.38 155.333 110.344 155.677Z" fill="#4AE792"/>
<path d="M241.43 180.197L221.575 176.695C221.396 176.67 221.223 176.608 221.067 176.514C220.912 176.42 220.777 176.296 220.671 176.149C220.565 176.002 220.49 175.834 220.45 175.657C220.41 175.48 220.406 175.297 220.439 175.118C220.46 174.936 220.518 174.761 220.61 174.603C220.703 174.445 220.827 174.308 220.976 174.201C221.124 174.094 221.294 174.019 221.473 173.981C221.652 173.944 221.837 173.944 222.016 173.982L241.895 177.478C242.252 177.543 242.568 177.746 242.774 178.044C242.98 178.341 243.06 178.708 242.995 179.065C242.931 179.421 242.727 179.737 242.43 179.943C242.132 180.149 241.765 180.229 241.408 180.164L241.43 180.197Z" fill="#4AE792"/>
<path d="M46.8244 145.792C46.5522 145.629 46.3454 145.376 46.2395 145.077C46.1337 144.777 46.1355 144.451 46.2446 144.153C46.3537 143.855 46.5632 143.604 46.8372 143.444C47.1112 143.283 47.4325 143.224 47.7458 143.275L71.8907 147.535C72.079 147.551 72.2619 147.606 72.4277 147.697C72.5936 147.787 72.7389 147.911 72.8543 148.061C72.9697 148.211 73.0528 148.383 73.0982 148.566C73.1437 148.75 73.1506 148.94 73.1184 149.127C73.0863 149.313 73.0158 149.49 72.9115 149.648C72.8072 149.806 72.6712 149.94 72.5123 150.042C72.3534 150.144 72.175 150.213 71.9884 150.242C71.8017 150.272 71.611 150.263 71.4281 150.215L47.2743 145.97C47.1157 145.936 46.9637 145.876 46.8244 145.792Z" fill="#4AE792"/>
<path d="M258.488 183.087C258.212 182.926 258.001 182.674 257.892 182.375C257.783 182.075 257.782 181.747 257.89 181.447C257.997 181.147 258.207 180.894 258.481 180.732C258.756 180.57 259.079 180.509 259.394 180.561L283.547 184.805C283.724 184.837 283.892 184.904 284.043 185.001C284.194 185.098 284.324 185.224 284.426 185.371C284.528 185.518 284.6 185.684 284.638 185.859C284.676 186.035 284.679 186.216 284.647 186.392C284.615 186.568 284.549 186.737 284.452 186.887C284.355 187.038 284.229 187.168 284.082 187.27C283.934 187.373 283.768 187.445 283.593 187.483C283.418 187.521 283.237 187.524 283.061 187.492L258.907 183.247C258.76 183.216 258.618 183.162 258.488 183.087Z" fill="#4AE792"/>
<path d="M112.874 146.27C112.816 146.437 112.725 146.591 112.607 146.722C112.489 146.854 112.345 146.96 112.186 147.036C112.026 147.111 111.853 147.154 111.676 147.162C111.5 147.169 111.323 147.142 111.158 147.081L92.1834 140.28L91.9685 140.156C91.6692 139.987 91.4449 139.711 91.3405 139.383C91.2361 139.055 91.2593 138.7 91.4055 138.389C91.5516 138.077 91.8099 137.833 92.1287 137.704C92.4474 137.575 92.8032 137.571 93.1248 137.693L112.103 144.557C112.429 144.686 112.693 144.937 112.837 145.257C112.98 145.577 112.994 145.941 112.874 146.27Z" fill="#4AE792"/>
<path d="M237.664 193.146L218.685 186.282C218.518 186.223 218.363 186.131 218.231 186.011C218.1 185.892 217.993 185.747 217.919 185.585C217.844 185.424 217.802 185.249 217.796 185.071C217.791 184.893 217.82 184.716 217.884 184.55C218.005 184.216 218.254 183.943 218.575 183.792C218.897 183.64 219.265 183.621 219.6 183.74L238.594 190.613C238.779 190.661 238.951 190.746 239.101 190.865C239.25 190.984 239.373 191.132 239.462 191.301C239.55 191.47 239.602 191.656 239.615 191.846C239.627 192.036 239.599 192.227 239.534 192.406C239.468 192.585 239.365 192.748 239.232 192.885C239.099 193.022 238.939 193.13 238.762 193.201C238.585 193.272 238.395 193.305 238.204 193.298C238.013 193.291 237.826 193.245 237.655 193.161L237.664 193.146Z" fill="#4AE792"/>
<path d="M52.2187 125.638C51.9433 125.479 51.7328 125.229 51.6243 124.93C51.5158 124.632 51.5163 124.304 51.6258 124.006C51.6854 123.836 51.7781 123.68 51.8985 123.546C52.0189 123.412 52.1646 123.303 52.3272 123.226C52.4898 123.149 52.666 123.104 52.8459 123.095C53.0257 123.087 53.2055 123.113 53.375 123.174L76.4375 131.578C76.6222 131.625 76.7949 131.711 76.9444 131.83C77.0939 131.948 77.2168 132.097 77.3054 132.266C77.3939 132.435 77.446 132.621 77.4584 132.811C77.4707 133.001 77.443 133.192 77.377 133.371C77.3111 133.55 77.2083 133.713 77.0754 133.85C76.9425 133.987 76.7823 134.094 76.6053 134.166C76.4283 134.237 76.2383 134.27 76.0477 134.263C75.857 134.256 75.67 134.209 75.4985 134.126L52.4424 125.747L52.2187 125.638Z" fill="#4AE792"/>
<path d="M254.174 199.138C254.014 199.063 253.869 198.957 253.75 198.826C253.63 198.694 253.537 198.541 253.477 198.374C253.417 198.207 253.39 198.03 253.398 197.853C253.406 197.675 253.449 197.501 253.524 197.34C253.599 197.18 253.706 197.035 253.837 196.916C253.968 196.796 254.121 196.703 254.288 196.643C254.455 196.583 254.632 196.556 254.81 196.564C254.987 196.572 255.161 196.615 255.322 196.69L278.378 205.069C278.546 205.131 278.701 205.226 278.833 205.348C278.965 205.47 279.071 205.617 279.146 205.78C279.221 205.943 279.263 206.119 279.27 206.298C279.277 206.478 279.248 206.657 279.186 206.825C279.126 206.994 279.034 207.149 278.914 207.282C278.794 207.415 278.649 207.522 278.487 207.599C278.325 207.675 278.149 207.718 277.971 207.725C277.792 207.732 277.613 207.704 277.445 207.642L254.383 199.238L254.174 199.138Z" fill="#4AE792"/>
<path d="M116.513 135.602C116.822 135.78 117.048 136.074 117.14 136.419C117.233 136.764 117.184 137.132 117.006 137.442C116.827 137.751 116.533 137.977 116.188 138.069C115.843 138.162 115.475 138.113 115.166 137.935L97.6834 127.841C97.5183 127.747 97.3748 127.619 97.262 127.466C97.1492 127.313 97.0697 127.138 97.0285 126.952C96.9873 126.766 96.9854 126.574 97.0228 126.388C97.0603 126.201 97.1362 126.025 97.2459 125.87C97.4557 125.593 97.7599 125.403 98.1005 125.335C98.4412 125.268 98.7947 125.328 99.0941 125.504L116.513 135.602Z" fill="#4AE792"/>
<path d="M233.714 204.7C233.635 204.873 233.52 205.027 233.377 205.152C233.234 205.278 233.067 205.372 232.885 205.43C232.704 205.487 232.513 205.505 232.324 205.484C232.135 205.463 231.952 205.403 231.788 205.307L214.306 195.214C213.996 195.035 213.771 194.741 213.678 194.396C213.586 194.051 213.634 193.683 213.813 193.374C213.991 193.064 214.286 192.839 214.631 192.746C214.976 192.654 215.343 192.702 215.653 192.881L233.089 202.947C233.387 203.115 233.615 203.385 233.729 203.707C233.844 204.029 233.839 204.382 233.714 204.7Z" fill="#4AE792"/>
<path d="M82.2999 119.001L61.0418 106.728C60.7283 106.547 60.4996 106.249 60.4059 105.899C60.3123 105.549 60.3613 105.177 60.5423 104.863C60.7232 104.55 61.0213 104.321 61.3709 104.228C61.7205 104.134 62.093 104.183 62.4065 104.364L83.6646 116.637C83.978 116.818 84.2067 117.116 84.3004 117.466C84.3941 117.816 84.3451 118.188 84.1641 118.502C83.9831 118.815 83.685 119.044 83.3354 119.137C82.9858 119.231 82.6133 119.182 82.2999 119.001Z" fill="#4AE792"/>
<path d="M268.406 226.448L247.163 214.184C247.008 214.094 246.872 213.975 246.763 213.833C246.653 213.691 246.573 213.528 246.527 213.355C246.481 213.182 246.469 213.001 246.492 212.824C246.516 212.646 246.574 212.475 246.663 212.32C246.753 212.164 246.872 212.028 247.014 211.919C247.157 211.81 247.319 211.73 247.492 211.684C247.665 211.637 247.846 211.625 248.023 211.649C248.201 211.672 248.372 211.73 248.528 211.82L269.77 224.085C269.926 224.174 270.062 224.293 270.171 224.436C270.28 224.578 270.36 224.74 270.406 224.913C270.453 225.086 270.464 225.267 270.441 225.445C270.418 225.622 270.359 225.794 270.27 225.949C270.18 226.104 270.061 226.24 269.919 226.349C269.777 226.458 269.614 226.538 269.441 226.585C269.268 226.631 269.088 226.643 268.91 226.619C268.732 226.596 268.561 226.538 268.406 226.448Z" fill="#4AE792"/>
<path d="M107.001 114.617L122.389 127.594C122.659 127.825 122.828 128.153 122.857 128.508C122.886 128.862 122.774 129.213 122.545 129.486C122.434 129.624 122.295 129.738 122.138 129.822C121.981 129.906 121.809 129.957 121.632 129.973C121.454 129.989 121.276 129.97 121.106 129.915C120.937 129.861 120.78 129.773 120.645 129.657L105.212 116.654C105.058 116.529 104.934 116.373 104.847 116.196C104.76 116.019 104.713 115.825 104.708 115.627C104.703 115.43 104.741 115.234 104.82 115.053C104.898 114.872 105.015 114.71 105.162 114.578C105.423 114.365 105.751 114.252 106.089 114.259C106.426 114.266 106.749 114.393 107.001 114.617Z" fill="#4AE792"/>
<path d="M225.779 216.061C225.573 216.309 225.286 216.476 224.969 216.532C224.651 216.589 224.324 216.531 224.045 216.369L223.846 216.254L208.397 203.242C208.261 203.129 208.149 202.99 208.067 202.833C207.986 202.677 207.936 202.505 207.921 202.329C207.907 202.153 207.928 201.976 207.982 201.808C208.037 201.64 208.125 201.484 208.24 201.351C208.354 201.214 208.493 201.102 208.65 201.019C208.806 200.937 208.978 200.886 209.155 200.87C209.331 200.854 209.509 200.873 209.678 200.926C209.847 200.979 210.004 201.065 210.14 201.179L225.574 214.182C225.84 214.411 226.009 214.732 226.047 215.081C226.085 215.43 225.989 215.78 225.779 216.061Z" fill="#4AE792"/>
<path d="M91.848 105.418L91.6485 105.303L72.8395 89.5321C72.7016 89.418 72.5879 89.2776 72.5049 89.119C72.4219 88.9604 72.3713 88.7869 72.3561 88.6086C72.341 88.4302 72.3615 88.2507 72.4165 88.0804C72.4715 87.91 72.5599 87.7524 72.6766 87.6167C72.7911 87.4784 72.9317 87.3641 73.0905 87.2802C73.2492 87.1964 73.423 87.1448 73.6017 87.1282C73.7805 87.1116 73.9608 87.1305 74.1322 87.1837C74.3037 87.237 74.4629 87.3235 74.6009 87.4384L93.3857 103.216C93.6798 103.421 93.8803 103.734 93.9433 104.087C94.0062 104.44 93.9264 104.804 93.7213 105.098C93.5162 105.392 93.2027 105.593 92.8498 105.656C92.4968 105.719 92.1332 105.639 91.8391 105.434L91.848 105.418Z" fill="#4AE792"/>
<path d="M256.445 243.549L256.231 243.425L237.446 227.647C237.308 227.533 237.193 227.392 237.109 227.233C237.026 227.074 236.974 226.901 236.957 226.722C236.941 226.543 236.96 226.363 237.013 226.191C237.066 226.02 237.153 225.861 237.267 225.723C237.503 225.452 237.835 225.284 238.192 225.254C238.55 225.223 238.905 225.333 239.183 225.56L257.992 241.331C258.129 241.447 258.242 241.589 258.325 241.75C258.407 241.91 258.457 242.085 258.471 242.264C258.485 242.444 258.464 242.624 258.408 242.795C258.352 242.967 258.263 243.125 258.146 243.262C257.941 243.501 257.658 243.661 257.348 243.713C257.037 243.765 256.718 243.707 256.445 243.549Z" fill="#4AE792"/>
<path d="M116.643 105.286L129.595 120.745C129.715 120.883 129.806 121.043 129.862 121.217C129.918 121.39 129.938 121.574 129.921 121.755C129.905 121.937 129.851 122.113 129.764 122.273C129.677 122.434 129.558 122.575 129.415 122.688C129.278 122.808 129.117 122.899 128.944 122.955C128.77 123.011 128.587 123.031 128.405 123.014C128.224 122.997 128.047 122.944 127.887 122.857C127.727 122.77 127.586 122.651 127.473 122.508L114.505 107.04C114.272 106.758 114.161 106.395 114.194 106.031C114.228 105.667 114.405 105.331 114.686 105.097C114.971 104.865 115.337 104.755 115.703 104.79C116.07 104.825 116.407 105.004 116.643 105.286Z" fill="#4AE792"/>
<path d="M216.058 225.777C215.844 225.956 215.581 226.064 215.304 226.088C215.027 226.111 214.749 226.048 214.509 225.907C214.364 225.854 214.229 225.776 214.11 225.676L201.216 210.189C201.098 210.051 201.01 209.89 200.956 209.717C200.902 209.543 200.883 209.361 200.901 209.18C200.92 209 200.974 208.825 201.062 208.666C201.149 208.507 201.268 208.367 201.411 208.255C201.55 208.138 201.71 208.049 201.884 207.994C202.057 207.939 202.239 207.92 202.42 207.937C202.601 207.953 202.777 208.006 202.937 208.092C203.098 208.177 203.239 208.294 203.354 208.435L216.314 223.879C216.529 224.166 216.623 224.526 216.575 224.881C216.527 225.236 216.341 225.558 216.058 225.777Z" fill="#4AE792"/>
<path d="M103.559 93.6386C103.414 93.5836 103.28 93.5058 103.16 93.4082L87.4066 74.6128C87.1738 74.3345 87.061 73.9751 87.0931 73.6137C87.1252 73.2523 87.2996 72.9185 87.5779 72.6856C87.8561 72.4528 88.2155 72.34 88.5769 72.3721C88.9383 72.4042 89.2722 72.5786 89.505 72.8568L105.258 91.6523C105.417 91.8991 105.492 92.1905 105.472 92.4833C105.452 92.776 105.338 93.0545 105.147 93.2775C104.956 93.5004 104.699 93.656 104.413 93.721C104.127 93.7861 103.827 93.7572 103.559 93.6386Z" fill="#4AE792"/>
<path d="M241.689 258.298C241.543 258.245 241.408 258.167 241.29 258.067L225.537 239.272C225.404 239.138 225.3 238.977 225.233 238.801C225.165 238.624 225.135 238.435 225.144 238.247C225.153 238.058 225.202 237.873 225.286 237.704C225.37 237.535 225.489 237.385 225.634 237.264C225.779 237.143 225.948 237.054 226.129 237.001C226.311 236.949 226.501 236.935 226.689 236.96C226.876 236.985 227.056 237.049 227.218 237.147C227.379 237.246 227.518 237.376 227.626 237.531L243.388 256.312C243.589 256.557 243.698 256.865 243.696 257.183C243.694 257.5 243.582 257.807 243.378 258.051C243.175 258.294 242.893 258.459 242.581 258.517C242.269 258.575 241.946 258.522 241.669 258.368L241.689 258.298Z" fill="#4AE792"/>
<path d="M127.873 97.6692L137.965 115.14C138.125 115.441 138.165 115.791 138.078 116.12C137.99 116.449 137.781 116.733 137.493 116.914C137.193 117.079 136.842 117.123 136.511 117.038C136.18 116.953 135.894 116.746 135.71 116.458L125.627 98.9716C125.536 98.8171 125.477 98.646 125.452 98.4682C125.428 98.2904 125.44 98.1096 125.486 97.9364C125.533 97.7631 125.614 97.601 125.724 97.4594C125.834 97.3178 125.971 97.1996 126.128 97.1118C126.436 96.9717 126.785 96.9511 127.108 97.0541C127.43 97.1571 127.703 97.3764 127.873 97.6692Z" fill="#4AE792"/>
<path d="M204.82 233.655C204.611 233.775 204.375 233.839 204.134 233.84C203.893 233.841 203.656 233.779 203.446 233.66C203.242 233.537 203.075 233.362 202.96 233.154L192.869 215.683C192.704 215.383 192.66 215.032 192.745 214.701C192.829 214.37 193.037 214.084 193.325 213.9C193.625 213.736 193.976 213.691 194.307 213.776C194.638 213.861 194.924 214.068 195.108 214.356L205.2 231.827C205.376 232.124 205.435 232.477 205.365 232.815C205.294 233.153 205.1 233.453 204.82 233.655Z" fill="#4AE792"/>
<path d="M117.13 84.1605C116.926 84.0378 116.758 83.8634 116.644 83.6549L104.358 62.3996C104.204 62.0886 104.175 61.7309 104.276 61.3991C104.377 61.0674 104.6 60.7864 104.901 60.6134C105.201 60.4404 105.556 60.3883 105.894 60.4676C106.231 60.5469 106.526 60.7518 106.718 61.0405L119.004 82.2959C119.158 82.557 119.22 82.8619 119.182 83.1624C119.143 83.463 119.005 83.7421 118.791 83.9558C118.576 84.1695 118.296 84.3056 117.995 84.3427C117.694 84.3797 117.39 84.3156 117.13 84.1605Z" fill="#4AE792"/>
<path d="M224.582 270.278C224.379 270.155 224.211 269.981 224.097 269.773L211.81 248.517C211.707 248.362 211.637 248.187 211.604 248.003C211.571 247.82 211.576 247.631 211.618 247.449C211.661 247.268 211.74 247.097 211.852 246.947C211.963 246.797 212.104 246.672 212.266 246.579C212.428 246.486 212.607 246.427 212.792 246.406C212.977 246.385 213.165 246.402 213.344 246.456C213.522 246.51 213.688 246.601 213.83 246.721C213.972 246.842 214.088 246.991 214.171 247.158L226.457 268.413C226.632 268.728 226.677 269.098 226.584 269.445C226.49 269.792 226.265 270.089 225.956 270.273C225.749 270.397 225.512 270.463 225.27 270.464C225.028 270.465 224.791 270.401 224.582 270.278Z" fill="#4AE792"/>
<path d="M140.167 92.2634L147.065 111.226C147.185 111.562 147.168 111.932 147.016 112.255C146.864 112.578 146.59 112.827 146.255 112.948C145.919 113.069 145.549 113.051 145.226 112.899C144.903 112.747 144.654 112.474 144.533 112.138L137.635 93.1754C137.513 92.8332 137.531 92.4563 137.686 92.1276C137.841 91.7989 138.121 91.5453 138.463 91.4227C138.805 91.3 139.182 91.3183 139.511 91.4735C139.84 91.6288 140.093 91.9082 140.216 92.2504L140.167 92.2634Z" fill="#4AE792"/>
<path d="M192.363 239.458C192.175 239.528 191.975 239.556 191.775 239.54C191.576 239.523 191.383 239.464 191.209 239.365C190.934 239.205 190.724 238.953 190.616 238.654L183.686 219.713C183.566 219.374 183.584 219.001 183.738 218.676C183.891 218.351 184.167 218.099 184.505 217.976C184.671 217.914 184.848 217.885 185.025 217.893C185.202 217.9 185.376 217.942 185.536 218.018C185.697 218.093 185.841 218.2 185.959 218.332C186.078 218.464 186.169 218.618 186.227 218.786L193.14 237.757C193.251 238.086 193.232 238.446 193.088 238.761C192.944 239.077 192.684 239.326 192.363 239.458Z" fill="#4AE792"/>
<path d="M132.17 77.147C131.895 76.9876 131.685 76.7359 131.578 76.4365L123.18 53.3739C123.057 53.0324 123.073 52.6562 123.225 52.3266C123.377 51.997 123.652 51.7404 123.992 51.6122C124.334 51.4928 124.71 51.5126 125.038 51.6674C125.366 51.8223 125.62 52.0997 125.745 52.44L134.128 75.4938C134.191 75.6611 134.221 75.8394 134.215 76.0182C134.209 76.1971 134.167 76.3729 134.092 76.5355C134.017 76.6981 133.911 76.8441 133.779 76.9651C133.647 77.0861 133.493 77.1796 133.324 77.2401C133.138 77.3139 132.936 77.3438 132.736 77.3277C132.536 77.3116 132.343 77.2498 132.17 77.147Z" fill="#4AE792"/>
<path d="M205.679 279.092C205.399 278.93 205.185 278.676 205.071 278.373L196.688 255.319C196.625 255.152 196.595 254.974 196.601 254.795C196.607 254.616 196.649 254.44 196.724 254.277C196.799 254.115 196.905 253.969 197.037 253.848C197.169 253.727 197.323 253.633 197.492 253.573C197.833 253.45 198.21 253.466 198.539 253.618C198.869 253.77 199.125 254.046 199.253 254.385L207.636 277.439C207.759 277.781 207.743 278.157 207.591 278.486C207.439 278.816 207.164 279.073 206.824 279.201C206.637 279.268 206.437 279.294 206.239 279.275C206.041 279.256 205.85 279.194 205.679 279.092Z" fill="#4AE792"/>
<path d="M153.311 88.9235L156.819 108.794C156.879 109.147 156.797 109.508 156.59 109.799C156.384 110.091 156.07 110.288 155.718 110.348C155.366 110.411 155.005 110.332 154.712 110.128C154.419 109.924 154.219 109.613 154.155 109.262L150.647 89.3909C150.582 89.0332 150.662 88.6644 150.869 88.3656C151.076 88.0668 151.394 87.8625 151.751 87.7976C152.109 87.7328 152.478 87.8126 152.777 88.0197C153.075 88.2267 153.28 88.544 153.345 88.9017L153.311 88.9235Z" fill="#4AE792"/>
<path d="M179.092 243.011C178.738 243.074 178.373 242.994 178.078 242.788C177.782 242.583 177.58 242.27 177.514 241.916L174.015 222.03C173.952 221.679 174.031 221.317 174.235 221.024C174.438 220.731 174.75 220.531 175.101 220.468C175.455 220.405 175.82 220.485 176.115 220.691C176.411 220.896 176.613 221.209 176.679 221.563L180.178 241.449C180.241 241.8 180.162 242.162 179.958 242.455C179.755 242.748 179.443 242.948 179.092 243.011Z" fill="#4AE792"/>
<path d="M148.2 72.8533C148.026 72.7559 147.877 72.6214 147.761 72.4593C147.646 72.2973 147.568 72.1117 147.533 71.916L143.275 47.7441C143.228 47.3823 143.325 47.0165 143.546 46.7263C143.767 46.4362 144.094 46.2452 144.456 46.1951C144.814 46.1364 145.181 46.2208 145.477 46.4303C145.774 46.6397 145.976 46.9573 146.04 47.3145L150.213 71.4575C150.256 71.7122 150.225 71.9737 150.125 72.2118C150.025 72.4498 149.86 72.6547 149.648 72.8024C149.436 72.9502 149.187 73.0348 148.929 73.0466C148.671 73.0583 148.415 72.9966 148.191 72.8686L148.2 72.8533Z" fill="#4AE792"/>
<path d="M185.512 284.496C185.336 284.398 185.186 284.261 185.072 284.096C184.958 283.931 184.884 283.742 184.854 283.544L180.587 259.387C180.528 259.029 180.613 258.662 180.822 258.365C181.032 258.069 181.349 257.867 181.707 257.803C181.883 257.771 182.063 257.774 182.238 257.813C182.413 257.852 182.578 257.925 182.724 258.029C182.87 258.132 182.994 258.263 183.089 258.415C183.184 258.567 183.247 258.736 183.276 258.913L187.543 283.07C187.59 283.327 187.563 283.592 187.464 283.834C187.365 284.076 187.199 284.285 186.985 284.435C186.771 284.585 186.519 284.671 186.257 284.682C185.996 284.693 185.737 284.628 185.512 284.496Z" fill="#4AE792"/>
<path d="M166.768 87.9751L166.764 108.151C166.749 108.493 166.604 108.816 166.36 109.055C166.116 109.293 165.79 109.431 165.448 109.438C165.108 109.425 164.785 109.284 164.544 109.043C164.304 108.801 164.164 108.478 164.152 108.138L164.157 87.9613C164.176 87.6213 164.321 87.3008 164.565 87.0627C164.808 86.8246 165.132 86.6862 165.472 86.6746C165.813 86.6873 166.136 86.8286 166.376 87.0699C166.617 87.3113 166.757 87.6347 166.768 87.9751Z" fill="#4AE792"/>
<path d="M165.403 244.215C165.167 244.215 164.935 244.152 164.731 244.032C164.524 243.912 164.351 243.741 164.23 243.535C164.108 243.328 164.043 243.094 164.039 242.855L164.035 222.694C164.05 222.353 164.194 222.03 164.439 221.791C164.683 221.552 165.009 221.415 165.351 221.407C165.692 221.422 166.015 221.567 166.254 221.811C166.493 222.055 166.63 222.381 166.637 222.723L166.633 242.899C166.623 243.231 166.492 243.547 166.266 243.789C166.039 244.031 165.733 244.183 165.403 244.215Z" fill="#4AE792"/>
<path d="M164.699 71.3904C164.492 71.2709 164.319 71.0996 164.198 70.8933C164.077 70.687 164.011 70.4527 164.008 70.2135L164.02 45.6626C164.042 45.3166 164.195 44.9918 164.448 44.7543C164.7 44.5169 165.034 44.3845 165.381 44.384C165.727 44.3836 166.061 44.5152 166.315 44.7521C166.568 44.989 166.721 45.3134 166.744 45.6594L166.731 70.2102C166.716 70.5516 166.572 70.8745 166.328 71.1134C166.083 71.3523 165.757 71.4894 165.416 71.497C165.172 71.5284 164.924 71.4915 164.699 71.3904Z" fill="#4AE792"/>
<path d="M164.737 286.315C164.529 286.196 164.357 286.025 164.235 285.818C164.114 285.612 164.049 285.378 164.045 285.138L164.058 260.588C164.045 260.401 164.072 260.215 164.134 260.039C164.197 259.863 164.295 259.702 164.423 259.566C164.55 259.43 164.704 259.321 164.875 259.247C165.047 259.172 165.231 259.134 165.418 259.134C165.604 259.133 165.789 259.171 165.96 259.245C166.132 259.319 166.286 259.428 166.414 259.564C166.542 259.7 166.64 259.86 166.703 260.036C166.767 260.211 166.793 260.398 166.781 260.584L166.769 285.135C166.754 285.477 166.609 285.799 166.365 286.038C166.121 286.277 165.795 286.414 165.453 286.422C165.209 286.453 164.961 286.416 164.737 286.315Z" fill="#4AE792"/>
<path d="M180.198 89.3842L176.687 109.255C176.661 109.434 176.6 109.607 176.506 109.762C176.412 109.918 176.288 110.053 176.14 110.159C175.993 110.265 175.826 110.34 175.649 110.38C175.472 110.42 175.288 110.424 175.11 110.391C174.93 110.365 174.757 110.304 174.602 110.21C174.447 110.116 174.312 109.992 174.206 109.844C174.099 109.697 174.024 109.53 173.984 109.353C173.945 109.176 173.941 108.992 173.974 108.814L177.47 88.9346C177.532 88.5772 177.734 88.2593 178.031 88.0507C178.328 87.8422 178.695 87.7602 179.053 87.8227C179.41 87.8852 179.728 88.0872 179.937 88.3841C180.145 88.6811 180.227 89.0487 180.165 89.4061L180.198 89.3842Z" fill="#4AE792"/>
<path d="M151.728 243.013C151.579 242.955 151.439 242.875 151.314 242.774C151.073 242.632 150.881 242.42 150.764 242.166C150.647 241.912 150.611 241.628 150.661 241.353L154.163 221.498C154.191 221.319 154.254 221.148 154.348 220.993C154.443 220.839 154.567 220.705 154.714 220.6C154.861 220.494 155.027 220.419 155.203 220.378C155.379 220.337 155.562 220.331 155.74 220.362C155.919 220.389 156.09 220.452 156.244 220.547C156.398 220.641 156.532 220.766 156.638 220.912C156.744 221.059 156.819 221.225 156.86 221.401C156.901 221.578 156.906 221.76 156.876 221.938L153.365 241.809C153.349 242.001 153.292 242.187 153.198 242.355C153.105 242.523 152.976 242.669 152.821 242.783C152.666 242.897 152.488 242.977 152.299 243.017C152.111 243.056 151.916 243.055 151.728 243.013Z" fill="#4AE792"/>
<path d="M181.259 72.8469C181.017 72.7097 180.823 72.5009 180.705 72.2492C180.586 71.9976 180.548 71.7154 180.597 71.4414L184.789 47.2368C184.851 46.8765 185.054 46.5556 185.352 46.3444C185.651 46.1331 186.02 46.0487 186.381 46.1095C186.56 46.1382 186.732 46.2024 186.887 46.2984C187.041 46.3944 187.174 46.5202 187.279 46.6686C187.384 46.8169 187.459 46.9846 187.498 47.162C187.537 47.3395 187.541 47.5229 187.508 47.7017L183.263 71.8556C183.197 72.2137 182.993 72.5317 182.696 72.7422C182.399 72.9526 182.031 73.0389 181.671 72.9828C181.528 72.9579 181.389 72.9121 181.259 72.8469Z" fill="#4AE792"/>
<path d="M143.974 284.52C143.733 284.379 143.541 284.166 143.424 283.912C143.307 283.658 143.271 283.374 143.321 283.099L147.581 258.954C147.597 258.766 147.653 258.583 147.743 258.417C147.834 258.251 147.958 258.106 148.107 257.991C148.257 257.875 148.429 257.792 148.613 257.747C148.796 257.701 148.987 257.694 149.173 257.726C149.359 257.759 149.537 257.829 149.694 257.933C149.852 258.038 149.986 258.174 150.088 258.333C150.191 258.491 150.259 258.67 150.289 258.856C150.318 259.043 150.309 259.234 150.261 259.417L146.016 283.571C145.99 283.751 145.927 283.924 145.832 284.08C145.737 284.235 145.611 284.37 145.462 284.475C145.313 284.581 145.144 284.655 144.966 284.693C144.787 284.731 144.603 284.733 144.424 284.698C144.266 284.663 144.114 284.603 143.974 284.52Z" fill="#4AE792"/>
<path d="M193.111 93.0736L186.238 112.067C186.178 112.233 186.085 112.385 185.965 112.514C185.846 112.643 185.702 112.748 185.541 112.821C185.381 112.894 185.208 112.934 185.032 112.94C184.856 112.946 184.68 112.916 184.516 112.853C184.182 112.727 183.912 112.474 183.762 112.151C183.612 111.827 183.595 111.458 183.714 111.122L190.578 92.1435C190.627 91.9603 190.713 91.7893 190.831 91.6411C190.949 91.493 191.096 91.3711 191.264 91.2831C191.432 91.1951 191.616 91.143 191.805 91.1301C191.994 91.1172 192.183 91.1438 192.362 91.2081C192.54 91.2725 192.703 91.3732 192.84 91.5039C192.977 91.6346 193.085 91.7924 193.158 91.9673C193.231 92.1421 193.266 92.3302 193.262 92.5196C193.258 92.7089 193.215 92.8954 193.135 93.0672L193.111 93.0736Z" fill="#4AE792"/>
<path d="M138.45 239.46L138.251 239.345C137.972 239.184 137.758 238.93 137.648 238.626C137.539 238.323 137.54 237.991 137.652 237.689L144.516 218.711C144.577 218.544 144.67 218.391 144.79 218.261C144.91 218.13 145.054 218.025 145.215 217.951C145.376 217.876 145.55 217.834 145.727 217.827C145.904 217.82 146.081 217.848 146.247 217.909C146.578 218.034 146.848 218.283 146.999 218.604C147.151 218.924 147.171 219.29 147.057 219.625L140.184 238.619C140.062 238.957 139.812 239.234 139.488 239.391C139.164 239.548 138.792 239.573 138.45 239.46Z" fill="#4AE792"/>
<path d="M197.274 77.1411C196.998 76.9827 196.788 76.7321 196.679 76.4336C196.571 76.135 196.572 75.8077 196.681 75.5095L205.069 52.4381C205.215 52.1222 205.476 51.8739 205.799 51.7441C206.122 51.6142 206.482 51.6126 206.806 51.7396C207.13 51.8665 207.393 52.1124 207.542 52.427C207.691 52.7416 207.714 53.1011 207.606 53.432L199.238 76.4332C199.179 76.6021 199.086 76.7575 198.966 76.8903C198.846 77.0231 198.701 77.1306 198.539 77.2067C198.377 77.2827 198.201 77.3257 198.023 77.3331C197.844 77.3405 197.665 77.3122 197.498 77.2498L197.274 77.1411Z" fill="#4AE792"/>
<path d="M123.77 279.098C123.494 278.934 123.282 278.68 123.173 278.377C123.064 278.075 123.063 277.744 123.171 277.442L131.575 254.379C131.622 254.194 131.708 254.022 131.827 253.872C131.945 253.723 132.094 253.6 132.263 253.511C132.432 253.423 132.617 253.371 132.808 253.358C132.998 253.346 133.189 253.374 133.368 253.44C133.547 253.506 133.71 253.608 133.847 253.741C133.984 253.874 134.091 254.034 134.162 254.211C134.233 254.388 134.267 254.578 134.26 254.769C134.253 254.96 134.206 255.147 134.123 255.318L125.752 278.359C125.69 278.527 125.595 278.682 125.474 278.814C125.352 278.946 125.205 279.052 125.042 279.127C124.879 279.202 124.703 279.244 124.523 279.251C124.344 279.258 124.165 279.229 123.997 279.167L123.77 279.098Z" fill="#4AE792"/>
<path d="M137.459 213.817C137.768 213.996 137.994 214.29 138.087 214.635C138.179 214.98 138.131 215.348 137.952 215.657L127.885 233.093C127.719 233.396 127.446 233.627 127.119 233.74C126.793 233.854 126.436 233.843 126.117 233.71C125.942 233.631 125.785 233.517 125.657 233.375C125.529 233.232 125.433 233.064 125.374 232.881C125.315 232.698 125.296 232.506 125.316 232.315C125.337 232.124 125.398 231.94 125.495 231.775L135.588 214.292C135.767 213.983 136.061 213.757 136.406 213.665C136.751 213.572 137.119 213.621 137.428 213.799L137.459 213.817Z" fill="#4AE792"/>
<path d="M205.246 99.1392L195.179 116.575C195.091 116.729 194.973 116.863 194.833 116.971C194.692 117.078 194.532 117.157 194.361 117.203C194.19 117.249 194.012 117.26 193.837 117.237C193.661 117.214 193.492 117.157 193.339 117.068C193.186 116.98 193.052 116.862 192.944 116.722C192.836 116.582 192.757 116.421 192.712 116.251C192.666 116.08 192.654 115.901 192.677 115.726C192.7 115.551 192.758 115.382 192.846 115.228L202.975 97.6847C203.072 97.5202 203.202 97.3775 203.357 97.2657C203.512 97.1539 203.688 97.0754 203.875 97.0351C204.061 96.9948 204.254 96.9937 204.441 97.0317C204.629 97.0698 204.806 97.1462 204.962 97.2561C205.238 97.4763 205.421 97.7927 205.473 98.1419C205.526 98.4911 205.445 98.8473 205.246 99.1392Z" fill="#4AE792"/>
<path d="M212.315 84.1674C212.005 83.9832 211.78 83.6852 211.686 83.3369C211.593 82.9887 211.639 82.6177 211.816 82.3032L224.089 61.0451C224.27 60.7317 224.568 60.503 224.918 60.4093C225.267 60.3156 225.64 60.3647 225.953 60.5456C226.267 60.7266 226.496 61.0247 226.589 61.3743C226.683 61.7239 226.634 62.0964 226.453 62.4098L214.179 83.6679C214.09 83.8231 213.971 83.9592 213.828 84.0683C213.686 84.1774 213.524 84.2574 213.351 84.3038C213.178 84.3501 212.997 84.362 212.82 84.3386C212.642 84.3152 212.47 84.257 212.315 84.1674Z" fill="#4AE792"/>
<path d="M104.867 270.271C104.554 270.09 104.325 269.792 104.231 269.442C104.138 269.093 104.187 268.72 104.368 268.407L116.632 247.164C116.813 246.851 117.111 246.622 117.461 246.528C117.81 246.435 118.183 246.484 118.496 246.665C118.81 246.845 119.038 247.144 119.132 247.493C119.226 247.843 119.177 248.215 118.996 248.529L106.731 269.771C106.643 269.928 106.525 270.066 106.383 270.177C106.241 270.287 106.078 270.368 105.905 270.415C105.731 270.461 105.55 270.472 105.371 270.448C105.193 270.423 105.022 270.363 104.867 270.271Z" fill="#4AE792"/>
</g>
<defs>
<filter id="filter0_f" x="42.3203" y="42.384" width="246.114" height="246.049" filterUnits="userSpaceOnUse" color-interpolation-filters="sRGB">
<feFlood flood-opacity="0" result="BackgroundImageFix"/>
<feBlend mode="normal" in="SourceGraphic" in2="BackgroundImageFix" result="shape"/>
<feGaussianBlur stdDeviation="1" result="effect1_foregroundBlur"/>
</filter>
</defs>
</svg>
