<svg width="200" height="210" viewBox="0 0 200 210" fill="none" xmlns="http://www.w3.org/2000/svg">
<path d="M144.546 169.274C144.325 169.274 144.107 169.221 143.91 169.121C143.713 169.022 143.542 168.877 143.411 168.699L106.227 116.94C106.082 116.794 105.971 116.619 105.901 116.426C105.832 116.233 105.805 116.026 105.824 115.822C105.843 115.618 105.907 115.42 106.011 115.243C106.115 115.066 106.257 114.914 106.427 114.798C106.596 114.682 106.789 114.605 106.991 114.571C107.194 114.538 107.402 114.55 107.599 114.606C107.797 114.663 107.979 114.761 108.134 114.896C108.289 115.031 108.413 115.198 108.496 115.386L145.68 167.037C145.895 167.339 145.983 167.713 145.925 168.079C145.867 168.445 145.667 168.774 145.369 168.994C145.133 169.176 144.843 169.274 144.546 169.274Z" fill="#4AE792"/>
<path d="M159.774 190.485C159.554 190.472 159.338 190.413 159.143 190.311C158.947 190.21 158.776 190.067 158.639 189.894L147.762 174.728C147.63 174.43 147.607 174.094 147.696 173.78C147.785 173.466 147.981 173.193 148.251 173.009C148.52 172.824 148.846 172.74 149.171 172.77C149.496 172.8 149.8 172.943 150.031 173.174L160.908 188.34C161.122 188.644 161.207 189.02 161.146 189.386C161.085 189.752 160.882 190.08 160.582 190.298C160.334 190.432 160.055 190.497 159.774 190.485Z" fill="#4AE792"/>
<path d="M91.9316 96.0556C91.7127 96.0563 91.4968 96.0045 91.3022 95.9044C91.1075 95.8044 90.9397 95.6591 90.8128 95.4807L53.613 43.7211C53.5053 43.5714 53.4282 43.4018 53.3862 43.2221C53.3443 43.0424 53.3383 42.8562 53.3686 42.6742C53.399 42.4923 53.465 42.3181 53.563 42.1617C53.6609 42.0054 53.7888 41.8699 53.9394 41.7632C54.0879 41.6559 54.2562 41.5791 54.4347 41.5373C54.6131 41.4956 54.7981 41.4897 54.9788 41.5201C55.1595 41.5505 55.3324 41.6164 55.4874 41.7142C55.6424 41.8119 55.7764 41.9395 55.8817 42.0895L93.0815 93.8491C93.1889 93.9976 93.2656 94.166 93.3074 94.3444C93.3491 94.5229 93.355 94.7078 93.3246 94.8885C93.2942 95.0693 93.2283 95.2422 93.1305 95.3972C93.0327 95.5522 92.9052 95.6862 92.7551 95.7914C92.5175 95.9684 92.2278 96.0613 91.9316 96.0556Z" fill="#4AE792"/>
<path d="M50.4119 38.2671C50.1893 38.2673 49.9699 38.2137 49.7724 38.1109C49.5749 38.0081 49.4052 37.8591 49.2776 37.6767L38.3227 22.5264C38.1906 22.2278 38.1671 21.8924 38.2564 21.5783C38.3456 21.2642 38.5419 20.9912 38.8113 20.8067C39.0807 20.6222 39.4062 20.5378 39.7313 20.568C40.0564 20.5983 40.3607 20.7414 40.5914 20.9725L51.4686 36.1383C51.6838 36.4402 51.7718 36.8146 51.7137 37.1808C51.6556 37.5471 51.4559 37.8758 51.1578 38.0962C50.9273 38.2145 50.6709 38.2732 50.4119 38.2671Z" fill="#4AE792"/>
<path d="M99.2349 183.741C99.0506 183.741 98.8682 183.704 98.6984 183.633C98.5285 183.561 98.3747 183.457 98.2458 183.325C98.117 183.193 98.0158 183.037 97.9481 182.866C97.8805 182.694 97.8478 182.511 97.8519 182.327L98.1782 118.618C98.1823 118.246 98.3331 117.89 98.5978 117.628C98.8626 117.366 99.2199 117.219 99.5922 117.219C99.7752 117.219 99.9563 117.256 100.125 117.326C100.294 117.397 100.447 117.5 100.576 117.63C100.704 117.76 100.806 117.914 100.874 118.084C100.943 118.254 100.977 118.435 100.975 118.618L100.649 182.327C100.649 182.702 100.5 183.062 100.235 183.327C99.9695 183.592 99.6099 183.741 99.2349 183.741Z" fill="#4AE792"/>
<path d="M99.092 209.846C98.9083 209.844 98.7269 209.806 98.558 209.734C98.3891 209.661 98.2361 209.557 98.1076 209.425C97.9792 209.294 97.8779 209.139 97.8096 208.968C97.7412 208.798 97.707 208.616 97.7091 208.432L97.8023 189.785C97.8023 189.415 97.9496 189.059 98.2119 188.797C98.4742 188.534 98.8299 188.387 99.2008 188.387C99.5717 188.387 99.9274 188.534 100.19 188.797C100.452 189.059 100.599 189.415 100.599 189.785L100.506 208.432C100.506 208.807 100.357 209.167 100.092 209.432C99.8267 209.697 99.467 209.846 99.092 209.846Z" fill="#4AE792"/>
<path d="M99.7149 93.5851C99.3426 93.581 98.9869 93.4303 98.7251 93.1655C98.4632 92.9008 98.3164 92.5435 98.3164 92.1711L98.6583 28.4622C98.6583 28.0913 98.8056 27.7356 99.0679 27.4733C99.3301 27.2111 99.6859 27.0637 100.057 27.0637C100.428 27.0637 100.783 27.2111 101.046 27.4733C101.308 27.7356 101.455 28.0913 101.455 28.4622L101.113 92.1711C101.115 92.3561 101.081 92.5396 101.011 92.7111C100.942 92.8825 100.839 93.0385 100.709 93.1701C100.579 93.3016 100.424 93.406 100.254 93.4772C100.083 93.5485 99.8999 93.5851 99.7149 93.5851Z" fill="#4AE792"/>
<path d="M100.09 22.4175C99.7176 22.4134 99.3619 22.2627 99.1 21.9979C98.8382 21.7332 98.6914 21.3758 98.6914 21.0035L98.8002 2.35698C98.8002 1.98607 98.9475 1.63037 99.2098 1.3681C99.472 1.10584 99.8278 0.958496 100.199 0.958496C100.57 0.958496 100.925 1.10584 101.188 1.3681C101.45 1.63037 101.597 1.98607 101.597 2.35698L101.488 21.0035C101.49 21.1885 101.456 21.372 101.386 21.5434C101.317 21.7149 101.214 21.8709 101.084 22.0024C100.954 22.134 100.799 22.2384 100.629 22.3096C100.458 22.3809 100.275 22.4175 100.09 22.4175Z" fill="#4AE792"/>
<path d="M54.077 168.808C53.7839 168.808 53.4993 168.71 53.269 168.528C53.1196 168.421 52.9931 168.284 52.8966 168.127C52.8002 167.97 52.7356 167.796 52.7067 167.614C52.6779 167.432 52.6852 167.246 52.7284 167.067C52.7715 166.888 52.8496 166.719 52.9582 166.571L90.7018 115.293C90.8044 115.131 90.939 114.992 91.0974 114.885C91.2558 114.778 91.4345 114.704 91.6225 114.668C91.8106 114.633 92.0039 114.636 92.1906 114.678C92.3772 114.72 92.5533 114.8 92.7077 114.913C92.8622 115.026 92.9919 115.17 93.0887 115.335C93.1855 115.5 93.2475 115.683 93.2706 115.873C93.2938 116.063 93.2777 116.256 93.2234 116.439C93.1691 116.623 93.0777 116.793 92.9549 116.94L55.2113 168.311C55.0731 168.475 54.8989 168.606 54.7022 168.692C54.5055 168.778 54.2915 168.818 54.077 168.808Z" fill="#4AE792"/>
<path d="M38.6351 189.832C38.3389 189.838 38.0492 189.745 37.8116 189.568C37.6635 189.459 37.5383 189.322 37.4433 189.164C37.3483 189.007 37.2852 188.832 37.2578 188.65C37.2304 188.468 37.2391 188.283 37.2835 188.104C37.3278 187.926 37.407 187.758 37.5163 187.61L48.5644 172.569C48.7848 172.27 49.1135 172.071 49.4797 172.013C49.8459 171.954 50.2203 172.043 50.5223 172.258C50.6704 172.367 50.7955 172.504 50.8905 172.661C50.9856 172.819 51.0486 172.994 51.076 173.175C51.1034 173.357 51.0947 173.543 51.0504 173.721C51.006 173.9 50.9269 174.068 50.8175 174.216L39.7694 189.273C39.6403 189.451 39.4695 189.596 39.2717 189.693C39.074 189.791 38.8555 189.838 38.6351 189.832Z" fill="#4AE792"/>
<path d="M107.471 96.149C107.175 96.1415 106.887 96.044 106.648 95.8693C106.499 95.7602 106.374 95.6231 106.279 95.4656C106.184 95.3081 106.121 95.1334 106.094 94.9516C106.066 94.7697 106.075 94.5842 106.119 94.4057C106.164 94.2272 106.243 94.0593 106.352 93.9114L144.08 42.6335C144.183 42.4719 144.318 42.3332 144.476 42.2257C144.634 42.1183 144.813 42.0445 145.001 42.009C145.189 41.9734 145.383 41.9768 145.569 42.019C145.756 42.0612 145.932 42.1412 146.086 42.2541C146.241 42.3671 146.37 42.5105 146.467 42.6756C146.564 42.8406 146.626 43.0238 146.649 43.2138C146.672 43.4037 146.656 43.5964 146.602 43.7799C146.548 43.9634 146.456 44.1338 146.334 44.2806L108.605 95.5585C108.475 95.7382 108.305 95.8852 108.108 95.9877C107.911 96.0901 107.693 96.1454 107.471 96.149Z" fill="#4AE792"/>
<path d="M149.596 38.7955C149.305 38.7879 149.023 38.6902 148.788 38.5158C148.639 38.4079 148.513 38.2716 148.416 38.1147C148.32 37.9578 148.255 37.7833 148.226 37.6014C148.197 37.4195 148.205 37.2336 148.248 37.0546C148.291 36.8755 148.369 36.7067 148.478 36.5579L159.526 21.5164C159.754 21.2441 160.077 21.0687 160.429 21.0257C160.781 20.9827 161.137 21.0754 161.424 21.2849C161.71 21.4944 161.906 21.8051 161.972 22.154C162.038 22.5028 161.969 22.8638 161.779 23.1635L150.715 38.2205C150.587 38.3971 150.418 38.5411 150.224 38.6409C150.03 38.7407 149.815 38.7937 149.596 38.7955Z" fill="#4AE792"/>
<path d="M26.3237 130.179C26.0303 130.177 25.7449 130.083 25.5078 129.91C25.2708 129.737 25.0941 129.494 25.0029 129.215C24.8905 128.859 24.9239 128.472 25.0957 128.141C25.2675 127.809 25.5638 127.558 25.9197 127.444L86.6296 108.067C86.9861 107.959 87.3707 107.994 87.7016 108.166C88.0324 108.337 88.2834 108.63 88.401 108.984C88.5086 109.338 88.4729 109.721 88.3014 110.049C88.13 110.378 87.8365 110.626 87.4842 110.74L26.7587 130.117C26.6181 130.161 26.4711 130.182 26.3237 130.179Z" fill="#4AE792"/>
<path d="M1.46636 138.119C1.13095 138.121 0.806089 138.002 0.550999 137.784C0.295908 137.566 0.127582 137.264 0.0767222 136.933C0.025862 136.601 0.0958449 136.262 0.27392 135.978C0.451996 135.694 0.726295 135.483 1.0468 135.384L18.8387 129.744C19.1833 129.657 19.548 129.704 19.8587 129.877C20.1694 130.049 20.4029 130.333 20.5117 130.671C20.6205 131.01 20.5965 131.377 20.4445 131.698C20.2925 132.019 20.0239 132.27 19.6933 132.401L1.90144 138.088C1.75789 138.113 1.61207 138.124 1.46636 138.119Z" fill="#4AE792"/>
<path d="M112.227 102.768C111.933 102.769 111.646 102.676 111.409 102.503C111.171 102.329 110.995 102.085 110.906 101.805C110.794 101.453 110.825 101.07 110.994 100.741C111.163 100.412 111.455 100.163 111.807 100.049L172.533 80.6723C172.877 80.5854 173.242 80.6331 173.553 80.8054C173.864 80.9777 174.097 81.2619 174.206 81.6002C174.315 81.9384 174.291 82.3054 174.139 82.6266C173.987 82.9478 173.718 83.1991 173.387 83.3294L112.662 102.706C112.521 102.751 112.374 102.772 112.227 102.768Z" fill="#4AE792"/>
<path d="M180.035 81.1386C179.699 81.1403 179.374 81.0215 179.119 80.8037C178.864 80.5859 178.696 80.2837 178.645 79.9522C178.594 79.6206 178.664 79.2819 178.842 78.9976C179.02 78.7134 179.295 78.5026 179.615 78.4038L197.391 72.7321C197.746 72.6191 198.131 72.6503 198.462 72.819C198.794 72.9877 199.046 73.2803 199.163 73.6334C199.22 73.8088 199.242 73.9939 199.227 74.1779C199.212 74.3619 199.16 74.541 199.075 74.7046C198.989 74.8683 198.872 75.0132 198.73 75.1307C198.587 75.2483 198.423 75.3362 198.246 75.3892L180.454 81.0764C180.319 81.1198 180.177 81.1409 180.035 81.1386Z" fill="#4AE792"/>
<path d="M87.0995 102.644C86.9515 102.639 86.805 102.613 86.6644 102.567L26.1565 82.5526C25.8133 82.43 25.5315 82.1783 25.3712 81.851C25.2108 81.5237 25.1845 81.1468 25.298 80.8004C25.4114 80.4541 25.6556 80.1657 25.9784 79.9967C26.3013 79.8276 26.6774 79.7913 27.0267 79.8955L87.6278 99.9094C87.9513 100.009 88.2278 100.222 88.4061 100.51C88.5844 100.797 88.6523 101.14 88.5973 101.474C88.5423 101.808 88.368 102.11 88.1069 102.325C87.8458 102.541 87.5154 102.654 87.1772 102.644H87.0995Z" fill="#4AE792"/>
<path d="M19.5365 80.2839C19.3923 80.3066 19.2455 80.3066 19.1014 80.2839L1.37165 74.4258C1.01929 74.3083 0.72802 74.0557 0.561917 73.7235C0.395814 73.3913 0.368473 73.0067 0.485926 72.6543C0.603378 72.302 0.855995 72.0107 1.1882 71.8446C1.52041 71.6785 1.90499 71.6512 2.25734 71.7686L19.9871 77.6268C20.3373 77.7472 20.6262 78.0003 20.7919 78.3315C20.9575 78.6627 20.9865 79.0457 20.8728 79.3982C20.7697 79.6663 20.5856 79.8957 20.3461 80.0544C20.1066 80.2132 19.8236 80.2933 19.5365 80.2839Z" fill="#4AE792"/>
<path d="M172.701 130.956C172.553 130.953 172.406 130.926 172.266 130.878L111.758 110.864C111.415 110.742 111.133 110.49 110.973 110.163C110.812 109.835 110.786 109.458 110.9 109.112C111.013 108.766 111.257 108.477 111.58 108.308C111.903 108.139 112.279 108.103 112.628 108.207L173.152 128.19C173.475 128.289 173.752 128.502 173.93 128.79C174.108 129.078 174.176 129.42 174.121 129.754C174.066 130.088 173.892 130.391 173.631 130.606C173.37 130.821 173.039 130.934 172.701 130.925V130.956Z" fill="#4AE792"/>
<path d="M197.484 139.145C197.34 139.167 197.193 139.167 197.049 139.145L179.319 133.287C179.144 133.228 178.983 133.137 178.844 133.016C178.705 132.896 178.591 132.749 178.509 132.584C178.427 132.42 178.378 132.241 178.365 132.057C178.352 131.874 178.375 131.69 178.433 131.515C178.491 131.341 178.583 131.179 178.704 131.04C178.824 130.902 178.971 130.788 179.135 130.705C179.3 130.623 179.479 130.574 179.663 130.561C179.846 130.548 180.03 130.571 180.205 130.629L197.919 136.488C198.272 136.605 198.564 136.857 198.733 137.188C198.902 137.52 198.933 137.905 198.82 138.259C198.717 138.527 198.533 138.757 198.293 138.915C198.054 139.074 197.771 139.154 197.484 139.145Z" fill="#4AE792"/>
<path d="M91.9316 96.0556C91.7127 96.0563 91.4968 96.0045 91.3022 95.9044C91.1075 95.8044 90.9397 95.6591 90.8128 95.4807L53.613 43.7211C53.5053 43.5714 53.4282 43.4018 53.3862 43.2221C53.3443 43.0424 53.3383 42.8562 53.3686 42.6742C53.399 42.4923 53.465 42.3181 53.563 42.1617C53.6609 42.0054 53.7888 41.8699 53.9394 41.7632C54.0879 41.6559 54.2562 41.5791 54.4347 41.5373C54.6131 41.4956 54.7981 41.4897 54.9788 41.5201C55.1595 41.5505 55.3324 41.6164 55.4874 41.7142C55.6424 41.8119 55.7764 41.9395 55.8817 42.0895L93.0815 93.8491C93.1889 93.9976 93.2656 94.166 93.3074 94.3444C93.3491 94.5229 93.355 94.7078 93.3246 94.8885C93.2942 95.0693 93.2283 95.2422 93.1305 95.3972C93.0327 95.5522 92.9052 95.6862 92.7551 95.7914C92.5175 95.9684 92.2278 96.0613 91.9316 96.0556Z" fill="#4AE792"/>
<path d="M50.4119 38.2671C50.1893 38.2673 49.9699 38.2137 49.7724 38.1109C49.5749 38.0081 49.4052 37.8591 49.2776 37.6767L38.3227 22.5264C38.1906 22.2278 38.1671 21.8924 38.2564 21.5783C38.3456 21.2642 38.5419 20.9912 38.8113 20.8067C39.0807 20.6222 39.4062 20.5378 39.7313 20.568C40.0564 20.5983 40.3607 20.7414 40.5914 20.9725L51.4686 36.1383C51.6838 36.4402 51.7718 36.8146 51.7137 37.1808C51.6556 37.5471 51.4559 37.8758 51.1578 38.0962C50.9273 38.2145 50.6709 38.2732 50.4119 38.2671Z" fill="#4AE792"/>
<path d="M144.546 169.274C144.325 169.274 144.107 169.221 143.91 169.121C143.713 169.022 143.542 168.877 143.411 168.699L106.227 116.94C106.082 116.794 105.971 116.619 105.901 116.426C105.832 116.233 105.805 116.026 105.824 115.822C105.843 115.618 105.907 115.42 106.011 115.243C106.115 115.066 106.257 114.914 106.427 114.798C106.596 114.682 106.789 114.605 106.991 114.571C107.194 114.538 107.402 114.55 107.599 114.606C107.797 114.663 107.979 114.761 108.134 114.896C108.289 115.031 108.413 115.198 108.496 115.386L145.68 167.037C145.895 167.339 145.983 167.713 145.925 168.079C145.867 168.445 145.667 168.774 145.369 168.994C145.133 169.176 144.843 169.274 144.546 169.274Z" fill="#4AE792"/>
<path d="M159.774 190.485C159.554 190.472 159.338 190.413 159.143 190.311C158.947 190.21 158.776 190.067 158.639 189.894L147.762 174.728C147.63 174.43 147.607 174.094 147.696 173.78C147.785 173.466 147.981 173.193 148.251 173.009C148.52 172.824 148.846 172.74 149.171 172.77C149.496 172.8 149.8 172.943 150.031 173.174L160.908 188.34C161.122 188.644 161.207 189.02 161.146 189.386C161.085 189.752 160.882 190.08 160.582 190.298C160.334 190.432 160.055 190.497 159.774 190.485Z" fill="#4AE792"/>
<path d="M99.7149 93.5851C99.3426 93.581 98.9869 93.4303 98.7251 93.1655C98.4632 92.9008 98.3164 92.5435 98.3164 92.1711L98.6583 28.4622C98.6583 28.0913 98.8056 27.7356 99.0679 27.4733C99.3301 27.2111 99.6859 27.0637 100.057 27.0637C100.428 27.0637 100.783 27.2111 101.046 27.4733C101.308 27.7356 101.455 28.0913 101.455 28.4622L101.113 92.1711C101.115 92.3561 101.081 92.5396 101.011 92.7111C100.942 92.8825 100.839 93.0385 100.709 93.1701C100.579 93.3016 100.424 93.406 100.254 93.4772C100.083 93.5485 99.8999 93.5851 99.7149 93.5851Z" fill="#4AE792"/>
<path d="M100.09 22.4175C99.7176 22.4134 99.3619 22.2627 99.1 21.9979C98.8382 21.7332 98.6914 21.3758 98.6914 21.0035L98.8002 2.35698C98.8002 1.98607 98.9475 1.63037 99.2098 1.3681C99.472 1.10584 99.8278 0.958496 100.199 0.958496C100.57 0.958496 100.925 1.10584 101.188 1.3681C101.45 1.63037 101.597 1.98607 101.597 2.35698L101.488 21.0035C101.49 21.1885 101.456 21.372 101.386 21.5434C101.317 21.7149 101.214 21.8709 101.084 22.0024C100.954 22.134 100.799 22.2384 100.629 22.3096C100.458 22.3809 100.275 22.4175 100.09 22.4175Z" fill="#4AE792"/>
<path d="M99.2349 183.741C99.0506 183.741 98.8682 183.704 98.6984 183.633C98.5285 183.561 98.3747 183.457 98.2458 183.325C98.117 183.193 98.0158 183.037 97.9481 182.866C97.8805 182.694 97.8478 182.511 97.8519 182.327L98.1782 118.618C98.1823 118.246 98.3331 117.89 98.5978 117.628C98.8626 117.366 99.2199 117.219 99.5922 117.219C99.7752 117.219 99.9563 117.256 100.125 117.326C100.294 117.397 100.447 117.5 100.576 117.63C100.704 117.76 100.806 117.914 100.874 118.084C100.943 118.254 100.977 118.435 100.975 118.618L100.649 182.327C100.649 182.702 100.5 183.062 100.235 183.327C99.9695 183.592 99.6099 183.741 99.2349 183.741Z" fill="#4AE792"/>
<path d="M99.092 209.846C98.9083 209.844 98.7269 209.806 98.558 209.734C98.3891 209.661 98.2361 209.557 98.1076 209.425C97.9792 209.294 97.8779 209.139 97.8096 208.968C97.7412 208.798 97.707 208.616 97.7091 208.432L97.8023 189.785C97.8023 189.415 97.9496 189.059 98.2119 188.797C98.4742 188.534 98.8299 188.387 99.2008 188.387C99.5717 188.387 99.9274 188.534 100.19 188.797C100.452 189.059 100.599 189.415 100.599 189.785L100.506 208.432C100.506 208.807 100.357 209.167 100.092 209.432C99.8267 209.697 99.467 209.846 99.092 209.846Z" fill="#4AE792"/>
<path d="M91.1533 77.782C90.8613 77.7837 90.5762 77.6929 90.3389 77.5226C90.1017 77.3524 89.9244 77.1114 89.8325 76.8342L75.568 33.9783C75.4505 33.6259 75.4778 33.2413 75.6439 32.9091C75.8101 32.5769 76.1013 32.3243 76.4537 32.2069C76.806 32.0894 77.1906 32.1168 77.5228 32.2829C77.855 32.449 78.1076 32.7402 78.2251 33.0926L92.4896 75.9485C92.6034 76.3009 92.5743 76.6839 92.4087 77.0151C92.2431 77.3463 91.9541 77.5994 91.6039 77.7199C91.4576 77.7626 91.3058 77.7835 91.1533 77.782Z" fill="#4AE792"/>
<path d="M109.008 77.8754C108.854 77.88 108.701 77.8535 108.557 77.7977C108.208 77.6776 107.92 77.4237 107.757 77.0917C107.593 76.7597 107.569 76.3766 107.687 76.0263L122.402 33.4035C122.462 33.2285 122.555 33.067 122.678 32.9284C122.8 32.7897 122.948 32.6767 123.114 32.5957C123.281 32.5148 123.461 32.4676 123.646 32.4569C123.83 32.4462 124.015 32.4722 124.189 32.5334C124.364 32.5909 124.525 32.6829 124.663 32.8039C124.801 32.9249 124.913 33.0724 124.993 33.2377C125.072 33.403 125.118 33.5827 125.127 33.766C125.136 33.9493 125.107 34.1326 125.044 34.3048L110.344 76.912C110.252 77.1934 110.073 77.4383 109.833 77.6114C109.593 77.7845 109.304 77.877 109.008 77.8754Z" fill="#4AE792"/>
<path d="M22.3497 111.89C22.0102 111.885 21.6837 111.759 21.4298 111.533C21.1758 111.308 21.0115 110.999 20.9668 110.662C20.9451 110.479 20.9597 110.294 21.0097 110.117C21.0597 109.94 21.1441 109.775 21.2581 109.631C21.3722 109.486 21.5136 109.366 21.6742 109.276C21.8349 109.187 22.0116 109.129 22.1943 109.108L67.0236 103.639C67.2063 103.616 67.3915 103.63 67.5688 103.679C67.7462 103.728 67.9121 103.812 68.0571 103.925C68.2021 104.038 68.3234 104.179 68.414 104.339C68.5046 104.499 68.5628 104.676 68.5853 104.858C68.6077 105.041 68.594 105.226 68.5448 105.404C68.4957 105.581 68.4121 105.747 68.2988 105.892C68.1855 106.037 68.0448 106.158 67.8847 106.249C67.7245 106.339 67.5481 106.398 67.3655 106.42L22.5362 111.874L22.3497 111.89Z" fill="#4AE792"/>
<path d="M70.8464 86.6703C70.6012 86.6692 70.3604 86.605 70.1472 86.4839L31.2071 63.5798C31.049 63.4859 30.9108 63.3618 30.8007 63.2146C30.6905 63.0673 30.6104 62.8998 30.5649 62.7216C30.5195 62.5434 30.5096 62.358 30.5358 62.176C30.562 61.9939 30.6238 61.8189 30.7176 61.6607C30.8115 61.5026 30.9356 61.3645 31.0828 61.2543C31.2301 61.1441 31.3976 61.064 31.5758 61.0185C31.754 60.9731 31.9394 60.9632 32.1214 60.9894C32.3034 61.0156 32.4785 61.0774 32.6367 61.1713L71.4835 84.0754C71.8025 84.2633 72.034 84.5699 72.1272 84.9282C72.2204 85.2865 72.1678 85.6671 71.9808 85.9866C71.8663 86.1883 71.7017 86.3572 71.5031 86.4769C71.3044 86.5966 71.0783 86.6633 70.8464 86.6703Z" fill="#4AE792"/>
<path d="M174.473 112.651H174.287L129.519 106.715C129.151 106.666 128.816 106.472 128.591 106.176C128.365 105.88 128.266 105.507 128.315 105.138C128.365 104.769 128.559 104.435 128.854 104.209C129.15 103.983 129.524 103.884 129.892 103.934L174.659 109.87C175.03 109.894 175.376 110.065 175.621 110.345C175.866 110.625 175.989 110.99 175.965 111.361C175.94 111.732 175.769 112.078 175.489 112.323C175.209 112.568 174.844 112.691 174.473 112.667V112.651Z" fill="#4AE792"/>
<path d="M126.241 86.9655C125.997 86.9678 125.757 86.904 125.547 86.7809C125.336 86.6578 125.163 86.48 125.045 86.2663C124.953 86.1071 124.893 85.9314 124.869 85.7492C124.845 85.567 124.858 85.3819 124.905 85.2043C124.953 85.0268 125.035 84.8605 125.147 84.7147C125.259 84.569 125.398 84.4468 125.558 84.355L164.731 61.8704C164.891 61.7647 165.07 61.6929 165.259 61.6594C165.447 61.626 165.641 61.6316 165.827 61.676C166.013 61.7203 166.188 61.8024 166.342 61.9172C166.495 62.032 166.623 62.1771 166.718 62.3434C166.813 62.5097 166.872 62.6938 166.893 62.8841C166.914 63.0744 166.896 63.267 166.839 63.4499C166.782 63.6329 166.689 63.8022 166.564 63.9475C166.439 64.0928 166.286 64.2109 166.114 64.2945L126.894 86.7791C126.693 86.8886 126.47 86.9522 126.241 86.9655Z" fill="#4AE792"/>
<path d="M75.833 177.044C75.6797 177.04 75.5279 177.014 75.3823 176.966C75.2087 176.905 75.0488 176.81 74.9119 176.687C74.7749 176.565 74.6635 176.416 74.5841 176.25C74.5047 176.084 74.4589 175.904 74.4492 175.72C74.4395 175.536 74.4662 175.352 74.5277 175.179L89.2273 132.478C89.3508 132.127 89.6076 131.839 89.9421 131.676C90.2766 131.514 90.6619 131.489 91.0143 131.608C91.1879 131.669 91.3478 131.764 91.4848 131.887C91.6217 132.01 91.7331 132.158 91.8125 132.324C91.8919 132.49 91.9378 132.67 91.9474 132.854C91.9571 133.038 91.9304 133.222 91.8689 133.395L77.1693 176.096C77.0725 176.373 76.8918 176.613 76.6524 176.783C76.4129 176.953 76.1265 177.044 75.833 177.044Z" fill="#4AE792"/>
<path d="M31.4397 153.813C31.1402 153.811 30.8495 153.712 30.6102 153.532C30.371 153.352 30.1958 153.1 30.1106 152.813C30.0254 152.526 30.0345 152.219 30.1367 151.938C30.2389 151.656 30.4287 151.415 30.6782 151.249L68.3597 126.387C68.6688 126.181 69.0471 126.106 69.4113 126.179C69.7756 126.252 70.096 126.467 70.3021 126.776C70.5081 127.085 70.5829 127.463 70.5101 127.827C70.4372 128.192 70.2227 128.512 69.9136 128.718L32.2321 153.58C31.9971 153.735 31.7211 153.816 31.4397 153.813Z" fill="#4AE792"/>
<path d="M166.127 154.606C165.851 154.606 165.581 154.525 165.35 154.373L127.933 129.06C127.657 128.842 127.473 128.527 127.419 128.179C127.365 127.832 127.444 127.476 127.64 127.184C127.836 126.892 128.135 126.684 128.477 126.603C128.82 126.521 129.18 126.572 129.487 126.745L166.904 152.042C167.156 152.209 167.347 152.453 167.448 152.737C167.55 153.022 167.557 153.332 167.467 153.62C167.378 153.909 167.198 154.161 166.953 154.339C166.709 154.516 166.414 154.61 166.112 154.606H166.127Z" fill="#4AE792"/>
<path d="M122.712 177.292C122.419 177.29 122.133 177.197 121.896 177.024C121.659 176.851 121.482 176.608 121.391 176.329L107.127 133.473C107.009 133.121 107.036 132.736 107.203 132.404C107.369 132.072 107.66 131.819 108.012 131.702C108.365 131.584 108.749 131.611 109.081 131.777C109.414 131.944 109.666 132.235 109.784 132.587L124.048 175.443C124.162 175.796 124.133 176.179 123.967 176.51C123.802 176.841 123.513 177.094 123.163 177.215C123.017 177.263 122.865 177.289 122.712 177.292Z" fill="#4AE792"/>
</svg>
