<svg width="27" height="3802" viewBox="0 0 27 3802" fill="none" xmlns="http://www.w3.org/2000/svg">
<g opacity="0.6">
<line x1="1.09375" y1="1" x2="25.9999" y2="1" stroke="#B2B4C7" stroke-width="2" stroke-linecap="round"/>
<line x1="1" y1="12.8905" x2="12.4531" y2="12.8905" stroke="#B2B4C7" stroke-width="2" stroke-linecap="round"/>
<line x1="1" y1="36.6715" x2="12.4531" y2="36.6715" stroke="#B2B4C7" stroke-width="2" stroke-linecap="round"/>
<line x1="1" y1="24.7811" x2="12.4531" y2="24.7811" stroke="#B2B4C7" stroke-width="2" stroke-linecap="round"/>
<line x1="1" y1="48.5621" x2="12.4531" y2="48.5621" stroke="#B2B4C7" stroke-width="2" stroke-linecap="round"/>
<line x1="1.09375" y1="476.753" x2="25.9999" y2="476.753" stroke="#B2B4C7" stroke-width="2" stroke-linecap="round"/>
<line x1="1" y1="488.643" x2="12.4531" y2="488.643" stroke="#B2B4C7" stroke-width="2" stroke-linecap="round"/>
<line x1="1" y1="512.424" x2="12.4531" y2="512.424" stroke="#B2B4C7" stroke-width="2" stroke-linecap="round"/>
<line x1="1" y1="500.534" x2="12.4531" y2="500.534" stroke="#B2B4C7" stroke-width="2" stroke-linecap="round"/>
<line x1="1" y1="524.315" x2="12.4531" y2="524.315" stroke="#B2B4C7" stroke-width="2" stroke-linecap="round"/>
<line x1="1.09375" y1="119.905" x2="25.9999" y2="119.905" stroke="#B2B4C7" stroke-width="2" stroke-linecap="round"/>
<line x1="1" y1="131.796" x2="12.4531" y2="131.796" stroke="#B2B4C7" stroke-width="2" stroke-linecap="round"/>
<line x1="1" y1="155.577" x2="12.4531" y2="155.577" stroke="#B2B4C7" stroke-width="2" stroke-linecap="round"/>
<line x1="1" y1="143.686" x2="12.4531" y2="143.686" stroke="#B2B4C7" stroke-width="2" stroke-linecap="round"/>
<line x1="1" y1="167.467" x2="12.4531" y2="167.467" stroke="#B2B4C7" stroke-width="2" stroke-linecap="round"/>
<line x1="1.09375" y1="595.658" x2="25.9999" y2="595.658" stroke="#B2B4C7" stroke-width="2" stroke-linecap="round"/>
<line x1="1" y1="607.549" x2="12.4531" y2="607.549" stroke="#B2B4C7" stroke-width="2" stroke-linecap="round"/>
<line x1="1" y1="631.33" x2="12.4531" y2="631.33" stroke="#B2B4C7" stroke-width="2" stroke-linecap="round"/>
<line x1="1" y1="619.439" x2="12.4531" y2="619.439" stroke="#B2B4C7" stroke-width="2" stroke-linecap="round"/>
<line x1="1" y1="643.22" x2="12.4531" y2="643.22" stroke="#B2B4C7" stroke-width="2" stroke-linecap="round"/>
<line x1="1.09375" y1="60.4525" x2="25.9999" y2="60.4525" stroke="#B2B4C7" stroke-width="2" stroke-linecap="round"/>
<line x1="1" y1="72.3431" x2="12.4531" y2="72.3431" stroke="#B2B4C7" stroke-width="2" stroke-linecap="round"/>
<line x1="1" y1="96.124" x2="12.4531" y2="96.124" stroke="#B2B4C7" stroke-width="2" stroke-linecap="round"/>
<line x1="1" y1="84.2336" x2="12.4531" y2="84.2336" stroke="#B2B4C7" stroke-width="2" stroke-linecap="round"/>
<line x1="1" y1="108.015" x2="12.4531" y2="108.015" stroke="#B2B4C7" stroke-width="2" stroke-linecap="round"/>
<line x1="1.09375" y1="536.205" x2="25.9999" y2="536.205" stroke="#B2B4C7" stroke-width="2" stroke-linecap="round"/>
<line x1="1" y1="548.096" x2="12.4531" y2="548.096" stroke="#B2B4C7" stroke-width="2" stroke-linecap="round"/>
<line x1="1" y1="571.877" x2="12.4531" y2="571.877" stroke="#B2B4C7" stroke-width="2" stroke-linecap="round"/>
<line x1="1" y1="559.986" x2="12.4531" y2="559.986" stroke="#B2B4C7" stroke-width="2" stroke-linecap="round"/>
<line x1="1" y1="583.767" x2="12.4531" y2="583.767" stroke="#B2B4C7" stroke-width="2" stroke-linecap="round"/>
<line x1="1.09375" y1="179.358" x2="25.9999" y2="179.358" stroke="#B2B4C7" stroke-width="2" stroke-linecap="round"/>
<line x1="1" y1="191.248" x2="12.4531" y2="191.248" stroke="#B2B4C7" stroke-width="2" stroke-linecap="round"/>
<line x1="1" y1="215.029" x2="12.4531" y2="215.029" stroke="#B2B4C7" stroke-width="2" stroke-linecap="round"/>
<line x1="1" y1="203.139" x2="12.4531" y2="203.139" stroke="#B2B4C7" stroke-width="2" stroke-linecap="round"/>
<line x1="1" y1="226.92" x2="12.4531" y2="226.92" stroke="#B2B4C7" stroke-width="2" stroke-linecap="round"/>
<line x1="1.09375" y1="655.111" x2="25.9999" y2="655.111" stroke="#B2B4C7" stroke-width="2" stroke-linecap="round"/>
<line x1="1" y1="667.001" x2="12.4531" y2="667.001" stroke="#B2B4C7" stroke-width="2" stroke-linecap="round"/>
<line x1="1" y1="690.782" x2="12.4531" y2="690.782" stroke="#B2B4C7" stroke-width="2" stroke-linecap="round"/>
<line x1="1" y1="678.892" x2="12.4531" y2="678.892" stroke="#B2B4C7" stroke-width="2" stroke-linecap="round"/>
<line x1="1" y1="702.673" x2="12.4531" y2="702.673" stroke="#B2B4C7" stroke-width="2" stroke-linecap="round"/>
<line x1="1.09375" y1="238.81" x2="25.9999" y2="238.81" stroke="#B2B4C7" stroke-width="2" stroke-linecap="round"/>
<line x1="1" y1="250.701" x2="12.4531" y2="250.701" stroke="#B2B4C7" stroke-width="2" stroke-linecap="round"/>
<line x1="1" y1="274.482" x2="12.4531" y2="274.482" stroke="#B2B4C7" stroke-width="2" stroke-linecap="round"/>
<line x1="1" y1="262.591" x2="12.4531" y2="262.591" stroke="#B2B4C7" stroke-width="2" stroke-linecap="round"/>
<line x1="1" y1="286.372" x2="12.4531" y2="286.372" stroke="#B2B4C7" stroke-width="2" stroke-linecap="round"/>
<line x1="1.09375" y1="714.563" x2="25.9999" y2="714.563" stroke="#B2B4C7" stroke-width="2" stroke-linecap="round"/>
<line x1="1" y1="726.454" x2="12.4531" y2="726.454" stroke="#B2B4C7" stroke-width="2" stroke-linecap="round"/>
<line x1="1" y1="750.235" x2="12.4531" y2="750.235" stroke="#B2B4C7" stroke-width="2" stroke-linecap="round"/>
<line x1="1" y1="738.344" x2="12.4531" y2="738.344" stroke="#B2B4C7" stroke-width="2" stroke-linecap="round"/>
<line x1="1" y1="762.125" x2="12.4531" y2="762.125" stroke="#B2B4C7" stroke-width="2" stroke-linecap="round"/>
<line x1="1.09375" y1="357.716" x2="25.9999" y2="357.716" stroke="#B2B4C7" stroke-width="2" stroke-linecap="round"/>
<line x1="1" y1="369.606" x2="12.4531" y2="369.606" stroke="#B2B4C7" stroke-width="2" stroke-linecap="round"/>
<line x1="1" y1="393.387" x2="12.4531" y2="393.387" stroke="#B2B4C7" stroke-width="2" stroke-linecap="round"/>
<line x1="1" y1="381.497" x2="12.4531" y2="381.497" stroke="#B2B4C7" stroke-width="2" stroke-linecap="round"/>
<line x1="1" y1="405.278" x2="12.4531" y2="405.278" stroke="#B2B4C7" stroke-width="2" stroke-linecap="round"/>
<line x1="1.09375" y1="833.468" x2="25.9999" y2="833.468" stroke="#B2B4C7" stroke-width="2" stroke-linecap="round"/>
<line x1="1" y1="845.359" x2="12.4531" y2="845.359" stroke="#B2B4C7" stroke-width="2" stroke-linecap="round"/>
<line x1="1" y1="869.14" x2="12.4531" y2="869.14" stroke="#B2B4C7" stroke-width="2" stroke-linecap="round"/>
<line x1="1" y1="857.249" x2="12.4531" y2="857.249" stroke="#B2B4C7" stroke-width="2" stroke-linecap="round"/>
<line x1="1" y1="881.03" x2="12.4531" y2="881.03" stroke="#B2B4C7" stroke-width="2" stroke-linecap="round"/>
<line x1="1.09375" y1="298.263" x2="25.9999" y2="298.263" stroke="#B2B4C7" stroke-width="2" stroke-linecap="round"/>
<line x1="1" y1="310.153" x2="12.4531" y2="310.153" stroke="#B2B4C7" stroke-width="2" stroke-linecap="round"/>
<line x1="1" y1="333.934" x2="12.4531" y2="333.934" stroke="#B2B4C7" stroke-width="2" stroke-linecap="round"/>
<line x1="1" y1="322.044" x2="12.4531" y2="322.044" stroke="#B2B4C7" stroke-width="2" stroke-linecap="round"/>
<line x1="1" y1="345.825" x2="12.4531" y2="345.825" stroke="#B2B4C7" stroke-width="2" stroke-linecap="round"/>
<line x1="1.09375" y1="774.016" x2="25.9999" y2="774.016" stroke="#B2B4C7" stroke-width="2" stroke-linecap="round"/>
<line x1="1" y1="785.906" x2="12.4531" y2="785.906" stroke="#B2B4C7" stroke-width="2" stroke-linecap="round"/>
<line x1="1" y1="809.687" x2="12.4531" y2="809.687" stroke="#B2B4C7" stroke-width="2" stroke-linecap="round"/>
<line x1="1" y1="797.797" x2="12.4531" y2="797.797" stroke="#B2B4C7" stroke-width="2" stroke-linecap="round"/>
<line x1="1" y1="821.578" x2="12.4531" y2="821.578" stroke="#B2B4C7" stroke-width="2" stroke-linecap="round"/>
<line x1="1.09375" y1="417.168" x2="25.9999" y2="417.168" stroke="#B2B4C7" stroke-width="2" stroke-linecap="round"/>
<line x1="1" y1="429.059" x2="12.4531" y2="429.059" stroke="#B2B4C7" stroke-width="2" stroke-linecap="round"/>
<line x1="1" y1="452.84" x2="12.4531" y2="452.84" stroke="#B2B4C7" stroke-width="2" stroke-linecap="round"/>
<line x1="1" y1="440.949" x2="12.4531" y2="440.949" stroke="#B2B4C7" stroke-width="2" stroke-linecap="round"/>
<line x1="1" y1="464.73" x2="12.4531" y2="464.73" stroke="#B2B4C7" stroke-width="2" stroke-linecap="round"/>
<line x1="1.09375" y1="892.921" x2="25.9999" y2="892.921" stroke="#B2B4C7" stroke-width="2" stroke-linecap="round"/>
<line x1="1" y1="904.811" x2="12.4531" y2="904.811" stroke="#B2B4C7" stroke-width="2" stroke-linecap="round"/>
<line x1="1" y1="928.592" x2="12.4531" y2="928.592" stroke="#B2B4C7" stroke-width="2" stroke-linecap="round"/>
<line x1="1" y1="916.702" x2="12.4531" y2="916.702" stroke="#B2B4C7" stroke-width="2" stroke-linecap="round"/>
<line x1="1" y1="940.483" x2="12.4531" y2="940.483" stroke="#B2B4C7" stroke-width="2" stroke-linecap="round"/>
</g>
<g opacity="0.6">
<line x1="1.09375" y1="954.483" x2="25.9999" y2="954.483" stroke="#B2B4C7" stroke-width="2" stroke-linecap="round"/>
<line x1="1" y1="966.374" x2="12.4531" y2="966.374" stroke="#B2B4C7" stroke-width="2" stroke-linecap="round"/>
<line x1="1" y1="990.155" x2="12.4531" y2="990.155" stroke="#B2B4C7" stroke-width="2" stroke-linecap="round"/>
<line x1="1" y1="978.264" x2="12.4531" y2="978.264" stroke="#B2B4C7" stroke-width="2" stroke-linecap="round"/>
<line x1="1" y1="1002.05" x2="12.4531" y2="1002.05" stroke="#B2B4C7" stroke-width="2" stroke-linecap="round"/>
<line x1="1.09375" y1="1430.24" x2="25.9999" y2="1430.24" stroke="#B2B4C7" stroke-width="2" stroke-linecap="round"/>
<line x1="1" y1="1442.13" x2="12.4531" y2="1442.13" stroke="#B2B4C7" stroke-width="2" stroke-linecap="round"/>
<line x1="1" y1="1465.91" x2="12.4531" y2="1465.91" stroke="#B2B4C7" stroke-width="2" stroke-linecap="round"/>
<line x1="1" y1="1454.02" x2="12.4531" y2="1454.02" stroke="#B2B4C7" stroke-width="2" stroke-linecap="round"/>
<line x1="1" y1="1477.8" x2="12.4531" y2="1477.8" stroke="#B2B4C7" stroke-width="2" stroke-linecap="round"/>
<line x1="1.09375" y1="1073.39" x2="25.9999" y2="1073.39" stroke="#B2B4C7" stroke-width="2" stroke-linecap="round"/>
<line x1="1" y1="1085.28" x2="12.4531" y2="1085.28" stroke="#B2B4C7" stroke-width="2" stroke-linecap="round"/>
<line x1="1" y1="1109.06" x2="12.4531" y2="1109.06" stroke="#B2B4C7" stroke-width="2" stroke-linecap="round"/>
<line x1="1" y1="1097.17" x2="12.4531" y2="1097.17" stroke="#B2B4C7" stroke-width="2" stroke-linecap="round"/>
<line x1="1" y1="1120.95" x2="12.4531" y2="1120.95" stroke="#B2B4C7" stroke-width="2" stroke-linecap="round"/>
<line x1="1.09375" y1="1549.14" x2="25.9999" y2="1549.14" stroke="#B2B4C7" stroke-width="2" stroke-linecap="round"/>
<line x1="1" y1="1561.03" x2="12.4531" y2="1561.03" stroke="#B2B4C7" stroke-width="2" stroke-linecap="round"/>
<line x1="1" y1="1584.81" x2="12.4531" y2="1584.81" stroke="#B2B4C7" stroke-width="2" stroke-linecap="round"/>
<line x1="1" y1="1572.92" x2="12.4531" y2="1572.92" stroke="#B2B4C7" stroke-width="2" stroke-linecap="round"/>
<line x1="1" y1="1596.7" x2="12.4531" y2="1596.7" stroke="#B2B4C7" stroke-width="2" stroke-linecap="round"/>
<line x1="1.09375" y1="1013.94" x2="25.9999" y2="1013.94" stroke="#B2B4C7" stroke-width="2" stroke-linecap="round"/>
<line x1="1" y1="1025.83" x2="12.4531" y2="1025.83" stroke="#B2B4C7" stroke-width="2" stroke-linecap="round"/>
<line x1="1" y1="1049.61" x2="12.4531" y2="1049.61" stroke="#B2B4C7" stroke-width="2" stroke-linecap="round"/>
<line x1="1" y1="1037.72" x2="12.4531" y2="1037.72" stroke="#B2B4C7" stroke-width="2" stroke-linecap="round"/>
<line x1="1" y1="1061.5" x2="12.4531" y2="1061.5" stroke="#B2B4C7" stroke-width="2" stroke-linecap="round"/>
<line x1="1.09375" y1="1489.69" x2="25.9999" y2="1489.69" stroke="#B2B4C7" stroke-width="2" stroke-linecap="round"/>
<line x1="1" y1="1501.58" x2="12.4531" y2="1501.58" stroke="#B2B4C7" stroke-width="2" stroke-linecap="round"/>
<line x1="1" y1="1525.36" x2="12.4531" y2="1525.36" stroke="#B2B4C7" stroke-width="2" stroke-linecap="round"/>
<line x1="1" y1="1513.47" x2="12.4531" y2="1513.47" stroke="#B2B4C7" stroke-width="2" stroke-linecap="round"/>
<line x1="1" y1="1537.25" x2="12.4531" y2="1537.25" stroke="#B2B4C7" stroke-width="2" stroke-linecap="round"/>
<line x1="1.09375" y1="1132.84" x2="25.9999" y2="1132.84" stroke="#B2B4C7" stroke-width="2" stroke-linecap="round"/>
<line x1="1" y1="1144.73" x2="12.4531" y2="1144.73" stroke="#B2B4C7" stroke-width="2" stroke-linecap="round"/>
<line x1="1" y1="1168.51" x2="12.4531" y2="1168.51" stroke="#B2B4C7" stroke-width="2" stroke-linecap="round"/>
<line x1="1" y1="1156.62" x2="12.4531" y2="1156.62" stroke="#B2B4C7" stroke-width="2" stroke-linecap="round"/>
<line x1="1" y1="1180.4" x2="12.4531" y2="1180.4" stroke="#B2B4C7" stroke-width="2" stroke-linecap="round"/>
<line x1="1.09375" y1="1608.59" x2="25.9999" y2="1608.59" stroke="#B2B4C7" stroke-width="2" stroke-linecap="round"/>
<line x1="1" y1="1620.48" x2="12.4531" y2="1620.48" stroke="#B2B4C7" stroke-width="2" stroke-linecap="round"/>
<line x1="1" y1="1644.27" x2="12.4531" y2="1644.27" stroke="#B2B4C7" stroke-width="2" stroke-linecap="round"/>
<line x1="1" y1="1632.37" x2="12.4531" y2="1632.37" stroke="#B2B4C7" stroke-width="2" stroke-linecap="round"/>
<line x1="1" y1="1656.16" x2="12.4531" y2="1656.16" stroke="#B2B4C7" stroke-width="2" stroke-linecap="round"/>
<line x1="1.09375" y1="1192.29" x2="25.9999" y2="1192.29" stroke="#B2B4C7" stroke-width="2" stroke-linecap="round"/>
<line x1="1" y1="1204.18" x2="12.4531" y2="1204.18" stroke="#B2B4C7" stroke-width="2" stroke-linecap="round"/>
<line x1="1" y1="1227.96" x2="12.4531" y2="1227.96" stroke="#B2B4C7" stroke-width="2" stroke-linecap="round"/>
<line x1="1" y1="1216.07" x2="12.4531" y2="1216.07" stroke="#B2B4C7" stroke-width="2" stroke-linecap="round"/>
<line x1="1" y1="1239.86" x2="12.4531" y2="1239.86" stroke="#B2B4C7" stroke-width="2" stroke-linecap="round"/>
<line x1="1.09375" y1="1668.05" x2="25.9999" y2="1668.05" stroke="#B2B4C7" stroke-width="2" stroke-linecap="round"/>
<line x1="1" y1="1679.94" x2="12.4531" y2="1679.94" stroke="#B2B4C7" stroke-width="2" stroke-linecap="round"/>
<line x1="1" y1="1703.72" x2="12.4531" y2="1703.72" stroke="#B2B4C7" stroke-width="2" stroke-linecap="round"/>
<line x1="1" y1="1691.83" x2="12.4531" y2="1691.83" stroke="#B2B4C7" stroke-width="2" stroke-linecap="round"/>
<line x1="1" y1="1715.61" x2="12.4531" y2="1715.61" stroke="#B2B4C7" stroke-width="2" stroke-linecap="round"/>
<line x1="1.09375" y1="1311.2" x2="25.9999" y2="1311.2" stroke="#B2B4C7" stroke-width="2" stroke-linecap="round"/>
<line x1="1" y1="1323.09" x2="12.4531" y2="1323.09" stroke="#B2B4C7" stroke-width="2" stroke-linecap="round"/>
<line x1="1" y1="1346.87" x2="12.4531" y2="1346.87" stroke="#B2B4C7" stroke-width="2" stroke-linecap="round"/>
<line x1="1" y1="1334.98" x2="12.4531" y2="1334.98" stroke="#B2B4C7" stroke-width="2" stroke-linecap="round"/>
<line x1="1" y1="1358.76" x2="12.4531" y2="1358.76" stroke="#B2B4C7" stroke-width="2" stroke-linecap="round"/>
<line x1="1.09375" y1="1786.95" x2="25.9999" y2="1786.95" stroke="#B2B4C7" stroke-width="2" stroke-linecap="round"/>
<line x1="1" y1="1798.84" x2="12.4531" y2="1798.84" stroke="#B2B4C7" stroke-width="2" stroke-linecap="round"/>
<line x1="1" y1="1822.62" x2="12.4531" y2="1822.62" stroke="#B2B4C7" stroke-width="2" stroke-linecap="round"/>
<line x1="1" y1="1810.73" x2="12.4531" y2="1810.73" stroke="#B2B4C7" stroke-width="2" stroke-linecap="round"/>
<line x1="1" y1="1834.51" x2="12.4531" y2="1834.51" stroke="#B2B4C7" stroke-width="2" stroke-linecap="round"/>
<line x1="1.09375" y1="1251.75" x2="25.9999" y2="1251.75" stroke="#B2B4C7" stroke-width="2" stroke-linecap="round"/>
<line x1="1" y1="1263.64" x2="12.4531" y2="1263.64" stroke="#B2B4C7" stroke-width="2" stroke-linecap="round"/>
<line x1="1" y1="1287.42" x2="12.4531" y2="1287.42" stroke="#B2B4C7" stroke-width="2" stroke-linecap="round"/>
<line x1="1" y1="1275.53" x2="12.4531" y2="1275.53" stroke="#B2B4C7" stroke-width="2" stroke-linecap="round"/>
<line x1="1" y1="1299.31" x2="12.4531" y2="1299.31" stroke="#B2B4C7" stroke-width="2" stroke-linecap="round"/>
<line x1="1.09375" y1="1727.5" x2="25.9999" y2="1727.5" stroke="#B2B4C7" stroke-width="2" stroke-linecap="round"/>
<line x1="1" y1="1739.39" x2="12.4531" y2="1739.39" stroke="#B2B4C7" stroke-width="2" stroke-linecap="round"/>
<line x1="1" y1="1763.17" x2="12.4531" y2="1763.17" stroke="#B2B4C7" stroke-width="2" stroke-linecap="round"/>
<line x1="1" y1="1751.28" x2="12.4531" y2="1751.28" stroke="#B2B4C7" stroke-width="2" stroke-linecap="round"/>
<line x1="1" y1="1775.06" x2="12.4531" y2="1775.06" stroke="#B2B4C7" stroke-width="2" stroke-linecap="round"/>
<line x1="1.09375" y1="1370.65" x2="25.9999" y2="1370.65" stroke="#B2B4C7" stroke-width="2" stroke-linecap="round"/>
<line x1="1" y1="1382.54" x2="12.4531" y2="1382.54" stroke="#B2B4C7" stroke-width="2" stroke-linecap="round"/>
<line x1="1" y1="1406.32" x2="12.4531" y2="1406.32" stroke="#B2B4C7" stroke-width="2" stroke-linecap="round"/>
<line x1="1" y1="1394.43" x2="12.4531" y2="1394.43" stroke="#B2B4C7" stroke-width="2" stroke-linecap="round"/>
<line x1="1" y1="1418.21" x2="12.4531" y2="1418.21" stroke="#B2B4C7" stroke-width="2" stroke-linecap="round"/>
<line x1="1.09375" y1="1846.4" x2="25.9999" y2="1846.4" stroke="#B2B4C7" stroke-width="2" stroke-linecap="round"/>
<line x1="1" y1="1858.29" x2="12.4531" y2="1858.29" stroke="#B2B4C7" stroke-width="2" stroke-linecap="round"/>
<line x1="1" y1="1882.08" x2="12.4531" y2="1882.08" stroke="#B2B4C7" stroke-width="2" stroke-linecap="round"/>
<line x1="1" y1="1870.18" x2="12.4531" y2="1870.18" stroke="#B2B4C7" stroke-width="2" stroke-linecap="round"/>
<line x1="1" y1="1893.97" x2="12.4531" y2="1893.97" stroke="#B2B4C7" stroke-width="2" stroke-linecap="round"/>
</g>
<g opacity="0.6">
<line x1="1.09375" y1="1907.97" x2="25.9999" y2="1907.97" stroke="#B2B4C7" stroke-width="2" stroke-linecap="round"/>
<line x1="1" y1="1919.86" x2="12.4531" y2="1919.86" stroke="#B2B4C7" stroke-width="2" stroke-linecap="round"/>
<line x1="1" y1="1943.64" x2="12.4531" y2="1943.64" stroke="#B2B4C7" stroke-width="2" stroke-linecap="round"/>
<line x1="1" y1="1931.75" x2="12.4531" y2="1931.75" stroke="#B2B4C7" stroke-width="2" stroke-linecap="round"/>
<line x1="1" y1="1955.53" x2="12.4531" y2="1955.53" stroke="#B2B4C7" stroke-width="2" stroke-linecap="round"/>
<line x1="1.09375" y1="2383.72" x2="25.9999" y2="2383.72" stroke="#B2B4C7" stroke-width="2" stroke-linecap="round"/>
<line x1="1" y1="2395.61" x2="12.4531" y2="2395.61" stroke="#B2B4C7" stroke-width="2" stroke-linecap="round"/>
<line x1="1" y1="2419.39" x2="12.4531" y2="2419.39" stroke="#B2B4C7" stroke-width="2" stroke-linecap="round"/>
<line x1="1" y1="2407.5" x2="12.4531" y2="2407.5" stroke="#B2B4C7" stroke-width="2" stroke-linecap="round"/>
<line x1="1" y1="2431.28" x2="12.4531" y2="2431.28" stroke="#B2B4C7" stroke-width="2" stroke-linecap="round"/>
<line x1="1.09375" y1="2026.87" x2="25.9999" y2="2026.87" stroke="#B2B4C7" stroke-width="2" stroke-linecap="round"/>
<line x1="1" y1="2038.76" x2="12.4531" y2="2038.76" stroke="#B2B4C7" stroke-width="2" stroke-linecap="round"/>
<line x1="1" y1="2062.54" x2="12.4531" y2="2062.54" stroke="#B2B4C7" stroke-width="2" stroke-linecap="round"/>
<line x1="1" y1="2050.65" x2="12.4531" y2="2050.65" stroke="#B2B4C7" stroke-width="2" stroke-linecap="round"/>
<line x1="1" y1="2074.43" x2="12.4531" y2="2074.43" stroke="#B2B4C7" stroke-width="2" stroke-linecap="round"/>
<line x1="1.09375" y1="2502.62" x2="25.9999" y2="2502.62" stroke="#B2B4C7" stroke-width="2" stroke-linecap="round"/>
<line x1="1" y1="2514.51" x2="12.4531" y2="2514.51" stroke="#B2B4C7" stroke-width="2" stroke-linecap="round"/>
<line x1="1" y1="2538.3" x2="12.4531" y2="2538.3" stroke="#B2B4C7" stroke-width="2" stroke-linecap="round"/>
<line x1="1" y1="2526.41" x2="12.4531" y2="2526.41" stroke="#B2B4C7" stroke-width="2" stroke-linecap="round"/>
<line x1="1" y1="2550.19" x2="12.4531" y2="2550.19" stroke="#B2B4C7" stroke-width="2" stroke-linecap="round"/>
<line x1="1.09375" y1="1967.42" x2="25.9999" y2="1967.42" stroke="#B2B4C7" stroke-width="2" stroke-linecap="round"/>
<line x1="1" y1="1979.31" x2="12.4531" y2="1979.31" stroke="#B2B4C7" stroke-width="2" stroke-linecap="round"/>
<line x1="1" y1="2003.09" x2="12.4531" y2="2003.09" stroke="#B2B4C7" stroke-width="2" stroke-linecap="round"/>
<line x1="1" y1="1991.2" x2="12.4531" y2="1991.2" stroke="#B2B4C7" stroke-width="2" stroke-linecap="round"/>
<line x1="1" y1="2014.98" x2="12.4531" y2="2014.98" stroke="#B2B4C7" stroke-width="2" stroke-linecap="round"/>
<line x1="1.09375" y1="2443.17" x2="25.9999" y2="2443.17" stroke="#B2B4C7" stroke-width="2" stroke-linecap="round"/>
<line x1="1" y1="2455.06" x2="12.4531" y2="2455.06" stroke="#B2B4C7" stroke-width="2" stroke-linecap="round"/>
<line x1="1" y1="2478.84" x2="12.4531" y2="2478.84" stroke="#B2B4C7" stroke-width="2" stroke-linecap="round"/>
<line x1="1" y1="2466.95" x2="12.4531" y2="2466.95" stroke="#B2B4C7" stroke-width="2" stroke-linecap="round"/>
<line x1="1" y1="2490.73" x2="12.4531" y2="2490.73" stroke="#B2B4C7" stroke-width="2" stroke-linecap="round"/>
<line x1="1.09375" y1="2086.32" x2="25.9999" y2="2086.32" stroke="#B2B4C7" stroke-width="2" stroke-linecap="round"/>
<line x1="1" y1="2098.21" x2="12.4531" y2="2098.21" stroke="#B2B4C7" stroke-width="2" stroke-linecap="round"/>
<line x1="1" y1="2122" x2="12.4531" y2="2122" stroke="#B2B4C7" stroke-width="2" stroke-linecap="round"/>
<line x1="1" y1="2110.1" x2="12.4531" y2="2110.1" stroke="#B2B4C7" stroke-width="2" stroke-linecap="round"/>
<line x1="1" y1="2133.89" x2="12.4531" y2="2133.89" stroke="#B2B4C7" stroke-width="2" stroke-linecap="round"/>
<line x1="1.09375" y1="2562.08" x2="25.9999" y2="2562.08" stroke="#B2B4C7" stroke-width="2" stroke-linecap="round"/>
<line x1="1" y1="2573.97" x2="12.4531" y2="2573.97" stroke="#B2B4C7" stroke-width="2" stroke-linecap="round"/>
<line x1="1" y1="2597.75" x2="12.4531" y2="2597.75" stroke="#B2B4C7" stroke-width="2" stroke-linecap="round"/>
<line x1="1" y1="2585.86" x2="12.4531" y2="2585.86" stroke="#B2B4C7" stroke-width="2" stroke-linecap="round"/>
<line x1="1" y1="2609.64" x2="12.4531" y2="2609.64" stroke="#B2B4C7" stroke-width="2" stroke-linecap="round"/>
<line x1="1.09375" y1="2145.78" x2="25.9999" y2="2145.78" stroke="#B2B4C7" stroke-width="2" stroke-linecap="round"/>
<line x1="1" y1="2157.67" x2="12.4531" y2="2157.67" stroke="#B2B4C7" stroke-width="2" stroke-linecap="round"/>
<line x1="1" y1="2181.45" x2="12.4531" y2="2181.45" stroke="#B2B4C7" stroke-width="2" stroke-linecap="round"/>
<line x1="1" y1="2169.56" x2="12.4531" y2="2169.56" stroke="#B2B4C7" stroke-width="2" stroke-linecap="round"/>
<line x1="1" y1="2193.34" x2="12.4531" y2="2193.34" stroke="#B2B4C7" stroke-width="2" stroke-linecap="round"/>
<line x1="1.09375" y1="2621.53" x2="25.9999" y2="2621.53" stroke="#B2B4C7" stroke-width="2" stroke-linecap="round"/>
<line x1="1" y1="2633.42" x2="12.4531" y2="2633.42" stroke="#B2B4C7" stroke-width="2" stroke-linecap="round"/>
<line x1="1" y1="2657.2" x2="12.4531" y2="2657.2" stroke="#B2B4C7" stroke-width="2" stroke-linecap="round"/>
<line x1="1" y1="2645.31" x2="12.4531" y2="2645.31" stroke="#B2B4C7" stroke-width="2" stroke-linecap="round"/>
<line x1="1" y1="2669.09" x2="12.4531" y2="2669.09" stroke="#B2B4C7" stroke-width="2" stroke-linecap="round"/>
<line x1="1.09375" y1="2264.68" x2="25.9999" y2="2264.68" stroke="#B2B4C7" stroke-width="2" stroke-linecap="round"/>
<line x1="1" y1="2276.57" x2="12.4531" y2="2276.57" stroke="#B2B4C7" stroke-width="2" stroke-linecap="round"/>
<line x1="1" y1="2300.35" x2="12.4531" y2="2300.35" stroke="#B2B4C7" stroke-width="2" stroke-linecap="round"/>
<line x1="1" y1="2288.46" x2="12.4531" y2="2288.46" stroke="#B2B4C7" stroke-width="2" stroke-linecap="round"/>
<line x1="1" y1="2312.24" x2="12.4531" y2="2312.24" stroke="#B2B4C7" stroke-width="2" stroke-linecap="round"/>
<line x1="1.09375" y1="2740.43" x2="25.9999" y2="2740.43" stroke="#B2B4C7" stroke-width="2" stroke-linecap="round"/>
<line x1="1" y1="2752.32" x2="12.4531" y2="2752.32" stroke="#B2B4C7" stroke-width="2" stroke-linecap="round"/>
<line x1="1" y1="2776.11" x2="12.4531" y2="2776.11" stroke="#B2B4C7" stroke-width="2" stroke-linecap="round"/>
<line x1="1" y1="2764.22" x2="12.4531" y2="2764.22" stroke="#B2B4C7" stroke-width="2" stroke-linecap="round"/>
<line x1="1" y1="2788" x2="12.4531" y2="2788" stroke="#B2B4C7" stroke-width="2" stroke-linecap="round"/>
<line x1="1.09375" y1="2205.23" x2="25.9999" y2="2205.23" stroke="#B2B4C7" stroke-width="2" stroke-linecap="round"/>
<line x1="1" y1="2217.12" x2="12.4531" y2="2217.12" stroke="#B2B4C7" stroke-width="2" stroke-linecap="round"/>
<line x1="1" y1="2240.9" x2="12.4531" y2="2240.9" stroke="#B2B4C7" stroke-width="2" stroke-linecap="round"/>
<line x1="1" y1="2229.01" x2="12.4531" y2="2229.01" stroke="#B2B4C7" stroke-width="2" stroke-linecap="round"/>
<line x1="1" y1="2252.79" x2="12.4531" y2="2252.79" stroke="#B2B4C7" stroke-width="2" stroke-linecap="round"/>
<line x1="1.09375" y1="2680.98" x2="25.9999" y2="2680.98" stroke="#B2B4C7" stroke-width="2" stroke-linecap="round"/>
<line x1="1" y1="2692.87" x2="12.4531" y2="2692.87" stroke="#B2B4C7" stroke-width="2" stroke-linecap="round"/>
<line x1="1" y1="2716.65" x2="12.4531" y2="2716.65" stroke="#B2B4C7" stroke-width="2" stroke-linecap="round"/>
<line x1="1" y1="2704.76" x2="12.4531" y2="2704.76" stroke="#B2B4C7" stroke-width="2" stroke-linecap="round"/>
<line x1="1" y1="2728.54" x2="12.4531" y2="2728.54" stroke="#B2B4C7" stroke-width="2" stroke-linecap="round"/>
<line x1="1.09375" y1="2324.13" x2="25.9999" y2="2324.13" stroke="#B2B4C7" stroke-width="2" stroke-linecap="round"/>
<line x1="1" y1="2336.02" x2="12.4531" y2="2336.02" stroke="#B2B4C7" stroke-width="2" stroke-linecap="round"/>
<line x1="1" y1="2359.81" x2="12.4531" y2="2359.81" stroke="#B2B4C7" stroke-width="2" stroke-linecap="round"/>
<line x1="1" y1="2347.92" x2="12.4531" y2="2347.92" stroke="#B2B4C7" stroke-width="2" stroke-linecap="round"/>
<line x1="1" y1="2371.7" x2="12.4531" y2="2371.7" stroke="#B2B4C7" stroke-width="2" stroke-linecap="round"/>
<line x1="1.09375" y1="2799.89" x2="25.9999" y2="2799.89" stroke="#B2B4C7" stroke-width="2" stroke-linecap="round"/>
<line x1="1" y1="2811.78" x2="12.4531" y2="2811.78" stroke="#B2B4C7" stroke-width="2" stroke-linecap="round"/>
<line x1="1" y1="2835.56" x2="12.4531" y2="2835.56" stroke="#B2B4C7" stroke-width="2" stroke-linecap="round"/>
<line x1="1" y1="2823.67" x2="12.4531" y2="2823.67" stroke="#B2B4C7" stroke-width="2" stroke-linecap="round"/>
<line x1="1" y1="2847.45" x2="12.4531" y2="2847.45" stroke="#B2B4C7" stroke-width="2" stroke-linecap="round"/>
</g>
<g opacity="0.6">
<line x1="1.09375" y1="2861.45" x2="25.9999" y2="2861.45" stroke="#B2B4C7" stroke-width="2" stroke-linecap="round"/>
<line x1="1" y1="2873.34" x2="12.4531" y2="2873.34" stroke="#B2B4C7" stroke-width="2" stroke-linecap="round"/>
<line x1="1" y1="2897.12" x2="12.4531" y2="2897.12" stroke="#B2B4C7" stroke-width="2" stroke-linecap="round"/>
<line x1="1" y1="2885.23" x2="12.4531" y2="2885.23" stroke="#B2B4C7" stroke-width="2" stroke-linecap="round"/>
<line x1="1" y1="2909.01" x2="12.4531" y2="2909.01" stroke="#B2B4C7" stroke-width="2" stroke-linecap="round"/>
<line x1="1.09375" y1="3337.2" x2="25.9999" y2="3337.2" stroke="#B2B4C7" stroke-width="2" stroke-linecap="round"/>
<line x1="1" y1="3349.09" x2="12.4531" y2="3349.09" stroke="#B2B4C7" stroke-width="2" stroke-linecap="round"/>
<line x1="1" y1="3372.87" x2="12.4531" y2="3372.87" stroke="#B2B4C7" stroke-width="2" stroke-linecap="round"/>
<line x1="1" y1="3360.98" x2="12.4531" y2="3360.98" stroke="#B2B4C7" stroke-width="2" stroke-linecap="round"/>
<line x1="1" y1="3384.76" x2="12.4531" y2="3384.76" stroke="#B2B4C7" stroke-width="2" stroke-linecap="round"/>
<line x1="1.09375" y1="2980.35" x2="25.9999" y2="2980.35" stroke="#B2B4C7" stroke-width="2" stroke-linecap="round"/>
<line x1="1" y1="2992.24" x2="12.4531" y2="2992.25" stroke="#B2B4C7" stroke-width="2" stroke-linecap="round"/>
<line x1="1" y1="3016.03" x2="12.4531" y2="3016.03" stroke="#B2B4C7" stroke-width="2" stroke-linecap="round"/>
<line x1="1" y1="3004.14" x2="12.4531" y2="3004.14" stroke="#B2B4C7" stroke-width="2" stroke-linecap="round"/>
<line x1="1" y1="3027.92" x2="12.4531" y2="3027.92" stroke="#B2B4C7" stroke-width="2" stroke-linecap="round"/>
<line x1="1.09375" y1="3456.11" x2="25.9999" y2="3456.11" stroke="#B2B4C7" stroke-width="2" stroke-linecap="round"/>
<line x1="1" y1="3468" x2="12.4531" y2="3468" stroke="#B2B4C7" stroke-width="2" stroke-linecap="round"/>
<line x1="1" y1="3491.78" x2="12.4531" y2="3491.78" stroke="#B2B4C7" stroke-width="2" stroke-linecap="round"/>
<line x1="1" y1="3479.89" x2="12.4531" y2="3479.89" stroke="#B2B4C7" stroke-width="2" stroke-linecap="round"/>
<line x1="1" y1="3503.67" x2="12.4531" y2="3503.67" stroke="#B2B4C7" stroke-width="2" stroke-linecap="round"/>
<line x1="1.09375" y1="2920.9" x2="25.9999" y2="2920.9" stroke="#B2B4C7" stroke-width="2" stroke-linecap="round"/>
<line x1="1" y1="2932.79" x2="12.4531" y2="2932.79" stroke="#B2B4C7" stroke-width="2" stroke-linecap="round"/>
<line x1="1" y1="2956.57" x2="12.4531" y2="2956.57" stroke="#B2B4C7" stroke-width="2" stroke-linecap="round"/>
<line x1="1" y1="2944.68" x2="12.4531" y2="2944.68" stroke="#B2B4C7" stroke-width="2" stroke-linecap="round"/>
<line x1="1" y1="2968.46" x2="12.4531" y2="2968.46" stroke="#B2B4C7" stroke-width="2" stroke-linecap="round"/>
<line x1="1.09375" y1="3396.65" x2="25.9999" y2="3396.65" stroke="#B2B4C7" stroke-width="2" stroke-linecap="round"/>
<line x1="1" y1="3408.54" x2="12.4531" y2="3408.54" stroke="#B2B4C7" stroke-width="2" stroke-linecap="round"/>
<line x1="1" y1="3432.33" x2="12.4531" y2="3432.33" stroke="#B2B4C7" stroke-width="2" stroke-linecap="round"/>
<line x1="1" y1="3420.44" x2="12.4531" y2="3420.44" stroke="#B2B4C7" stroke-width="2" stroke-linecap="round"/>
<line x1="1" y1="3444.22" x2="12.4531" y2="3444.22" stroke="#B2B4C7" stroke-width="2" stroke-linecap="round"/>
<line x1="1.09375" y1="3039.81" x2="25.9999" y2="3039.81" stroke="#B2B4C7" stroke-width="2" stroke-linecap="round"/>
<line x1="1" y1="3051.7" x2="12.4531" y2="3051.7" stroke="#B2B4C7" stroke-width="2" stroke-linecap="round"/>
<line x1="1" y1="3075.48" x2="12.4531" y2="3075.48" stroke="#B2B4C7" stroke-width="2" stroke-linecap="round"/>
<line x1="1" y1="3063.59" x2="12.4531" y2="3063.59" stroke="#B2B4C7" stroke-width="2" stroke-linecap="round"/>
<line x1="1" y1="3087.37" x2="12.4531" y2="3087.37" stroke="#B2B4C7" stroke-width="2" stroke-linecap="round"/>
<line x1="1.09375" y1="3515.56" x2="25.9999" y2="3515.56" stroke="#B2B4C7" stroke-width="2" stroke-linecap="round"/>
<line x1="1" y1="3527.45" x2="12.4531" y2="3527.45" stroke="#B2B4C7" stroke-width="2" stroke-linecap="round"/>
<line x1="1" y1="3551.23" x2="12.4531" y2="3551.23" stroke="#B2B4C7" stroke-width="2" stroke-linecap="round"/>
<line x1="1" y1="3539.34" x2="12.4531" y2="3539.34" stroke="#B2B4C7" stroke-width="2" stroke-linecap="round"/>
<line x1="1" y1="3563.12" x2="12.4531" y2="3563.12" stroke="#B2B4C7" stroke-width="2" stroke-linecap="round"/>
<line x1="1.09375" y1="3099.26" x2="25.9999" y2="3099.26" stroke="#B2B4C7" stroke-width="2" stroke-linecap="round"/>
<line x1="1" y1="3111.15" x2="12.4531" y2="3111.15" stroke="#B2B4C7" stroke-width="2" stroke-linecap="round"/>
<line x1="1" y1="3134.93" x2="12.4531" y2="3134.93" stroke="#B2B4C7" stroke-width="2" stroke-linecap="round"/>
<line x1="1" y1="3123.04" x2="12.4531" y2="3123.04" stroke="#B2B4C7" stroke-width="2" stroke-linecap="round"/>
<line x1="1" y1="3146.82" x2="12.4531" y2="3146.82" stroke="#B2B4C7" stroke-width="2" stroke-linecap="round"/>
<line x1="1.09375" y1="3575.01" x2="25.9999" y2="3575.01" stroke="#B2B4C7" stroke-width="2" stroke-linecap="round"/>
<line x1="1" y1="3586.9" x2="12.4531" y2="3586.9" stroke="#B2B4C7" stroke-width="2" stroke-linecap="round"/>
<line x1="1" y1="3610.68" x2="12.4531" y2="3610.68" stroke="#B2B4C7" stroke-width="2" stroke-linecap="round"/>
<line x1="1" y1="3598.79" x2="12.4531" y2="3598.79" stroke="#B2B4C7" stroke-width="2" stroke-linecap="round"/>
<line x1="1" y1="3622.57" x2="12.4531" y2="3622.57" stroke="#B2B4C7" stroke-width="2" stroke-linecap="round"/>
<line x1="1.09375" y1="3218.16" x2="25.9999" y2="3218.17" stroke="#B2B4C7" stroke-width="2" stroke-linecap="round"/>
<line x1="1" y1="3230.06" x2="12.4531" y2="3230.06" stroke="#B2B4C7" stroke-width="2" stroke-linecap="round"/>
<line x1="1" y1="3253.84" x2="12.4531" y2="3253.84" stroke="#B2B4C7" stroke-width="2" stroke-linecap="round"/>
<line x1="1" y1="3241.95" x2="12.4531" y2="3241.95" stroke="#B2B4C7" stroke-width="2" stroke-linecap="round"/>
<line x1="1" y1="3265.73" x2="12.4531" y2="3265.73" stroke="#B2B4C7" stroke-width="2" stroke-linecap="round"/>
<line x1="1.09375" y1="3693.92" x2="25.9999" y2="3693.92" stroke="#B2B4C7" stroke-width="2" stroke-linecap="round"/>
<line x1="1" y1="3705.81" x2="12.4531" y2="3705.81" stroke="#B2B4C7" stroke-width="2" stroke-linecap="round"/>
<line x1="1" y1="3729.59" x2="12.4531" y2="3729.59" stroke="#B2B4C7" stroke-width="2" stroke-linecap="round"/>
<line x1="1" y1="3717.7" x2="12.4531" y2="3717.7" stroke="#B2B4C7" stroke-width="2" stroke-linecap="round"/>
<line x1="1" y1="3741.48" x2="12.4531" y2="3741.48" stroke="#B2B4C7" stroke-width="2" stroke-linecap="round"/>
<line x1="1.09375" y1="3158.71" x2="25.9999" y2="3158.71" stroke="#B2B4C7" stroke-width="2" stroke-linecap="round"/>
<line x1="1" y1="3170.6" x2="12.4531" y2="3170.6" stroke="#B2B4C7" stroke-width="2" stroke-linecap="round"/>
<line x1="1" y1="3194.38" x2="12.4531" y2="3194.38" stroke="#B2B4C7" stroke-width="2" stroke-linecap="round"/>
<line x1="1" y1="3182.49" x2="12.4531" y2="3182.49" stroke="#B2B4C7" stroke-width="2" stroke-linecap="round"/>
<line x1="1" y1="3206.27" x2="12.4531" y2="3206.27" stroke="#B2B4C7" stroke-width="2" stroke-linecap="round"/>
<line x1="1.09375" y1="3634.46" x2="25.9999" y2="3634.46" stroke="#B2B4C7" stroke-width="2" stroke-linecap="round"/>
<line x1="1" y1="3646.36" x2="12.4531" y2="3646.36" stroke="#B2B4C7" stroke-width="2" stroke-linecap="round"/>
<line x1="1" y1="3670.14" x2="12.4531" y2="3670.14" stroke="#B2B4C7" stroke-width="2" stroke-linecap="round"/>
<line x1="1" y1="3658.25" x2="12.4531" y2="3658.25" stroke="#B2B4C7" stroke-width="2" stroke-linecap="round"/>
<line x1="1" y1="3682.03" x2="12.4531" y2="3682.03" stroke="#B2B4C7" stroke-width="2" stroke-linecap="round"/>
<line x1="1.09375" y1="3277.62" x2="25.9999" y2="3277.62" stroke="#B2B4C7" stroke-width="2" stroke-linecap="round"/>
<line x1="1" y1="3289.51" x2="12.4531" y2="3289.51" stroke="#B2B4C7" stroke-width="2" stroke-linecap="round"/>
<line x1="1" y1="3313.29" x2="12.4531" y2="3313.29" stroke="#B2B4C7" stroke-width="2" stroke-linecap="round"/>
<line x1="1" y1="3301.4" x2="12.4531" y2="3301.4" stroke="#B2B4C7" stroke-width="2" stroke-linecap="round"/>
<line x1="1" y1="3325.18" x2="12.4531" y2="3325.18" stroke="#B2B4C7" stroke-width="2" stroke-linecap="round"/>
<line x1="1.09375" y1="3753.37" x2="25.9999" y2="3753.37" stroke="#B2B4C7" stroke-width="2" stroke-linecap="round"/>
<line x1="1" y1="3765.26" x2="12.4531" y2="3765.26" stroke="#B2B4C7" stroke-width="2" stroke-linecap="round"/>
<line x1="1" y1="3789.04" x2="12.4531" y2="3789.04" stroke="#B2B4C7" stroke-width="2" stroke-linecap="round"/>
<line x1="1" y1="3777.15" x2="12.4531" y2="3777.15" stroke="#B2B4C7" stroke-width="2" stroke-linecap="round"/>
<line x1="1" y1="3800.93" x2="12.4531" y2="3800.93" stroke="#B2B4C7" stroke-width="2" stroke-linecap="round"/>
</g>
</svg>
