<svg width="27" height="942" viewBox="0 0 27 942" fill="none" xmlns="http://www.w3.org/2000/svg">
<g opacity="0.6">
<line x1="25.9062" y1="940.483" x2="1.00009" y2="940.483" stroke="#B2B4C7" stroke-width="2" stroke-linecap="round"/>
<line x1="26" y1="928.592" x2="14.5469" y2="928.592" stroke="#B2B4C7" stroke-width="2" stroke-linecap="round"/>
<line x1="26" y1="904.811" x2="14.5469" y2="904.811" stroke="#B2B4C7" stroke-width="2" stroke-linecap="round"/>
<line x1="26" y1="916.702" x2="14.5469" y2="916.702" stroke="#B2B4C7" stroke-width="2" stroke-linecap="round"/>
<line x1="26" y1="892.921" x2="14.5469" y2="892.921" stroke="#B2B4C7" stroke-width="2" stroke-linecap="round"/>
<line x1="25.9062" y1="464.73" x2="1.00009" y2="464.73" stroke="#B2B4C7" stroke-width="2" stroke-linecap="round"/>
<line x1="26" y1="452.84" x2="14.5469" y2="452.84" stroke="#B2B4C7" stroke-width="2" stroke-linecap="round"/>
<line x1="26" y1="429.059" x2="14.5469" y2="429.059" stroke="#B2B4C7" stroke-width="2" stroke-linecap="round"/>
<line x1="26" y1="440.949" x2="14.5469" y2="440.949" stroke="#B2B4C7" stroke-width="2" stroke-linecap="round"/>
<line x1="26" y1="417.168" x2="14.5469" y2="417.168" stroke="#B2B4C7" stroke-width="2" stroke-linecap="round"/>
<line x1="25.9062" y1="821.578" x2="1.00009" y2="821.578" stroke="#B2B4C7" stroke-width="2" stroke-linecap="round"/>
<line x1="26" y1="809.687" x2="14.5469" y2="809.687" stroke="#B2B4C7" stroke-width="2" stroke-linecap="round"/>
<line x1="26" y1="785.906" x2="14.5469" y2="785.906" stroke="#B2B4C7" stroke-width="2" stroke-linecap="round"/>
<line x1="26" y1="797.797" x2="14.5469" y2="797.797" stroke="#B2B4C7" stroke-width="2" stroke-linecap="round"/>
<line x1="26" y1="774.016" x2="14.5469" y2="774.016" stroke="#B2B4C7" stroke-width="2" stroke-linecap="round"/>
<line x1="25.9062" y1="345.825" x2="1.00009" y2="345.825" stroke="#B2B4C7" stroke-width="2" stroke-linecap="round"/>
<line x1="26" y1="333.934" x2="14.5469" y2="333.934" stroke="#B2B4C7" stroke-width="2" stroke-linecap="round"/>
<line x1="26" y1="310.153" x2="14.5469" y2="310.153" stroke="#B2B4C7" stroke-width="2" stroke-linecap="round"/>
<line x1="26" y1="322.044" x2="14.5469" y2="322.044" stroke="#B2B4C7" stroke-width="2" stroke-linecap="round"/>
<line x1="26" y1="298.263" x2="14.5469" y2="298.263" stroke="#B2B4C7" stroke-width="2" stroke-linecap="round"/>
<line x1="25.9062" y1="881.03" x2="1.00009" y2="881.03" stroke="#B2B4C7" stroke-width="2" stroke-linecap="round"/>
<line x1="26" y1="869.14" x2="14.5469" y2="869.14" stroke="#B2B4C7" stroke-width="2" stroke-linecap="round"/>
<line x1="26" y1="845.359" x2="14.5469" y2="845.359" stroke="#B2B4C7" stroke-width="2" stroke-linecap="round"/>
<line x1="26" y1="857.249" x2="14.5469" y2="857.249" stroke="#B2B4C7" stroke-width="2" stroke-linecap="round"/>
<line x1="26" y1="833.468" x2="14.5469" y2="833.468" stroke="#B2B4C7" stroke-width="2" stroke-linecap="round"/>
<line x1="25.9062" y1="405.278" x2="1.00009" y2="405.278" stroke="#B2B4C7" stroke-width="2" stroke-linecap="round"/>
<line x1="26" y1="393.387" x2="14.5469" y2="393.387" stroke="#B2B4C7" stroke-width="2" stroke-linecap="round"/>
<line x1="26" y1="369.606" x2="14.5469" y2="369.606" stroke="#B2B4C7" stroke-width="2" stroke-linecap="round"/>
<line x1="26" y1="381.497" x2="14.5469" y2="381.497" stroke="#B2B4C7" stroke-width="2" stroke-linecap="round"/>
<line x1="26" y1="357.716" x2="14.5469" y2="357.716" stroke="#B2B4C7" stroke-width="2" stroke-linecap="round"/>
<line x1="25.9062" y1="762.125" x2="1.00009" y2="762.125" stroke="#B2B4C7" stroke-width="2" stroke-linecap="round"/>
<line x1="26" y1="750.234" x2="14.5469" y2="750.234" stroke="#B2B4C7" stroke-width="2" stroke-linecap="round"/>
<line x1="26" y1="726.453" x2="14.5469" y2="726.453" stroke="#B2B4C7" stroke-width="2" stroke-linecap="round"/>
<line x1="26" y1="738.344" x2="14.5469" y2="738.344" stroke="#B2B4C7" stroke-width="2" stroke-linecap="round"/>
<line x1="26" y1="714.563" x2="14.5469" y2="714.563" stroke="#B2B4C7" stroke-width="2" stroke-linecap="round"/>
<line x1="25.9062" y1="286.372" x2="1.00009" y2="286.372" stroke="#B2B4C7" stroke-width="2" stroke-linecap="round"/>
<line x1="26" y1="274.482" x2="14.5469" y2="274.482" stroke="#B2B4C7" stroke-width="2" stroke-linecap="round"/>
<line x1="26" y1="250.701" x2="14.5469" y2="250.701" stroke="#B2B4C7" stroke-width="2" stroke-linecap="round"/>
<line x1="26" y1="262.591" x2="14.5469" y2="262.591" stroke="#B2B4C7" stroke-width="2" stroke-linecap="round"/>
<line x1="26" y1="238.81" x2="14.5469" y2="238.81" stroke="#B2B4C7" stroke-width="2" stroke-linecap="round"/>
<line x1="25.9062" y1="702.673" x2="1.00009" y2="702.673" stroke="#B2B4C7" stroke-width="2" stroke-linecap="round"/>
<line x1="26" y1="690.782" x2="14.5469" y2="690.782" stroke="#B2B4C7" stroke-width="2" stroke-linecap="round"/>
<line x1="26" y1="667.001" x2="14.5469" y2="667.001" stroke="#B2B4C7" stroke-width="2" stroke-linecap="round"/>
<line x1="26" y1="678.891" x2="14.5469" y2="678.891" stroke="#B2B4C7" stroke-width="2" stroke-linecap="round"/>
<line x1="26" y1="655.111" x2="14.5469" y2="655.111" stroke="#B2B4C7" stroke-width="2" stroke-linecap="round"/>
<line x1="25.9062" y1="226.92" x2="1.00009" y2="226.92" stroke="#B2B4C7" stroke-width="2" stroke-linecap="round"/>
<line x1="26" y1="215.029" x2="14.5469" y2="215.029" stroke="#B2B4C7" stroke-width="2" stroke-linecap="round"/>
<line x1="26" y1="191.248" x2="14.5469" y2="191.248" stroke="#B2B4C7" stroke-width="2" stroke-linecap="round"/>
<line x1="26" y1="203.138" x2="14.5469" y2="203.138" stroke="#B2B4C7" stroke-width="2" stroke-linecap="round"/>
<line x1="26" y1="179.358" x2="14.5469" y2="179.358" stroke="#B2B4C7" stroke-width="2" stroke-linecap="round"/>
<line x1="25.9062" y1="583.767" x2="1.00009" y2="583.767" stroke="#B2B4C7" stroke-width="2" stroke-linecap="round"/>
<line x1="26" y1="571.877" x2="14.5469" y2="571.877" stroke="#B2B4C7" stroke-width="2" stroke-linecap="round"/>
<line x1="26" y1="548.096" x2="14.5469" y2="548.096" stroke="#B2B4C7" stroke-width="2" stroke-linecap="round"/>
<line x1="26" y1="559.986" x2="14.5469" y2="559.986" stroke="#B2B4C7" stroke-width="2" stroke-linecap="round"/>
<line x1="26" y1="536.205" x2="14.5469" y2="536.205" stroke="#B2B4C7" stroke-width="2" stroke-linecap="round"/>
<line x1="25.9062" y1="108.014" x2="1.00009" y2="108.014" stroke="#B2B4C7" stroke-width="2" stroke-linecap="round"/>
<line x1="26" y1="96.1238" x2="14.5469" y2="96.1238" stroke="#B2B4C7" stroke-width="2" stroke-linecap="round"/>
<line x1="26" y1="72.3427" x2="14.5469" y2="72.3427" stroke="#B2B4C7" stroke-width="2" stroke-linecap="round"/>
<line x1="26" y1="84.2332" x2="14.5469" y2="84.2332" stroke="#B2B4C7" stroke-width="2" stroke-linecap="round"/>
<line x1="26" y1="60.4523" x2="14.5469" y2="60.4523" stroke="#B2B4C7" stroke-width="2" stroke-linecap="round"/>
<line x1="25.9062" y1="643.22" x2="1.00009" y2="643.22" stroke="#B2B4C7" stroke-width="2" stroke-linecap="round"/>
<line x1="26" y1="631.329" x2="14.5469" y2="631.329" stroke="#B2B4C7" stroke-width="2" stroke-linecap="round"/>
<line x1="26" y1="607.548" x2="14.5469" y2="607.548" stroke="#B2B4C7" stroke-width="2" stroke-linecap="round"/>
<line x1="26" y1="619.439" x2="14.5469" y2="619.439" stroke="#B2B4C7" stroke-width="2" stroke-linecap="round"/>
<line x1="26" y1="595.658" x2="14.5469" y2="595.658" stroke="#B2B4C7" stroke-width="2" stroke-linecap="round"/>
<line x1="25.9062" y1="167.467" x2="1.00009" y2="167.467" stroke="#B2B4C7" stroke-width="2" stroke-linecap="round"/>
<line x1="26" y1="155.577" x2="14.5469" y2="155.577" stroke="#B2B4C7" stroke-width="2" stroke-linecap="round"/>
<line x1="26" y1="131.796" x2="14.5469" y2="131.796" stroke="#B2B4C7" stroke-width="2" stroke-linecap="round"/>
<line x1="26" y1="143.686" x2="14.5469" y2="143.686" stroke="#B2B4C7" stroke-width="2" stroke-linecap="round"/>
<line x1="26" y1="119.905" x2="14.5469" y2="119.905" stroke="#B2B4C7" stroke-width="2" stroke-linecap="round"/>
<line x1="25.9062" y1="524.315" x2="1.00009" y2="524.315" stroke="#B2B4C7" stroke-width="2" stroke-linecap="round"/>
<line x1="26" y1="512.424" x2="14.5469" y2="512.424" stroke="#B2B4C7" stroke-width="2" stroke-linecap="round"/>
<line x1="26" y1="488.643" x2="14.5469" y2="488.643" stroke="#B2B4C7" stroke-width="2" stroke-linecap="round"/>
<line x1="26" y1="500.534" x2="14.5469" y2="500.534" stroke="#B2B4C7" stroke-width="2" stroke-linecap="round"/>
<line x1="26" y1="476.753" x2="14.5469" y2="476.753" stroke="#B2B4C7" stroke-width="2" stroke-linecap="round"/>
<line x1="25.9062" y1="48.562" x2="1.00009" y2="48.562" stroke="#B2B4C7" stroke-width="2" stroke-linecap="round"/>
<line x1="26" y1="36.6714" x2="14.5469" y2="36.6714" stroke="#B2B4C7" stroke-width="2" stroke-linecap="round"/>
<line x1="26" y1="12.8903" x2="14.5469" y2="12.8903" stroke="#B2B4C7" stroke-width="2" stroke-linecap="round"/>
<line x1="26" y1="24.7809" x2="14.5469" y2="24.7809" stroke="#B2B4C7" stroke-width="2" stroke-linecap="round"/>
<line x1="26" y1="0.999756" x2="14.5469" y2="0.999756" stroke="#B2B4C7" stroke-width="2" stroke-linecap="round"/>
</g>
</svg>
