<svg width="154" height="276" viewBox="0 0 154 276" fill="none" xmlns="http://www.w3.org/2000/svg">
<g filter="url(#filter0_f)">
<path d="M44.6601 38.8481C43.66 27.0508 27.1521 23.4127 22.2416 34.7758C20.0657 39.811 22.0098 47.5676 22.6858 52.9676C24.5776 68.0782 27.419 83.0812 31.4053 97.7841C46.0167 151.676 83.1772 217.847 133.374 246.78C134.367 247.352 132.429 245.262 132.238 245.109C129.409 242.839 126.706 240.418 124.097 237.901C117.802 231.828 112.08 225.17 106.77 218.231C90.7534 197.301 78.3857 173.643 68.8365 149.154C54.9459 113.532 47.8764 76.79 44.6601 38.8481Z" fill="url(#paint0_linear)"/>
</g>
<g filter="url(#filter1_f)">
<path d="M44.6601 38.8481C43.66 27.0508 27.1521 23.4127 22.2416 34.7758C20.0657 39.811 22.0098 47.5676 22.6858 52.9676C24.5776 68.0782 27.419 83.0812 31.4053 97.7841C46.0167 151.676 83.1772 217.847 133.374 246.78C134.367 247.352 132.429 245.262 132.238 245.109C129.409 242.839 126.706 240.418 124.097 237.901C117.802 231.828 112.08 225.17 106.77 218.231C90.7534 197.301 78.3857 173.643 68.8365 149.154C54.9459 113.532 47.8764 76.79 44.6601 38.8481Z" fill="url(#paint1_linear)"/>
</g>
<defs>
<filter id="filter0_f" x="-0.000976562" y="0.283203" width="153.66" height="275.332" filterUnits="userSpaceOnUse" color-interpolation-filters="sRGB">
<feFlood flood-opacity="0" result="BackgroundImageFix"/>
<feBlend mode="normal" in="SourceGraphic" in2="BackgroundImageFix" result="shape"/>
<feGaussianBlur stdDeviation="10" result="effect1_foregroundBlur"/>
</filter>
<filter id="filter1_f" x="18.999" y="19.2832" width="115.66" height="237.332" filterUnits="userSpaceOnUse" color-interpolation-filters="sRGB">
<feFlood flood-opacity="0" result="BackgroundImageFix"/>
<feBlend mode="normal" in="SourceGraphic" in2="BackgroundImageFix" result="shape"/>
<feGaussianBlur stdDeviation="0.5" result="effect1_foregroundBlur"/>
</filter>
<linearGradient id="paint0_linear" x1="33.7852" y1="35.4666" x2="115.085" y2="230.811" gradientUnits="userSpaceOnUse">
<stop stop-color="#9BFFFF"/>
<stop offset="1" stop-color="#56FFFF" stop-opacity="0"/>
</linearGradient>
<linearGradient id="paint1_linear" x1="33.7852" y1="35.4666" x2="115.085" y2="230.811" gradientUnits="userSpaceOnUse">
<stop stop-color="#45CAF4"/>
<stop offset="1" stop-color="#ABF1FB" stop-opacity="0"/>
</linearGradient>
</defs>
</svg>
