<svg width="237" height="298" viewBox="0 0 237 298" fill="none" xmlns="http://www.w3.org/2000/svg">
<g opacity="0.75" filter="url(#filter0_f)">
<path d="M97.724 266.141C86.9847 259.183 77.4102 250.581 69.5126 240.737C61.615 230.893 55.3316 219.84 50.894 208.051C46.4564 196.261 43.8647 183.736 43.2541 171.072C42.6145 158.348 43.956 145.486 47.201 132.971C50.4461 120.455 55.4692 108.351 62.1638 97.0853C68.8585 85.8194 77.1909 75.4832 86.7792 66.4234C105.922 48.3954 130.2 35.8602 155.258 30.7082C130.32 36.9103 106.97 50.3732 89.0834 68.713C80.1715 77.8666 72.5494 88.2049 66.6037 99.2301C60.658 110.255 56.326 122 53.8396 133.973C51.3243 145.888 50.5918 158.062 51.7245 169.862C52.8571 181.662 55.7921 193.119 60.4522 203.754C65.0495 214.422 71.3429 224.209 78.9702 232.858C86.5685 241.448 95.6601 248.743 105.603 254.557C108.786 256.39 109.611 260.486 107.47 263.676C105.358 266.924 101.091 268.027 97.9704 266.162C97.8448 266.227 97.753 266.2 97.724 266.141Z" fill="url(#paint0_linear)"/>
</g>
<path d="M97.724 266.141C86.9847 259.183 77.4102 250.581 69.5126 240.737C61.615 230.893 55.3316 219.84 50.894 208.051C46.4564 196.261 43.8647 183.736 43.2541 171.072C42.6145 158.348 43.956 145.486 47.201 132.971C50.4461 120.455 55.4692 108.351 62.1638 97.0853C68.8585 85.8194 77.1909 75.4832 86.7792 66.4234C105.922 48.3954 130.2 35.8602 155.258 30.7082C130.32 36.9103 106.97 50.3732 89.0834 68.713C80.1715 77.8666 72.5494 88.2049 66.6037 99.2301C60.658 110.255 56.326 122 53.8396 133.973C51.3243 145.888 50.5918 158.062 51.7245 169.862C52.8571 181.662 55.7921 193.119 60.4522 203.754C65.0495 214.422 71.3429 224.209 78.9702 232.858C86.5685 241.448 95.6601 248.743 105.603 254.557C108.786 256.39 109.611 260.486 107.47 263.676C105.358 266.924 101.091 268.027 97.9704 266.162C97.8448 266.227 97.753 266.2 97.724 266.141Z" fill="url(#paint1_linear)"/>
<defs>
<filter id="filter0_f" x="13.0989" y="0.708191" width="172.16" height="296.36" filterUnits="userSpaceOnUse" color-interpolation-filters="sRGB">
<feFlood flood-opacity="0" result="BackgroundImageFix"/>
<feBlend mode="normal" in="SourceGraphic" in2="BackgroundImageFix" result="shape"/>
<feGaussianBlur stdDeviation="15" result="effect1_foregroundBlur"/>
</filter>
<linearGradient id="paint0_linear" x1="106.376" y1="259.513" x2="119.988" y2="36.3243" gradientUnits="userSpaceOnUse">
<stop stop-color="#45CAF4"/>
<stop offset="1" stop-color="#45CAF4" stop-opacity="0"/>
</linearGradient>
<linearGradient id="paint1_linear" x1="106.376" y1="259.513" x2="119.988" y2="36.3243" gradientUnits="userSpaceOnUse">
<stop stop-color="#45CAF4"/>
<stop offset="1" stop-color="#45CAF4" stop-opacity="0"/>
</linearGradient>
</defs>
</svg>
