<?xml version="1.0" encoding="utf-8"?>
<!-- Generator: Adobe Illustrator 24.3.0, SVG Export Plug-In . SVG Version: 6.00 Build 0)  -->
<svg version="1.1" id="Шар_2" xmlns="http://www.w3.org/2000/svg" xmlns:xlink="http://www.w3.org/1999/xlink" x="0px" y="0px"
	 viewBox="0 0 449 522" style="enable-background:new 0 0 449 522;" xml:space="preserve">
<style type="text/css">
	.st0{fill:url(#SVGID_1_);stroke:#FFFFFF;stroke-miterlimit:10;}
</style>
<linearGradient id="SVGID_1_" gradientUnits="userSpaceOnUse" x1="213.3393" y1="33.2585" x2="213.3393" y2="477.8101">
	<stop  offset="0" style="stop-color:#45CAF4;stop-opacity:0"/>
	<stop  offset="0.7782" style="stop-color:#45CAF4"/>
</linearGradient>
<path class="st0" d="M304.56,130.76c0,0-1.19-24,2.38-33.7s4.6-12.43,4.6-22.47s-0.85-24.68-20.77-36.6
	c-19.91-11.91-60.94,1.53-48.85,9.02c0,0-6.13,9.53-9.53,17.19s-4.77,8.17-3.57,11.57c1.19,3.4,3.23,7.32,3.23,7.32l-3.66,3.91
	c0,0-4.51,3.4,0,6.98l1.62,18.89c0,0,1.53,3.57-1.19,10.21c-2.72,6.64,6.13,9.02,10.21,9.7c4.09,0.68,12.26,0,12.6,4.77
	c0.34,4.77-0.34,3.57-0.34,3.57l-8.34,0.13c0,0-4.43,1.74-1.87,5.31s10.04,8.68,6.64,11.4c-3.4,2.72-9.87,6.3-17.7,6.64
	s-26.72,9.19-27.74,12.6c-1.02,3.4-5.96,9.53-8,14.47c-2.04,4.94-0.68,10.72-2.38,14.47c-1.7,3.74,0.68,6.98-1.36,10.04
	s0,6.47-1.53,10.21c-1.53,3.74-7.83,28.09-18.21,43.74c-1.86,2.81-2.55,7.32,0.68,13.45c0,0-8.17-0.85-5.45,8.34
	c0,0-7.66-0.51-9.19,4.6c0,0-12.09-0.68-10.21,8.68c0,0-19.23,20.94-46.3,30.3c0,0-7.15-3.4-10.04,2.21c0,0-3.74-11.74-16.51-10.72
	c0,0-9.02-7.83-11.91-6.98c-2.89,0.85-5.28,2.72-5.96,5.28s-6.98,4.09-9.36,12.43c0,0-6.13-1.36-5.62,2.55
	c0.51,3.91,5.45,14.81,13.79,18.89c0,0,2.04,4.94,6.47,3.91c4.43-1.02,4.26,0.85,4.26,0.85s-22.7,2.21-24.54,20.43
	c-1.84,18.21-1.67,25.7,4.46,32.17c6.13,6.47,10.55,13.45,25.02,18.72c14.47,5.28,25.19,12.94,54.64,13.45
	c0,0,21.45,7.83,53.11,10.38c0,0,7.49-2.21,11.74,0l0.34,3.91c0,0,13.45-1.7,20.43,3.74c6.98,5.45,19.57,4.77,23.49,7.66
	c3.91,2.89,29.62,4.6,49.02,2.38c19.4-2.21,16.51,3.74,25.87-8.85c0,0,2.38,0,6.64-3.74c4.26-3.74,16.17-8.34,19.4-10.38
	s22.98-0.17,37.96-33.53c0,0,7.66,0.68,10.89-1.87c0,0,0-16-6.13-27.91s-4.26-25.36-11.23-34.38c0,0-1.36-9.19-5.45-16.17
	c0,0,23.83-5.79,25.36-32c1.53-26.21-1.7-35.57-3.4-40.85c-1.7-5.28,3.06-3.74,0-28.43c-3.06-24.68-0.17-42.21-6.98-52.26
	s-21.11-29.79-25.36-34.21c-4.26-4.43-8.17-3.06-12.77-7.32c-4.6-4.26-14.64,0.85-18.38-5.79
	C315.79,132.46,313.58,130.42,304.56,130.76z"/>
</svg>
