<svg width="300" height="356" viewBox="0 0 300 356" fill="none" xmlns="http://www.w3.org/2000/svg">
<g opacity="0.1" filter="url(#filter0_f)">
<path d="M271.946 55.5671C291.004 -4.54669 203.029 -5.99429 172.246 64.3668C156.68 99.944 159.666 150.524 163.011 201.221C210.85 145.007 261.954 87.0855 271.946 55.5671Z" fill="url(#paint0_linear)"/>
<g style="mix-blend-mode:hard-light">
<path d="M288.596 221.248C288.598 140.241 263.562 64.6784 250.966 28.9046C245.782 14.185 226.385 9.99409 213.453 18.7288C191.433 32.0067 147.07 64.2639 102.29 95.1882C55.7559 127.323 -11.3477 162.85 19.4493 268.2C42.7832 348.021 156.637 344.409 156.637 344.409C156.637 344.409 288.592 342.213 288.596 221.248Z" fill="url(#paint1_linear)"/>
</g>
</g>
<defs>
<filter id="filter0_f" x="0.640625" y="0" width="298.955" height="355.434" filterUnits="userSpaceOnUse" color-interpolation-filters="sRGB">
<feFlood flood-opacity="0" result="BackgroundImageFix"/>
<feBlend mode="normal" in="SourceGraphic" in2="BackgroundImageFix" result="shape"/>
<feGaussianBlur stdDeviation="5.5" result="effect1_foregroundBlur"/>
</filter>
<linearGradient id="paint0_linear" x1="274.621" y1="52.6364" x2="168.366" y2="35.042" gradientUnits="userSpaceOnUse">
<stop stop-color="#75E3B5"/>
<stop offset="1" stop-color="#75E3E3" stop-opacity="0"/>
</linearGradient>
<linearGradient id="paint1_linear" x1="260.738" y1="259.369" x2="122.915" y2="206.586" gradientUnits="userSpaceOnUse">
<stop stop-color="#4AE792"/>
<stop offset="1" stop-color="#4AE792" stop-opacity="0"/>
</linearGradient>
</defs>
</svg>
