<svg width="300" height="356" viewBox="0 0 300 356" fill="none" xmlns="http://www.w3.org/2000/svg">
<g opacity="0.05" filter="url(#filter0_f)">
<path d="M271.947 55.5671C291.005 -4.54669 203.03 -5.99429 172.247 64.3668C156.681 99.944 159.667 150.524 163.012 201.221C210.851 145.007 261.955 87.0855 271.947 55.5671Z" fill="url(#paint0_linear)"/>
<g style="mix-blend-mode:hard-light">
<path d="M288.597 221.248C288.599 140.241 263.563 64.6784 250.967 28.9046C245.783 14.185 226.386 9.9941 213.454 18.7288C191.434 32.0067 147.071 64.2639 102.291 95.1882C55.7568 127.323 -11.3467 162.85 19.4503 268.2C42.7842 348.021 156.638 344.409 156.638 344.409C156.638 344.409 288.593 342.213 288.597 221.248Z" fill="url(#paint1_linear)"/>
</g>
</g>
<defs>
<filter id="filter0_f" x="0.641602" y="0" width="298.955" height="355.434" filterUnits="userSpaceOnUse" color-interpolation-filters="sRGB">
<feFlood flood-opacity="0" result="BackgroundImageFix"/>
<feBlend mode="normal" in="SourceGraphic" in2="BackgroundImageFix" result="shape"/>
<feGaussianBlur stdDeviation="5.5" result="effect1_foregroundBlur"/>
</filter>
<linearGradient id="paint0_linear" x1="274.622" y1="52.6364" x2="168.367" y2="35.042" gradientUnits="userSpaceOnUse">
<stop stop-color="#55AEFF"/>
<stop offset="1" stop-color="#7594E3" stop-opacity="0"/>
</linearGradient>
<linearGradient id="paint1_linear" x1="260.738" y1="259.369" x2="122.916" y2="206.586" gradientUnits="userSpaceOnUse">
<stop stop-color="#63ABFF"/>
<stop offset="1" stop-color="#70CBFF" stop-opacity="0"/>
</linearGradient>
</defs>
</svg>
