<svg width="434" height="361" viewBox="0 0 434 361" fill="none" xmlns="http://www.w3.org/2000/svg">
<g opacity="0.1" filter="url(#filter0_f)">
<path d="M340.746 60.7885C359.804 0.674748 271.829 -0.772856 241.045 69.5883C225.48 105.165 228.466 155.745 231.811 206.442C279.65 150.228 330.754 92.307 340.746 60.7885Z" fill="url(#paint0_linear)"/>
<g style="mix-blend-mode:hard-light">
<path d="M357.395 226.469C357.398 145.462 332.362 69.8998 319.765 34.126C314.582 19.4064 295.185 15.2155 282.252 23.9502C260.232 37.2282 215.87 69.4853 171.089 100.41C124.555 132.545 57.4518 168.071 88.2487 273.421C111.583 353.242 225.437 349.63 225.437 349.63C225.437 349.63 357.391 347.434 357.395 226.469Z" fill="url(#paint1_linear)"/>
</g>
<path d="M313.936 309.6C310.247 311.781 306.952 313.903 304.49 316.108C272.378 344.864 223.15 341.813 171.02 328.18C116.034 313.8 26.8467 287.887 12.3664 219.263C4.16312 180.387 33.9316 128.164 73.8601 85.7929C110.232 47.1955 154.606 16.772 194.803 12.0556C204.875 10.8738 217.165 10.7622 230.353 12.4785C306.712 28.232 347.931 70.9244 354.227 157.806C360.522 244.688 353.416 261.459 313.936 309.6Z" fill="url(#paint2_linear)" fill-opacity="0.78"/>
<g style="mix-blend-mode:color-dodge">
<path d="M420.692 219.391C432.654 136.286 397.41 46.6952 316.809 46.6952C253.177 46.6952 217.219 95.3418 168.334 127.296C108.3 166.538 62.2803 193.601 62.2803 233.35C62.2803 305.466 169.8 343.767 272.356 302.713C347.184 272.759 408.73 302.495 420.692 219.391Z" fill="url(#paint3_radial)" fill-opacity="0.8"/>
</g>
</g>
<defs>
<filter id="filter0_f" x="-0.00012207" y="0.177124" width="433.969" height="360.478" filterUnits="userSpaceOnUse" color-interpolation-filters="sRGB">
<feFlood flood-opacity="0" result="BackgroundImageFix"/>
<feBlend mode="normal" in="SourceGraphic" in2="BackgroundImageFix" result="shape"/>
<feGaussianBlur stdDeviation="5.5" result="effect1_foregroundBlur"/>
</filter>
<linearGradient id="paint0_linear" x1="343.421" y1="57.8579" x2="237.165" y2="40.2634" gradientUnits="userSpaceOnUse">
<stop stop-color="#E375A0"/>
<stop offset="1" stop-color="#E375A0" stop-opacity="0"/>
</linearGradient>
<linearGradient id="paint1_linear" x1="329.537" y1="264.591" x2="191.714" y2="211.807" gradientUnits="userSpaceOnUse">
<stop stop-color="#7EA1E4"/>
<stop offset="1" stop-color="#70CBFF" stop-opacity="0"/>
</linearGradient>
<linearGradient id="paint2_linear" x1="302.601" y1="163.231" x2="79.1016" y2="204.783" gradientUnits="userSpaceOnUse">
<stop stop-color="#85FAFE" stop-opacity="0"/>
<stop offset="1" stop-color="#85FAFE"/>
</linearGradient>
<radialGradient id="paint3_radial" cx="0" cy="0" r="1" gradientUnits="userSpaceOnUse" gradientTransform="translate(327.169 89.3734) rotate(95.6229) scale(163.542 182.657)">
<stop stop-color="#65ECE8"/>
<stop offset="1" stop-color="#8BECE9" stop-opacity="0"/>
</radialGradient>
</defs>
</svg>
