<svg width="434" height="361" viewBox="0 0 434 361" fill="none" xmlns="http://www.w3.org/2000/svg">
<g opacity="0.1" filter="url(#filter0_f)">
<path d="M340.746 60.7885C359.804 0.674748 271.829 -0.772856 241.045 69.5883C225.48 105.165 228.466 155.745 231.811 206.442C279.65 150.228 330.754 92.307 340.746 60.7885Z" fill="url(#paint0_linear)"/>
<g style="mix-blend-mode:hard-light">
<path d="M357.395 226.469C357.398 145.462 332.362 69.8998 319.765 34.126C314.582 19.4064 295.184 15.2155 282.252 23.9502C260.232 37.2282 215.87 69.4853 171.089 100.41C124.555 132.545 57.4517 168.071 88.2486 273.421C111.583 353.242 225.437 349.63 225.437 349.63C225.437 349.63 357.391 347.434 357.395 226.469Z" fill="url(#paint1_linear)"/>
</g>
<path d="M313.936 309.6C310.247 311.781 306.952 313.903 304.49 316.108C272.378 344.864 223.15 341.813 171.02 328.18C116.034 313.8 26.8468 287.887 12.3665 219.263C4.16324 180.387 33.9318 128.164 73.8603 85.7929C110.232 47.1955 154.606 16.772 194.803 12.0556C204.875 10.8738 217.165 10.7622 230.353 12.4785C306.712 28.232 347.931 70.9244 354.227 157.806C360.523 244.688 353.417 261.459 313.936 309.6Z" fill="url(#paint2_linear)" fill-opacity="0.78"/>
<path d="M420.692 219.391C432.654 136.286 397.41 46.6952 316.809 46.6952C253.177 46.6952 217.219 95.3418 168.334 127.296C108.3 166.538 62.2803 193.601 62.2803 233.35C62.2803 305.466 169.8 343.767 272.356 302.713C347.184 272.759 408.73 302.495 420.692 219.391Z" fill="url(#paint3_radial)"/>
<path d="M420.692 219.391C432.654 136.286 397.41 46.6952 316.809 46.6952C253.177 46.6952 217.219 95.3418 168.334 127.296C108.3 166.538 62.2803 193.601 62.2803 233.35C62.2803 305.466 169.8 343.767 272.356 302.713C347.184 272.759 408.73 302.495 420.692 219.391Z" fill="url(#paint4_linear)"/>
</g>
<defs>
<filter id="filter0_f" x="0" y="0.177124" width="433.969" height="360.478" filterUnits="userSpaceOnUse" color-interpolation-filters="sRGB">
<feFlood flood-opacity="0" result="BackgroundImageFix"/>
<feBlend mode="normal" in="SourceGraphic" in2="BackgroundImageFix" result="shape"/>
<feGaussianBlur stdDeviation="5.5" result="effect1_foregroundBlur"/>
</filter>
<linearGradient id="paint0_linear" x1="343.421" y1="57.8579" x2="237.165" y2="40.2634" gradientUnits="userSpaceOnUse">
<stop stop-color="#E375A0"/>
<stop offset="1" stop-color="#E375A0" stop-opacity="0"/>
</linearGradient>
<linearGradient id="paint1_linear" x1="329.537" y1="264.591" x2="191.714" y2="211.807" gradientUnits="userSpaceOnUse">
<stop stop-color="#D67EE4"/>
<stop offset="1" stop-color="#70CBFF" stop-opacity="0"/>
</linearGradient>
<linearGradient id="paint2_linear" x1="302.601" y1="163.231" x2="79.1017" y2="204.783" gradientUnits="userSpaceOnUse">
<stop stop-color="#DF0345" stop-opacity="0"/>
<stop offset="1" stop-color="#FE85B8"/>
</linearGradient>
<radialGradient id="paint3_radial" cx="0" cy="0" r="1" gradientUnits="userSpaceOnUse" gradientTransform="translate(346.63 293.815) rotate(-135.728) scale(206.205 383.886)">
<stop offset="0.566389" stop-color="#E375A0" stop-opacity="0"/>
<stop offset="1" stop-color="#FF91C6"/>
</radialGradient>
<linearGradient id="paint4_linear" x1="386.375" y1="79.1451" x2="381.983" y2="155.766" gradientUnits="userSpaceOnUse">
<stop stop-color="white"/>
<stop offset="1" stop-color="white" stop-opacity="0"/>
</linearGradient>
</defs>
</svg>
